<svg version="1.1" viewBox="0.0 0.0 600.0 371.0" fill="none" stroke="none" stroke-linecap="square" stroke-miterlimit="10" width="600" height="371" xmlns:xlink="http://www.w3.org/1999/xlink" xmlns="http://www.w3.org/2000/svg"><path fill="#ffffff" d="M0 0L600.0 0L600.0 371.0L0 371.0L0 0Z" fill-rule="nonzero"/><path fill="#cc0000" d="M300.0 54.916668C350.92905 54.916668 398.3187 80.969345 425.60785 123.97017L300.0 203.68333Z" fill-rule="nonzero"/><path fill="#e69138" d="M425.60785 123.97017C452.897 166.971 456.29263 220.94312 434.6081 267.0251L300.0 203.68333Z" fill-rule="nonzero"/><path fill="#434343" d="M228.33112 73.31811C250.28972 61.24626 274.94186 54.916668 300.0 54.916668L300.0 203.68333Z" fill-rule="nonzero"/><path fill="#f3f3f3" d="M158.5145 157.7119C170.20718 121.7255 195.17311 91.546875 228.33112 73.31811L300.0 203.68333Z" fill-rule="nonzero"/><path fill="#674ea7" d="M151.52689 194.3422C152.31049 181.88734 154.65813 169.5806 158.5145 157.7119L300.0 203.68333Z" fill-rule="nonzero"/><path fill="#3c78d8" d="M245.23534 342.00308C185.31158 318.2776 147.48007 258.66464 151.52689 194.3422L300.0 203.68333Z" fill-rule="nonzero"/><path fill="#f1c232" d="M434.6081 267.0251C401.16974 338.08527 318.25488 370.91357 245.23534 342.00308L300.0 203.68333Z" fill-rule="nonzero"/><path fill="#1a1a1a" d="M19.534374 66.916664L19.534374 58.385414L22.33125 58.385414Q23.721874 58.385414 24.409374 58.96354Q25.1125 59.52604 25.1125 60.65104Q25.1125 61.260414 24.76875 61.729164Q24.440624 62.18229 23.846874 62.43229Q24.55 62.61979 24.940624 63.166664Q25.346874 63.697914 25.346874 64.447914Q25.346874 65.604164 24.596874 66.260414Q23.8625 66.916664 22.503124 66.916664L19.534374 66.916664ZM20.659374 62.93229L20.659374 65.99479L22.51875 65.99479Q23.315624 65.99479 23.76875 65.58854Q24.221874 65.18229 24.221874 64.46354Q24.221874 62.93229 22.534374 62.93229L20.659374 62.93229ZM20.659374 62.02604L22.3625 62.02604Q23.096874 62.02604 23.534374 61.666664Q23.9875 61.291664 23.9875 60.65104Q23.9875 59.947914 23.58125 59.635414Q23.175 59.30729 22.33125 59.30729L20.659374 59.30729L20.659374 62.02604ZM27.55 66.916664L26.471874 66.916664L26.471874 57.916664L27.55 57.916664L27.55 66.916664ZM33.284374 66.916664Q33.190624 66.729164 33.128124 66.24479Q32.378124 67.041664 31.33125 67.041664Q30.39375 67.041664 29.784374 66.510414Q29.190624 65.979164 29.190624 65.15104Q29.190624 64.166664 29.940624 63.61979Q30.690624 63.072914 32.065624 63.072914L33.1125 63.072914L33.1125 62.572914Q33.1125 62.010414 32.76875 61.68229Q32.440624 61.33854 31.76875 61.33854Q31.190624 61.33854 30.8 61.635414Q30.409374 61.916664 30.409374 62.33854L29.315624 62.33854Q29.315624 61.854164 29.64375 61.416664Q29.9875 60.979164 30.565624 60.729164Q31.14375 60.46354 31.83125 60.46354Q32.940624 60.46354 33.55 61.010414Q34.175 61.55729 34.20625 62.510414L34.20625 65.43229Q34.20625 66.30729 34.425 66.822914L34.425 66.916664L33.284374 66.916664ZM31.4875 66.08854Q32.003124 66.08854 32.45625 65.822914Q32.909374 65.55729 33.1125 65.135414L33.1125 63.83854L32.26875 63.83854Q30.26875 63.83854 30.26875 65.010414Q30.26875 65.510414 30.6125 65.80729Q30.95625 66.08854 31.4875 66.08854ZM38.909374 66.15104Q39.4875 66.15104 39.925 65.80729Q40.3625 65.447914 40.409374 64.916664L41.440624 64.916664Q41.409374 65.46354 41.05 65.96354Q40.70625 66.447914 40.128124 66.74479Q39.565624 67.041664 38.909374 67.041664Q37.6125 67.041664 36.846874 66.18229Q36.096874 65.30729 36.096874 63.80729L36.096874 63.61979Q36.096874 62.697914 36.425 61.979164Q36.76875 61.260414 37.39375 60.86979Q38.034374 60.46354 38.909374 60.46354Q39.971874 60.46354 40.675 61.104164Q41.39375 61.729164 41.440624 62.760414L40.409374 62.760414Q40.3625 62.135414 39.940624 61.74479Q39.51875 61.354164 38.909374 61.354164Q38.08125 61.354164 37.628124 61.947914Q37.175 62.541664 37.175 63.666664L37.175 63.86979Q37.175 64.96354 37.628124 65.55729Q38.08125 66.15104 38.909374 66.15104ZM44.14375 63.979164L43.45625 64.68229L43.45625 66.916664L42.378124 66.916664L42.378124 57.916664L43.45625 57.916664L43.45625 63.354164L44.034374 62.666664L46.01875 60.572914L47.33125 60.572914L44.8625 63.229164L47.628124 66.916664L46.346874 66.916664L44.14375 63.979164Z" fill-rule="nonzero"/><path fill="#9e9e9e" d="M24.440624 78.604164Q24.440624 79.24479 24.096874 79.74479Q23.753124 80.24479 23.190624 80.52604Q23.846874 80.80729 24.2375 81.36979Q24.628124 81.916664 24.628124 82.61979Q24.628124 83.71354 23.878124 84.385414Q23.14375 85.041664 21.925 85.041664Q20.690624 85.041664 19.940624 84.385414Q19.20625 83.71354 19.20625 82.61979Q19.20625 81.916664 19.58125 81.36979Q19.95625 80.80729 20.628124 80.52604Q20.065624 80.24479 19.7375 79.74479Q19.409374 79.24479 19.409374 78.604164Q19.409374 77.52604 20.096874 76.90104Q20.784374 76.260414 21.925 76.260414Q23.05 76.260414 23.7375 76.90104Q24.440624 77.52604 24.440624 78.604164ZM23.55 82.58854Q23.55 81.86979 23.096874 81.43229Q22.64375 80.979164 21.909374 80.979164Q21.175 80.979164 20.721874 81.43229Q20.284374 81.86979 20.284374 82.604164Q20.284374 83.322914 20.721874 83.74479Q21.159374 84.15104 21.925 84.15104Q22.675 84.15104 23.1125 83.729164Q23.55 83.30729 23.55 82.58854ZM21.925 77.15104Q21.284374 77.15104 20.878124 77.55729Q20.4875 77.947914 20.4875 78.635414Q20.4875 79.27604 20.878124 79.68229Q21.26875 80.08854 21.909374 80.08854Q22.565624 80.08854 22.95625 79.68229Q23.346874 79.27604 23.346874 78.635414Q23.346874 77.979164 22.940624 77.572914Q22.534374 77.15104 21.925 77.15104ZM26.39375 84.354164Q26.39375 84.072914 26.55 83.885414Q26.721874 83.697914 27.05 83.697914Q27.39375 83.697914 27.565624 83.885414Q27.7375 84.072914 27.7375 84.354164Q27.7375 84.61979 27.565624 84.80729Q27.39375 84.979164 27.05 84.979164Q26.721874 84.979164 26.55 84.80729Q26.39375 84.61979 26.39375 84.354164ZM34.6125 81.27604Q34.6125 83.18229 33.95625 84.11979Q33.315624 85.041664 31.925 85.041664Q30.565624 85.041664 29.909374 84.135414Q29.253124 83.229164 29.221874 81.416664L29.221874 79.979164Q29.221874 78.08854 29.8625 77.18229Q30.51875 76.260414 31.909374 76.260414Q33.284374 76.260414 33.940624 77.15104Q34.596874 78.02604 34.6125 79.86979L34.6125 81.27604ZM33.51875 79.791664Q33.51875 78.416664 33.128124 77.791664Q32.753124 77.15104 31.909374 77.15104Q31.08125 77.15104 30.690624 77.791664Q30.315624 78.416664 30.315624 79.71354L30.315624 81.447914Q30.315624 82.822914 30.70625 83.49479Q31.1125 84.15104 31.925 84.15104Q32.721874 84.15104 33.1125 83.52604Q33.503124 82.90104 33.51875 81.572914L33.51875 79.791664ZM36.159374 78.02604Q36.159374 77.260414 36.64375 76.760414Q37.14375 76.260414 37.909374 76.260414Q38.690624 76.260414 39.175 76.760414Q39.659374 77.260414 39.659374 78.05729L39.659374 78.479164Q39.659374 79.24479 39.159374 79.74479Q38.675 80.229164 37.925 80.229164Q37.159374 80.229164 36.659374 79.74479Q36.159374 79.24479 36.159374 78.43229L36.159374 78.02604ZM36.971874 78.479164Q36.971874 78.93229 37.221874 79.229164Q37.4875 79.52604 37.925 79.52604Q38.346874 79.52604 38.596874 79.24479Q38.846874 78.947914 38.846874 78.447914L38.846874 78.02604Q38.846874 77.572914 38.596874 77.27604Q38.346874 76.96354 37.909374 76.96354Q37.471874 76.96354 37.221874 77.27604Q36.971874 77.572914 36.971874 78.041664L36.971874 78.479164ZM40.315624 82.822914Q40.315624 82.05729 40.8 81.572914Q41.3 81.072914 42.065624 81.072914Q42.83125 81.072914 43.315624 81.572914Q43.815624 82.05729 43.815624 82.86979L43.815624 83.27604Q43.815624 84.041664 43.33125 84.541664Q42.846874 85.041664 42.08125 85.041664Q41.315624 85.041664 40.815624 84.55729Q40.315624 84.05729 40.315624 83.24479L40.315624 82.822914ZM41.128124 83.27604Q41.128124 83.74479 41.378124 84.041664Q41.64375 84.33854 42.08125 84.33854Q42.503124 84.33854 42.753124 84.05729Q43.003124 83.760414 43.003124 83.260414L43.003124 82.822914Q43.003124 82.354164 42.7375 82.072914Q42.4875 81.77604 42.065624 81.77604Q41.64375 81.77604 41.378124 82.072914Q41.128124 82.354164 41.128124 82.854164L41.128124 83.27604ZM38.175 84.27604L37.55 83.885414L41.721874 77.21354L42.33125 77.604164L38.175 84.27604Z" fill-rule="nonzero"/><path stroke="#757575" stroke-width="1.0" stroke-linecap="butt" d="M18.55 71.416664L145.23334 71.416664L264.85306 66.79509" fill-rule="nonzero"/><path fill="#9e9e9e" d="M266.85306 66.79509C266.85306 65.69052 265.95764 64.79509 264.85306 64.79509C263.7485 64.79509 262.85306 65.69052 262.85306 66.79509C262.85306 67.89966 263.7485 68.79509 264.85306 68.79509C265.95764 68.79509 266.85306 67.89966 266.85306 66.79509" fill-rule="nonzero"/><path fill="#1a1a1a" d="M21.378124 106.40976L21.55 107.53476L21.784374 106.519135L23.471874 100.56601L24.425 100.56601L26.065624 106.519135L26.3 107.550385L26.4875 106.394135L27.815624 100.56601L28.940624 100.56601L26.878124 109.09726L25.846874 109.09726L24.08125 102.87851L23.95625 102.22226L23.815624 102.87851L22.003124 109.09726L20.971874 109.09726L18.909374 100.56601L20.034374 100.56601L21.378124 106.40976ZM31.45625 103.519135Q32.175 102.644135 33.33125 102.644135Q35.346874 102.644135 35.3625 104.90976L35.3625 109.09726L34.26875 109.09726L34.26875 104.894135Q34.26875 104.22226 33.95625 103.894135Q33.659374 103.56601 33.003124 103.56601Q32.471874 103.56601 32.065624 103.84726Q31.675 104.12851 31.45625 104.581635L31.45625 109.09726L30.378124 109.09726L30.378124 100.09726L31.45625 100.09726L31.45625 103.519135ZM38.55 109.09726L37.471874 109.09726L37.471874 102.75351L38.55 102.75351L38.55 109.09726ZM37.378124 101.081635Q37.378124 100.81601 37.534374 100.62851Q37.70625 100.44101 38.01875 100.44101Q38.33125 100.44101 38.4875 100.62851Q38.659374 100.81601 38.659374 101.081635Q38.659374 101.331635 38.4875 101.519135Q38.33125 101.69101 38.01875 101.69101Q37.70625 101.69101 37.534374 101.519135Q37.378124 101.331635 37.378124 101.081635ZM41.846874 101.22226L41.846874 102.75351L43.01875 102.75351L43.01875 103.59726L41.846874 103.59726L41.846874 107.519135Q41.846874 107.90976 42.003124 108.09726Q42.159374 108.28476 42.534374 108.28476Q42.721874 108.28476 43.05 108.22226L43.05 109.09726Q42.628124 109.22226 42.221874 109.22226Q41.503124 109.22226 41.128124 108.78476Q40.753124 108.331635 40.753124 107.519135L40.753124 103.59726L39.596874 103.59726L39.596874 102.75351L40.753124 102.75351L40.753124 101.22226L41.846874 101.22226ZM47.003124 109.22226Q45.70625 109.22226 44.89375 108.37851Q44.096874 107.519135 44.096874 106.09726L44.096874 105.90976Q44.096874 104.956635 44.45625 104.22226Q44.815624 103.47226 45.45625 103.06601Q46.1125 102.644135 46.8625 102.644135Q48.096874 102.644135 48.784374 103.456635Q49.471874 104.269135 49.471874 105.78476L49.471874 106.237885L45.175 106.237885Q45.20625 107.175385 45.721874 107.75351Q46.253124 108.331635 47.065624 108.331635Q47.628124 108.331635 48.01875 108.09726Q48.425 107.862885 48.7375 107.47226L49.39375 107.987885Q48.596874 109.22226 47.003124 109.22226ZM46.8625 103.53476Q46.20625 103.53476 45.753124 104.019135Q45.315624 104.487885 45.221874 105.34726L48.39375 105.34726L48.39375 105.269135Q48.346874 104.44101 47.940624 103.987885Q47.55 103.53476 46.8625 103.53476Z" fill-rule="nonzero"/><path fill="#9e9e9e" d="M22.815624 127.09726L21.7375 127.09726L21.7375 119.87851L19.55 120.675385L19.55 119.69101L22.659374 118.519135L22.815624 118.519135L22.815624 127.09726ZM31.846874 127.09726L26.253124 127.09726L26.253124 126.31601L29.20625 123.03476Q29.8625 122.28476 30.1125 121.831635Q30.3625 121.362885 30.3625 120.862885Q30.3625 120.19101 29.95625 119.769135Q29.565624 119.331635 28.878124 119.331635Q28.08125 119.331635 27.628124 119.800385Q27.175 120.25351 27.175 121.081635L26.096874 121.081635Q26.096874 119.894135 26.846874 119.175385Q27.6125 118.44101 28.878124 118.44101Q30.08125 118.44101 30.76875 119.06601Q31.45625 119.69101 31.45625 120.737885Q31.45625 121.987885 29.846874 123.737885L27.565624 126.206635L31.846874 126.206635L31.846874 127.09726ZM33.39375 126.53476Q33.39375 126.25351 33.55 126.06601Q33.721874 125.87851 34.05 125.87851Q34.39375 125.87851 34.565624 126.06601Q34.7375 126.25351 34.7375 126.53476Q34.7375 126.800385 34.565624 126.987885Q34.39375 127.15976 34.05 127.15976Q33.721874 127.15976 33.55 126.987885Q33.39375 126.800385 33.39375 126.53476ZM41.6125 123.456635Q41.6125 125.362885 40.95625 126.300385Q40.315624 127.22226 38.925 127.22226Q37.565624 127.22226 36.909374 126.31601Q36.253124 125.40976 36.221874 123.59726L36.221874 122.15976Q36.221874 120.269135 36.8625 119.362885Q37.51875 118.44101 38.909374 118.44101Q40.284374 118.44101 40.940624 119.331635Q41.596874 120.206635 41.6125 122.050385L41.6125 123.456635ZM40.51875 121.97226Q40.51875 120.59726 40.128124 119.97226Q39.753124 119.331635 38.909374 119.331635Q38.08125 119.331635 37.690624 119.97226Q37.315624 120.59726 37.315624 121.894135L37.315624 123.62851Q37.315624 125.00351 37.70625 125.675385Q38.1125 126.331635 38.925 126.331635Q39.721874 126.331635 40.1125 125.706635Q40.503124 125.081635 40.51875 123.75351L40.51875 121.97226ZM43.159374 120.206635Q43.159374 119.44101 43.64375 118.94101Q44.14375 118.44101 44.909374 118.44101Q45.690624 118.44101 46.175 118.94101Q46.659374 119.44101 46.659374 120.237885L46.659374 120.65976Q46.659374 121.425385 46.159374 121.925385Q45.675 122.40976 44.925 122.40976Q44.159374 122.40976 43.659374 121.925385Q43.159374 121.425385 43.159374 120.612885L43.159374 120.206635ZM43.971874 120.65976Q43.971874 121.112885 44.221874 121.40976Q44.4875 121.706635 44.925 121.706635Q45.346874 121.706635 45.596874 121.425385Q45.846874 121.12851 45.846874 120.62851L45.846874 120.206635Q45.846874 119.75351 45.596874 119.456635Q45.346874 119.144135 44.909374 119.144135Q44.471874 119.144135 44.221874 119.456635Q43.971874 119.75351 43.971874 120.22226L43.971874 120.65976ZM47.315624 125.00351Q47.315624 124.237885 47.8 123.75351Q48.3 123.25351 49.065624 123.25351Q49.83125 123.25351 50.315624 123.75351Q50.815624 124.237885 50.815624 125.050385L50.815624 125.456635Q50.815624 126.22226 50.33125 126.72226Q49.846874 127.22226 49.08125 127.22226Q48.315624 127.22226 47.815624 126.737885Q47.315624 126.237885 47.315624 125.425385L47.315624 125.00351ZM48.128124 125.456635Q48.128124 125.925385 48.378124 126.22226Q48.64375 126.519135 49.08125 126.519135Q49.503124 126.519135 49.753124 126.237885Q50.003124 125.94101 50.003124 125.44101L50.003124 125.00351Q50.003124 124.53476 49.7375 124.25351Q49.4875 123.956635 49.065624 123.956635Q48.64375 123.956635 48.378124 124.25351Q48.128124 124.53476 48.128124 125.03476L48.128124 125.456635ZM45.175 126.456635L44.55 126.06601L48.721874 119.394135L49.33125 119.78476L45.175 126.456635Z" fill-rule="nonzero"/><path stroke="#757575" stroke-width="1.0" stroke-linecap="butt" d="M18.55 113.59726L145.23334 113.59726L191.10464 113.59726" fill-rule="nonzero"/><path fill="#9e9e9e" d="M193.10464 113.59726C193.10464 112.49269 192.20921 111.59726 191.10464 111.59726C190.00008 111.59726 189.10464 112.49269 189.10464 113.59726C189.10464 114.701836 190.00008 115.59726 191.10464 115.59726C192.20921 115.59726 193.10464 114.701836 193.10464 113.59726" fill-rule="nonzero"/><path fill="#1a1a1a" d="M20.659374 169.3573L20.659374 172.70105L19.534374 172.70105L19.534374 164.1698L22.690624 164.1698Q24.08125 164.1698 24.878124 164.88855Q25.675 165.59167 25.675 166.77917Q25.675 168.01355 24.89375 168.68542Q24.128124 169.3573 22.675 169.3573L20.659374 169.3573ZM20.659374 168.43542L22.690624 168.43542Q23.596874 168.43542 24.065624 168.01355Q24.55 167.59167 24.55 166.7948Q24.55 166.02917 24.065624 165.57605Q23.596874 165.1073 22.753124 165.09167L20.659374 165.09167L20.659374 168.43542ZM31.284374 172.07605Q30.659374 172.82605 29.425 172.82605Q28.409374 172.82605 27.878124 172.2323Q27.346874 171.63855 27.346874 170.4823L27.346874 166.3573L28.425 166.3573L28.425 170.45105Q28.425 171.90417 29.596874 171.90417Q30.846874 171.90417 31.253124 170.96667L31.253124 166.3573L32.346874 166.3573L32.346874 172.70105L31.315624 172.70105L31.284374 172.07605ZM37.440624 167.32605Q37.190624 167.2948 36.909374 167.2948Q35.83125 167.2948 35.45625 168.20105L35.45625 172.70105L34.378124 172.70105L34.378124 166.3573L35.425 166.3573L35.440624 167.09167Q35.971874 166.24792 36.95625 166.24792Q37.26875 166.24792 37.440624 166.32605L37.440624 167.32605ZM43.721874 169.6073Q43.721874 171.0448 43.065624 171.93542Q42.409374 172.82605 41.26875 172.82605Q40.1125 172.82605 39.45625 172.09167L39.45625 175.13855L38.378124 175.13855L38.378124 166.3573L39.3625 166.3573L39.409374 167.06042Q40.08125 166.24792 41.253124 166.24792Q42.39375 166.24792 43.05 167.1073Q43.721874 167.96667 43.721874 169.49792L43.721874 169.6073ZM42.64375 169.4823Q42.64375 168.40417 42.175 167.7948Q41.721874 167.1698 40.925 167.1698Q39.940624 167.1698 39.45625 168.02917L39.45625 171.06042Q39.940624 171.93542 40.940624 171.93542Q41.721874 171.93542 42.175 171.32605Q42.64375 170.70105 42.64375 169.4823ZM46.55 172.70105L45.471874 172.70105L45.471874 163.70105L46.55 163.70105L46.55 172.70105ZM51.003124 172.82605Q49.70625 172.82605 48.89375 171.9823Q48.096874 171.12292 48.096874 169.70105L48.096874 169.51355Q48.096874 168.56042 48.45625 167.82605Q48.815624 167.07605 49.45625 166.6698Q50.1125 166.24792 50.8625 166.24792Q52.096874 166.24792 52.784374 167.06042Q53.471874 167.87292 53.471874 169.38855L53.471874 169.84167L49.175 169.84167Q49.20625 170.77917 49.721874 171.3573Q50.253124 171.93542 51.065624 171.93542Q51.628124 171.93542 52.01875 171.70105Q52.425 171.46667 52.7375 171.07605L53.39375 171.59167Q52.596874 172.82605 51.003124 172.82605ZM50.8625 167.13855Q50.20625 167.13855 49.753124 167.62292Q49.315624 168.09167 49.221874 168.95105L52.39375 168.95105L52.39375 168.87292Q52.346874 168.0448 51.940624 167.59167Q51.55 167.13855 50.8625 167.13855Z" fill-rule="nonzero"/><path fill="#9e9e9e" d="M23.83125 187.84167L25.01875 187.84167L25.01875 188.71667L23.83125 188.71667L23.83125 190.70105L22.753124 190.70105L22.753124 188.71667L18.8625 188.71667L18.8625 188.07605L22.675 182.1698L23.83125 182.1698L23.83125 187.84167ZM20.096874 187.84167L22.753124 187.84167L22.753124 183.65417L22.6125 183.88855L20.096874 187.84167ZM26.39375 190.13855Q26.39375 189.8573 26.55 189.6698Q26.721874 189.4823 27.05 189.4823Q27.39375 189.4823 27.565624 189.6698Q27.7375 189.8573 27.7375 190.13855Q27.7375 190.40417 27.565624 190.59167Q27.39375 190.76355 27.05 190.76355Q26.721874 190.76355 26.55 190.59167Q26.39375 190.40417 26.39375 190.13855ZM34.6125 187.06042Q34.6125 188.96667 33.95625 189.90417Q33.315624 190.82605 31.925 190.82605Q30.565624 190.82605 29.909374 189.9198Q29.253124 189.01355 29.221874 187.20105L29.221874 185.76355Q29.221874 183.87292 29.8625 182.96667Q30.51875 182.0448 31.909374 182.0448Q33.284374 182.0448 33.940624 182.93542Q34.596874 183.81042 34.6125 185.65417L34.6125 187.06042ZM33.51875 185.57605Q33.51875 184.20105 33.128124 183.57605Q32.753124 182.93542 31.909374 182.93542Q31.08125 182.93542 30.690624 183.57605Q30.315624 184.20105 30.315624 185.49792L30.315624 187.2323Q30.315624 188.6073 30.70625 189.27917Q31.1125 189.93542 31.925 189.93542Q32.721874 189.93542 33.1125 189.31042Q33.503124 188.68542 33.51875 187.3573L33.51875 185.57605ZM36.159374 183.81042Q36.159374 183.0448 36.64375 182.5448Q37.14375 182.0448 37.909374 182.0448Q38.690624 182.0448 39.175 182.5448Q39.659374 183.0448 39.659374 183.84167L39.659374 184.26355Q39.659374 185.02917 39.159374 185.52917Q38.675 186.01355 37.925 186.01355Q37.159374 186.01355 36.659374 185.52917Q36.159374 185.02917 36.159374 184.21667L36.159374 183.81042ZM36.971874 184.26355Q36.971874 184.71667 37.221874 185.01355Q37.4875 185.31042 37.925 185.31042Q38.346874 185.31042 38.596874 185.02917Q38.846874 184.7323 38.846874 184.2323L38.846874 183.81042Q38.846874 183.3573 38.596874 183.06042Q38.346874 182.74792 37.909374 182.74792Q37.471874 182.74792 37.221874 183.06042Q36.971874 183.3573 36.971874 183.82605L36.971874 184.26355ZM40.315624 188.6073Q40.315624 187.84167 40.8 187.3573Q41.3 186.8573 42.065624 186.8573Q42.83125 186.8573 43.315624 187.3573Q43.815624 187.84167 43.815624 188.65417L43.815624 189.06042Q43.815624 189.82605 43.33125 190.32605Q42.846874 190.82605 42.08125 190.82605Q41.315624 190.82605 40.815624 190.34167Q40.315624 189.84167 40.315624 189.02917L40.315624 188.6073ZM41.128124 189.06042Q41.128124 189.52917 41.378124 189.82605Q41.64375 190.12292 42.08125 190.12292Q42.503124 190.12292 42.753124 189.84167Q43.003124 189.5448 43.003124 189.0448L43.003124 188.6073Q43.003124 188.13855 42.7375 187.8573Q42.4875 187.56042 42.065624 187.56042Q41.64375 187.56042 41.378124 187.8573Q41.128124 188.13855 41.128124 188.63855L41.128124 189.06042ZM38.175 190.06042L37.55 189.6698L41.721874 182.99792L42.33125 183.38855L38.175 190.06042Z" fill-rule="nonzero"/><path stroke="#757575" stroke-width="1.0" stroke-linecap="butt" d="M18.55 177.20105L145.23334 177.20105L161.17497 177.20105" fill-rule="nonzero"/><path fill="#9e9e9e" d="M163.17497 177.20105C163.17497 176.09648 162.27956 175.20105 161.17497 175.20105C160.0704 175.20105 159.17497 176.09648 159.17497 177.20105C159.17497 178.30562 160.0704 179.20105 161.17497 179.20105C162.27956 179.20105 163.17497 178.30562 163.17497 177.20105" fill-rule="nonzero"/><path fill="#1a1a1a" d="M19.534374 274.91083L19.534374 266.37958L22.33125 266.37958Q23.721874 266.37958 24.409374 266.9577Q25.1125 267.5202 25.1125 268.6452Q25.1125 269.25458 24.76875 269.72333Q24.440624 270.17645 23.846874 270.42645Q24.55 270.61395 24.940624 271.16083Q25.346874 271.69208 25.346874 272.44208Q25.346874 273.59833 24.596874 274.25458Q23.8625 274.91083 22.503124 274.91083L19.534374 274.91083ZM20.659374 270.92645L20.659374 273.98895L22.51875 273.98895Q23.315624 273.98895 23.76875 273.5827Q24.221874 273.17645 24.221874 272.4577Q24.221874 270.92645 22.534374 270.92645L20.659374 270.92645ZM20.659374 270.0202L22.3625 270.0202Q23.096874 270.0202 23.534374 269.66083Q23.9875 269.28583 23.9875 268.6452Q23.9875 267.94208 23.58125 267.62958Q23.175 267.30145 22.33125 267.30145L20.659374 267.30145L20.659374 270.0202ZM27.55 274.91083L26.471874 274.91083L26.471874 265.91083L27.55 265.91083L27.55 274.91083ZM33.284374 274.28583Q32.659374 275.03583 31.425 275.03583Q30.409374 275.03583 29.878124 274.44208Q29.346874 273.84833 29.346874 272.69208L29.346874 268.56708L30.425 268.56708L30.425 272.66083Q30.425 274.11395 31.596874 274.11395Q32.846874 274.11395 33.253124 273.17645L33.253124 268.56708L34.346874 268.56708L34.346874 274.91083L33.315624 274.91083L33.284374 274.28583ZM39.003124 275.03583Q37.70625 275.03583 36.89375 274.19208Q36.096874 273.3327 36.096874 271.91083L36.096874 271.72333Q36.096874 270.7702 36.45625 270.03583Q36.815624 269.28583 37.45625 268.87958Q38.1125 268.4577 38.8625 268.4577Q40.096874 268.4577 40.784374 269.2702Q41.471874 270.0827 41.471874 271.59833L41.471874 272.05145L37.175 272.05145Q37.20625 272.98895 37.721874 273.56708Q38.253124 274.1452 39.065624 274.1452Q39.628124 274.1452 40.01875 273.91083Q40.425 273.67645 40.7375 273.28583L41.39375 273.80145Q40.596874 275.03583 39.003124 275.03583ZM38.8625 269.34833Q38.20625 269.34833 37.753124 269.8327Q37.315624 270.30145 37.221874 271.16083L40.39375 271.16083L40.39375 271.0827Q40.346874 270.25458 39.940624 269.80145Q39.55 269.34833 38.8625 269.34833Z" fill-rule="nonzero"/><path fill="#9e9e9e" d="M24.846874 292.91083L19.253124 292.91083L19.253124 292.12958L22.20625 288.84833Q22.8625 288.09833 23.1125 287.6452Q23.3625 287.17645 23.3625 286.67645Q23.3625 286.00458 22.95625 285.5827Q22.565624 285.1452 21.878124 285.1452Q21.08125 285.1452 20.628124 285.61395Q20.175 286.06708 20.175 286.8952L19.096874 286.8952Q19.096874 285.7077 19.846874 284.98895Q20.6125 284.25458 21.878124 284.25458Q23.08125 284.25458 23.76875 284.87958Q24.45625 285.50458 24.45625 286.55145Q24.45625 287.80145 22.846874 289.55145L20.565624 292.0202L24.846874 292.0202L24.846874 292.91083ZM31.6125 289.2702Q31.6125 291.17645 30.95625 292.11395Q30.315624 293.03583 28.925 293.03583Q27.565624 293.03583 26.909374 292.12958Q26.253124 291.22333 26.221874 289.41083L26.221874 287.97333Q26.221874 286.0827 26.8625 285.17645Q27.51875 284.25458 28.909374 284.25458Q30.284374 284.25458 30.940624 285.1452Q31.596874 286.0202 31.6125 287.86395L31.6125 289.2702ZM30.51875 287.78583Q30.51875 286.41083 30.128124 285.78583Q29.753124 285.1452 28.909374 285.1452Q28.08125 285.1452 27.690624 285.78583Q27.315624 286.41083 27.315624 287.7077L27.315624 289.44208Q27.315624 290.81708 27.70625 291.48895Q28.1125 292.1452 28.925 292.1452Q29.721874 292.1452 30.1125 291.5202Q30.503124 290.8952 30.51875 289.56708L30.51875 287.78583ZM33.39375 292.34833Q33.39375 292.06708 33.55 291.87958Q33.721874 291.69208 34.05 291.69208Q34.39375 291.69208 34.565624 291.87958Q34.7375 292.06708 34.7375 292.34833Q34.7375 292.61395 34.565624 292.80145Q34.39375 292.97333 34.05 292.97333Q33.721874 292.97333 33.55 292.80145Q33.39375 292.61395 33.39375 292.34833ZM41.6125 289.2702Q41.6125 291.17645 40.95625 292.11395Q40.315624 293.03583 38.925 293.03583Q37.565624 293.03583 36.909374 292.12958Q36.253124 291.22333 36.221874 289.41083L36.221874 287.97333Q36.221874 286.0827 36.8625 285.17645Q37.51875 284.25458 38.909374 284.25458Q40.284374 284.25458 40.940624 285.1452Q41.596874 286.0202 41.6125 287.86395L41.6125 289.2702ZM40.51875 287.78583Q40.51875 286.41083 40.128124 285.78583Q39.753124 285.1452 38.909374 285.1452Q38.08125 285.1452 37.690624 285.78583Q37.315624 286.41083 37.315624 287.7077L37.315624 289.44208Q37.315624 290.81708 37.70625 291.48895Q38.1125 292.1452 38.925 292.1452Q39.721874 292.1452 40.1125 291.5202Q40.503124 290.8952 40.51875 289.56708L40.51875 287.78583ZM43.159374 286.0202Q43.159374 285.25458 43.64375 284.75458Q44.14375 284.25458 44.909374 284.25458Q45.690624 284.25458 46.175 284.75458Q46.659374 285.25458 46.659374 286.05145L46.659374 286.47333Q46.659374 287.23895 46.159374 287.73895Q45.675 288.22333 44.925 288.22333Q44.159374 288.22333 43.659374 287.73895Q43.159374 287.23895 43.159374 286.42645L43.159374 286.0202ZM43.971874 286.47333Q43.971874 286.92645 44.221874 287.22333Q44.4875 287.5202 44.925 287.5202Q45.346874 287.5202 45.596874 287.23895Q45.846874 286.94208 45.846874 286.44208L45.846874 286.0202Q45.846874 285.56708 45.596874 285.2702Q45.346874 284.9577 44.909374 284.9577Q44.471874 284.9577 44.221874 285.2702Q43.971874 285.56708 43.971874 286.03583L43.971874 286.47333ZM47.315624 290.81708Q47.315624 290.05145 47.8 289.56708Q48.3 289.06708 49.065624 289.06708Q49.83125 289.06708 50.315624 289.56708Q50.815624 290.05145 50.815624 290.86395L50.815624 291.2702Q50.815624 292.03583 50.33125 292.53583Q49.846874 293.03583 49.08125 293.03583Q48.315624 293.03583 47.815624 292.55145Q47.315624 292.05145 47.315624 291.23895L47.315624 290.81708ZM48.128124 291.2702Q48.128124 291.73895 48.378124 292.03583Q48.64375 292.3327 49.08125 292.3327Q49.503124 292.3327 49.753124 292.05145Q50.003124 291.75458 50.003124 291.25458L50.003124 290.81708Q50.003124 290.34833 49.7375 290.06708Q49.4875 289.7702 49.065624 289.7702Q48.64375 289.7702 48.378124 290.06708Q48.128124 290.34833 48.128124 290.84833L48.128124 291.2702ZM45.175 292.2702L44.55 291.87958L48.721874 285.2077L49.33125 285.59833L45.175 292.2702Z" fill-rule="nonzero"/><path stroke="#757575" stroke-width="1.0" stroke-linecap="butt" d="M18.55 279.41083L145.23334 279.41083L180.67255 279.41083" fill-rule="nonzero"/><path fill="#9e9e9e" d="M182.67255 279.41083C182.67255 278.30627 181.77711 277.41083 180.67255 277.41083C179.56798 277.41083 178.67255 278.30627 178.67255 279.41083C178.67255 280.5154 179.56798 281.41083 180.67255 281.41083C181.77711 281.41083 182.67255 280.5154 182.67255 279.41083" fill-rule="nonzero"/><path fill="#1a1a1a" d="M565.575 71.88325L563.5594 71.88325L563.5594 75.33637L562.4344 75.33637L562.4344 66.80512L565.2625 66.80512Q566.7 66.80512 567.46564 67.46137Q568.2469 68.11762 568.2469 69.36762Q568.2469 70.1645 567.8094 70.75825Q567.3875 71.352 566.6219 71.64887L568.6219 75.25825L568.6219 75.33637L567.41876 75.33637L565.575 71.88325ZM563.5594 70.96137L565.29376 70.96137Q566.1375 70.96137 566.6219 70.5395Q567.1219 70.102 567.1219 69.36762Q567.1219 68.58637 566.65314 68.1645Q566.1844 67.74262 565.29376 67.727L563.5594 67.727L563.5594 70.96137ZM571.90314 75.46137Q570.60626 75.46137 569.79376 74.61762Q568.9969 73.75825 568.9969 72.33637L568.9969 72.14887Q568.9969 71.19575 569.35626 70.46137Q569.71564 69.71137 570.35626 69.30512Q571.0125 68.88325 571.7625 68.88325Q572.9969 68.88325 573.6844 69.69575Q574.3719 70.50825 574.3719 72.02387L574.3719 72.477L570.075 72.477Q570.10626 73.4145 570.6219 73.99262Q571.15314 74.57075 571.96564 74.57075Q572.52814 74.57075 572.91876 74.33637Q573.325 74.102 573.6375 73.71137L574.29376 74.227Q573.4969 75.46137 571.90314 75.46137ZM571.7625 69.77387Q571.10626 69.77387 570.65314 70.25825Q570.21564 70.727 570.1219 71.58637L573.29376 71.58637L573.29376 71.50825Q573.2469 70.68012 572.84064 70.227Q572.45 69.77387 571.7625 69.77387ZM575.0125 72.11762Q575.0125 70.64887 575.7 69.77387Q576.3875 68.88325 577.5125 68.88325Q578.6219 68.88325 579.27814 69.63325L579.27814 66.33637L580.35626 66.33637L580.35626 75.33637L579.35626 75.33637L579.3094 74.64887Q578.65314 75.46137 577.4969 75.46137Q576.40314 75.46137 575.7 74.55512Q575.0125 73.64887 575.0125 72.19575L575.0125 72.11762ZM576.09064 72.24262Q576.09064 73.32075 576.52814 73.93012Q576.98126 74.5395 577.7625 74.5395Q578.79376 74.5395 579.27814 73.602L579.27814 70.69575Q578.79376 69.80512 577.77814 69.80512Q576.98126 69.80512 576.52814 70.4145Q576.09064 71.02387 576.09064 72.24262Z" fill-rule="nonzero"/><path fill="#9e9e9e" d="M552.71564 93.33637L551.6375 93.33637L551.6375 86.11762L549.45 86.9145L549.45 85.93012L552.5594 84.75825L552.71564 84.75825L552.71564 93.33637ZM560.41876 84.80512L560.41876 85.71137L560.21564 85.71137Q558.95 85.74262 558.2 86.477Q557.45 87.19575 557.325 88.50825Q558.0125 87.74262 559.16876 87.74262Q560.27814 87.74262 560.95 88.52387Q561.6219 89.30512 561.6219 90.55512Q561.6219 91.86762 560.90314 92.6645Q560.1844 93.46137 558.96564 93.46137Q557.7469 93.46137 556.98126 92.52387Q556.23126 91.57075 556.23126 90.08637L556.23126 89.68012Q556.23126 87.32075 557.23126 86.07075Q558.23126 84.82075 560.21564 84.80512L560.41876 84.80512ZM558.9969 88.64887Q558.4344 88.64887 557.96564 88.977Q557.4969 89.30512 557.3094 89.82075L557.3094 90.21137Q557.3094 91.27387 557.77814 91.9145Q558.2625 92.55512 558.96564 92.55512Q559.7 92.55512 560.1219 92.02387Q560.54376 91.477 560.54376 90.602Q560.54376 89.727 560.1219 89.19575Q559.7 88.64887 558.9969 88.64887ZM563.29376 92.77387Q563.29376 92.49262 563.45 92.30512Q563.6219 92.11762 563.95 92.11762Q564.29376 92.11762 564.46564 92.30512Q564.6375 92.49262 564.6375 92.77387Q564.6375 93.0395 564.46564 93.227Q564.29376 93.39887 563.95 93.39887Q563.6219 93.39887 563.45 93.227Q563.29376 93.0395 563.29376 92.77387ZM571.5125 89.69575Q571.5125 91.602 570.85626 92.5395Q570.21564 93.46137 568.825 93.46137Q567.46564 93.46137 566.8094 92.55512Q566.15314 91.64887 566.1219 89.83637L566.1219 88.39887Q566.1219 86.50825 566.7625 85.602Q567.41876 84.68012 568.8094 84.68012Q570.1844 84.68012 570.84064 85.57075Q571.4969 86.44575 571.5125 88.2895L571.5125 89.69575ZM570.41876 88.21137Q570.41876 86.83637 570.02814 86.21137Q569.65314 85.57075 568.8094 85.57075Q567.98126 85.57075 567.59064 86.21137Q567.21564 86.83637 567.21564 88.13325L567.21564 89.86762Q567.21564 91.24262 567.60626 91.9145Q568.0125 92.57075 568.825 92.57075Q569.6219 92.57075 570.0125 91.94575Q570.40314 91.32075 570.41876 89.99262L570.41876 88.21137ZM573.0594 86.44575Q573.0594 85.68012 573.54376 85.18012Q574.04376 84.68012 574.8094 84.68012Q575.59064 84.68012 576.075 85.18012Q576.5594 85.68012 576.5594 86.477L576.5594 86.89887Q576.5594 87.6645 576.0594 88.1645Q575.575 88.64887 574.825 88.64887Q574.0594 88.64887 573.5594 88.1645Q573.0594 87.6645 573.0594 86.852L573.0594 86.44575ZM573.8719 86.89887Q573.8719 87.352 574.1219 87.64887Q574.3875 87.94575 574.825 87.94575Q575.2469 87.94575 575.4969 87.6645Q575.7469 87.36762 575.7469 86.86762L575.7469 86.44575Q575.7469 85.99262 575.4969 85.69575Q575.2469 85.38325 574.8094 85.38325Q574.3719 85.38325 574.1219 85.69575Q573.8719 85.99262 573.8719 86.46137L573.8719 86.89887ZM577.21564 91.24262Q577.21564 90.477 577.7 89.99262Q578.2 89.49262 578.96564 89.49262Q579.73126 89.49262 580.21564 89.99262Q580.71564 90.477 580.71564 91.2895L580.71564 91.69575Q580.71564 92.46137 580.23126 92.96137Q579.7469 93.46137 578.98126 93.46137Q578.21564 93.46137 577.71564 92.977Q577.21564 92.477 577.21564 91.6645L577.21564 91.24262ZM578.02814 91.69575Q578.02814 92.1645 578.27814 92.46137Q578.54376 92.75825 578.98126 92.75825Q579.40314 92.75825 579.65314 92.477Q579.90314 92.18012 579.90314 91.68012L579.90314 91.24262Q579.90314 90.77387 579.6375 90.49262Q579.3875 90.19575 578.96564 90.19575Q578.54376 90.19575 578.27814 90.49262Q578.02814 90.77387 578.02814 91.27387L578.02814 91.69575ZM575.075 92.69575L574.45 92.30512L578.6219 85.63325L579.23126 86.02387L575.075 92.69575Z" fill-rule="nonzero"/><path stroke="#757575" stroke-width="1.0" stroke-linecap="butt" d="M581.45 79.83637L454.76666 79.83637L368.08545 79.83637" fill-rule="nonzero"/><path fill="#9e9e9e" d="M370.08545 79.83637C370.08545 78.731804 369.19 77.83637 368.08545 77.83637C366.98087 77.83637 366.08545 78.731804 366.08545 79.83637C366.08545 80.94094 366.98087 81.83637 368.08545 81.83637C369.19 81.83637 370.08545 80.94094 370.08545 79.83637" fill-rule="nonzero"/><path fill="#1a1a1a" d="M549.9969 186.32487Q549.9969 187.57487 549.575 188.51237Q549.15314 189.43425 548.3719 189.93425Q547.60626 190.43425 546.575 190.43425Q545.575 190.43425 544.79376 189.93425Q544.0125 189.43425 543.575 188.528Q543.15314 187.60612 543.1375 186.38737L543.1375 185.778Q543.1375 184.54362 543.5594 183.60612Q543.9969 182.66862 544.77814 182.16862Q545.5594 181.653 546.575 181.653Q547.59064 181.653 548.3719 182.153Q549.15314 182.653 549.575 183.5905Q549.9969 184.528 549.9969 185.778L549.9969 186.32487ZM548.8875 185.76237Q548.8875 184.24675 548.27814 183.43425Q547.66876 182.62175 546.575 182.62175Q545.4969 182.62175 544.8875 183.43425Q544.27814 184.24675 544.2625 185.68425L544.2625 186.32487Q544.2625 187.79362 544.8719 188.63737Q545.4969 189.4655 546.575 189.4655Q547.66876 189.4655 548.2625 188.68425Q548.8719 187.88737 548.8875 186.403L548.8875 185.76237ZM554.34064 184.93425Q554.09064 184.903 553.8094 184.903Q552.73126 184.903 552.35626 185.80925L552.35626 190.30925L551.27814 190.30925L551.27814 183.9655L552.325 183.9655L552.34064 184.69987Q552.8719 183.85612 553.85626 183.85612Q554.16876 183.85612 554.34064 183.93425L554.34064 184.93425ZM559.1844 190.30925Q559.09064 190.12175 559.02814 189.63737Q558.27814 190.43425 557.23126 190.43425Q556.29376 190.43425 555.6844 189.903Q555.09064 189.37175 555.09064 188.54362Q555.09064 187.55925 555.84064 187.01237Q556.59064 186.4655 557.96564 186.4655L559.0125 186.4655L559.0125 185.9655Q559.0125 185.403 558.66876 185.07487Q558.34064 184.73112 557.66876 184.73112Q557.09064 184.73112 556.7 185.028Q556.3094 185.30925 556.3094 185.73112L555.21564 185.73112Q555.21564 185.24675 555.54376 184.80925Q555.8875 184.37175 556.46564 184.12175Q557.04376 183.85612 557.73126 183.85612Q558.84064 183.85612 559.45 184.403Q560.075 184.94987 560.10626 185.903L560.10626 188.82487Q560.10626 189.69987 560.325 190.2155L560.325 190.30925L559.1844 190.30925ZM557.3875 189.48112Q557.90314 189.48112 558.35626 189.2155Q558.8094 188.94987 559.0125 188.528L559.0125 187.23112L558.16876 187.23112Q556.16876 187.23112 556.16876 188.403Q556.16876 188.903 556.5125 189.19987Q556.85626 189.48112 557.3875 189.48112ZM563.29376 183.9655L563.325 184.76237Q564.0594 183.85612 565.23126 183.85612Q567.2469 183.85612 567.2625 186.12175L567.2625 190.30925L566.16876 190.30925L566.16876 186.10612Q566.16876 185.43425 565.85626 185.10612Q565.5594 184.778 564.90314 184.778Q564.3719 184.778 563.96564 185.05925Q563.575 185.3405 563.35626 185.79362L563.35626 190.30925L562.27814 190.30925L562.27814 183.9655L563.29376 183.9655ZM569.0125 187.0905Q569.0125 185.60612 569.7 184.73112Q570.3875 183.85612 571.5125 183.85612Q572.66876 183.85612 573.325 184.66862L573.3719 183.9655L574.3719 183.9655L574.3719 190.153Q574.3719 191.38737 573.6375 192.0905Q572.90314 192.80925 571.6844 192.80925Q570.9969 192.80925 570.34064 192.51237Q569.6844 192.2155 569.34064 191.7155L569.90314 191.05925Q570.59064 191.91862 571.60626 191.91862Q572.3875 191.91862 572.825 191.4655Q573.27814 191.028 573.27814 190.2155L573.27814 189.66862Q572.6219 190.43425 571.4969 190.43425Q570.3875 190.43425 569.7 189.54362Q569.0125 188.63737 569.0125 187.0905ZM570.10626 187.2155Q570.10626 188.278 570.54376 188.903Q570.98126 189.51237 571.77814 189.51237Q572.79376 189.51237 573.27814 188.57487L573.27814 185.68425Q572.77814 184.778 571.77814 184.778Q570.9969 184.778 570.54376 185.38737Q570.10626 185.99675 570.10626 187.2155ZM578.90314 190.43425Q577.60626 190.43425 576.79376 189.5905Q575.9969 188.73112 575.9969 187.30925L575.9969 187.12175Q575.9969 186.16862 576.35626 185.43425Q576.71564 184.68425 577.35626 184.278Q578.0125 183.85612 578.7625 183.85612Q579.9969 183.85612 580.6844 184.66862Q581.3719 185.48112 581.3719 186.99675L581.3719 187.44987L577.075 187.44987Q577.10626 188.38737 577.6219 188.9655Q578.15314 189.54362 578.96564 189.54362Q579.52814 189.54362 579.91876 189.30925Q580.325 189.07487 580.6375 188.68425L581.29376 189.19987Q580.4969 190.43425 578.90314 190.43425ZM578.7625 184.74675Q578.10626 184.74675 577.65314 185.23112Q577.21564 185.69987 577.1219 186.55925L580.29376 186.55925L580.29376 186.48112Q580.2469 185.653 579.84064 185.19987Q579.45 184.74675 578.7625 184.74675Z" fill-rule="nonzero"/><path fill="#9e9e9e" d="M552.71564 208.30925L551.6375 208.30925L551.6375 201.0905L549.45 201.88737L549.45 200.903L552.5594 199.73112L552.71564 199.73112L552.71564 208.30925ZM560.41876 199.778L560.41876 200.68425L560.21564 200.68425Q558.95 200.7155 558.2 201.44987Q557.45 202.16862 557.325 203.48112Q558.0125 202.7155 559.16876 202.7155Q560.27814 202.7155 560.95 203.49675Q561.6219 204.278 561.6219 205.528Q561.6219 206.8405 560.90314 207.63737Q560.1844 208.43425 558.96564 208.43425Q557.7469 208.43425 556.98126 207.49675Q556.23126 206.54362 556.23126 205.05925L556.23126 204.653Q556.23126 202.29362 557.23126 201.04362Q558.23126 199.79362 560.21564 199.778L560.41876 199.778ZM558.9969 203.62175Q558.4344 203.62175 557.96564 203.94987Q557.4969 204.278 557.3094 204.79362L557.3094 205.18425Q557.3094 206.24675 557.77814 206.88737Q558.2625 207.528 558.96564 207.528Q559.7 207.528 560.1219 206.99675Q560.54376 206.44987 560.54376 205.57487Q560.54376 204.69987 560.1219 204.16862Q559.7 203.62175 558.9969 203.62175ZM563.29376 207.74675Q563.29376 207.4655 563.45 207.278Q563.6219 207.0905 563.95 207.0905Q564.29376 207.0905 564.46564 207.278Q564.6375 207.4655 564.6375 207.74675Q564.6375 208.01237 564.46564 208.19987Q564.29376 208.37175 563.95 208.37175Q563.6219 208.37175 563.45 208.19987Q563.29376 208.01237 563.29376 207.74675ZM571.5125 204.66862Q571.5125 206.57487 570.85626 207.51237Q570.21564 208.43425 568.825 208.43425Q567.46564 208.43425 566.8094 207.528Q566.15314 206.62175 566.1219 204.80925L566.1219 203.37175Q566.1219 201.48112 566.7625 200.57487Q567.41876 199.653 568.8094 199.653Q570.1844 199.653 570.84064 200.54362Q571.4969 201.41862 571.5125 203.26237L571.5125 204.66862ZM570.41876 203.18425Q570.41876 201.80925 570.02814 201.18425Q569.65314 200.54362 568.8094 200.54362Q567.98126 200.54362 567.59064 201.18425Q567.21564 201.80925 567.21564 203.10612L567.21564 204.8405Q567.21564 206.2155 567.60626 206.88737Q568.0125 207.54362 568.825 207.54362Q569.6219 207.54362 570.0125 206.91862Q570.40314 206.29362 570.41876 204.9655L570.41876 203.18425ZM573.0594 201.41862Q573.0594 200.653 573.54376 200.153Q574.04376 199.653 574.8094 199.653Q575.59064 199.653 576.075 200.153Q576.5594 200.653 576.5594 201.44987L576.5594 201.87175Q576.5594 202.63737 576.0594 203.13737Q575.575 203.62175 574.825 203.62175Q574.0594 203.62175 573.5594 203.13737Q573.0594 202.63737 573.0594 201.82487L573.0594 201.41862ZM573.8719 201.87175Q573.8719 202.32487 574.1219 202.62175Q574.3875 202.91862 574.825 202.91862Q575.2469 202.91862 575.4969 202.63737Q575.7469 202.3405 575.7469 201.8405L575.7469 201.41862Q575.7469 200.9655 575.4969 200.66862Q575.2469 200.35612 574.8094 200.35612Q574.3719 200.35612 574.1219 200.66862Q573.8719 200.9655 573.8719 201.43425L573.8719 201.87175ZM577.21564 206.2155Q577.21564 205.44987 577.7 204.9655Q578.2 204.4655 578.96564 204.4655Q579.73126 204.4655 580.21564 204.9655Q580.71564 205.44987 580.71564 206.26237L580.71564 206.66862Q580.71564 207.43425 580.23126 207.93425Q579.7469 208.43425 578.98126 208.43425Q578.21564 208.43425 577.71564 207.94987Q577.21564 207.44987 577.21564 206.63737L577.21564 206.2155ZM578.02814 206.66862Q578.02814 207.13737 578.27814 207.43425Q578.54376 207.73112 578.98126 207.73112Q579.40314 207.73112 579.65314 207.44987Q579.90314 207.153 579.90314 206.653L579.90314 206.2155Q579.90314 205.74675 579.6375 205.4655Q579.3875 205.16862 578.96564 205.16862Q578.54376 205.16862 578.27814 205.4655Q578.02814 205.74675 578.02814 206.24675L578.02814 206.66862ZM575.075 207.66862L574.45 207.278L578.6219 200.60612L579.23126 200.99675L575.075 207.66862Z" fill-rule="nonzero"/><path stroke="#757575" stroke-width="1.0" stroke-linecap="butt" d="M581.45 194.80925L454.76666 194.80925L441.04947 194.80925" fill-rule="nonzero"/><path fill="#9e9e9e" d="M443.04947 194.80925C443.04947 193.70468 442.15402 192.80925 441.04947 192.80925C439.9449 192.80925 439.04947 193.70468 439.04947 194.80925C439.04947 195.91382 439.9449 196.80925 441.04947 196.80925C442.15402 196.80925 443.04947 195.91382 443.04947 194.80925" fill-rule="nonzero"/><path fill="#1a1a1a" d="M550.04376 326.3371L552.2625 322.05585L553.54376 322.05585L550.60626 327.3996L550.60626 330.5871L549.48126 330.5871L549.48126 327.3996L546.54376 322.05585L547.825 322.05585L550.04376 326.3371ZM556.90314 330.7121Q555.60626 330.7121 554.79376 329.86835Q553.9969 329.00897 553.9969 327.5871L553.9969 327.3996Q553.9969 326.44647 554.35626 325.7121Q554.71564 324.9621 555.35626 324.55585Q556.0125 324.13397 556.7625 324.13397Q557.9969 324.13397 558.6844 324.94647Q559.3719 325.75897 559.3719 327.2746L559.3719 327.72772L555.075 327.72772Q555.10626 328.66522 555.6219 329.24335Q556.15314 329.82147 556.96564 329.82147Q557.52814 329.82147 557.91876 329.5871Q558.325 329.35272 558.6375 328.9621L559.29376 329.47772Q558.4969 330.7121 556.90314 330.7121ZM556.7625 325.0246Q556.10626 325.0246 555.65314 325.50897Q555.21564 325.97772 555.1219 326.8371L558.29376 326.8371L558.29376 326.75897Q558.2469 325.93085 557.84064 325.47772Q557.45 325.0246 556.7625 325.0246ZM561.45 330.5871L560.3719 330.5871L560.3719 321.5871L561.45 321.5871L561.45 330.5871ZM564.45 330.5871L563.3719 330.5871L563.3719 321.5871L564.45 321.5871L564.45 330.5871ZM565.98126 327.35272Q565.98126 326.43085 566.34064 325.68085Q566.71564 324.93085 567.3719 324.54022Q568.02814 324.13397 568.85626 324.13397Q570.15314 324.13397 570.95 325.0246Q571.7625 325.91522 571.7625 327.41522L571.7625 327.49335Q571.7625 328.41522 571.40314 329.1496Q571.04376 329.88397 570.3875 330.30585Q569.73126 330.7121 568.8719 330.7121Q567.59064 330.7121 566.77814 329.82147Q565.98126 328.91522 565.98126 327.43085L565.98126 327.35272ZM567.075 327.49335Q567.075 328.54022 567.5594 329.18085Q568.0594 329.82147 568.8719 329.82147Q569.7 329.82147 570.1844 329.18085Q570.66876 328.5246 570.66876 327.35272Q570.66876 326.32147 570.16876 325.68085Q569.6844 325.0246 568.85626 325.0246Q568.0594 325.0246 567.5594 325.66522Q567.075 326.29022 567.075 327.49335ZM578.8875 329.0871L580.10626 324.24335L581.1844 324.24335L579.34064 330.5871L578.46564 330.5871L576.91876 325.7746L575.41876 330.5871L574.54376 330.5871L572.7 324.24335L573.77814 324.24335L575.02814 328.99335L576.5125 324.24335L577.3719 324.24335L578.8875 329.0871Z" fill-rule="nonzero"/><path fill="#9e9e9e" d="M554.7469 348.5871L549.15314 348.5871L549.15314 347.80585L552.10626 344.5246Q552.7625 343.7746 553.0125 343.32147Q553.2625 342.85272 553.2625 342.35272Q553.2625 341.68085 552.85626 341.25897Q552.46564 340.82147 551.77814 340.82147Q550.98126 340.82147 550.52814 341.29022Q550.075 341.74335 550.075 342.57147L548.9969 342.57147Q548.9969 341.38397 549.7469 340.66522Q550.5125 339.93085 551.77814 339.93085Q552.98126 339.93085 553.66876 340.55585Q554.35626 341.18085 554.35626 342.22772Q554.35626 343.47772 552.7469 345.22772L550.46564 347.69647L554.7469 347.69647L554.7469 348.5871ZM560.73126 345.72772L561.91876 345.72772L561.91876 346.60272L560.73126 346.60272L560.73126 348.5871L559.65314 348.5871L559.65314 346.60272L555.7625 346.60272L555.7625 345.9621L559.575 340.05585L560.73126 340.05585L560.73126 345.72772ZM556.9969 345.72772L559.65314 345.72772L559.65314 341.54022L559.5125 341.7746L556.9969 345.72772ZM563.29376 348.0246Q563.29376 347.74335 563.45 347.55585Q563.6219 347.36835 563.95 347.36835Q564.29376 347.36835 564.46564 347.55585Q564.6375 347.74335 564.6375 348.0246Q564.6375 348.29022 564.46564 348.47772Q564.29376 348.6496 563.95 348.6496Q563.6219 348.6496 563.45 348.47772Q563.29376 348.29022 563.29376 348.0246ZM571.5125 344.94647Q571.5125 346.85272 570.85626 347.79022Q570.21564 348.7121 568.825 348.7121Q567.46564 348.7121 566.8094 347.80585Q566.15314 346.8996 566.1219 345.0871L566.1219 343.6496Q566.1219 341.75897 566.7625 340.85272Q567.41876 339.93085 568.8094 339.93085Q570.1844 339.93085 570.84064 340.82147Q571.4969 341.69647 571.5125 343.54022L571.5125 344.94647ZM570.41876 343.4621Q570.41876 342.0871 570.02814 341.4621Q569.65314 340.82147 568.8094 340.82147Q567.98126 340.82147 567.59064 341.4621Q567.21564 342.0871 567.21564 343.38397L567.21564 345.11835Q567.21564 346.49335 567.60626 347.16522Q568.0125 347.82147 568.825 347.82147Q569.6219 347.82147 570.0125 347.19647Q570.40314 346.57147 570.41876 345.24335L570.41876 343.4621ZM573.0594 341.69647Q573.0594 340.93085 573.54376 340.43085Q574.04376 339.93085 574.8094 339.93085Q575.59064 339.93085 576.075 340.43085Q576.5594 340.93085 576.5594 341.72772L576.5594 342.1496Q576.5594 342.91522 576.0594 343.41522Q575.575 343.8996 574.825 343.8996Q574.0594 343.8996 573.5594 343.41522Q573.0594 342.91522 573.0594 342.10272L573.0594 341.69647ZM573.8719 342.1496Q573.8719 342.60272 574.1219 342.8996Q574.3875 343.19647 574.825 343.19647Q575.2469 343.19647 575.4969 342.91522Q575.7469 342.61835 575.7469 342.11835L575.7469 341.69647Q575.7469 341.24335 575.4969 340.94647Q575.2469 340.63397 574.8094 340.63397Q574.3719 340.63397 574.1219 340.94647Q573.8719 341.24335 573.8719 341.7121L573.8719 342.1496ZM577.21564 346.49335Q577.21564 345.72772 577.7 345.24335Q578.2 344.74335 578.96564 344.74335Q579.73126 344.74335 580.21564 345.24335Q580.71564 345.72772 580.71564 346.54022L580.71564 346.94647Q580.71564 347.7121 580.23126 348.2121Q579.7469 348.7121 578.98126 348.7121Q578.21564 348.7121 577.71564 348.22772Q577.21564 347.72772 577.21564 346.91522L577.21564 346.49335ZM578.02814 346.94647Q578.02814 347.41522 578.27814 347.7121Q578.54376 348.00897 578.98126 348.00897Q579.40314 348.00897 579.65314 347.72772Q579.90314 347.43085 579.90314 346.93085L579.90314 346.49335Q579.90314 346.0246 579.6375 345.74335Q579.3875 345.44647 578.96564 345.44647Q578.54376 345.44647 578.27814 345.74335Q578.02814 346.0246 578.02814 346.5246L578.02814 346.94647ZM575.075 347.94647L574.45 347.55585L578.6219 340.88397L579.23126 341.2746L575.075 347.94647Z" fill-rule="nonzero"/><path stroke="#757575" stroke-width="1.0" stroke-linecap="butt" d="M581.45 335.0871L454.76666 335.0871L352.02643 335.0871" fill-rule="nonzero"/><path fill="#9e9e9e" d="M354.02643 335.0871C354.02643 333.9825 353.131 333.0871 352.02643 333.0871C350.92188 333.0871 350.02643 333.9825 350.02643 335.0871C350.02643 336.19165 350.92188 337.0871 352.02643 337.0871C353.131 337.0871 354.02643 336.19165 354.02643 335.0871" fill-rule="nonzero"/><path fill="#757575" d="M28.378124 31.39375L22.753124 31.39375L22.753124 35.190624L29.346874 35.190624L29.346874 37.55L19.815624 37.55L19.815624 23.33125L29.33125 23.33125L29.33125 25.70625L22.753124 25.70625L22.753124 29.096874L28.378124 29.096874L28.378124 31.39375ZM33.2375 26.9875L33.315624 28.20625Q34.45625 26.784374 36.3625 26.784374Q38.034374 26.784374 38.846874 27.76875Q39.675 28.753124 39.690624 30.721874L39.690624 37.55L36.878124 37.55L36.878124 30.784374Q36.878124 29.89375 36.4875 29.4875Q36.096874 29.08125 35.190624 29.08125Q33.9875 29.08125 33.39375 30.096874L33.39375 37.55L30.58125 37.55L30.58125 26.9875L33.2375 26.9875ZM41.221874 32.190624Q41.221874 29.753124 42.378124 28.26875Q43.534374 26.784374 45.503124 26.784374Q47.2375 26.784374 48.20625 27.971874L48.33125 26.9875L50.878124 26.9875L50.878124 37.190624Q50.878124 38.58125 50.253124 39.6125Q49.628124 40.64375 48.471874 41.175Q47.33125 41.70625 45.8 41.70625Q44.64375 41.70625 43.534374 41.2375Q42.440624 40.784374 41.8625 40.05L43.1125 38.33125Q44.175 39.51875 45.675 39.51875Q46.8 39.51875 47.425 38.909374Q48.05 38.315624 48.05 37.20625L48.05 36.64375Q47.08125 37.753124 45.4875 37.753124Q43.58125 37.753124 42.39375 36.26875Q41.221874 34.76875 41.221874 32.3L41.221874 32.190624ZM44.05 32.39375Q44.05 33.83125 44.628124 34.64375Q45.20625 35.45625 46.20625 35.45625Q47.4875 35.45625 48.05 34.4875L48.05 30.05Q47.4875 29.08125 46.221874 29.08125Q45.20625 29.08125 44.628124 29.909374Q44.05 30.7375 44.05 32.39375ZM55.6125 37.55L52.784374 37.55L52.784374 22.55L55.6125 22.55L55.6125 37.55ZM60.6125 37.55L57.784374 37.55L57.784374 26.9875L60.6125 26.9875L60.6125 37.55ZM57.6125 24.253124Q57.6125 23.6125 58.034374 23.20625Q58.471874 22.8 59.190624 22.8Q59.925 22.8 60.346874 23.20625Q60.784374 23.6125 60.784374 24.253124Q60.784374 24.89375 60.346874 25.3Q59.909374 25.70625 59.190624 25.70625Q58.4875 25.70625 58.05 25.3Q57.6125 24.89375 57.6125 24.253124ZM68.3625 34.628124Q68.3625 34.1125 67.84688 33.815624Q67.33125 33.51875 66.20625 33.284374Q62.425 32.4875 62.425 30.08125Q62.425 28.675 63.596874 27.7375Q64.76875 26.784374 66.64375 26.784374Q68.65938 26.784374 69.8625 27.7375Q71.06563 28.675 71.06563 30.190624L68.25313 30.190624Q68.25313 29.596874 67.8625 29.20625Q67.47188 28.8 66.64375 28.8Q65.925 28.8 65.53438 29.128124Q65.14375 29.440624 65.14375 29.940624Q65.14375 30.409374 65.58125 30.70625Q66.03438 30.9875 67.08125 31.20625Q68.14375 31.409374 68.8625 31.675Q71.09688 32.4875 71.09688 34.51875Q71.09688 35.95625 69.8625 36.8625Q68.62813 37.753124 66.65938 37.753124Q65.33125 37.753124 64.3 37.284374Q63.26875 36.8 62.675 35.971874Q62.096874 35.14375 62.096874 34.190624L64.76875 34.190624Q64.81563 34.940624 65.33125 35.346874Q65.84688 35.7375 66.72188 35.7375Q67.53438 35.7375 67.94063 35.440624Q68.3625 35.128124 68.3625 34.628124ZM75.39375 28.128124Q76.51875 26.784374 78.20625 26.784374Q81.64375 26.784374 81.69063 30.784374L81.69063 37.55L78.87813 37.55L78.87813 30.8625Q78.87813 29.95625 78.4875 29.51875Q78.09688 29.08125 77.19063 29.08125Q75.94063 29.08125 75.39375 30.034374L75.39375 37.55L72.56563 37.55L72.56563 22.55L75.39375 22.55L75.39375 28.128124Z" fill-rule="nonzero"/></svg>