<svg version="1.1" viewBox="0.0 0.0 600.0 371.0" fill="none" stroke="none" stroke-linecap="square" stroke-miterlimit="10" width="600" height="371" xmlns:xlink="http://www.w3.org/1999/xlink" xmlns="http://www.w3.org/2000/svg"><path fill="#ffffff" d="M0 0L600.0 0L600.0 371.0L0 371.0L0 0Z" fill-rule="nonzero"/><path fill="#e69138" d="M300.0 54.916668C344.3377 54.916668 386.36475 74.69309 414.62668 108.85589C442.8886 143.01869 454.43967 188.00705 446.1316 231.55943L300.0 203.68333Z" fill-rule="nonzero"/><path fill="#f1c232" d="M446.1316 231.55943C434.05493 294.86746 382.58682 343.19925 318.64542 351.27692L300.0 203.68333Z" fill-rule="nonzero"/><path fill="#76a5af" d="M228.33112 73.31811C250.28972 61.24626 274.94186 54.916668 300.0 54.916668L300.0 203.68333Z" fill-rule="nonzero"/><path fill="#434343" d="M198.16222 95.2371C207.25935 86.69431 217.39526 79.33014 228.33112 73.31811L300.0 203.68333Z" fill-rule="nonzero"/><path fill="#cccccc" d="M174.39215 123.97017C181.07898 113.433395 189.06506 103.77989 198.16222 95.2371L300.0 203.68333Z" fill-rule="nonzero"/><path fill="#964b00" d="M158.5145 157.7119C162.37086 145.84322 167.7053 134.50694 174.39215 123.97017L300.0 203.68333Z" fill-rule="nonzero"/><path fill="#674ea7" d="M151.52689 194.3422C152.31049 181.88734 154.65813 169.5806 158.5145 157.7119L300.0 203.68333Z" fill-rule="nonzero"/><path fill="#6aa84f" d="M318.64542 351.27692C274.65732 356.83392 230.48302 342.48083 198.16222 312.12958C165.8414 281.77832 148.7429 238.59242 151.52689 194.3422L300.0 203.68333Z" fill-rule="nonzero"/><path fill="#1a1a1a" d="M26.096874 62.93229Q26.096874 64.18229 25.675 65.11979Q25.253124 66.041664 24.471874 66.541664Q23.70625 67.041664 22.675 67.041664Q21.675 67.041664 20.89375 66.541664Q20.1125 66.041664 19.675 65.135414Q19.253124 64.21354 19.2375 62.99479L19.2375 62.385414Q19.2375 61.15104 19.659374 60.21354Q20.096874 59.27604 20.878124 58.77604Q21.659374 58.260414 22.675 58.260414Q23.690624 58.260414 24.471874 58.760414Q25.253124 59.260414 25.675 60.197914Q26.096874 61.135414 26.096874 62.385414L26.096874 62.93229ZM24.9875 62.36979Q24.9875 60.854164 24.378124 60.041664Q23.76875 59.229164 22.675 59.229164Q21.596874 59.229164 20.9875 60.041664Q20.378124 60.854164 20.3625 62.291664L20.3625 62.93229Q20.3625 64.40104 20.971874 65.24479Q21.596874 66.072914 22.675 66.072914Q23.76875 66.072914 24.3625 65.291664Q24.971874 64.49479 24.9875 63.010414L24.9875 62.36979ZM28.846874 59.041664L28.846874 60.572914L30.01875 60.572914L30.01875 61.416664L28.846874 61.416664L28.846874 65.33854Q28.846874 65.729164 29.003124 65.916664Q29.159374 66.104164 29.534374 66.104164Q29.721874 66.104164 30.05 66.041664L30.05 66.916664Q29.628124 67.041664 29.221874 67.041664Q28.503124 67.041664 28.128124 66.604164Q27.753124 66.15104 27.753124 65.33854L27.753124 61.416664L26.596874 61.416664L26.596874 60.572914L27.753124 60.572914L27.753124 59.041664L28.846874 59.041664ZM32.45625 61.33854Q33.175 60.46354 34.33125 60.46354Q36.346874 60.46354 36.3625 62.729164L36.3625 66.916664L35.26875 66.916664L35.26875 62.71354Q35.26875 62.041664 34.95625 61.71354Q34.659374 61.385414 34.003124 61.385414Q33.471874 61.385414 33.065624 61.666664Q32.675 61.947914 32.45625 62.40104L32.45625 66.916664L31.378124 66.916664L31.378124 57.916664L32.45625 57.916664L32.45625 61.33854ZM41.003124 67.041664Q39.70625 67.041664 38.89375 66.197914Q38.096874 65.33854 38.096874 63.916664L38.096874 63.729164Q38.096874 62.77604 38.45625 62.041664Q38.815624 61.291664 39.45625 60.885414Q40.1125 60.46354 40.8625 60.46354Q42.096874 60.46354 42.784374 61.27604Q43.471874 62.08854 43.471874 63.604164L43.471874 64.05729L39.175 64.05729Q39.20625 64.99479 39.721874 65.572914Q40.253124 66.15104 41.065624 66.15104Q41.628124 66.15104 42.01875 65.916664Q42.425 65.68229 42.7375 65.291664L43.39375 65.80729Q42.596874 67.041664 41.003124 67.041664ZM40.8625 61.354164Q40.20625 61.354164 39.753124 61.83854Q39.315624 62.30729 39.221874 63.166664L42.39375 63.166664L42.39375 63.08854Q42.346874 62.260414 41.940624 61.80729Q41.55 61.354164 40.8625 61.354164ZM47.440624 61.541664Q47.190624 61.510414 46.909374 61.510414Q45.83125 61.510414 45.45625 62.416664L45.45625 66.916664L44.378124 66.916664L44.378124 60.572914L45.425 60.572914L45.440624 61.30729Q45.971874 60.46354 46.95625 60.46354Q47.26875 60.46354 47.440624 60.541664L47.440624 61.541664Z" fill-rule="nonzero"/><path fill="#9e9e9e" d="M24.440624 78.604164Q24.440624 79.24479 24.096874 79.74479Q23.753124 80.24479 23.190624 80.52604Q23.846874 80.80729 24.2375 81.36979Q24.628124 81.916664 24.628124 82.61979Q24.628124 83.71354 23.878124 84.385414Q23.14375 85.041664 21.925 85.041664Q20.690624 85.041664 19.940624 84.385414Q19.20625 83.71354 19.20625 82.61979Q19.20625 81.916664 19.58125 81.36979Q19.95625 80.80729 20.628124 80.52604Q20.065624 80.24479 19.7375 79.74479Q19.409374 79.24479 19.409374 78.604164Q19.409374 77.52604 20.096874 76.90104Q20.784374 76.260414 21.925 76.260414Q23.05 76.260414 23.7375 76.90104Q24.440624 77.52604 24.440624 78.604164ZM23.55 82.58854Q23.55 81.86979 23.096874 81.43229Q22.64375 80.979164 21.909374 80.979164Q21.175 80.979164 20.721874 81.43229Q20.284374 81.86979 20.284374 82.604164Q20.284374 83.322914 20.721874 83.74479Q21.159374 84.15104 21.925 84.15104Q22.675 84.15104 23.1125 83.729164Q23.55 83.30729 23.55 82.58854ZM21.925 77.15104Q21.284374 77.15104 20.878124 77.55729Q20.4875 77.947914 20.4875 78.635414Q20.4875 79.27604 20.878124 79.68229Q21.26875 80.08854 21.909374 80.08854Q22.565624 80.08854 22.95625 79.68229Q23.346874 79.27604 23.346874 78.635414Q23.346874 77.979164 22.940624 77.572914Q22.534374 77.15104 21.925 77.15104ZM26.39375 84.354164Q26.39375 84.072914 26.55 83.885414Q26.721874 83.697914 27.05 83.697914Q27.39375 83.697914 27.565624 83.885414Q27.7375 84.072914 27.7375 84.354164Q27.7375 84.61979 27.565624 84.80729Q27.39375 84.979164 27.05 84.979164Q26.721874 84.979164 26.55 84.80729Q26.39375 84.61979 26.39375 84.354164ZM34.6125 81.27604Q34.6125 83.18229 33.95625 84.11979Q33.315624 85.041664 31.925 85.041664Q30.565624 85.041664 29.909374 84.135414Q29.253124 83.229164 29.221874 81.416664L29.221874 79.979164Q29.221874 78.08854 29.8625 77.18229Q30.51875 76.260414 31.909374 76.260414Q33.284374 76.260414 33.940624 77.15104Q34.596874 78.02604 34.6125 79.86979L34.6125 81.27604ZM33.51875 79.791664Q33.51875 78.416664 33.128124 77.791664Q32.753124 77.15104 31.909374 77.15104Q31.08125 77.15104 30.690624 77.791664Q30.315624 78.416664 30.315624 79.71354L30.315624 81.447914Q30.315624 82.822914 30.70625 83.49479Q31.1125 84.15104 31.925 84.15104Q32.721874 84.15104 33.1125 83.52604Q33.503124 82.90104 33.51875 81.572914L33.51875 79.791664ZM36.159374 78.02604Q36.159374 77.260414 36.64375 76.760414Q37.14375 76.260414 37.909374 76.260414Q38.690624 76.260414 39.175 76.760414Q39.659374 77.260414 39.659374 78.05729L39.659374 78.479164Q39.659374 79.24479 39.159374 79.74479Q38.675 80.229164 37.925 80.229164Q37.159374 80.229164 36.659374 79.74479Q36.159374 79.24479 36.159374 78.43229L36.159374 78.02604ZM36.971874 78.479164Q36.971874 78.93229 37.221874 79.229164Q37.4875 79.52604 37.925 79.52604Q38.346874 79.52604 38.596874 79.24479Q38.846874 78.947914 38.846874 78.447914L38.846874 78.02604Q38.846874 77.572914 38.596874 77.27604Q38.346874 76.96354 37.909374 76.96354Q37.471874 76.96354 37.221874 77.27604Q36.971874 77.572914 36.971874 78.041664L36.971874 78.479164ZM40.315624 82.822914Q40.315624 82.05729 40.8 81.572914Q41.3 81.072914 42.065624 81.072914Q42.83125 81.072914 43.315624 81.572914Q43.815624 82.05729 43.815624 82.86979L43.815624 83.27604Q43.815624 84.041664 43.33125 84.541664Q42.846874 85.041664 42.08125 85.041664Q41.315624 85.041664 40.815624 84.55729Q40.315624 84.05729 40.315624 83.24479L40.315624 82.822914ZM41.128124 83.27604Q41.128124 83.74479 41.378124 84.041664Q41.64375 84.33854 42.08125 84.33854Q42.503124 84.33854 42.753124 84.05729Q43.003124 83.760414 43.003124 83.260414L43.003124 82.822914Q43.003124 82.354164 42.7375 82.072914Q42.4875 81.77604 42.065624 81.77604Q41.64375 81.77604 41.378124 82.072914Q41.128124 82.354164 41.128124 82.854164L41.128124 83.27604ZM38.175 84.27604L37.55 83.885414L41.721874 77.21354L42.33125 77.604164L38.175 84.27604Z" fill-rule="nonzero"/><path stroke="#757575" stroke-width="1.0" stroke-linecap="butt" d="M18.55 71.416664L145.23334 71.416664L264.85306 66.79509" fill-rule="nonzero"/><path fill="#9e9e9e" d="M266.85306 66.79509C266.85306 65.69052 265.95764 64.79509 264.85306 64.79509C263.7485 64.79509 262.85306 65.69052 262.85306 66.79509C262.85306 67.89966 263.7485 68.79509 264.85306 68.79509C265.95764 68.79509 266.85306 67.89966 266.85306 66.79509" fill-rule="nonzero"/><path fill="#1a1a1a" d="M19.534374 99.916664L19.534374 91.385414L22.33125 91.385414Q23.721874 91.385414 24.409374 91.96354Q25.1125 92.52604 25.1125 93.65104Q25.1125 94.260414 24.76875 94.729164Q24.440624 95.18229 23.846874 95.43229Q24.55 95.61979 24.940624 96.166664Q25.346874 96.697914 25.346874 97.447914Q25.346874 98.604164 24.596874 99.260414Q23.8625 99.916664 22.503124 99.916664L19.534374 99.916664ZM20.659374 95.93229L20.659374 98.99479L22.51875 98.99479Q23.315624 98.99479 23.76875 98.58854Q24.221874 98.18229 24.221874 97.46354Q24.221874 95.93229 22.534374 95.93229L20.659374 95.93229ZM20.659374 95.02604L22.3625 95.02604Q23.096874 95.02604 23.534374 94.666664Q23.9875 94.291664 23.9875 93.65104Q23.9875 92.947914 23.58125 92.635414Q23.175 92.30729 22.33125 92.30729L20.659374 92.30729L20.659374 95.02604ZM27.55 99.916664L26.471874 99.916664L26.471874 90.916664L27.55 90.916664L27.55 99.916664ZM33.284374 99.916664Q33.190624 99.729164 33.128124 99.24479Q32.378124 100.041664 31.33125 100.041664Q30.39375 100.041664 29.784374 99.510414Q29.190624 98.979164 29.190624 98.15104Q29.190624 97.166664 29.940624 96.61979Q30.690624 96.072914 32.065624 96.072914L33.1125 96.072914L33.1125 95.572914Q33.1125 95.010414 32.76875 94.68229Q32.440624 94.33854 31.76875 94.33854Q31.190624 94.33854 30.8 94.635414Q30.409374 94.916664 30.409374 95.33854L29.315624 95.33854Q29.315624 94.854164 29.64375 94.416664Q29.9875 93.979164 30.565624 93.729164Q31.14375 93.46354 31.83125 93.46354Q32.940624 93.46354 33.55 94.010414Q34.175 94.55729 34.20625 95.510414L34.20625 98.43229Q34.20625 99.30729 34.425 99.822914L34.425 99.916664L33.284374 99.916664ZM31.4875 99.08854Q32.003124 99.08854 32.45625 98.822914Q32.909374 98.55729 33.1125 98.135414L33.1125 96.83854L32.26875 96.83854Q30.26875 96.83854 30.26875 98.010414Q30.26875 98.510414 30.6125 98.80729Q30.95625 99.08854 31.4875 99.08854ZM38.909374 99.15104Q39.4875 99.15104 39.925 98.80729Q40.3625 98.447914 40.409374 97.916664L41.440624 97.916664Q41.409374 98.46354 41.05 98.96354Q40.70625 99.447914 40.128124 99.74479Q39.565624 100.041664 38.909374 100.041664Q37.6125 100.041664 36.846874 99.18229Q36.096874 98.30729 36.096874 96.80729L36.096874 96.61979Q36.096874 95.697914 36.425 94.979164Q36.76875 94.260414 37.39375 93.86979Q38.034374 93.46354 38.909374 93.46354Q39.971874 93.46354 40.675 94.104164Q41.39375 94.729164 41.440624 95.760414L40.409374 95.760414Q40.3625 95.135414 39.940624 94.74479Q39.51875 94.354164 38.909374 94.354164Q38.08125 94.354164 37.628124 94.947914Q37.175 95.541664 37.175 96.666664L37.175 96.86979Q37.175 97.96354 37.628124 98.55729Q38.08125 99.15104 38.909374 99.15104ZM44.14375 96.979164L43.45625 97.68229L43.45625 99.916664L42.378124 99.916664L42.378124 90.916664L43.45625 90.916664L43.45625 96.354164L44.034374 95.666664L46.01875 93.572914L47.33125 93.572914L44.8625 96.229164L47.628124 99.916664L46.346874 99.916664L44.14375 96.979164Z" fill-rule="nonzero"/><path fill="#9e9e9e" d="M23.83125 115.05729L25.01875 115.05729L25.01875 115.93229L23.83125 115.93229L23.83125 117.916664L22.753124 117.916664L22.753124 115.93229L18.8625 115.93229L18.8625 115.291664L22.675 109.385414L23.83125 109.385414L23.83125 115.05729ZM20.096874 115.05729L22.753124 115.05729L22.753124 110.86979L22.6125 111.104164L20.096874 115.05729ZM26.39375 117.354164Q26.39375 117.072914 26.55 116.885414Q26.721874 116.697914 27.05 116.697914Q27.39375 116.697914 27.565624 116.885414Q27.7375 117.072914 27.7375 117.354164Q27.7375 117.61979 27.565624 117.80729Q27.39375 117.979164 27.05 117.979164Q26.721874 117.979164 26.55 117.80729Q26.39375 117.61979 26.39375 117.354164ZM34.6125 114.27604Q34.6125 116.18229 33.95625 117.11979Q33.315624 118.041664 31.925 118.041664Q30.565624 118.041664 29.909374 117.135414Q29.253124 116.229164 29.221874 114.416664L29.221874 112.979164Q29.221874 111.08854 29.8625 110.18229Q30.51875 109.260414 31.909374 109.260414Q33.284374 109.260414 33.940624 110.15104Q34.596874 111.02604 34.6125 112.86979L34.6125 114.27604ZM33.51875 112.791664Q33.51875 111.416664 33.128124 110.791664Q32.753124 110.15104 31.909374 110.15104Q31.08125 110.15104 30.690624 110.791664Q30.315624 111.416664 30.315624 112.71354L30.315624 114.447914Q30.315624 115.822914 30.70625 116.49479Q31.1125 117.15104 31.925 117.15104Q32.721874 117.15104 33.1125 116.52604Q33.503124 115.90104 33.51875 114.572914L33.51875 112.791664ZM36.159374 111.02604Q36.159374 110.260414 36.64375 109.760414Q37.14375 109.260414 37.909374 109.260414Q38.690624 109.260414 39.175 109.760414Q39.659374 110.260414 39.659374 111.05729L39.659374 111.479164Q39.659374 112.24479 39.159374 112.74479Q38.675 113.229164 37.925 113.229164Q37.159374 113.229164 36.659374 112.74479Q36.159374 112.24479 36.159374 111.43229L36.159374 111.02604ZM36.971874 111.479164Q36.971874 111.93229 37.221874 112.229164Q37.4875 112.52604 37.925 112.52604Q38.346874 112.52604 38.596874 112.24479Q38.846874 111.947914 38.846874 111.447914L38.846874 111.02604Q38.846874 110.572914 38.596874 110.27604Q38.346874 109.96354 37.909374 109.96354Q37.471874 109.96354 37.221874 110.27604Q36.971874 110.572914 36.971874 111.041664L36.971874 111.479164ZM40.315624 115.822914Q40.315624 115.05729 40.8 114.572914Q41.3 114.072914 42.065624 114.072914Q42.83125 114.072914 43.315624 114.572914Q43.815624 115.05729 43.815624 115.86979L43.815624 116.27604Q43.815624 117.041664 43.33125 117.541664Q42.846874 118.041664 42.08125 118.041664Q41.315624 118.041664 40.815624 117.55729Q40.315624 117.05729 40.315624 116.24479L40.315624 115.822914ZM41.128124 116.27604Q41.128124 116.74479 41.378124 117.041664Q41.64375 117.33854 42.08125 117.33854Q42.503124 117.33854 42.753124 117.05729Q43.003124 116.760414 43.003124 116.260414L43.003124 115.822914Q43.003124 115.354164 42.7375 115.072914Q42.4875 114.77604 42.065624 114.77604Q41.64375 114.77604 41.378124 115.072914Q41.128124 115.354164 41.128124 115.854164L41.128124 116.27604ZM38.175 117.27604L37.55 116.885414L41.721874 110.21354L42.33125 110.604164L38.175 117.27604Z" fill-rule="nonzero"/><path stroke="#757575" stroke-width="1.0" stroke-linecap="butt" d="M18.55 104.416664L145.23334 104.416664L216.92929 89.34631" fill-rule="nonzero"/><path fill="#9e9e9e" d="M218.92929 89.34631C218.92929 88.24174 218.03386 87.34631 216.92929 87.34631C215.82472 87.34631 214.92929 88.24174 214.92929 89.34631C214.92929 90.45088 215.82472 91.34631 216.92929 91.34631C218.03386 91.34631 218.92929 90.45088 218.92929 89.34631" fill-rule="nonzero"/><path fill="#1a1a1a" d="M25.846874 131.79167Q25.409374 132.41667 24.628124 132.72917Q23.846874 133.04167 22.815624 133.04167Q21.784374 133.04167 20.971874 132.5573Q20.159374 132.0573 19.721874 131.15105Q19.284374 130.2448 19.26875 129.0573L19.26875 128.32292Q19.26875 126.38542 20.159374 125.32292Q21.065624 124.26042 22.690624 124.26042Q24.034374 124.26042 24.846874 124.94792Q25.659374 125.63542 25.846874 126.88542L24.721874 126.88542Q24.39375 125.19792 22.70625 125.19792Q21.565624 125.19792 20.9875 125.9948Q20.409374 126.77605 20.39375 128.29167L20.39375 128.97917Q20.39375 130.41667 21.05 131.27605Q21.70625 132.1198 22.83125 132.1198Q23.45625 132.1198 23.925 131.97917Q24.409374 131.83855 24.721874 131.4948L24.721874 129.58855L22.753124 129.58855L22.753124 128.66667L25.846874 128.66667L25.846874 131.79167ZM30.440624 127.54167Q30.190624 127.51042 29.909374 127.51042Q28.83125 127.51042 28.45625 128.41667L28.45625 132.91667L27.378124 132.91667L27.378124 126.57292L28.425 126.57292L28.440624 127.3073Q28.971874 126.46355 29.95625 126.46355Q30.26875 126.46355 30.440624 126.54167L30.440624 127.54167ZM34.003124 133.04167Q32.70625 133.04167 31.89375 132.19792Q31.096874 131.33855 31.096874 129.91667L31.096874 129.72917Q31.096874 128.77605 31.45625 128.04167Q31.815624 127.29167 32.45625 126.88542Q33.1125 126.46355 33.8625 126.46355Q35.096874 126.46355 35.784374 127.27605Q36.471874 128.08855 36.471874 129.60417L36.471874 130.0573L32.175 130.0573Q32.20625 130.9948 32.721874 131.57292Q33.253124 132.15105 34.065624 132.15105Q34.628124 132.15105 35.01875 131.91667Q35.425 131.6823 35.7375 131.29167L36.39375 131.8073Q35.596874 133.04167 34.003124 133.04167ZM33.8625 127.35417Q33.20625 127.35417 32.753124 127.83855Q32.315624 128.3073 32.221874 129.16667L35.39375 129.16667L35.39375 129.08855Q35.346874 128.26042 34.940624 127.8073Q34.55 127.35417 33.8625 127.35417ZM39.440624 131.32292L40.925 126.57292L42.08125 126.57292L39.534374 133.90105Q38.940624 135.47917 37.659374 135.47917L37.440624 135.46355L37.05 135.38542L37.05 134.51042L37.33125 134.52605Q37.89375 134.52605 38.190624 134.3073Q38.503124 134.08855 38.70625 133.4948L38.940624 132.83855L36.675 126.57292L37.8625 126.57292L39.440624 131.32292Z" fill-rule="nonzero"/><path fill="#9e9e9e" d="M23.83125 148.0573L25.01875 148.0573L25.01875 148.9323L23.83125 148.9323L23.83125 150.91667L22.753124 150.91667L22.753124 148.9323L18.8625 148.9323L18.8625 148.29167L22.675 142.38542L23.83125 142.38542L23.83125 148.0573ZM20.096874 148.0573L22.753124 148.0573L22.753124 143.8698L22.6125 144.10417L20.096874 148.0573ZM26.39375 150.35417Q26.39375 150.07292 26.55 149.88542Q26.721874 149.69792 27.05 149.69792Q27.39375 149.69792 27.565624 149.88542Q27.7375 150.07292 27.7375 150.35417Q27.7375 150.6198 27.565624 150.8073Q27.39375 150.97917 27.05 150.97917Q26.721874 150.97917 26.55 150.8073Q26.39375 150.6198 26.39375 150.35417ZM34.6125 147.27605Q34.6125 149.1823 33.95625 150.1198Q33.315624 151.04167 31.925 151.04167Q30.565624 151.04167 29.909374 150.13542Q29.253124 149.22917 29.221874 147.41667L29.221874 145.97917Q29.221874 144.08855 29.8625 143.1823Q30.51875 142.26042 31.909374 142.26042Q33.284374 142.26042 33.940624 143.15105Q34.596874 144.02605 34.6125 145.8698L34.6125 147.27605ZM33.51875 145.79167Q33.51875 144.41667 33.128124 143.79167Q32.753124 143.15105 31.909374 143.15105Q31.08125 143.15105 30.690624 143.79167Q30.315624 144.41667 30.315624 145.71355L30.315624 147.44792Q30.315624 148.82292 30.70625 149.4948Q31.1125 150.15105 31.925 150.15105Q32.721874 150.15105 33.1125 149.52605Q33.503124 148.90105 33.51875 147.57292L33.51875 145.79167ZM36.159374 144.02605Q36.159374 143.26042 36.64375 142.76042Q37.14375 142.26042 37.909374 142.26042Q38.690624 142.26042 39.175 142.76042Q39.659374 143.26042 39.659374 144.0573L39.659374 144.47917Q39.659374 145.2448 39.159374 145.7448Q38.675 146.22917 37.925 146.22917Q37.159374 146.22917 36.659374 145.7448Q36.159374 145.2448 36.159374 144.4323L36.159374 144.02605ZM36.971874 144.47917Q36.971874 144.9323 37.221874 145.22917Q37.4875 145.52605 37.925 145.52605Q38.346874 145.52605 38.596874 145.2448Q38.846874 144.94792 38.846874 144.44792L38.846874 144.02605Q38.846874 143.57292 38.596874 143.27605Q38.346874 142.96355 37.909374 142.96355Q37.471874 142.96355 37.221874 143.27605Q36.971874 143.57292 36.971874 144.04167L36.971874 144.47917ZM40.315624 148.82292Q40.315624 148.0573 40.8 147.57292Q41.3 147.07292 42.065624 147.07292Q42.83125 147.07292 43.315624 147.57292Q43.815624 148.0573 43.815624 148.8698L43.815624 149.27605Q43.815624 150.04167 43.33125 150.54167Q42.846874 151.04167 42.08125 151.04167Q41.315624 151.04167 40.815624 150.5573Q40.315624 150.0573 40.315624 149.2448L40.315624 148.82292ZM41.128124 149.27605Q41.128124 149.7448 41.378124 150.04167Q41.64375 150.33855 42.08125 150.33855Q42.503124 150.33855 42.753124 150.0573Q43.003124 149.76042 43.003124 149.26042L43.003124 148.82292Q43.003124 148.35417 42.7375 148.07292Q42.4875 147.77605 42.065624 147.77605Q41.64375 147.77605 41.378124 148.07292Q41.128124 148.35417 41.128124 148.85417L41.128124 149.27605ZM38.175 150.27605L37.55 149.88542L41.721874 143.21355L42.33125 143.60417L38.175 150.27605Z" fill-rule="nonzero"/><path stroke="#757575" stroke-width="1.0" stroke-linecap="butt" d="M18.55 137.41667L145.23334 137.41667L191.10464 113.59726" fill-rule="nonzero"/><path fill="#9e9e9e" d="M193.10464 113.59726C193.10464 112.49269 192.20921 111.59726 191.10464 111.59726C190.00008 111.59726 189.10464 112.49269 189.10464 113.59726C189.10464 114.701836 190.00008 115.59726 191.10464 115.59726C192.20921 115.59726 193.10464 114.701836 193.10464 113.59726" fill-rule="nonzero"/><path fill="#1a1a1a" d="M19.534374 165.91667L19.534374 157.38542L22.33125 157.38542Q23.721874 157.38542 24.409374 157.96355Q25.1125 158.52605 25.1125 159.65105Q25.1125 160.26042 24.76875 160.72917Q24.440624 161.1823 23.846874 161.4323Q24.55 161.6198 24.940624 162.16667Q25.346874 162.69792 25.346874 163.44792Q25.346874 164.60417 24.596874 165.26042Q23.8625 165.91667 22.503124 165.91667L19.534374 165.91667ZM20.659374 161.9323L20.659374 164.9948L22.51875 164.9948Q23.315624 164.9948 23.76875 164.58855Q24.221874 164.1823 24.221874 163.46355Q24.221874 161.9323 22.534374 161.9323L20.659374 161.9323ZM20.659374 161.02605L22.3625 161.02605Q23.096874 161.02605 23.534374 160.66667Q23.9875 160.29167 23.9875 159.65105Q23.9875 158.94792 23.58125 158.63542Q23.175 158.3073 22.33125 158.3073L20.659374 158.3073L20.659374 161.02605ZM29.440624 160.54167Q29.190624 160.51042 28.909374 160.51042Q27.83125 160.51042 27.45625 161.41667L27.45625 165.91667L26.378124 165.91667L26.378124 159.57292L27.425 159.57292L27.440624 160.3073Q27.971874 159.46355 28.95625 159.46355Q29.26875 159.46355 29.440624 159.54167L29.440624 160.54167ZM30.08125 162.6823Q30.08125 161.76042 30.440624 161.01042Q30.815624 160.26042 31.471874 159.8698Q32.128124 159.46355 32.95625 159.46355Q34.253124 159.46355 35.05 160.35417Q35.8625 161.2448 35.8625 162.7448L35.8625 162.82292Q35.8625 163.7448 35.503124 164.47917Q35.14375 165.21355 34.4875 165.63542Q33.83125 166.04167 32.971874 166.04167Q31.690624 166.04167 30.878124 165.15105Q30.08125 164.2448 30.08125 162.76042L30.08125 162.6823ZM31.175 162.82292Q31.175 163.8698 31.659374 164.51042Q32.159374 165.15105 32.971874 165.15105Q33.8 165.15105 34.284374 164.51042Q34.76875 163.85417 34.76875 162.6823Q34.76875 161.65105 34.26875 161.01042Q33.784374 160.35417 32.95625 160.35417Q32.159374 160.35417 31.659374 160.9948Q31.175 161.6198 31.175 162.82292ZM42.9875 164.41667L44.20625 159.57292L45.284374 159.57292L43.440624 165.91667L42.565624 165.91667L41.01875 161.10417L39.51875 165.91667L38.64375 165.91667L36.8 159.57292L37.878124 159.57292L39.128124 164.32292L40.6125 159.57292L41.471874 159.57292L42.9875 164.41667ZM47.39375 159.57292L47.425 160.3698Q48.159374 159.46355 49.33125 159.46355Q51.346874 159.46355 51.3625 161.72917L51.3625 165.91667L50.26875 165.91667L50.26875 161.71355Q50.26875 161.04167 49.95625 160.71355Q49.659374 160.38542 49.003124 160.38542Q48.471874 160.38542 48.065624 160.66667Q47.675 160.94792 47.45625 161.40105L47.45625 165.91667L46.378124 165.91667L46.378124 159.57292L47.39375 159.57292Z" fill-rule="nonzero"/><path fill="#9e9e9e" d="M23.83125 181.0573L25.01875 181.0573L25.01875 181.9323L23.83125 181.9323L23.83125 183.91667L22.753124 183.91667L22.753124 181.9323L18.8625 181.9323L18.8625 181.29167L22.675 175.38542L23.83125 175.38542L23.83125 181.0573ZM20.096874 181.0573L22.753124 181.0573L22.753124 176.8698L22.6125 177.10417L20.096874 181.0573ZM26.39375 183.35417Q26.39375 183.07292 26.55 182.88542Q26.721874 182.69792 27.05 182.69792Q27.39375 182.69792 27.565624 182.88542Q27.7375 183.07292 27.7375 183.35417Q27.7375 183.6198 27.565624 183.8073Q27.39375 183.97917 27.05 183.97917Q26.721874 183.97917 26.55 183.8073Q26.39375 183.6198 26.39375 183.35417ZM34.6125 180.27605Q34.6125 182.1823 33.95625 183.1198Q33.315624 184.04167 31.925 184.04167Q30.565624 184.04167 29.909374 183.13542Q29.253124 182.22917 29.221874 180.41667L29.221874 178.97917Q29.221874 177.08855 29.8625 176.1823Q30.51875 175.26042 31.909374 175.26042Q33.284374 175.26042 33.940624 176.15105Q34.596874 177.02605 34.6125 178.8698L34.6125 180.27605ZM33.51875 178.79167Q33.51875 177.41667 33.128124 176.79167Q32.753124 176.15105 31.909374 176.15105Q31.08125 176.15105 30.690624 176.79167Q30.315624 177.41667 30.315624 178.71355L30.315624 180.44792Q30.315624 181.82292 30.70625 182.4948Q31.1125 183.15105 31.925 183.15105Q32.721874 183.15105 33.1125 182.52605Q33.503124 181.90105 33.51875 180.57292L33.51875 178.79167ZM36.159374 177.02605Q36.159374 176.26042 36.64375 175.76042Q37.14375 175.26042 37.909374 175.26042Q38.690624 175.26042 39.175 175.76042Q39.659374 176.26042 39.659374 177.0573L39.659374 177.47917Q39.659374 178.2448 39.159374 178.7448Q38.675 179.22917 37.925 179.22917Q37.159374 179.22917 36.659374 178.7448Q36.159374 178.2448 36.159374 177.4323L36.159374 177.02605ZM36.971874 177.47917Q36.971874 177.9323 37.221874 178.22917Q37.4875 178.52605 37.925 178.52605Q38.346874 178.52605 38.596874 178.2448Q38.846874 177.94792 38.846874 177.44792L38.846874 177.02605Q38.846874 176.57292 38.596874 176.27605Q38.346874 175.96355 37.909374 175.96355Q37.471874 175.96355 37.221874 176.27605Q36.971874 176.57292 36.971874 177.04167L36.971874 177.47917ZM40.315624 181.82292Q40.315624 181.0573 40.8 180.57292Q41.3 180.07292 42.065624 180.07292Q42.83125 180.07292 43.315624 180.57292Q43.815624 181.0573 43.815624 181.8698L43.815624 182.27605Q43.815624 183.04167 43.33125 183.54167Q42.846874 184.04167 42.08125 184.04167Q41.315624 184.04167 40.815624 183.5573Q40.315624 183.0573 40.315624 182.2448L40.315624 181.82292ZM41.128124 182.27605Q41.128124 182.7448 41.378124 183.04167Q41.64375 183.33855 42.08125 183.33855Q42.503124 183.33855 42.753124 183.0573Q43.003124 182.76042 43.003124 182.26042L43.003124 181.82292Q43.003124 181.35417 42.7375 181.07292Q42.4875 180.77605 42.065624 180.77605Q41.64375 180.77605 41.378124 181.07292Q41.128124 181.35417 41.128124 181.85417L41.128124 182.27605ZM38.175 183.27605L37.55 182.88542L41.721874 176.21355L42.33125 176.60417L38.175 183.27605Z" fill-rule="nonzero"/><path stroke="#757575" stroke-width="1.0" stroke-linecap="butt" d="M18.55 170.41667L145.23334 170.41667L172.1223 143.50865" fill-rule="nonzero"/><path fill="#9e9e9e" d="M174.1223 143.50865C174.1223 142.40408 173.22687 141.50865 172.1223 141.50865C171.01773 141.50865 170.1223 142.40408 170.1223 143.50865C170.1223 144.61322 171.01773 145.50865 172.1223 145.50865C173.22687 145.50865 174.1223 144.61322 174.1223 143.50865" fill-rule="nonzero"/><path fill="#1a1a1a" d="M20.659374 195.57292L20.659374 198.91667L19.534374 198.91667L19.534374 190.38542L22.690624 190.38542Q24.08125 190.38542 24.878124 191.10417Q25.675 191.8073 25.675 192.9948Q25.675 194.22917 24.89375 194.90105Q24.128124 195.57292 22.675 195.57292L20.659374 195.57292ZM20.659374 194.65105L22.690624 194.65105Q23.596874 194.65105 24.065624 194.22917Q24.55 193.8073 24.55 193.01042Q24.55 192.2448 24.065624 191.79167Q23.596874 191.32292 22.753124 191.3073L20.659374 191.3073L20.659374 194.65105ZM31.284374 198.29167Q30.659374 199.04167 29.425 199.04167Q28.409374 199.04167 27.878124 198.44792Q27.346874 197.85417 27.346874 196.69792L27.346874 192.57292L28.425 192.57292L28.425 196.66667Q28.425 198.1198 29.596874 198.1198Q30.846874 198.1198 31.253124 197.1823L31.253124 192.57292L32.346874 192.57292L32.346874 198.91667L31.315624 198.91667L31.284374 198.29167ZM37.440624 193.54167Q37.190624 193.51042 36.909374 193.51042Q35.83125 193.51042 35.45625 194.41667L35.45625 198.91667L34.378124 198.91667L34.378124 192.57292L35.425 192.57292L35.440624 193.3073Q35.971874 192.46355 36.95625 192.46355Q37.26875 192.46355 37.440624 192.54167L37.440624 193.54167ZM43.721874 195.82292Q43.721874 197.26042 43.065624 198.15105Q42.409374 199.04167 41.26875 199.04167Q40.1125 199.04167 39.45625 198.3073L39.45625 201.35417L38.378124 201.35417L38.378124 192.57292L39.3625 192.57292L39.409374 193.27605Q40.08125 192.46355 41.253124 192.46355Q42.39375 192.46355 43.05 193.32292Q43.721874 194.1823 43.721874 195.71355L43.721874 195.82292ZM42.64375 195.69792Q42.64375 194.6198 42.175 194.01042Q41.721874 193.38542 40.925 193.38542Q39.940624 193.38542 39.45625 194.2448L39.45625 197.27605Q39.940624 198.15105 40.940624 198.15105Q41.721874 198.15105 42.175 197.54167Q42.64375 196.91667 42.64375 195.69792ZM46.55 198.91667L45.471874 198.91667L45.471874 189.91667L46.55 189.91667L46.55 198.91667ZM51.003124 199.04167Q49.70625 199.04167 48.89375 198.19792Q48.096874 197.33855 48.096874 195.91667L48.096874 195.72917Q48.096874 194.77605 48.45625 194.04167Q48.815624 193.29167 49.45625 192.88542Q50.1125 192.46355 50.8625 192.46355Q52.096874 192.46355 52.784374 193.27605Q53.471874 194.08855 53.471874 195.60417L53.471874 196.0573L49.175 196.0573Q49.20625 196.9948 49.721874 197.57292Q50.253124 198.15105 51.065624 198.15105Q51.628124 198.15105 52.01875 197.91667Q52.425 197.6823 52.7375 197.29167L53.39375 197.8073Q52.596874 199.04167 51.003124 199.04167ZM50.8625 193.35417Q50.20625 193.35417 49.753124 193.83855Q49.315624 194.3073 49.221874 195.16667L52.39375 195.16667L52.39375 195.08855Q52.346874 194.26042 51.940624 193.8073Q51.55 193.35417 50.8625 193.35417Z" fill-rule="nonzero"/><path fill="#9e9e9e" d="M23.83125 214.0573L25.01875 214.0573L25.01875 214.9323L23.83125 214.9323L23.83125 216.91667L22.753124 216.91667L22.753124 214.9323L18.8625 214.9323L18.8625 214.29167L22.675 208.38542L23.83125 208.38542L23.83125 214.0573ZM20.096874 214.0573L22.753124 214.0573L22.753124 209.8698L22.6125 210.10417L20.096874 214.0573ZM26.39375 216.35417Q26.39375 216.07292 26.55 215.88542Q26.721874 215.69792 27.05 215.69792Q27.39375 215.69792 27.565624 215.88542Q27.7375 216.07292 27.7375 216.35417Q27.7375 216.6198 27.565624 216.8073Q27.39375 216.97917 27.05 216.97917Q26.721874 216.97917 26.55 216.8073Q26.39375 216.6198 26.39375 216.35417ZM34.6125 213.27605Q34.6125 215.1823 33.95625 216.1198Q33.315624 217.04167 31.925 217.04167Q30.565624 217.04167 29.909374 216.13542Q29.253124 215.22917 29.221874 213.41667L29.221874 211.97917Q29.221874 210.08855 29.8625 209.1823Q30.51875 208.26042 31.909374 208.26042Q33.284374 208.26042 33.940624 209.15105Q34.596874 210.02605 34.6125 211.8698L34.6125 213.27605ZM33.51875 211.79167Q33.51875 210.41667 33.128124 209.79167Q32.753124 209.15105 31.909374 209.15105Q31.08125 209.15105 30.690624 209.79167Q30.315624 210.41667 30.315624 211.71355L30.315624 213.44792Q30.315624 214.82292 30.70625 215.4948Q31.1125 216.15105 31.925 216.15105Q32.721874 216.15105 33.1125 215.52605Q33.503124 214.90105 33.51875 213.57292L33.51875 211.79167ZM36.159374 210.02605Q36.159374 209.26042 36.64375 208.76042Q37.14375 208.26042 37.909374 208.26042Q38.690624 208.26042 39.175 208.76042Q39.659374 209.26042 39.659374 210.0573L39.659374 210.47917Q39.659374 211.2448 39.159374 211.7448Q38.675 212.22917 37.925 212.22917Q37.159374 212.22917 36.659374 211.7448Q36.159374 211.2448 36.159374 210.4323L36.159374 210.02605ZM36.971874 210.47917Q36.971874 210.9323 37.221874 211.22917Q37.4875 211.52605 37.925 211.52605Q38.346874 211.52605 38.596874 211.2448Q38.846874 210.94792 38.846874 210.44792L38.846874 210.02605Q38.846874 209.57292 38.596874 209.27605Q38.346874 208.96355 37.909374 208.96355Q37.471874 208.96355 37.221874 209.27605Q36.971874 209.57292 36.971874 210.04167L36.971874 210.47917ZM40.315624 214.82292Q40.315624 214.0573 40.8 213.57292Q41.3 213.07292 42.065624 213.07292Q42.83125 213.07292 43.315624 213.57292Q43.815624 214.0573 43.815624 214.8698L43.815624 215.27605Q43.815624 216.04167 43.33125 216.54167Q42.846874 217.04167 42.08125 217.04167Q41.315624 217.04167 40.815624 216.5573Q40.315624 216.0573 40.315624 215.2448L40.315624 214.82292ZM41.128124 215.27605Q41.128124 215.7448 41.378124 216.04167Q41.64375 216.33855 42.08125 216.33855Q42.503124 216.33855 42.753124 216.0573Q43.003124 215.76042 43.003124 215.26042L43.003124 214.82292Q43.003124 214.35417 42.7375 214.07292Q42.4875 213.77605 42.065624 213.77605Q41.64375 213.77605 41.378124 214.07292Q41.128124 214.35417 41.128124 214.85417L41.128124 215.27605ZM38.175 216.27605L37.55 215.88542L41.721874 209.21355L42.33125 209.60417L38.175 216.27605Z" fill-rule="nonzero"/><path stroke="#757575" stroke-width="1.0" stroke-linecap="butt" d="M18.55 203.41667L145.23334 203.41667L161.17497 177.20105" fill-rule="nonzero"/><path fill="#9e9e9e" d="M163.17497 177.20105C163.17497 176.09648 162.27956 175.20105 161.17497 175.20105C160.0704 175.20105 159.17497 176.09648 159.17497 177.20105C159.17497 178.30562 160.0704 179.20105 161.17497 179.20105C162.27956 179.20105 163.17497 178.30562 163.17497 177.20105" fill-rule="nonzero"/><path fill="#1a1a1a" d="M25.846874 301.08224Q25.409374 301.70724 24.628124 302.01974Q23.846874 302.33224 22.815624 302.33224Q21.784374 302.33224 20.971874 301.84787Q20.159374 301.34787 19.721874 300.44162Q19.284374 299.53537 19.26875 298.34787L19.26875 297.6135Q19.26875 295.676 20.159374 294.6135Q21.065624 293.551 22.690624 293.551Q24.034374 293.551 24.846874 294.2385Q25.659374 294.926 25.846874 296.176L24.721874 296.176Q24.39375 294.4885 22.70625 294.4885Q21.565624 294.4885 20.9875 295.28537Q20.409374 296.06662 20.39375 297.58224L20.39375 298.26974Q20.39375 299.70724 21.05 300.56662Q21.70625 301.41037 22.83125 301.41037Q23.45625 301.41037 23.925 301.26974Q24.409374 301.12912 24.721874 300.78537L24.721874 298.87912L22.753124 298.87912L22.753124 297.95724L25.846874 297.95724L25.846874 301.08224ZM30.440624 296.83224Q30.190624 296.801 29.909374 296.801Q28.83125 296.801 28.45625 297.70724L28.45625 302.20724L27.378124 302.20724L27.378124 295.8635L28.425 295.8635L28.440624 296.59787Q28.971874 295.75412 29.95625 295.75412Q30.26875 295.75412 30.440624 295.83224L30.440624 296.83224ZM34.003124 302.33224Q32.70625 302.33224 31.89375 301.4885Q31.096874 300.62912 31.096874 299.20724L31.096874 299.01974Q31.096874 298.06662 31.45625 297.33224Q31.815624 296.58224 32.45625 296.176Q33.1125 295.75412 33.8625 295.75412Q35.096874 295.75412 35.784374 296.56662Q36.471874 297.37912 36.471874 298.89474L36.471874 299.34787L32.175 299.34787Q32.20625 300.28537 32.721874 300.8635Q33.253124 301.44162 34.065624 301.44162Q34.628124 301.44162 35.01875 301.20724Q35.425 300.97287 35.7375 300.58224L36.39375 301.09787Q35.596874 302.33224 34.003124 302.33224ZM33.8625 296.64474Q33.20625 296.64474 32.753124 297.12912Q32.315624 297.59787 32.221874 298.45724L35.39375 298.45724L35.39375 298.37912Q35.346874 297.551 34.940624 297.09787Q34.55 296.64474 33.8625 296.64474ZM40.003124 302.33224Q38.70625 302.33224 37.89375 301.4885Q37.096874 300.62912 37.096874 299.20724L37.096874 299.01974Q37.096874 298.06662 37.45625 297.33224Q37.815624 296.58224 38.45625 296.176Q39.1125 295.75412 39.8625 295.75412Q41.096874 295.75412 41.784374 296.56662Q42.471874 297.37912 42.471874 298.89474L42.471874 299.34787L38.175 299.34787Q38.20625 300.28537 38.721874 300.8635Q39.253124 301.44162 40.065624 301.44162Q40.628124 301.44162 41.01875 301.20724Q41.425 300.97287 41.7375 300.58224L42.39375 301.09787Q41.596874 302.33224 40.003124 302.33224ZM39.8625 296.64474Q39.20625 296.64474 38.753124 297.12912Q38.315624 297.59787 38.221874 298.45724L41.39375 298.45724L41.39375 298.37912Q41.346874 297.551 40.940624 297.09787Q40.55 296.64474 39.8625 296.64474ZM44.39375 295.8635L44.425 296.66037Q45.159374 295.75412 46.33125 295.75412Q48.346874 295.75412 48.3625 298.01974L48.3625 302.20724L47.26875 302.20724L47.26875 298.00412Q47.26875 297.33224 46.95625 297.00412Q46.659374 296.676 46.003124 296.676Q45.471874 296.676 45.065624 296.95724Q44.675 297.2385 44.45625 297.69162L44.45625 302.20724L43.378124 302.20724L43.378124 295.8635L44.39375 295.8635Z" fill-rule="nonzero"/><path fill="#9e9e9e" d="M24.846874 320.20724L19.253124 320.20724L19.253124 319.426L22.20625 316.14474Q22.8625 315.39474 23.1125 314.94162Q23.3625 314.47287 23.3625 313.97287Q23.3625 313.301 22.95625 312.87912Q22.565624 312.44162 21.878124 312.44162Q21.08125 312.44162 20.628124 312.91037Q20.175 313.3635 20.175 314.19162L19.096874 314.19162Q19.096874 313.00412 19.846874 312.28537Q20.6125 311.551 21.878124 311.551Q23.08125 311.551 23.76875 312.176Q24.45625 312.801 24.45625 313.84787Q24.45625 315.09787 22.846874 316.84787L20.565624 319.31662L24.846874 319.31662L24.846874 320.20724ZM31.440624 313.89474Q31.440624 314.53537 31.096874 315.03537Q30.753124 315.53537 30.190624 315.81662Q30.846874 316.09787 31.2375 316.66037Q31.628124 317.20724 31.628124 317.91037Q31.628124 319.00412 30.878124 319.676Q30.14375 320.33224 28.925 320.33224Q27.690624 320.33224 26.940624 319.676Q26.20625 319.00412 26.20625 317.91037Q26.20625 317.20724 26.58125 316.66037Q26.95625 316.09787 27.628124 315.81662Q27.065624 315.53537 26.7375 315.03537Q26.409374 314.53537 26.409374 313.89474Q26.409374 312.81662 27.096874 312.19162Q27.784374 311.551 28.925 311.551Q30.05 311.551 30.7375 312.19162Q31.440624 312.81662 31.440624 313.89474ZM30.55 317.87912Q30.55 317.16037 30.096874 316.72287Q29.64375 316.26974 28.909374 316.26974Q28.175 316.26974 27.721874 316.72287Q27.284374 317.16037 27.284374 317.89474Q27.284374 318.6135 27.721874 319.03537Q28.159374 319.44162 28.925 319.44162Q29.675 319.44162 30.1125 319.01974Q30.55 318.59787 30.55 317.87912ZM28.925 312.44162Q28.284374 312.44162 27.878124 312.84787Q27.4875 313.2385 27.4875 313.926Q27.4875 314.56662 27.878124 314.97287Q28.26875 315.37912 28.909374 315.37912Q29.565624 315.37912 29.95625 314.97287Q30.346874 314.56662 30.346874 313.926Q30.346874 313.26974 29.940624 312.8635Q29.534374 312.44162 28.925 312.44162ZM33.39375 319.64474Q33.39375 319.3635 33.55 319.176Q33.721874 318.9885 34.05 318.9885Q34.39375 318.9885 34.565624 319.176Q34.7375 319.3635 34.7375 319.64474Q34.7375 319.91037 34.565624 320.09787Q34.39375 320.26974 34.05 320.26974Q33.721874 320.26974 33.55 320.09787Q33.39375 319.91037 33.39375 319.64474ZM41.6125 316.56662Q41.6125 318.47287 40.95625 319.41037Q40.315624 320.33224 38.925 320.33224Q37.565624 320.33224 36.909374 319.426Q36.253124 318.51974 36.221874 316.70724L36.221874 315.26974Q36.221874 313.37912 36.8625 312.47287Q37.51875 311.551 38.909374 311.551Q40.284374 311.551 40.940624 312.44162Q41.596874 313.31662 41.6125 315.16037L41.6125 316.56662ZM40.51875 315.08224Q40.51875 313.70724 40.128124 313.08224Q39.753124 312.44162 38.909374 312.44162Q38.08125 312.44162 37.690624 313.08224Q37.315624 313.70724 37.315624 315.00412L37.315624 316.7385Q37.315624 318.1135 37.70625 318.78537Q38.1125 319.44162 38.925 319.44162Q39.721874 319.44162 40.1125 318.81662Q40.503124 318.19162 40.51875 316.8635L40.51875 315.08224ZM43.159374 313.31662Q43.159374 312.551 43.64375 312.051Q44.14375 311.551 44.909374 311.551Q45.690624 311.551 46.175 312.051Q46.659374 312.551 46.659374 313.34787L46.659374 313.76974Q46.659374 314.53537 46.159374 315.03537Q45.675 315.51974 44.925 315.51974Q44.159374 315.51974 43.659374 315.03537Q43.159374 314.53537 43.159374 313.72287L43.159374 313.31662ZM43.971874 313.76974Q43.971874 314.22287 44.221874 314.51974Q44.4875 314.81662 44.925 314.81662Q45.346874 314.81662 45.596874 314.53537Q45.846874 314.2385 45.846874 313.7385L45.846874 313.31662Q45.846874 312.8635 45.596874 312.56662Q45.346874 312.25412 44.909374 312.25412Q44.471874 312.25412 44.221874 312.56662Q43.971874 312.8635 43.971874 313.33224L43.971874 313.76974ZM47.315624 318.1135Q47.315624 317.34787 47.8 316.8635Q48.3 316.3635 49.065624 316.3635Q49.83125 316.3635 50.315624 316.8635Q50.815624 317.34787 50.815624 318.16037L50.815624 318.56662Q50.815624 319.33224 50.33125 319.83224Q49.846874 320.33224 49.08125 320.33224Q48.315624 320.33224 47.815624 319.84787Q47.315624 319.34787 47.315624 318.53537L47.315624 318.1135ZM48.128124 318.56662Q48.128124 319.03537 48.378124 319.33224Q48.64375 319.62912 49.08125 319.62912Q49.503124 319.62912 49.753124 319.34787Q50.003124 319.051 50.003124 318.551L50.003124 318.1135Q50.003124 317.64474 49.7375 317.3635Q49.4875 317.06662 49.065624 317.06662Q48.64375 317.06662 48.378124 317.3635Q48.128124 317.64474 48.128124 318.14474L48.128124 318.56662ZM45.175 319.56662L44.55 319.176L48.721874 312.50412L49.33125 312.89474L45.175 319.56662Z" fill-rule="nonzero"/><path stroke="#757575" stroke-width="1.0" stroke-linecap="butt" d="M18.55 306.70724L145.23334 306.70724L203.2541 306.70724" fill-rule="nonzero"/><path fill="#9e9e9e" d="M205.2541 306.70724C205.2541 305.6027 204.35867 304.70724 203.2541 304.70724C202.14954 304.70724 201.2541 305.6027 201.2541 306.70724C201.2541 307.81183 202.14954 308.70724 203.2541 308.70724C204.35867 308.70724 205.2541 307.81183 205.2541 306.70724" fill-rule="nonzero"/><path fill="#1a1a1a" d="M549.9969 105.112885Q549.9969 106.362885 549.575 107.300385Q549.15314 108.22226 548.3719 108.72226Q547.60626 109.22226 546.575 109.22226Q545.575 109.22226 544.79376 108.72226Q544.0125 108.22226 543.575 107.31601Q543.15314 106.394135 543.1375 105.175385L543.1375 104.56601Q543.1375 103.331635 543.5594 102.394135Q543.9969 101.456635 544.77814 100.956635Q545.5594 100.44101 546.575 100.44101Q547.59064 100.44101 548.3719 100.94101Q549.15314 101.44101 549.575 102.37851Q549.9969 103.31601 549.9969 104.56601L549.9969 105.112885ZM548.8875 104.550385Q548.8875 103.03476 548.27814 102.22226Q547.66876 101.40976 546.575 101.40976Q545.4969 101.40976 544.8875 102.22226Q544.27814 103.03476 544.2625 104.47226L544.2625 105.112885Q544.2625 106.581635 544.8719 107.425385Q545.4969 108.25351 546.575 108.25351Q547.66876 108.25351 548.2625 107.47226Q548.8719 106.675385 548.8875 105.19101L548.8875 104.550385ZM554.34064 103.72226Q554.09064 103.69101 553.8094 103.69101Q552.73126 103.69101 552.35626 104.59726L552.35626 109.09726L551.27814 109.09726L551.27814 102.75351L552.325 102.75351L552.34064 103.487885Q552.8719 102.644135 553.85626 102.644135Q554.16876 102.644135 554.34064 102.72226L554.34064 103.72226ZM559.1844 109.09726Q559.09064 108.90976 559.02814 108.425385Q558.27814 109.22226 557.23126 109.22226Q556.29376 109.22226 555.6844 108.69101Q555.09064 108.15976 555.09064 107.331635Q555.09064 106.34726 555.84064 105.800385Q556.59064 105.25351 557.96564 105.25351L559.0125 105.25351L559.0125 104.75351Q559.0125 104.19101 558.66876 103.862885Q558.34064 103.519135 557.66876 103.519135Q557.09064 103.519135 556.7 103.81601Q556.3094 104.09726 556.3094 104.519135L555.21564 104.519135Q555.21564 104.03476 555.54376 103.59726Q555.8875 103.15976 556.46564 102.90976Q557.04376 102.644135 557.73126 102.644135Q558.84064 102.644135 559.45 103.19101Q560.075 103.737885 560.10626 104.69101L560.10626 107.612885Q560.10626 108.487885 560.325 109.00351L560.325 109.09726L559.1844 109.09726ZM557.3875 108.269135Q557.90314 108.269135 558.35626 108.00351Q558.8094 107.737885 559.0125 107.31601L559.0125 106.019135L558.16876 106.019135Q556.16876 106.019135 556.16876 107.19101Q556.16876 107.69101 556.5125 107.987885Q556.85626 108.269135 557.3875 108.269135ZM563.29376 102.75351L563.325 103.550385Q564.0594 102.644135 565.23126 102.644135Q567.2469 102.644135 567.2625 104.90976L567.2625 109.09726L566.16876 109.09726L566.16876 104.894135Q566.16876 104.22226 565.85626 103.894135Q565.5594 103.56601 564.90314 103.56601Q564.3719 103.56601 563.96564 103.84726Q563.575 104.12851 563.35626 104.581635L563.35626 109.09726L562.27814 109.09726L562.27814 102.75351L563.29376 102.75351ZM569.0125 105.87851Q569.0125 104.394135 569.7 103.519135Q570.3875 102.644135 571.5125 102.644135Q572.66876 102.644135 573.325 103.456635L573.3719 102.75351L574.3719 102.75351L574.3719 108.94101Q574.3719 110.175385 573.6375 110.87851Q572.90314 111.59726 571.6844 111.59726Q570.9969 111.59726 570.34064 111.300385Q569.6844 111.00351 569.34064 110.50351L569.90314 109.84726Q570.59064 110.706635 571.60626 110.706635Q572.3875 110.706635 572.825 110.25351Q573.27814 109.81601 573.27814 109.00351L573.27814 108.456635Q572.6219 109.22226 571.4969 109.22226Q570.3875 109.22226 569.7 108.331635Q569.0125 107.425385 569.0125 105.87851ZM570.10626 106.00351Q570.10626 107.06601 570.54376 107.69101Q570.98126 108.300385 571.77814 108.300385Q572.79376 108.300385 573.27814 107.362885L573.27814 104.47226Q572.77814 103.56601 571.77814 103.56601Q570.9969 103.56601 570.54376 104.175385Q570.10626 104.78476 570.10626 106.00351ZM578.90314 109.22226Q577.60626 109.22226 576.79376 108.37851Q575.9969 107.519135 575.9969 106.09726L575.9969 105.90976Q575.9969 104.956635 576.35626 104.22226Q576.71564 103.47226 577.35626 103.06601Q578.0125 102.644135 578.7625 102.644135Q579.9969 102.644135 580.6844 103.456635Q581.3719 104.269135 581.3719 105.78476L581.3719 106.237885L577.075 106.237885Q577.10626 107.175385 577.6219 107.75351Q578.15314 108.331635 578.96564 108.331635Q579.52814 108.331635 579.91876 108.09726Q580.325 107.862885 580.6375 107.47226L581.29376 107.987885Q580.4969 109.22226 578.90314 109.22226ZM578.7625 103.53476Q578.10626 103.53476 577.65314 104.019135Q577.21564 104.487885 577.1219 105.34726L580.29376 105.34726L580.29376 105.269135Q580.2469 104.44101 579.84064 103.987885Q579.45 103.53476 578.7625 103.53476Z" fill-rule="nonzero"/><path fill="#9e9e9e" d="M554.7469 127.09726L549.15314 127.09726L549.15314 126.31601L552.10626 123.03476Q552.7625 122.28476 553.0125 121.831635Q553.2625 121.362885 553.2625 120.862885Q553.2625 120.19101 552.85626 119.769135Q552.46564 119.331635 551.77814 119.331635Q550.98126 119.331635 550.52814 119.800385Q550.075 120.25351 550.075 121.081635L548.9969 121.081635Q548.9969 119.894135 549.7469 119.175385Q550.5125 118.44101 551.77814 118.44101Q552.98126 118.44101 553.66876 119.06601Q554.35626 119.69101 554.35626 120.737885Q554.35626 121.987885 552.7469 123.737885L550.46564 126.206635L554.7469 126.206635L554.7469 127.09726ZM561.34064 120.78476Q561.34064 121.425385 560.9969 121.925385Q560.65314 122.425385 560.09064 122.706635Q560.7469 122.987885 561.1375 123.550385Q561.52814 124.09726 561.52814 124.800385Q561.52814 125.894135 560.77814 126.56601Q560.04376 127.22226 558.825 127.22226Q557.59064 127.22226 556.84064 126.56601Q556.10626 125.894135 556.10626 124.800385Q556.10626 124.09726 556.48126 123.550385Q556.85626 122.987885 557.52814 122.706635Q556.96564 122.425385 556.6375 121.925385Q556.3094 121.425385 556.3094 120.78476Q556.3094 119.706635 556.9969 119.081635Q557.6844 118.44101 558.825 118.44101Q559.95 118.44101 560.6375 119.081635Q561.34064 119.706635 561.34064 120.78476ZM560.45 124.769135Q560.45 124.050385 559.9969 123.612885Q559.54376 123.15976 558.8094 123.15976Q558.075 123.15976 557.6219 123.612885Q557.1844 124.050385 557.1844 124.78476Q557.1844 125.50351 557.6219 125.925385Q558.0594 126.331635 558.825 126.331635Q559.575 126.331635 560.0125 125.90976Q560.45 125.487885 560.45 124.769135ZM558.825 119.331635Q558.1844 119.331635 557.77814 119.737885Q557.3875 120.12851 557.3875 120.81601Q557.3875 121.456635 557.77814 121.862885Q558.16876 122.269135 558.8094 122.269135Q559.46564 122.269135 559.85626 121.862885Q560.2469 121.456635 560.2469 120.81601Q560.2469 120.15976 559.84064 119.75351Q559.4344 119.331635 558.825 119.331635ZM563.29376 126.53476Q563.29376 126.25351 563.45 126.06601Q563.6219 125.87851 563.95 125.87851Q564.29376 125.87851 564.46564 126.06601Q564.6375 126.25351 564.6375 126.53476Q564.6375 126.800385 564.46564 126.987885Q564.29376 127.15976 563.95 127.15976Q563.6219 127.15976 563.45 126.987885Q563.29376 126.800385 563.29376 126.53476ZM571.5125 123.456635Q571.5125 125.362885 570.85626 126.300385Q570.21564 127.22226 568.825 127.22226Q567.46564 127.22226 566.8094 126.31601Q566.15314 125.40976 566.1219 123.59726L566.1219 122.15976Q566.1219 120.269135 566.7625 119.362885Q567.41876 118.44101 568.8094 118.44101Q570.1844 118.44101 570.84064 119.331635Q571.4969 120.206635 571.5125 122.050385L571.5125 123.456635ZM570.41876 121.97226Q570.41876 120.59726 570.02814 119.97226Q569.65314 119.331635 568.8094 119.331635Q567.98126 119.331635 567.59064 119.97226Q567.21564 120.59726 567.21564 121.894135L567.21564 123.62851Q567.21564 125.00351 567.60626 125.675385Q568.0125 126.331635 568.825 126.331635Q569.6219 126.331635 570.0125 125.706635Q570.40314 125.081635 570.41876 123.75351L570.41876 121.97226ZM573.0594 120.206635Q573.0594 119.44101 573.54376 118.94101Q574.04376 118.44101 574.8094 118.44101Q575.59064 118.44101 576.075 118.94101Q576.5594 119.44101 576.5594 120.237885L576.5594 120.65976Q576.5594 121.425385 576.0594 121.925385Q575.575 122.40976 574.825 122.40976Q574.0594 122.40976 573.5594 121.925385Q573.0594 121.425385 573.0594 120.612885L573.0594 120.206635ZM573.8719 120.65976Q573.8719 121.112885 574.1219 121.40976Q574.3875 121.706635 574.825 121.706635Q575.2469 121.706635 575.4969 121.425385Q575.7469 121.12851 575.7469 120.62851L575.7469 120.206635Q575.7469 119.75351 575.4969 119.456635Q575.2469 119.144135 574.8094 119.144135Q574.3719 119.144135 574.1219 119.456635Q573.8719 119.75351 573.8719 120.22226L573.8719 120.65976ZM577.21564 125.00351Q577.21564 124.237885 577.7 123.75351Q578.2 123.25351 578.96564 123.25351Q579.73126 123.25351 580.21564 123.75351Q580.71564 124.237885 580.71564 125.050385L580.71564 125.456635Q580.71564 126.22226 580.23126 126.72226Q579.7469 127.22226 578.98126 127.22226Q578.21564 127.22226 577.71564 126.737885Q577.21564 126.237885 577.21564 125.425385L577.21564 125.00351ZM578.02814 125.456635Q578.02814 125.925385 578.27814 126.22226Q578.54376 126.519135 578.98126 126.519135Q579.40314 126.519135 579.65314 126.237885Q579.90314 125.94101 579.90314 125.44101L579.90314 125.00351Q579.90314 124.53476 579.6375 124.25351Q579.3875 123.956635 578.96564 123.956635Q578.54376 123.956635 578.27814 124.25351Q578.02814 124.53476 578.02814 125.03476L578.02814 125.456635ZM575.075 126.456635L574.45 126.06601L578.6219 119.394135L579.23126 119.78476L575.075 126.456635Z" fill-rule="nonzero"/><path stroke="#757575" stroke-width="1.0" stroke-linecap="butt" d="M581.45 113.59726L454.76666 113.59726L408.89536 113.59726" fill-rule="nonzero"/><path fill="#9e9e9e" d="M410.89536 113.59726C410.89536 112.49269 409.9999 111.59726 408.89536 111.59726C407.79077 111.59726 406.89536 112.49269 406.89536 113.59726C406.89536 114.701836 407.79077 115.59726 408.89536 115.59726C409.9999 115.59726 410.89536 114.701836 410.89536 113.59726" fill-rule="nonzero"/><path fill="#1a1a1a" d="M550.04376 297.95724L552.2625 293.676L553.54376 293.676L550.60626 299.01974L550.60626 302.20724L549.48126 302.20724L549.48126 299.01974L546.54376 293.676L547.825 293.676L550.04376 297.95724ZM556.90314 302.33224Q555.60626 302.33224 554.79376 301.4885Q553.9969 300.62912 553.9969 299.20724L553.9969 299.01974Q553.9969 298.06662 554.35626 297.33224Q554.71564 296.58224 555.35626 296.176Q556.0125 295.75412 556.7625 295.75412Q557.9969 295.75412 558.6844 296.56662Q559.3719 297.37912 559.3719 298.89474L559.3719 299.34787L555.075 299.34787Q555.10626 300.28537 555.6219 300.8635Q556.15314 301.44162 556.96564 301.44162Q557.52814 301.44162 557.91876 301.20724Q558.325 300.97287 558.6375 300.58224L559.29376 301.09787Q558.4969 302.33224 556.90314 302.33224ZM556.7625 296.64474Q556.10626 296.64474 555.65314 297.12912Q555.21564 297.59787 555.1219 298.45724L558.29376 298.45724L558.29376 298.37912Q558.2469 297.551 557.84064 297.09787Q557.45 296.64474 556.7625 296.64474ZM561.45 302.20724L560.3719 302.20724L560.3719 293.20724L561.45 293.20724L561.45 302.20724ZM564.45 302.20724L563.3719 302.20724L563.3719 293.20724L564.45 293.20724L564.45 302.20724ZM565.98126 298.97287Q565.98126 298.051 566.34064 297.301Q566.71564 296.551 567.3719 296.16037Q568.02814 295.75412 568.85626 295.75412Q570.15314 295.75412 570.95 296.64474Q571.7625 297.53537 571.7625 299.03537L571.7625 299.1135Q571.7625 300.03537 571.40314 300.76974Q571.04376 301.50412 570.3875 301.926Q569.73126 302.33224 568.8719 302.33224Q567.59064 302.33224 566.77814 301.44162Q565.98126 300.53537 565.98126 299.051L565.98126 298.97287ZM567.075 299.1135Q567.075 300.16037 567.5594 300.801Q568.0594 301.44162 568.8719 301.44162Q569.7 301.44162 570.1844 300.801Q570.66876 300.14474 570.66876 298.97287Q570.66876 297.94162 570.16876 297.301Q569.6844 296.64474 568.85626 296.64474Q568.0594 296.64474 567.5594 297.28537Q567.075 297.91037 567.075 299.1135ZM578.8875 300.70724L580.10626 295.8635L581.1844 295.8635L579.34064 302.20724L578.46564 302.20724L576.91876 297.39474L575.41876 302.20724L574.54376 302.20724L572.7 295.8635L573.77814 295.8635L575.02814 300.6135L576.5125 295.8635L577.3719 295.8635L578.8875 300.70724Z" fill-rule="nonzero"/><path fill="#9e9e9e" d="M554.7469 320.20724L549.15314 320.20724L549.15314 319.426L552.10626 316.14474Q552.7625 315.39474 553.0125 314.94162Q553.2625 314.47287 553.2625 313.97287Q553.2625 313.301 552.85626 312.87912Q552.46564 312.44162 551.77814 312.44162Q550.98126 312.44162 550.52814 312.91037Q550.075 313.3635 550.075 314.19162L548.9969 314.19162Q548.9969 313.00412 549.7469 312.28537Q550.5125 311.551 551.77814 311.551Q552.98126 311.551 553.66876 312.176Q554.35626 312.801 554.35626 313.84787Q554.35626 315.09787 552.7469 316.84787L550.46564 319.31662L554.7469 319.31662L554.7469 320.20724ZM561.5125 316.56662Q561.5125 318.47287 560.85626 319.41037Q560.21564 320.33224 558.825 320.33224Q557.46564 320.33224 556.8094 319.426Q556.15314 318.51974 556.1219 316.70724L556.1219 315.26974Q556.1219 313.37912 556.7625 312.47287Q557.41876 311.551 558.8094 311.551Q560.1844 311.551 560.84064 312.44162Q561.4969 313.31662 561.5125 315.16037L561.5125 316.56662ZM560.41876 315.08224Q560.41876 313.70724 560.02814 313.08224Q559.65314 312.44162 558.8094 312.44162Q557.98126 312.44162 557.59064 313.08224Q557.21564 313.70724 557.21564 315.00412L557.21564 316.7385Q557.21564 318.1135 557.60626 318.78537Q558.0125 319.44162 558.825 319.44162Q559.6219 319.44162 560.0125 318.81662Q560.40314 318.19162 560.41876 316.8635L560.41876 315.08224ZM563.29376 319.64474Q563.29376 319.3635 563.45 319.176Q563.6219 318.9885 563.95 318.9885Q564.29376 318.9885 564.46564 319.176Q564.6375 319.3635 564.6375 319.64474Q564.6375 319.91037 564.46564 320.09787Q564.29376 320.26974 563.95 320.26974Q563.6219 320.26974 563.45 320.09787Q563.29376 319.91037 563.29376 319.64474ZM571.5125 316.56662Q571.5125 318.47287 570.85626 319.41037Q570.21564 320.33224 568.825 320.33224Q567.46564 320.33224 566.8094 319.426Q566.15314 318.51974 566.1219 316.70724L566.1219 315.26974Q566.1219 313.37912 566.7625 312.47287Q567.41876 311.551 568.8094 311.551Q570.1844 311.551 570.84064 312.44162Q571.4969 313.31662 571.5125 315.16037L571.5125 316.56662ZM570.41876 315.08224Q570.41876 313.70724 570.02814 313.08224Q569.65314 312.44162 568.8094 312.44162Q567.98126 312.44162 567.59064 313.08224Q567.21564 313.70724 567.21564 315.00412L567.21564 316.7385Q567.21564 318.1135 567.60626 318.78537Q568.0125 319.44162 568.825 319.44162Q569.6219 319.44162 570.0125 318.81662Q570.40314 318.19162 570.41876 316.8635L570.41876 315.08224ZM573.0594 313.31662Q573.0594 312.551 573.54376 312.051Q574.04376 311.551 574.8094 311.551Q575.59064 311.551 576.075 312.051Q576.5594 312.551 576.5594 313.34787L576.5594 313.76974Q576.5594 314.53537 576.0594 315.03537Q575.575 315.51974 574.825 315.51974Q574.0594 315.51974 573.5594 315.03537Q573.0594 314.53537 573.0594 313.72287L573.0594 313.31662ZM573.8719 313.76974Q573.8719 314.22287 574.1219 314.51974Q574.3875 314.81662 574.825 314.81662Q575.2469 314.81662 575.4969 314.53537Q575.7469 314.2385 575.7469 313.7385L575.7469 313.31662Q575.7469 312.8635 575.4969 312.56662Q575.2469 312.25412 574.8094 312.25412Q574.3719 312.25412 574.1219 312.56662Q573.8719 312.8635 573.8719 313.33224L573.8719 313.76974ZM577.21564 318.1135Q577.21564 317.34787 577.7 316.8635Q578.2 316.3635 578.96564 316.3635Q579.73126 316.3635 580.21564 316.8635Q580.71564 317.34787 580.71564 318.16037L580.71564 318.56662Q580.71564 319.33224 580.23126 319.83224Q579.7469 320.33224 578.98126 320.33224Q578.21564 320.33224 577.71564 319.84787Q577.21564 319.34787 577.21564 318.53537L577.21564 318.1135ZM578.02814 318.56662Q578.02814 319.03537 578.27814 319.33224Q578.54376 319.62912 578.98126 319.62912Q579.40314 319.62912 579.65314 319.34787Q579.90314 319.051 579.90314 318.551L579.90314 318.1135Q579.90314 317.64474 579.6375 317.3635Q579.3875 317.06662 578.96564 317.06662Q578.54376 317.06662 578.27814 317.3635Q578.02814 317.64474 578.02814 318.14474L578.02814 318.56662ZM575.075 319.56662L574.45 319.176L578.6219 312.50412L579.23126 312.89474L575.075 319.56662Z" fill-rule="nonzero"/><path stroke="#757575" stroke-width="1.0" stroke-linecap="butt" d="M581.45 306.70724L454.76666 306.70724L396.7459 306.70724" fill-rule="nonzero"/><path fill="#9e9e9e" d="M398.7459 306.70724C398.7459 305.6027 397.85046 304.70724 396.7459 304.70724C395.64133 304.70724 394.7459 305.6027 394.7459 306.70724C394.7459 307.81183 395.64133 308.70724 396.7459 308.70724C397.85046 308.70724 398.7459 307.81183 398.7459 306.70724" fill-rule="nonzero"/><path fill="#757575" d="M31.065624 35.753124Q30.284374 36.70625 28.83125 37.2375Q27.39375 37.753124 25.628124 37.753124Q23.784374 37.753124 22.39375 36.940624Q21.003124 36.128124 20.2375 34.596874Q19.4875 33.065624 19.471874 31.003124L19.471874 30.034374Q19.471874 27.89375 20.190624 26.346874Q20.909374 24.784374 22.253124 23.95625Q23.6125 23.128124 25.425 23.128124Q27.95625 23.128124 29.378124 24.346874Q30.8 25.55 31.065624 27.846874L28.221874 27.846874Q28.01875 26.628124 27.346874 26.065624Q26.690624 25.503124 25.51875 25.503124Q24.01875 25.503124 23.2375 26.628124Q22.45625 27.7375 22.440624 29.95625L22.440624 30.8625Q22.440624 33.1125 23.284374 34.253124Q24.14375 35.39375 25.784374 35.39375Q27.440624 35.39375 28.14375 34.690624L28.14375 32.2375L25.471874 32.2375L25.471874 30.08125L31.065624 30.08125L31.065624 35.753124ZM38.503124 37.753124Q36.175 37.753124 34.70625 36.33125Q33.253124 34.89375 33.253124 32.51875L33.253124 32.253124Q33.253124 30.659374 33.8625 29.409374Q34.4875 28.14375 35.6125 27.471874Q36.7375 26.784374 38.190624 26.784374Q40.346874 26.784374 41.596874 28.159374Q42.846874 29.51875 42.846874 32.034374L42.846874 33.190624L36.1125 33.190624Q36.253124 34.221874 36.940624 34.846874Q37.628124 35.471874 38.690624 35.471874Q40.315624 35.471874 41.2375 34.284374L42.6125 35.846874Q41.9875 36.7375 40.89375 37.253124Q39.815624 37.753124 38.503124 37.753124ZM38.175 29.065624Q37.33125 29.065624 36.8 29.64375Q36.284374 30.20625 36.14375 31.253124L40.065624 31.253124L40.065624 31.034374Q40.05 30.096874 39.565624 29.58125Q39.08125 29.065624 38.175 29.065624ZM44.190624 32.175Q44.190624 30.596874 44.8 29.3625Q45.409374 28.128124 46.534374 27.45625Q47.675 26.784374 49.190624 26.784374Q51.33125 26.784374 52.675 28.096874Q54.034374 29.409374 54.190624 31.64375L54.20625 32.378124Q54.20625 34.8 52.846874 36.284374Q51.4875 37.753124 49.20625 37.753124Q46.925 37.753124 45.55 36.284374Q44.190624 34.815624 44.190624 32.3L44.190624 32.175ZM47.01875 32.378124Q47.01875 33.878124 47.58125 34.675Q48.14375 35.471874 49.20625 35.471874Q50.2375 35.471874 50.8 34.690624Q51.378124 33.89375 51.378124 32.175Q51.378124 30.690624 50.8 29.878124Q50.2375 29.065624 49.190624 29.065624Q48.14375 29.065624 47.58125 29.878124Q47.01875 30.690624 47.01875 32.378124ZM55.221874 32.190624Q55.221874 29.753124 56.378124 28.26875Q57.534374 26.784374 59.503124 26.784374Q61.2375 26.784374 62.20625 27.971874L62.33125 26.9875L64.87813 26.9875L64.87813 37.190624Q64.87813 38.58125 64.25313 39.6125Q63.628124 40.64375 62.471874 41.175Q61.33125 41.70625 59.8 41.70625Q58.64375 41.70625 57.534374 41.2375Q56.440624 40.784374 55.8625 40.05L57.1125 38.33125Q58.175 39.51875 59.675 39.51875Q60.8 39.51875 61.425 38.909374Q62.05 38.315624 62.05 37.20625L62.05 36.64375Q61.08125 37.753124 59.4875 37.753124Q57.58125 37.753124 56.39375 36.26875Q55.221874 34.76875 55.221874 32.3L55.221874 32.190624ZM58.05 32.39375Q58.05 33.83125 58.628124 34.64375Q59.20625 35.45625 60.20625 35.45625Q61.4875 35.45625 62.05 34.4875L62.05 30.05Q61.4875 29.08125 60.221874 29.08125Q59.20625 29.08125 58.628124 29.909374Q58.05 30.7375 58.05 32.39375ZM72.56563 29.628124Q72.00313 29.55 71.55 29.55Q69.95625 29.55 69.45625 30.628124L69.45625 37.55L66.62813 37.55L66.62813 26.9875L69.3 26.9875L69.37813 28.2375Q70.22188 26.784374 71.7375 26.784374Q72.20625 26.784374 72.6125 26.909374L72.56563 29.628124ZM79.75313 37.55Q79.56563 37.175 79.47188 36.596874Q78.45625 37.753124 76.81563 37.753124Q75.25313 37.753124 74.2375 36.846874Q73.22188 35.940624 73.22188 34.58125Q73.22188 32.89375 74.45625 32.003124Q75.70625 31.096874 78.06563 31.096874L79.3625 31.096874L79.3625 30.4875Q79.3625 29.753124 78.9875 29.315624Q78.6125 28.878124 77.8 28.878124Q77.08125 28.878124 76.675 29.221874Q76.26875 29.565624 76.26875 30.159374L73.45625 30.159374Q73.45625 29.2375 74.01875 28.45625Q74.58125 27.675 75.6125 27.2375Q76.65938 26.784374 77.94063 26.784374Q79.89375 26.784374 81.03438 27.76875Q82.19063 28.753124 82.19063 30.534374L82.19063 35.1125Q82.20625 36.6125 82.6125 37.378124L82.6125 37.55L79.75313 37.55ZM77.425 35.58125Q78.05 35.58125 78.56563 35.315624Q79.09688 35.034374 79.3625 34.565624L79.3625 32.7375L78.3 32.7375Q76.19063 32.7375 76.05 34.20625L76.03438 34.378124Q76.03438 34.909374 76.40938 35.253124Q76.78438 35.58125 77.425 35.58125ZM94.14375 32.3625Q94.14375 34.8 93.03438 36.284374Q91.925 37.753124 90.05 37.753124Q88.44063 37.753124 87.45625 36.628124L87.45625 41.6125L84.62813 41.6125L84.62813 26.9875L87.25313 26.9875L87.34688 28.01875Q88.37813 26.784374 90.01875 26.784374Q91.97188 26.784374 93.05 28.2375Q94.14375 29.675 94.14375 32.221874L94.14375 32.3625ZM91.33125 32.159374Q91.33125 30.690624 90.8 29.89375Q90.28438 29.08125 89.28438 29.08125Q87.95625 29.08125 87.45625 30.096874L87.45625 34.425Q87.97188 35.471874 89.3 35.471874Q91.33125 35.471874 91.33125 32.159374ZM98.39375 28.128124Q99.51875 26.784374 101.20625 26.784374Q104.64375 26.784374 104.69063 30.784374L104.69063 37.55L101.87813 37.55L101.87813 30.8625Q101.87813 29.95625 101.4875 29.51875Q101.09688 29.08125 100.19063 29.08125Q98.94063 29.08125 98.39375 30.034374L98.39375 37.55L95.56563 37.55L95.56563 22.55L98.39375 22.55L98.39375 28.128124ZM110.58125 33.55L112.53438 26.9875L115.56563 26.9875L111.31563 39.190624L111.08125 39.753124Q110.12813 41.815624 107.95625 41.815624Q107.33125 41.815624 106.70625 41.628124L106.70625 39.4875L107.12813 39.503124Q107.94063 39.503124 108.33125 39.253124Q108.72188 39.01875 108.95625 38.45625L109.28438 37.58125L105.58125 26.9875L108.6125 26.9875L110.58125 33.55Z" fill-rule="nonzero"/></svg>