<svg version="1.1" viewBox="0.0 0.0 600.0 371.0" fill="none" stroke="none" stroke-linecap="square" stroke-miterlimit="10" width="600" height="371" xmlns:xlink="http://www.w3.org/1999/xlink" xmlns="http://www.w3.org/2000/svg"><path fill="#ffffff" d="M0 0L600.0 0L600.0 371.0L0 371.0L0 0Z" fill-rule="nonzero"/><path fill="#cc0000" d="M300.0 54.916668C364.44962 54.916668 421.5695 96.416664 441.4855 157.7119C461.40155 219.00714 439.5837 286.15555 387.44284 324.0381L300.0 203.68333Z" fill-rule="nonzero"/><path fill="#f1c232" d="M387.44284 324.0381C377.34674 331.37335 366.3678 337.4091 354.76465 342.00308L300.0 203.68333Z" fill-rule="nonzero"/><path fill="#6aa84f" d="M354.76465 342.00308C343.16153 346.59708 331.0265 349.71283 318.64542 351.27692L300.0 203.68333Z" fill-rule="nonzero"/><path fill="#434343" d="M263.00323 59.590446C275.09064 56.486927 287.52054 54.916668 300.0 54.916668L300.0 203.68333Z" fill-rule="nonzero"/><path fill="#674ea7" d="M228.33112 73.31811C239.26695 67.306076 250.91583 62.693962 263.00323 59.590446L300.0 203.68333Z" fill-rule="nonzero"/><path fill="#3c78d8" d="M318.64542 351.27692C247.79613 360.22726 180.58214 317.572 158.5145 249.65475C136.44685 181.73753 165.75195 107.72129 228.33112 73.31811L300.0 203.68333Z" fill-rule="nonzero"/><path fill="#1a1a1a" d="M19.534374 66.916664L19.534374 58.385414L22.33125 58.385414Q23.721874 58.385414 24.409374 58.96354Q25.1125 59.52604 25.1125 60.65104Q25.1125 61.260414 24.76875 61.729164Q24.440624 62.18229 23.846874 62.43229Q24.55 62.61979 24.940624 63.166664Q25.346874 63.697914 25.346874 64.447914Q25.346874 65.604164 24.596874 66.260414Q23.8625 66.916664 22.503124 66.916664L19.534374 66.916664ZM20.659374 62.93229L20.659374 65.99479L22.51875 65.99479Q23.315624 65.99479 23.76875 65.58854Q24.221874 65.18229 24.221874 64.46354Q24.221874 62.93229 22.534374 62.93229L20.659374 62.93229ZM20.659374 62.02604L22.3625 62.02604Q23.096874 62.02604 23.534374 61.666664Q23.9875 61.291664 23.9875 60.65104Q23.9875 59.947914 23.58125 59.635414Q23.175 59.30729 22.33125 59.30729L20.659374 59.30729L20.659374 62.02604ZM27.55 66.916664L26.471874 66.916664L26.471874 57.916664L27.55 57.916664L27.55 66.916664ZM33.284374 66.916664Q33.190624 66.729164 33.128124 66.24479Q32.378124 67.041664 31.33125 67.041664Q30.39375 67.041664 29.784374 66.510414Q29.190624 65.979164 29.190624 65.15104Q29.190624 64.166664 29.940624 63.61979Q30.690624 63.072914 32.065624 63.072914L33.1125 63.072914L33.1125 62.572914Q33.1125 62.010414 32.76875 61.68229Q32.440624 61.33854 31.76875 61.33854Q31.190624 61.33854 30.8 61.635414Q30.409374 61.916664 30.409374 62.33854L29.315624 62.33854Q29.315624 61.854164 29.64375 61.416664Q29.9875 60.979164 30.565624 60.729164Q31.14375 60.46354 31.83125 60.46354Q32.940624 60.46354 33.55 61.010414Q34.175 61.55729 34.20625 62.510414L34.20625 65.43229Q34.20625 66.30729 34.425 66.822914L34.425 66.916664L33.284374 66.916664ZM31.4875 66.08854Q32.003124 66.08854 32.45625 65.822914Q32.909374 65.55729 33.1125 65.135414L33.1125 63.83854L32.26875 63.83854Q30.26875 63.83854 30.26875 65.010414Q30.26875 65.510414 30.6125 65.80729Q30.95625 66.08854 31.4875 66.08854ZM38.909374 66.15104Q39.4875 66.15104 39.925 65.80729Q40.3625 65.447914 40.409374 64.916664L41.440624 64.916664Q41.409374 65.46354 41.05 65.96354Q40.70625 66.447914 40.128124 66.74479Q39.565624 67.041664 38.909374 67.041664Q37.6125 67.041664 36.846874 66.18229Q36.096874 65.30729 36.096874 63.80729L36.096874 63.61979Q36.096874 62.697914 36.425 61.979164Q36.76875 61.260414 37.39375 60.86979Q38.034374 60.46354 38.909374 60.46354Q39.971874 60.46354 40.675 61.104164Q41.39375 61.729164 41.440624 62.760414L40.409374 62.760414Q40.3625 62.135414 39.940624 61.74479Q39.51875 61.354164 38.909374 61.354164Q38.08125 61.354164 37.628124 61.947914Q37.175 62.541664 37.175 63.666664L37.175 63.86979Q37.175 64.96354 37.628124 65.55729Q38.08125 66.15104 38.909374 66.15104ZM44.14375 63.979164L43.45625 64.68229L43.45625 66.916664L42.378124 66.916664L42.378124 57.916664L43.45625 57.916664L43.45625 63.354164L44.034374 62.666664L46.01875 60.572914L47.33125 60.572914L44.8625 63.229164L47.628124 66.916664L46.346874 66.916664L44.14375 63.979164Z" fill-rule="nonzero"/><path fill="#9e9e9e" d="M23.83125 82.05729L25.01875 82.05729L25.01875 82.93229L23.83125 82.93229L23.83125 84.916664L22.753124 84.916664L22.753124 82.93229L18.8625 82.93229L18.8625 82.291664L22.675 76.385414L23.83125 76.385414L23.83125 82.05729ZM20.096874 82.05729L22.753124 82.05729L22.753124 77.86979L22.6125 78.104164L20.096874 82.05729ZM26.39375 84.354164Q26.39375 84.072914 26.55 83.885414Q26.721874 83.697914 27.05 83.697914Q27.39375 83.697914 27.565624 83.885414Q27.7375 84.072914 27.7375 84.354164Q27.7375 84.61979 27.565624 84.80729Q27.39375 84.979164 27.05 84.979164Q26.721874 84.979164 26.55 84.80729Q26.39375 84.61979 26.39375 84.354164ZM34.6125 81.27604Q34.6125 83.18229 33.95625 84.11979Q33.315624 85.041664 31.925 85.041664Q30.565624 85.041664 29.909374 84.135414Q29.253124 83.229164 29.221874 81.416664L29.221874 79.979164Q29.221874 78.08854 29.8625 77.18229Q30.51875 76.260414 31.909374 76.260414Q33.284374 76.260414 33.940624 77.15104Q34.596874 78.02604 34.6125 79.86979L34.6125 81.27604ZM33.51875 79.791664Q33.51875 78.416664 33.128124 77.791664Q32.753124 77.15104 31.909374 77.15104Q31.08125 77.15104 30.690624 77.791664Q30.315624 78.416664 30.315624 79.71354L30.315624 81.447914Q30.315624 82.822914 30.70625 83.49479Q31.1125 84.15104 31.925 84.15104Q32.721874 84.15104 33.1125 83.52604Q33.503124 82.90104 33.51875 81.572914L33.51875 79.791664ZM36.159374 78.02604Q36.159374 77.260414 36.64375 76.760414Q37.14375 76.260414 37.909374 76.260414Q38.690624 76.260414 39.175 76.760414Q39.659374 77.260414 39.659374 78.05729L39.659374 78.479164Q39.659374 79.24479 39.159374 79.74479Q38.675 80.229164 37.925 80.229164Q37.159374 80.229164 36.659374 79.74479Q36.159374 79.24479 36.159374 78.43229L36.159374 78.02604ZM36.971874 78.479164Q36.971874 78.93229 37.221874 79.229164Q37.4875 79.52604 37.925 79.52604Q38.346874 79.52604 38.596874 79.24479Q38.846874 78.947914 38.846874 78.447914L38.846874 78.02604Q38.846874 77.572914 38.596874 77.27604Q38.346874 76.96354 37.909374 76.96354Q37.471874 76.96354 37.221874 77.27604Q36.971874 77.572914 36.971874 78.041664L36.971874 78.479164ZM40.315624 82.822914Q40.315624 82.05729 40.8 81.572914Q41.3 81.072914 42.065624 81.072914Q42.83125 81.072914 43.315624 81.572914Q43.815624 82.05729 43.815624 82.86979L43.815624 83.27604Q43.815624 84.041664 43.33125 84.541664Q42.846874 85.041664 42.08125 85.041664Q41.315624 85.041664 40.815624 84.55729Q40.315624 84.05729 40.315624 83.24479L40.315624 82.822914ZM41.128124 83.27604Q41.128124 83.74479 41.378124 84.041664Q41.64375 84.33854 42.08125 84.33854Q42.503124 84.33854 42.753124 84.05729Q43.003124 83.760414 43.003124 83.260414L43.003124 82.822914Q43.003124 82.354164 42.7375 82.072914Q42.4875 81.77604 42.065624 81.77604Q41.64375 81.77604 41.378124 82.072914Q41.128124 82.354164 41.128124 82.854164L41.128124 83.27604ZM38.175 84.27604L37.55 83.885414L41.721874 77.21354L42.33125 77.604164L38.175 84.27604Z" fill-rule="nonzero"/><path stroke="#757575" stroke-width="1.0" stroke-linecap="butt" d="M18.55 71.416664L145.23334 71.416664L282.28687 63.469418" fill-rule="nonzero"/><path fill="#9e9e9e" d="M284.28687 63.469418C284.28687 62.364845 283.39142 61.469418 282.28687 61.469418C281.18228 61.469418 280.28687 62.364845 280.28687 63.469418C280.28687 64.57398 281.18228 65.46941 282.28687 65.46941C283.39142 65.46941 284.28687 64.57398 284.28687 63.469418" fill-rule="nonzero"/><path fill="#1a1a1a" d="M20.659374 96.572914L20.659374 99.916664L19.534374 99.916664L19.534374 91.385414L22.690624 91.385414Q24.08125 91.385414 24.878124 92.104164Q25.675 92.80729 25.675 93.99479Q25.675 95.229164 24.89375 95.90104Q24.128124 96.572914 22.675 96.572914L20.659374 96.572914ZM20.659374 95.65104L22.690624 95.65104Q23.596874 95.65104 24.065624 95.229164Q24.55 94.80729 24.55 94.010414Q24.55 93.24479 24.065624 92.791664Q23.596874 92.322914 22.753124 92.30729L20.659374 92.30729L20.659374 95.65104ZM31.284374 99.291664Q30.659374 100.041664 29.425 100.041664Q28.409374 100.041664 27.878124 99.447914Q27.346874 98.854164 27.346874 97.697914L27.346874 93.572914L28.425 93.572914L28.425 97.666664Q28.425 99.11979 29.596874 99.11979Q30.846874 99.11979 31.253124 98.18229L31.253124 93.572914L32.346874 93.572914L32.346874 99.916664L31.315624 99.916664L31.284374 99.291664ZM37.440624 94.541664Q37.190624 94.510414 36.909374 94.510414Q35.83125 94.510414 35.45625 95.416664L35.45625 99.916664L34.378124 99.916664L34.378124 93.572914L35.425 93.572914L35.440624 94.30729Q35.971874 93.46354 36.95625 93.46354Q37.26875 93.46354 37.440624 93.541664L37.440624 94.541664ZM43.721874 96.822914Q43.721874 98.260414 43.065624 99.15104Q42.409374 100.041664 41.26875 100.041664Q40.1125 100.041664 39.45625 99.30729L39.45625 102.354164L38.378124 102.354164L38.378124 93.572914L39.3625 93.572914L39.409374 94.27604Q40.08125 93.46354 41.253124 93.46354Q42.39375 93.46354 43.05 94.322914Q43.721874 95.18229 43.721874 96.71354L43.721874 96.822914ZM42.64375 96.697914Q42.64375 95.61979 42.175 95.010414Q41.721874 94.385414 40.925 94.385414Q39.940624 94.385414 39.45625 95.24479L39.45625 98.27604Q39.940624 99.15104 40.940624 99.15104Q41.721874 99.15104 42.175 98.541664Q42.64375 97.916664 42.64375 96.697914ZM46.55 99.916664L45.471874 99.916664L45.471874 90.916664L46.55 90.916664L46.55 99.916664ZM51.003124 100.041664Q49.70625 100.041664 48.89375 99.197914Q48.096874 98.33854 48.096874 96.916664L48.096874 96.729164Q48.096874 95.77604 48.45625 95.041664Q48.815624 94.291664 49.45625 93.885414Q50.1125 93.46354 50.8625 93.46354Q52.096874 93.46354 52.784374 94.27604Q53.471874 95.08854 53.471874 96.604164L53.471874 97.05729L49.175 97.05729Q49.20625 97.99479 49.721874 98.572914Q50.253124 99.15104 51.065624 99.15104Q51.628124 99.15104 52.01875 98.916664Q52.425 98.68229 52.7375 98.291664L53.39375 98.80729Q52.596874 100.041664 51.003124 100.041664ZM50.8625 94.354164Q50.20625 94.354164 49.753124 94.83854Q49.315624 95.30729 49.221874 96.166664L52.39375 96.166664L52.39375 96.08854Q52.346874 95.260414 51.940624 94.80729Q51.55 94.354164 50.8625 94.354164Z" fill-rule="nonzero"/><path fill="#9e9e9e" d="M23.83125 115.05729L25.01875 115.05729L25.01875 115.93229L23.83125 115.93229L23.83125 117.916664L22.753124 117.916664L22.753124 115.93229L18.8625 115.93229L18.8625 115.291664L22.675 109.385414L23.83125 109.385414L23.83125 115.05729ZM20.096874 115.05729L22.753124 115.05729L22.753124 110.86979L22.6125 111.104164L20.096874 115.05729ZM26.39375 117.354164Q26.39375 117.072914 26.55 116.885414Q26.721874 116.697914 27.05 116.697914Q27.39375 116.697914 27.565624 116.885414Q27.7375 117.072914 27.7375 117.354164Q27.7375 117.61979 27.565624 117.80729Q27.39375 117.979164 27.05 117.979164Q26.721874 117.979164 26.55 117.80729Q26.39375 117.61979 26.39375 117.354164ZM34.6125 114.27604Q34.6125 116.18229 33.95625 117.11979Q33.315624 118.041664 31.925 118.041664Q30.565624 118.041664 29.909374 117.135414Q29.253124 116.229164 29.221874 114.416664L29.221874 112.979164Q29.221874 111.08854 29.8625 110.18229Q30.51875 109.260414 31.909374 109.260414Q33.284374 109.260414 33.940624 110.15104Q34.596874 111.02604 34.6125 112.86979L34.6125 114.27604ZM33.51875 112.791664Q33.51875 111.416664 33.128124 110.791664Q32.753124 110.15104 31.909374 110.15104Q31.08125 110.15104 30.690624 110.791664Q30.315624 111.416664 30.315624 112.71354L30.315624 114.447914Q30.315624 115.822914 30.70625 116.49479Q31.1125 117.15104 31.925 117.15104Q32.721874 117.15104 33.1125 116.52604Q33.503124 115.90104 33.51875 114.572914L33.51875 112.791664ZM36.159374 111.02604Q36.159374 110.260414 36.64375 109.760414Q37.14375 109.260414 37.909374 109.260414Q38.690624 109.260414 39.175 109.760414Q39.659374 110.260414 39.659374 111.05729L39.659374 111.479164Q39.659374 112.24479 39.159374 112.74479Q38.675 113.229164 37.925 113.229164Q37.159374 113.229164 36.659374 112.74479Q36.159374 112.24479 36.159374 111.43229L36.159374 111.02604ZM36.971874 111.479164Q36.971874 111.93229 37.221874 112.229164Q37.4875 112.52604 37.925 112.52604Q38.346874 112.52604 38.596874 112.24479Q38.846874 111.947914 38.846874 111.447914L38.846874 111.02604Q38.846874 110.572914 38.596874 110.27604Q38.346874 109.96354 37.909374 109.96354Q37.471874 109.96354 37.221874 110.27604Q36.971874 110.572914 36.971874 111.041664L36.971874 111.479164ZM40.315624 115.822914Q40.315624 115.05729 40.8 114.572914Q41.3 114.072914 42.065624 114.072914Q42.83125 114.072914 43.315624 114.572914Q43.815624 115.05729 43.815624 115.86979L43.815624 116.27604Q43.815624 117.041664 43.33125 117.541664Q42.846874 118.041664 42.08125 118.041664Q41.315624 118.041664 40.815624 117.55729Q40.315624 117.05729 40.315624 116.24479L40.315624 115.822914ZM41.128124 116.27604Q41.128124 116.74479 41.378124 117.041664Q41.64375 117.33854 42.08125 117.33854Q42.503124 117.33854 42.753124 117.05729Q43.003124 116.760414 43.003124 116.260414L43.003124 115.822914Q43.003124 115.354164 42.7375 115.072914Q42.4875 114.77604 42.065624 114.77604Q41.64375 114.77604 41.378124 115.072914Q41.128124 115.354164 41.128124 115.854164L41.128124 116.27604ZM38.175 117.27604L37.55 116.885414L41.721874 110.21354L42.33125 110.604164L38.175 117.27604Z" fill-rule="nonzero"/><path stroke="#757575" stroke-width="1.0" stroke-linecap="butt" d="M18.55 104.416664L145.23334 104.416664L247.97357 72.27957" fill-rule="nonzero"/><path fill="#9e9e9e" d="M249.97357 72.27957C249.97357 71.175 249.07814 70.27957 247.97357 70.27957C246.869 70.27957 245.97357 71.175 245.97357 72.27957C245.97357 73.38414 246.869 74.27957 247.97357 74.27957C249.07814 74.27957 249.97357 73.38414 249.97357 72.27957" fill-rule="nonzero"/><path fill="#1a1a1a" d="M19.534374 242.85619L19.534374 234.32494L22.33125 234.32494Q23.721874 234.32494 24.409374 234.90306Q25.1125 235.46556 25.1125 236.59056Q25.1125 237.19994 24.76875 237.66869Q24.440624 238.12181 23.846874 238.37181Q24.55 238.55931 24.940624 239.10619Q25.346874 239.63744 25.346874 240.38744Q25.346874 241.54369 24.596874 242.19994Q23.8625 242.85619 22.503124 242.85619L19.534374 242.85619ZM20.659374 238.87181L20.659374 241.93431L22.51875 241.93431Q23.315624 241.93431 23.76875 241.52806Q24.221874 241.12181 24.221874 240.40306Q24.221874 238.87181 22.534374 238.87181L20.659374 238.87181ZM20.659374 237.96556L22.3625 237.96556Q23.096874 237.96556 23.534374 237.60619Q23.9875 237.23119 23.9875 236.59056Q23.9875 235.88744 23.58125 235.57494Q23.175 235.24681 22.33125 235.24681L20.659374 235.24681L20.659374 237.96556ZM27.55 242.85619L26.471874 242.85619L26.471874 233.85619L27.55 233.85619L27.55 242.85619ZM33.284374 242.23119Q32.659374 242.98119 31.425 242.98119Q30.409374 242.98119 29.878124 242.38744Q29.346874 241.79369 29.346874 240.63744L29.346874 236.51244L30.425 236.51244L30.425 240.60619Q30.425 242.05931 31.596874 242.05931Q32.846874 242.05931 33.253124 241.12181L33.253124 236.51244L34.346874 236.51244L34.346874 242.85619L33.315624 242.85619L33.284374 242.23119ZM39.003124 242.98119Q37.70625 242.98119 36.89375 242.13744Q36.096874 241.27806 36.096874 239.85619L36.096874 239.66869Q36.096874 238.71556 36.45625 237.98119Q36.815624 237.23119 37.45625 236.82494Q38.1125 236.40306 38.8625 236.40306Q40.096874 236.40306 40.784374 237.21556Q41.471874 238.02806 41.471874 239.54369L41.471874 239.99681L37.175 239.99681Q37.20625 240.93431 37.721874 241.51244Q38.253124 242.09056 39.065624 242.09056Q39.628124 242.09056 40.01875 241.85619Q40.425 241.62181 40.7375 241.23119L41.39375 241.74681Q40.596874 242.98119 39.003124 242.98119ZM38.8625 237.29369Q38.20625 237.29369 37.753124 237.77806Q37.315624 238.24681 37.221874 239.10619L40.39375 239.10619L40.39375 239.02806Q40.346874 238.19994 39.940624 237.74681Q39.55 237.29369 38.8625 237.29369Z" fill-rule="nonzero"/><path fill="#9e9e9e" d="M23.83125 257.99683L25.01875 257.99683L25.01875 258.87183L23.83125 258.87183L23.83125 260.8562L22.753124 260.8562L22.753124 258.87183L18.8625 258.87183L18.8625 258.2312L22.675 252.32495L23.83125 252.32495L23.83125 257.99683ZM20.096874 257.99683L22.753124 257.99683L22.753124 253.80933L22.6125 254.0437L20.096874 257.99683ZM30.83125 257.99683L32.01875 257.99683L32.01875 258.87183L30.83125 258.87183L30.83125 260.8562L29.753124 260.8562L29.753124 258.87183L25.8625 258.87183L25.8625 258.2312L29.675 252.32495L30.83125 252.32495L30.83125 257.99683ZM27.096874 257.99683L29.753124 257.99683L29.753124 253.80933L29.6125 254.0437L27.096874 257.99683ZM33.39375 260.2937Q33.39375 260.01245 33.55 259.82495Q33.721874 259.63745 34.05 259.63745Q34.39375 259.63745 34.565624 259.82495Q34.7375 260.01245 34.7375 260.2937Q34.7375 260.55933 34.565624 260.74683Q34.39375 260.9187 34.05 260.9187Q33.721874 260.9187 33.55 260.74683Q33.39375 260.55933 33.39375 260.2937ZM41.6125 257.21558Q41.6125 259.12183 40.95625 260.05933Q40.315624 260.9812 38.925 260.9812Q37.565624 260.9812 36.909374 260.07495Q36.253124 259.1687 36.221874 257.3562L36.221874 255.9187Q36.221874 254.02808 36.8625 253.12183Q37.51875 252.19995 38.909374 252.19995Q40.284374 252.19995 40.940624 253.09058Q41.596874 253.96558 41.6125 255.80933L41.6125 257.21558ZM40.51875 255.7312Q40.51875 254.3562 40.128124 253.7312Q39.753124 253.09058 38.909374 253.09058Q38.08125 253.09058 37.690624 253.7312Q37.315624 254.3562 37.315624 255.65308L37.315624 257.38745Q37.315624 258.76245 37.70625 259.43433Q38.1125 260.09058 38.925 260.09058Q39.721874 260.09058 40.1125 259.46558Q40.503124 258.84058 40.51875 257.51245L40.51875 255.7312ZM43.159374 253.96558Q43.159374 253.19995 43.64375 252.69995Q44.14375 252.19995 44.909374 252.19995Q45.690624 252.19995 46.175 252.69995Q46.659374 253.19995 46.659374 253.99683L46.659374 254.4187Q46.659374 255.18433 46.159374 255.68433Q45.675 256.1687 44.925 256.1687Q44.159374 256.1687 43.659374 255.68433Q43.159374 255.18433 43.159374 254.37183L43.159374 253.96558ZM43.971874 254.4187Q43.971874 254.87183 44.221874 255.1687Q44.4875 255.46558 44.925 255.46558Q45.346874 255.46558 45.596874 255.18433Q45.846874 254.88745 45.846874 254.38745L45.846874 253.96558Q45.846874 253.51245 45.596874 253.21558Q45.346874 252.90308 44.909374 252.90308Q44.471874 252.90308 44.221874 253.21558Q43.971874 253.51245 43.971874 253.9812L43.971874 254.4187ZM47.315624 258.76245Q47.315624 257.99683 47.8 257.51245Q48.3 257.01245 49.065624 257.01245Q49.83125 257.01245 50.315624 257.51245Q50.815624 257.99683 50.815624 258.80933L50.815624 259.21558Q50.815624 259.9812 50.33125 260.4812Q49.846874 260.9812 49.08125 260.9812Q48.315624 260.9812 47.815624 260.49683Q47.315624 259.99683 47.315624 259.18433L47.315624 258.76245ZM48.128124 259.21558Q48.128124 259.68433 48.378124 259.9812Q48.64375 260.27808 49.08125 260.27808Q49.503124 260.27808 49.753124 259.99683Q50.003124 259.69995 50.003124 259.19995L50.003124 258.76245Q50.003124 258.2937 49.7375 258.01245Q49.4875 257.71558 49.065624 257.71558Q48.64375 257.71558 48.378124 258.01245Q48.128124 258.2937 48.128124 258.7937L48.128124 259.21558ZM45.175 260.21558L44.55 259.82495L48.721874 253.15308L49.33125 253.5437L45.175 260.21558Z" fill-rule="nonzero"/><path stroke="#757575" stroke-width="1.0" stroke-linecap="butt" d="M18.55 247.35619L145.23334 247.35619L165.58876 247.35619" fill-rule="nonzero"/><path fill="#9e9e9e" d="M167.58876 247.35619C167.58876 246.25162 166.69334 245.35619 165.58876 245.35619C164.48419 245.35619 163.58876 246.25162 163.58876 247.35619C163.58876 248.46075 164.48419 249.35619 165.58876 249.35619C166.69334 249.35619 167.58876 248.46075 167.58876 247.35619" fill-rule="nonzero"/><path fill="#1a1a1a" d="M565.575 152.05736L563.5594 152.05736L563.5594 155.51048L562.4344 155.51048L562.4344 146.97923L565.2625 146.97923Q566.7 146.97923 567.46564 147.63548Q568.2469 148.29173 568.2469 149.54173Q568.2469 150.33861 567.8094 150.93236Q567.3875 151.52611 566.6219 151.82298L568.6219 155.43236L568.6219 155.51048L567.41876 155.51048L565.575 152.05736ZM563.5594 151.13548L565.29376 151.13548Q566.1375 151.13548 566.6219 150.71361Q567.1219 150.27611 567.1219 149.54173Q567.1219 148.76048 566.65314 148.33861Q566.1844 147.91673 565.29376 147.90111L563.5594 147.90111L563.5594 151.13548ZM571.90314 155.63548Q570.60626 155.63548 569.79376 154.79173Q568.9969 153.93236 568.9969 152.51048L568.9969 152.32298Q568.9969 151.36986 569.35626 150.63548Q569.71564 149.88548 570.35626 149.47923Q571.0125 149.05736 571.7625 149.05736Q572.9969 149.05736 573.6844 149.86986Q574.3719 150.68236 574.3719 152.19798L574.3719 152.65111L570.075 152.65111Q570.10626 153.58861 570.6219 154.16673Q571.15314 154.74486 571.96564 154.74486Q572.52814 154.74486 572.91876 154.51048Q573.325 154.27611 573.6375 153.88548L574.29376 154.40111Q573.4969 155.63548 571.90314 155.63548ZM571.7625 149.94798Q571.10626 149.94798 570.65314 150.43236Q570.21564 150.90111 570.1219 151.76048L573.29376 151.76048L573.29376 151.68236Q573.2469 150.85423 572.84064 150.40111Q572.45 149.94798 571.7625 149.94798ZM575.0125 152.29173Q575.0125 150.82298 575.7 149.94798Q576.3875 149.05736 577.5125 149.05736Q578.6219 149.05736 579.27814 149.80736L579.27814 146.51048L580.35626 146.51048L580.35626 155.51048L579.35626 155.51048L579.3094 154.82298Q578.65314 155.63548 577.4969 155.63548Q576.40314 155.63548 575.7 154.72923Q575.0125 153.82298 575.0125 152.36986L575.0125 152.29173ZM576.09064 152.41673Q576.09064 153.49486 576.52814 154.10423Q576.98126 154.71361 577.7625 154.71361Q578.79376 154.71361 579.27814 153.77611L579.27814 150.86986Q578.79376 149.97923 577.77814 149.97923Q576.98126 149.97923 576.52814 150.58861Q576.09064 151.19798 576.09064 152.41673Z" fill-rule="nonzero"/><path fill="#9e9e9e" d="M553.73126 170.65111L554.91876 170.65111L554.91876 171.52611L553.73126 171.52611L553.73126 173.51048L552.65314 173.51048L552.65314 171.52611L548.7625 171.52611L548.7625 170.88548L552.575 164.97923L553.73126 164.97923L553.73126 170.65111ZM549.9969 170.65111L552.65314 170.65111L552.65314 166.46361L552.5125 166.69798L549.9969 170.65111ZM561.5125 169.86986Q561.5125 171.77611 560.85626 172.71361Q560.21564 173.63548 558.825 173.63548Q557.46564 173.63548 556.8094 172.72923Q556.15314 171.82298 556.1219 170.01048L556.1219 168.57298Q556.1219 166.68236 556.7625 165.77611Q557.41876 164.85423 558.8094 164.85423Q560.1844 164.85423 560.84064 165.74486Q561.4969 166.61986 561.5125 168.46361L561.5125 169.86986ZM560.41876 168.38548Q560.41876 167.01048 560.02814 166.38548Q559.65314 165.74486 558.8094 165.74486Q557.98126 165.74486 557.59064 166.38548Q557.21564 167.01048 557.21564 168.30736L557.21564 170.04173Q557.21564 171.41673 557.60626 172.08861Q558.0125 172.74486 558.825 172.74486Q559.6219 172.74486 560.0125 172.11986Q560.40314 171.49486 560.41876 170.16673L560.41876 168.38548ZM563.29376 172.94798Q563.29376 172.66673 563.45 172.47923Q563.6219 172.29173 563.95 172.29173Q564.29376 172.29173 564.46564 172.47923Q564.6375 172.66673 564.6375 172.94798Q564.6375 173.21361 564.46564 173.40111Q564.29376 173.57298 563.95 173.57298Q563.6219 173.57298 563.45 173.40111Q563.29376 173.21361 563.29376 172.94798ZM571.5125 169.86986Q571.5125 171.77611 570.85626 172.71361Q570.21564 173.63548 568.825 173.63548Q567.46564 173.63548 566.8094 172.72923Q566.15314 171.82298 566.1219 170.01048L566.1219 168.57298Q566.1219 166.68236 566.7625 165.77611Q567.41876 164.85423 568.8094 164.85423Q570.1844 164.85423 570.84064 165.74486Q571.4969 166.61986 571.5125 168.46361L571.5125 169.86986ZM570.41876 168.38548Q570.41876 167.01048 570.02814 166.38548Q569.65314 165.74486 568.8094 165.74486Q567.98126 165.74486 567.59064 166.38548Q567.21564 167.01048 567.21564 168.30736L567.21564 170.04173Q567.21564 171.41673 567.60626 172.08861Q568.0125 172.74486 568.825 172.74486Q569.6219 172.74486 570.0125 172.11986Q570.40314 171.49486 570.41876 170.16673L570.41876 168.38548ZM573.0594 166.61986Q573.0594 165.85423 573.54376 165.35423Q574.04376 164.85423 574.8094 164.85423Q575.59064 164.85423 576.075 165.35423Q576.5594 165.85423 576.5594 166.65111L576.5594 167.07298Q576.5594 167.83861 576.0594 168.33861Q575.575 168.82298 574.825 168.82298Q574.0594 168.82298 573.5594 168.33861Q573.0594 167.83861 573.0594 167.02611L573.0594 166.61986ZM573.8719 167.07298Q573.8719 167.52611 574.1219 167.82298Q574.3875 168.11986 574.825 168.11986Q575.2469 168.11986 575.4969 167.83861Q575.7469 167.54173 575.7469 167.04173L575.7469 166.61986Q575.7469 166.16673 575.4969 165.86986Q575.2469 165.55736 574.8094 165.55736Q574.3719 165.55736 574.1219 165.86986Q573.8719 166.16673 573.8719 166.63548L573.8719 167.07298ZM577.21564 171.41673Q577.21564 170.65111 577.7 170.16673Q578.2 169.66673 578.96564 169.66673Q579.73126 169.66673 580.21564 170.16673Q580.71564 170.65111 580.71564 171.46361L580.71564 171.86986Q580.71564 172.63548 580.23126 173.13548Q579.7469 173.63548 578.98126 173.63548Q578.21564 173.63548 577.71564 173.15111Q577.21564 172.65111 577.21564 171.83861L577.21564 171.41673ZM578.02814 171.86986Q578.02814 172.33861 578.27814 172.63548Q578.54376 172.93236 578.98126 172.93236Q579.40314 172.93236 579.65314 172.65111Q579.90314 172.35423 579.90314 171.85423L579.90314 171.41673Q579.90314 170.94798 579.6375 170.66673Q579.3875 170.36986 578.96564 170.36986Q578.54376 170.36986 578.27814 170.66673Q578.02814 170.94798 578.02814 171.44798L578.02814 171.86986ZM575.075 172.86986L574.45 172.47923L578.6219 165.80736L579.23126 166.19798L575.075 172.86986Z" fill-rule="nonzero"/><path stroke="#757575" stroke-width="1.0" stroke-linecap="butt" d="M581.45 160.01048L454.76666 160.01048L434.41122 160.01048" fill-rule="nonzero"/><path fill="#9e9e9e" d="M436.41122 160.01048C436.41122 158.90591 435.5158 158.01048 434.41122 158.01048C433.30667 158.01048 432.41122 158.90591 432.41122 160.01048C432.41122 161.11505 433.30667 162.01048 434.41122 162.01048C435.5158 162.01048 436.41122 161.11505 436.41122 160.01048" fill-rule="nonzero"/><path fill="#1a1a1a" d="M550.04376 294.2L552.2625 289.91876L553.54376 289.91876L550.60626 295.2625L550.60626 298.45L549.48126 298.45L549.48126 295.2625L546.54376 289.91876L547.825 289.91876L550.04376 294.2ZM556.90314 298.575Q555.60626 298.575 554.79376 297.73126Q553.9969 296.8719 553.9969 295.45L553.9969 295.2625Q553.9969 294.3094 554.35626 293.575Q554.71564 292.825 555.35626 292.41876Q556.0125 291.9969 556.7625 291.9969Q557.9969 291.9969 558.6844 292.8094Q559.3719 293.6219 559.3719 295.1375L559.3719 295.59064L555.075 295.59064Q555.10626 296.52814 555.6219 297.10626Q556.15314 297.6844 556.96564 297.6844Q557.52814 297.6844 557.91876 297.45Q558.325 297.21564 558.6375 296.825L559.29376 297.34064Q558.4969 298.575 556.90314 298.575ZM556.7625 292.8875Q556.10626 292.8875 555.65314 293.3719Q555.21564 293.84064 555.1219 294.7L558.29376 294.7L558.29376 294.6219Q558.2469 293.79376 557.84064 293.34064Q557.45 292.8875 556.7625 292.8875ZM561.45 298.45L560.3719 298.45L560.3719 289.45L561.45 289.45L561.45 298.45ZM564.45 298.45L563.3719 298.45L563.3719 289.45L564.45 289.45L564.45 298.45ZM565.98126 295.21564Q565.98126 294.29376 566.34064 293.54376Q566.71564 292.79376 567.3719 292.40314Q568.02814 291.9969 568.85626 291.9969Q570.15314 291.9969 570.95 292.8875Q571.7625 293.77814 571.7625 295.27814L571.7625 295.35626Q571.7625 296.27814 571.40314 297.0125Q571.04376 297.7469 570.3875 298.16876Q569.73126 298.575 568.8719 298.575Q567.59064 298.575 566.77814 297.6844Q565.98126 296.77814 565.98126 295.29376L565.98126 295.21564ZM567.075 295.35626Q567.075 296.40314 567.5594 297.04376Q568.0594 297.6844 568.8719 297.6844Q569.7 297.6844 570.1844 297.04376Q570.66876 296.3875 570.66876 295.21564Q570.66876 294.1844 570.16876 293.54376Q569.6844 292.8875 568.85626 292.8875Q568.0594 292.8875 567.5594 293.52814Q567.075 294.15314 567.075 295.35626ZM578.8875 296.95L580.10626 292.10626L581.1844 292.10626L579.34064 298.45L578.46564 298.45L576.91876 293.6375L575.41876 298.45L574.54376 298.45L572.7 292.10626L573.77814 292.10626L575.02814 296.85626L576.5125 292.10626L577.3719 292.10626L578.8875 296.95Z" fill-rule="nonzero"/><path fill="#9e9e9e" d="M560.73126 313.59064L561.91876 313.59064L561.91876 314.46564L560.73126 314.46564L560.73126 316.45L559.65314 316.45L559.65314 314.46564L555.7625 314.46564L555.7625 313.825L559.575 307.91876L560.73126 307.91876L560.73126 313.59064ZM556.9969 313.59064L559.65314 313.59064L559.65314 309.40314L559.5125 309.6375L556.9969 313.59064ZM563.29376 315.8875Q563.29376 315.60626 563.45 315.41876Q563.6219 315.23126 563.95 315.23126Q564.29376 315.23126 564.46564 315.41876Q564.6375 315.60626 564.6375 315.8875Q564.6375 316.15314 564.46564 316.34064Q564.29376 316.5125 563.95 316.5125Q563.6219 316.5125 563.45 316.34064Q563.29376 316.15314 563.29376 315.8875ZM571.5125 312.8094Q571.5125 314.71564 570.85626 315.65314Q570.21564 316.575 568.825 316.575Q567.46564 316.575 566.8094 315.66876Q566.15314 314.7625 566.1219 312.95L566.1219 311.5125Q566.1219 309.6219 566.7625 308.71564Q567.41876 307.79376 568.8094 307.79376Q570.1844 307.79376 570.84064 308.6844Q571.4969 309.5594 571.5125 311.40314L571.5125 312.8094ZM570.41876 311.325Q570.41876 309.95 570.02814 309.325Q569.65314 308.6844 568.8094 308.6844Q567.98126 308.6844 567.59064 309.325Q567.21564 309.95 567.21564 311.2469L567.21564 312.98126Q567.21564 314.35626 567.60626 315.02814Q568.0125 315.6844 568.825 315.6844Q569.6219 315.6844 570.0125 315.0594Q570.40314 314.4344 570.41876 313.10626L570.41876 311.325ZM573.0594 309.5594Q573.0594 308.79376 573.54376 308.29376Q574.04376 307.79376 574.8094 307.79376Q575.59064 307.79376 576.075 308.29376Q576.5594 308.79376 576.5594 309.59064L576.5594 310.0125Q576.5594 310.77814 576.0594 311.27814Q575.575 311.7625 574.825 311.7625Q574.0594 311.7625 573.5594 311.27814Q573.0594 310.77814 573.0594 309.96564L573.0594 309.5594ZM573.8719 310.0125Q573.8719 310.46564 574.1219 310.7625Q574.3875 311.0594 574.825 311.0594Q575.2469 311.0594 575.4969 310.77814Q575.7469 310.48126 575.7469 309.98126L575.7469 309.5594Q575.7469 309.10626 575.4969 308.8094Q575.2469 308.4969 574.8094 308.4969Q574.3719 308.4969 574.1219 308.8094Q573.8719 309.10626 573.8719 309.575L573.8719 310.0125ZM577.21564 314.35626Q577.21564 313.59064 577.7 313.10626Q578.2 312.60626 578.96564 312.60626Q579.73126 312.60626 580.21564 313.10626Q580.71564 313.59064 580.71564 314.40314L580.71564 314.8094Q580.71564 315.575 580.23126 316.075Q579.7469 316.575 578.98126 316.575Q578.21564 316.575 577.71564 316.09064Q577.21564 315.59064 577.21564 314.77814L577.21564 314.35626ZM578.02814 314.8094Q578.02814 315.27814 578.27814 315.575Q578.54376 315.8719 578.98126 315.8719Q579.40314 315.8719 579.65314 315.59064Q579.90314 315.29376 579.90314 314.79376L579.90314 314.35626Q579.90314 313.8875 579.6375 313.60626Q579.3875 313.3094 578.96564 313.3094Q578.54376 313.3094 578.27814 313.60626Q578.02814 313.8875 578.02814 314.3875L578.02814 314.8094ZM575.075 315.8094L574.45 315.41876L578.6219 308.7469L579.23126 309.1375L575.075 315.8094Z" fill-rule="nonzero"/><path stroke="#757575" stroke-width="1.0" stroke-linecap="butt" d="M581.45 302.95L454.76666 302.95L368.08545 327.5303" fill-rule="nonzero"/><path fill="#9e9e9e" d="M370.08545 327.5303C370.08545 326.42572 369.19 325.5303 368.08545 325.5303C366.98087 325.5303 366.08545 326.42572 366.08545 327.5303C366.08545 328.63486 366.98087 329.5303 368.08545 329.5303C369.19 329.5303 370.08545 328.63486 370.08545 327.5303" fill-rule="nonzero"/><path fill="#1a1a1a" d="M557.7469 330.325Q557.3094 330.95 556.52814 331.2625Q555.7469 331.575 554.71564 331.575Q553.6844 331.575 552.8719 331.09064Q552.0594 330.59064 551.6219 329.6844Q551.1844 328.77814 551.16876 327.59064L551.16876 326.85626Q551.16876 324.91876 552.0594 323.85626Q552.96564 322.79376 554.59064 322.79376Q555.9344 322.79376 556.7469 323.48126Q557.5594 324.16876 557.7469 325.41876L556.6219 325.41876Q556.29376 323.73126 554.60626 323.73126Q553.46564 323.73126 552.8875 324.52814Q552.3094 325.3094 552.29376 326.825L552.29376 327.5125Q552.29376 328.95 552.95 329.8094Q553.60626 330.65314 554.73126 330.65314Q555.35626 330.65314 555.825 330.5125Q556.3094 330.3719 556.6219 330.02814L556.6219 328.1219L554.65314 328.1219L554.65314 327.2L557.7469 327.2L557.7469 330.325ZM562.34064 326.075Q562.09064 326.04376 561.8094 326.04376Q560.73126 326.04376 560.35626 326.95L560.35626 331.45L559.27814 331.45L559.27814 325.10626L560.325 325.10626L560.34064 325.84064Q560.8719 324.9969 561.85626 324.9969Q562.16876 324.9969 562.34064 325.075L562.34064 326.075ZM565.90314 331.575Q564.60626 331.575 563.79376 330.73126Q562.9969 329.8719 562.9969 328.45L562.9969 328.2625Q562.9969 327.3094 563.35626 326.575Q563.71564 325.825 564.35626 325.41876Q565.0125 324.9969 565.7625 324.9969Q566.9969 324.9969 567.6844 325.8094Q568.3719 326.6219 568.3719 328.1375L568.3719 328.59064L564.075 328.59064Q564.10626 329.52814 564.6219 330.10626Q565.15314 330.6844 565.96564 330.6844Q566.52814 330.6844 566.91876 330.45Q567.325 330.21564 567.6375 329.825L568.29376 330.34064Q567.4969 331.575 565.90314 331.575ZM565.7625 325.8875Q565.10626 325.8875 564.65314 326.3719Q564.21564 326.84064 564.1219 327.7L567.29376 327.7L567.29376 327.6219Q567.2469 326.79376 566.84064 326.34064Q566.45 325.8875 565.7625 325.8875ZM571.90314 331.575Q570.60626 331.575 569.79376 330.73126Q568.9969 329.8719 568.9969 328.45L568.9969 328.2625Q568.9969 327.3094 569.35626 326.575Q569.71564 325.825 570.35626 325.41876Q571.0125 324.9969 571.7625 324.9969Q572.9969 324.9969 573.6844 325.8094Q574.3719 326.6219 574.3719 328.1375L574.3719 328.59064L570.075 328.59064Q570.10626 329.52814 570.6219 330.10626Q571.15314 330.6844 571.96564 330.6844Q572.52814 330.6844 572.91876 330.45Q573.325 330.21564 573.6375 329.825L574.29376 330.34064Q573.4969 331.575 571.90314 331.575ZM571.7625 325.8875Q571.10626 325.8875 570.65314 326.3719Q570.21564 326.84064 570.1219 327.7L573.29376 327.7L573.29376 327.6219Q573.2469 326.79376 572.84064 326.34064Q572.45 325.8875 571.7625 325.8875ZM576.29376 325.10626L576.325 325.90314Q577.0594 324.9969 578.23126 324.9969Q580.2469 324.9969 580.2625 327.2625L580.2625 331.45L579.16876 331.45L579.16876 327.2469Q579.16876 326.575 578.85626 326.2469Q578.5594 325.91876 577.90314 325.91876Q577.3719 325.91876 576.96564 326.2Q576.575 326.48126 576.35626 326.9344L576.35626 331.45L575.27814 331.45L575.27814 325.10626L576.29376 325.10626Z" fill-rule="nonzero"/><path fill="#9e9e9e" d="M560.73126 346.59064L561.91876 346.59064L561.91876 347.46564L560.73126 347.46564L560.73126 349.45L559.65314 349.45L559.65314 347.46564L555.7625 347.46564L555.7625 346.825L559.575 340.91876L560.73126 340.91876L560.73126 346.59064ZM556.9969 346.59064L559.65314 346.59064L559.65314 342.40314L559.5125 342.6375L556.9969 346.59064ZM563.29376 348.8875Q563.29376 348.60626 563.45 348.41876Q563.6219 348.23126 563.95 348.23126Q564.29376 348.23126 564.46564 348.41876Q564.6375 348.60626 564.6375 348.8875Q564.6375 349.15314 564.46564 349.34064Q564.29376 349.5125 563.95 349.5125Q563.6219 349.5125 563.45 349.34064Q563.29376 349.15314 563.29376 348.8875ZM571.5125 345.8094Q571.5125 347.71564 570.85626 348.65314Q570.21564 349.575 568.825 349.575Q567.46564 349.575 566.8094 348.66876Q566.15314 347.7625 566.1219 345.95L566.1219 344.5125Q566.1219 342.6219 566.7625 341.71564Q567.41876 340.79376 568.8094 340.79376Q570.1844 340.79376 570.84064 341.6844Q571.4969 342.5594 571.5125 344.40314L571.5125 345.8094ZM570.41876 344.325Q570.41876 342.95 570.02814 342.325Q569.65314 341.6844 568.8094 341.6844Q567.98126 341.6844 567.59064 342.325Q567.21564 342.95 567.21564 344.2469L567.21564 345.98126Q567.21564 347.35626 567.60626 348.02814Q568.0125 348.6844 568.825 348.6844Q569.6219 348.6844 570.0125 348.0594Q570.40314 347.4344 570.41876 346.10626L570.41876 344.325ZM573.0594 342.5594Q573.0594 341.79376 573.54376 341.29376Q574.04376 340.79376 574.8094 340.79376Q575.59064 340.79376 576.075 341.29376Q576.5594 341.79376 576.5594 342.59064L576.5594 343.0125Q576.5594 343.77814 576.0594 344.27814Q575.575 344.7625 574.825 344.7625Q574.0594 344.7625 573.5594 344.27814Q573.0594 343.77814 573.0594 342.96564L573.0594 342.5594ZM573.8719 343.0125Q573.8719 343.46564 574.1219 343.7625Q574.3875 344.0594 574.825 344.0594Q575.2469 344.0594 575.4969 343.77814Q575.7469 343.48126 575.7469 342.98126L575.7469 342.5594Q575.7469 342.10626 575.4969 341.8094Q575.2469 341.4969 574.8094 341.4969Q574.3719 341.4969 574.1219 341.8094Q573.8719 342.10626 573.8719 342.575L573.8719 343.0125ZM577.21564 347.35626Q577.21564 346.59064 577.7 346.10626Q578.2 345.60626 578.96564 345.60626Q579.73126 345.60626 580.21564 346.10626Q580.71564 346.59064 580.71564 347.40314L580.71564 347.8094Q580.71564 348.575 580.23126 349.075Q579.7469 349.575 578.98126 349.575Q578.21564 349.575 577.71564 349.09064Q577.21564 348.59064 577.21564 347.77814L577.21564 347.35626ZM578.02814 347.8094Q578.02814 348.27814 578.27814 348.575Q578.54376 348.8719 578.98126 348.8719Q579.40314 348.8719 579.65314 348.59064Q579.90314 348.29376 579.90314 347.79376L579.90314 347.35626Q579.90314 346.8875 579.6375 346.60626Q579.3875 346.3094 578.96564 346.3094Q578.54376 346.3094 578.27814 346.60626Q578.02814 346.8875 578.02814 347.3875L578.02814 347.8094ZM575.075 348.8094L574.45 348.41876L578.6219 341.7469L579.23126 342.1375L575.075 348.8094Z" fill-rule="nonzero"/><path stroke="#757575" stroke-width="1.0" stroke-linecap="butt" d="M581.45 335.95L454.76666 335.95L335.14694 340.57156" fill-rule="nonzero"/><path fill="#9e9e9e" d="M337.14694 340.57156C337.14694 339.467 336.2515 338.57156 335.14694 338.57156C334.04236 338.57156 333.14694 339.467 333.14694 340.57156C333.14694 341.67615 334.04236 342.57156 335.14694 342.57156C336.2515 342.57156 337.14694 341.67615 337.14694 340.57156" fill-rule="nonzero"/><path fill="#757575" d="M23.64375 23.33125L27.3 33.64375L30.940624 23.33125L34.784374 23.33125L34.784374 37.55L31.846874 37.55L31.846874 33.659374L32.128124 26.95625L28.3 37.55L26.284374 37.55L22.45625 26.95625L22.753124 33.659374L22.753124 37.55L19.815624 37.55L19.815624 23.33125L23.64375 23.33125ZM43.753124 37.55Q43.565624 37.175 43.471874 36.596874Q42.45625 37.753124 40.815624 37.753124Q39.253124 37.753124 38.2375 36.846874Q37.221874 35.940624 37.221874 34.58125Q37.221874 32.89375 38.45625 32.003124Q39.70625 31.096874 42.065624 31.096874L43.3625 31.096874L43.3625 30.4875Q43.3625 29.753124 42.9875 29.315624Q42.6125 28.878124 41.8 28.878124Q41.08125 28.878124 40.675 29.221874Q40.26875 29.565624 40.26875 30.159374L37.45625 30.159374Q37.45625 29.2375 38.01875 28.45625Q38.58125 27.675 39.6125 27.2375Q40.659374 26.784374 41.940624 26.784374Q43.89375 26.784374 45.034374 27.76875Q46.190624 28.753124 46.190624 30.534374L46.190624 35.1125Q46.20625 36.6125 46.6125 37.378124L46.6125 37.55L43.753124 37.55ZM41.425 35.58125Q42.05 35.58125 42.565624 35.315624Q43.096874 35.034374 43.3625 34.565624L43.3625 32.7375L42.3 32.7375Q40.190624 32.7375 40.05 34.20625L40.034374 34.378124Q40.034374 34.909374 40.409374 35.253124Q40.784374 35.58125 41.425 35.58125ZM52.01875 24.378124L52.01875 26.9875L53.815624 26.9875L53.815624 29.05L52.01875 29.05L52.01875 34.33125Q52.01875 34.909374 52.2375 35.175Q52.45625 35.425 53.096874 35.425Q53.565624 35.425 53.925 35.346874L53.925 37.4875Q53.096874 37.753124 52.221874 37.753124Q49.253124 37.753124 49.190624 34.753124L49.190624 29.05L47.64375 29.05L47.64375 26.9875L49.190624 26.9875L49.190624 24.378124L52.01875 24.378124ZM58.39375 28.128124Q59.51875 26.784374 61.20625 26.784374Q64.64375 26.784374 64.69063 30.784374L64.69063 37.55L61.878124 37.55L61.878124 30.8625Q61.878124 29.95625 61.4875 29.51875Q61.096874 29.08125 60.190624 29.08125Q58.940624 29.08125 58.39375 30.034374L58.39375 37.55L55.565624 37.55L55.565624 22.55L58.39375 22.55L58.39375 28.128124Z" fill-rule="nonzero"/></svg>