<svg version="1.1" viewBox="0.0 0.0 600.0 371.0" fill="none" stroke="none" stroke-linecap="square" stroke-miterlimit="10" width="600" height="371" xmlns:xlink="http://www.w3.org/1999/xlink" xmlns="http://www.w3.org/2000/svg"><path fill="#ffffff" d="M0 0L600.0 0L600.0 371.0L0 371.0L0 0Z" fill-rule="nonzero"/><path fill="#cc0000" d="M300.0 54.916668C312.47946 54.916668 324.90936 56.486927 336.99677 59.590446L300.0 203.68333Z" fill-rule="nonzero"/><path fill="#e69138" d="M336.99677 59.590446C349.08417 62.693962 360.73303 67.306076 371.66888 73.31811L300.0 203.68333Z" fill-rule="nonzero"/><path fill="#f1c232" d="M371.66888 73.31811C404.82687 91.546875 429.79282 121.7255 441.4855 157.7119L300.0 203.68333Z" fill-rule="nonzero"/><path fill="#6aa84f" d="M441.4855 157.7119C445.3419 169.5806 447.6895 181.88734 448.4731 194.3422L300.0 203.68333Z" fill-rule="nonzero"/><path fill="#3c78d8" d="M448.4731 194.3422C450.849 232.10588 438.74576 269.35583 414.62668 298.51077L300.0 203.68333Z" fill-rule="nonzero"/><path fill="#76a5af" d="M228.33112 73.31811C250.28972 61.24626 274.94186 54.916668 300.0 54.916668L300.0 203.68333Z" fill-rule="nonzero"/><path fill="#434343" d="M151.52689 194.3422C154.72475 143.51364 183.70164 97.85336 228.33112 73.31811L300.0 203.68333Z" fill-rule="nonzero"/><path fill="#cccccc" d="M153.8684 231.55943C151.52998 219.301 150.7433 206.79704 151.52689 194.3422L300.0 203.68333Z" fill-rule="nonzero"/><path fill="#f3f3f3" d="M165.39189 267.0251C160.0784 255.73334 156.20682 243.81786 153.8684 231.55943L300.0 203.68333Z" fill-rule="nonzero"/><path fill="#674ea7" d="M414.62668 298.51077C382.1633 337.7523 331.88205 357.66003 281.35458 351.27692C230.82713 344.89383 187.07643 313.1071 165.39189 267.0251L300.0 203.68333Z" fill-rule="nonzero"/><path fill="#1a1a1a" d="M26.096874 62.93229Q26.096874 64.18229 25.675 65.11979Q25.253124 66.041664 24.471874 66.541664Q23.70625 67.041664 22.675 67.041664Q21.675 67.041664 20.89375 66.541664Q20.1125 66.041664 19.675 65.135414Q19.253124 64.21354 19.2375 62.99479L19.2375 62.385414Q19.2375 61.15104 19.659374 60.21354Q20.096874 59.27604 20.878124 58.77604Q21.659374 58.260414 22.675 58.260414Q23.690624 58.260414 24.471874 58.760414Q25.253124 59.260414 25.675 60.197914Q26.096874 61.135414 26.096874 62.385414L26.096874 62.93229ZM24.9875 62.36979Q24.9875 60.854164 24.378124 60.041664Q23.76875 59.229164 22.675 59.229164Q21.596874 59.229164 20.9875 60.041664Q20.378124 60.854164 20.3625 62.291664L20.3625 62.93229Q20.3625 64.40104 20.971874 65.24479Q21.596874 66.072914 22.675 66.072914Q23.76875 66.072914 24.3625 65.291664Q24.971874 64.49479 24.9875 63.010414L24.9875 62.36979ZM28.846874 59.041664L28.846874 60.572914L30.01875 60.572914L30.01875 61.416664L28.846874 61.416664L28.846874 65.33854Q28.846874 65.729164 29.003124 65.916664Q29.159374 66.104164 29.534374 66.104164Q29.721874 66.104164 30.05 66.041664L30.05 66.916664Q29.628124 67.041664 29.221874 67.041664Q28.503124 67.041664 28.128124 66.604164Q27.753124 66.15104 27.753124 65.33854L27.753124 61.416664L26.596874 61.416664L26.596874 60.572914L27.753124 60.572914L27.753124 59.041664L28.846874 59.041664ZM32.45625 61.33854Q33.175 60.46354 34.33125 60.46354Q36.346874 60.46354 36.3625 62.729164L36.3625 66.916664L35.26875 66.916664L35.26875 62.71354Q35.26875 62.041664 34.95625 61.71354Q34.659374 61.385414 34.003124 61.385414Q33.471874 61.385414 33.065624 61.666664Q32.675 61.947914 32.45625 62.40104L32.45625 66.916664L31.378124 66.916664L31.378124 57.916664L32.45625 57.916664L32.45625 61.33854ZM41.003124 67.041664Q39.70625 67.041664 38.89375 66.197914Q38.096874 65.33854 38.096874 63.916664L38.096874 63.729164Q38.096874 62.77604 38.45625 62.041664Q38.815624 61.291664 39.45625 60.885414Q40.1125 60.46354 40.8625 60.46354Q42.096874 60.46354 42.784374 61.27604Q43.471874 62.08854 43.471874 63.604164L43.471874 64.05729L39.175 64.05729Q39.20625 64.99479 39.721874 65.572914Q40.253124 66.15104 41.065624 66.15104Q41.628124 66.15104 42.01875 65.916664Q42.425 65.68229 42.7375 65.291664L43.39375 65.80729Q42.596874 67.041664 41.003124 67.041664ZM40.8625 61.354164Q40.20625 61.354164 39.753124 61.83854Q39.315624 62.30729 39.221874 63.166664L42.39375 63.166664L42.39375 63.08854Q42.346874 62.260414 41.940624 61.80729Q41.55 61.354164 40.8625 61.354164ZM47.440624 61.541664Q47.190624 61.510414 46.909374 61.510414Q45.83125 61.510414 45.45625 62.416664L45.45625 66.916664L44.378124 66.916664L44.378124 60.572914L45.425 60.572914L45.440624 61.30729Q45.971874 60.46354 46.95625 60.46354Q47.26875 60.46354 47.440624 60.541664L47.440624 61.541664Z" fill-rule="nonzero"/><path fill="#9e9e9e" d="M24.440624 78.604164Q24.440624 79.24479 24.096874 79.74479Q23.753124 80.24479 23.190624 80.52604Q23.846874 80.80729 24.2375 81.36979Q24.628124 81.916664 24.628124 82.61979Q24.628124 83.71354 23.878124 84.385414Q23.14375 85.041664 21.925 85.041664Q20.690624 85.041664 19.940624 84.385414Q19.20625 83.71354 19.20625 82.61979Q19.20625 81.916664 19.58125 81.36979Q19.95625 80.80729 20.628124 80.52604Q20.065624 80.24479 19.7375 79.74479Q19.409374 79.24479 19.409374 78.604164Q19.409374 77.52604 20.096874 76.90104Q20.784374 76.260414 21.925 76.260414Q23.05 76.260414 23.7375 76.90104Q24.440624 77.52604 24.440624 78.604164ZM23.55 82.58854Q23.55 81.86979 23.096874 81.43229Q22.64375 80.979164 21.909374 80.979164Q21.175 80.979164 20.721874 81.43229Q20.284374 81.86979 20.284374 82.604164Q20.284374 83.322914 20.721874 83.74479Q21.159374 84.15104 21.925 84.15104Q22.675 84.15104 23.1125 83.729164Q23.55 83.30729 23.55 82.58854ZM21.925 77.15104Q21.284374 77.15104 20.878124 77.55729Q20.4875 77.947914 20.4875 78.635414Q20.4875 79.27604 20.878124 79.68229Q21.26875 80.08854 21.909374 80.08854Q22.565624 80.08854 22.95625 79.68229Q23.346874 79.27604 23.346874 78.635414Q23.346874 77.979164 22.940624 77.572914Q22.534374 77.15104 21.925 77.15104ZM26.39375 84.354164Q26.39375 84.072914 26.55 83.885414Q26.721874 83.697914 27.05 83.697914Q27.39375 83.697914 27.565624 83.885414Q27.7375 84.072914 27.7375 84.354164Q27.7375 84.61979 27.565624 84.80729Q27.39375 84.979164 27.05 84.979164Q26.721874 84.979164 26.55 84.80729Q26.39375 84.61979 26.39375 84.354164ZM34.6125 81.27604Q34.6125 83.18229 33.95625 84.11979Q33.315624 85.041664 31.925 85.041664Q30.565624 85.041664 29.909374 84.135414Q29.253124 83.229164 29.221874 81.416664L29.221874 79.979164Q29.221874 78.08854 29.8625 77.18229Q30.51875 76.260414 31.909374 76.260414Q33.284374 76.260414 33.940624 77.15104Q34.596874 78.02604 34.6125 79.86979L34.6125 81.27604ZM33.51875 79.791664Q33.51875 78.416664 33.128124 77.791664Q32.753124 77.15104 31.909374 77.15104Q31.08125 77.15104 30.690624 77.791664Q30.315624 78.416664 30.315624 79.71354L30.315624 81.447914Q30.315624 82.822914 30.70625 83.49479Q31.1125 84.15104 31.925 84.15104Q32.721874 84.15104 33.1125 83.52604Q33.503124 82.90104 33.51875 81.572914L33.51875 79.791664ZM36.159374 78.02604Q36.159374 77.260414 36.64375 76.760414Q37.14375 76.260414 37.909374 76.260414Q38.690624 76.260414 39.175 76.760414Q39.659374 77.260414 39.659374 78.05729L39.659374 78.479164Q39.659374 79.24479 39.159374 79.74479Q38.675 80.229164 37.925 80.229164Q37.159374 80.229164 36.659374 79.74479Q36.159374 79.24479 36.159374 78.43229L36.159374 78.02604ZM36.971874 78.479164Q36.971874 78.93229 37.221874 79.229164Q37.4875 79.52604 37.925 79.52604Q38.346874 79.52604 38.596874 79.24479Q38.846874 78.947914 38.846874 78.447914L38.846874 78.02604Q38.846874 77.572914 38.596874 77.27604Q38.346874 76.96354 37.909374 76.96354Q37.471874 76.96354 37.221874 77.27604Q36.971874 77.572914 36.971874 78.041664L36.971874 78.479164ZM40.315624 82.822914Q40.315624 82.05729 40.8 81.572914Q41.3 81.072914 42.065624 81.072914Q42.83125 81.072914 43.315624 81.572914Q43.815624 82.05729 43.815624 82.86979L43.815624 83.27604Q43.815624 84.041664 43.33125 84.541664Q42.846874 85.041664 42.08125 85.041664Q41.315624 85.041664 40.815624 84.55729Q40.315624 84.05729 40.315624 83.24479L40.315624 82.822914ZM41.128124 83.27604Q41.128124 83.74479 41.378124 84.041664Q41.64375 84.33854 42.08125 84.33854Q42.503124 84.33854 42.753124 84.05729Q43.003124 83.760414 43.003124 83.260414L43.003124 82.822914Q43.003124 82.354164 42.7375 82.072914Q42.4875 81.77604 42.065624 81.77604Q41.64375 81.77604 41.378124 82.072914Q41.128124 82.354164 41.128124 82.854164L41.128124 83.27604ZM38.175 84.27604L37.55 83.885414L41.721874 77.21354L42.33125 77.604164L38.175 84.27604Z" fill-rule="nonzero"/><path stroke="#757575" stroke-width="1.0" stroke-linecap="butt" d="M18.55 71.416664L145.23334 71.416664L264.85306 66.79509" fill-rule="nonzero"/><path fill="#9e9e9e" d="M266.85306 66.79509C266.85306 65.69052 265.95764 64.79509 264.85306 64.79509C263.7485 64.79509 262.85306 65.69052 262.85306 66.79509C262.85306 67.89966 263.7485 68.79509 264.85306 68.79509C265.95764 68.79509 266.85306 67.89966 266.85306 66.79509" fill-rule="nonzero"/><path fill="#1a1a1a" d="M19.534374 123.455826L19.534374 114.924576L22.33125 114.924576Q23.721874 114.924576 24.409374 115.5027Q25.1125 116.0652 25.1125 117.1902Q25.1125 117.799576 24.76875 118.268326Q24.440624 118.72145 23.846874 118.97145Q24.55 119.15895 24.940624 119.705826Q25.346874 120.237076 25.346874 120.987076Q25.346874 122.143326 24.596874 122.799576Q23.8625 123.455826 22.503124 123.455826L19.534374 123.455826ZM20.659374 119.47145L20.659374 122.53395L22.51875 122.53395Q23.315624 122.53395 23.76875 122.1277Q24.221874 121.72145 24.221874 121.0027Q24.221874 119.47145 22.534374 119.47145L20.659374 119.47145ZM20.659374 118.5652L22.3625 118.5652Q23.096874 118.5652 23.534374 118.205826Q23.9875 117.830826 23.9875 117.1902Q23.9875 116.487076 23.58125 116.174576Q23.175 115.84645 22.33125 115.84645L20.659374 115.84645L20.659374 118.5652ZM27.55 123.455826L26.471874 123.455826L26.471874 114.455826L27.55 114.455826L27.55 123.455826ZM33.284374 123.455826Q33.190624 123.268326 33.128124 122.78395Q32.378124 123.580826 31.33125 123.580826Q30.39375 123.580826 29.784374 123.049576Q29.190624 122.518326 29.190624 121.6902Q29.190624 120.705826 29.940624 120.15895Q30.690624 119.612076 32.065624 119.612076L33.1125 119.612076L33.1125 119.112076Q33.1125 118.549576 32.76875 118.22145Q32.440624 117.8777 31.76875 117.8777Q31.190624 117.8777 30.8 118.174576Q30.409374 118.455826 30.409374 118.8777L29.315624 118.8777Q29.315624 118.393326 29.64375 117.955826Q29.9875 117.518326 30.565624 117.268326Q31.14375 117.0027 31.83125 117.0027Q32.940624 117.0027 33.55 117.549576Q34.175 118.09645 34.20625 119.049576L34.20625 121.97145Q34.20625 122.84645 34.425 123.362076L34.425 123.455826L33.284374 123.455826ZM31.4875 122.6277Q32.003124 122.6277 32.45625 122.362076Q32.909374 122.09645 33.1125 121.674576L33.1125 120.3777L32.26875 120.3777Q30.26875 120.3777 30.26875 121.549576Q30.26875 122.049576 30.6125 122.34645Q30.95625 122.6277 31.4875 122.6277ZM38.909374 122.6902Q39.4875 122.6902 39.925 122.34645Q40.3625 121.987076 40.409374 121.455826L41.440624 121.455826Q41.409374 122.0027 41.05 122.5027Q40.70625 122.987076 40.128124 123.28395Q39.565624 123.580826 38.909374 123.580826Q37.6125 123.580826 36.846874 122.72145Q36.096874 121.84645 36.096874 120.34645L36.096874 120.15895Q36.096874 119.237076 36.425 118.518326Q36.76875 117.799576 37.39375 117.40895Q38.034374 117.0027 38.909374 117.0027Q39.971874 117.0027 40.675 117.643326Q41.39375 118.268326 41.440624 119.299576L40.409374 119.299576Q40.3625 118.674576 39.940624 118.28395Q39.51875 117.893326 38.909374 117.893326Q38.08125 117.893326 37.628124 118.487076Q37.175 119.080826 37.175 120.205826L37.175 120.40895Q37.175 121.5027 37.628124 122.09645Q38.08125 122.6902 38.909374 122.6902ZM44.14375 120.518326L43.45625 121.22145L43.45625 123.455826L42.378124 123.455826L42.378124 114.455826L43.45625 114.455826L43.45625 119.893326L44.034374 119.205826L46.01875 117.112076L47.33125 117.112076L44.8625 119.768326L47.628124 123.455826L46.346874 123.455826L44.14375 120.518326Z" fill-rule="nonzero"/><path fill="#9e9e9e" d="M22.815624 141.45583L21.7375 141.45583L21.7375 134.23708L19.55 135.03395L19.55 134.04958L22.659374 132.8777L22.815624 132.8777L22.815624 141.45583ZM30.51875 132.92458L30.51875 133.83083L30.315624 133.83083Q29.05 133.86208 28.3 134.59645Q27.55 135.3152 27.425 136.6277Q28.1125 135.86208 29.26875 135.86208Q30.378124 135.86208 31.05 136.64333Q31.721874 137.42458 31.721874 138.67458Q31.721874 139.98708 31.003124 140.78395Q30.284374 141.58083 29.065624 141.58083Q27.846874 141.58083 27.08125 140.64333Q26.33125 139.6902 26.33125 138.20583L26.33125 137.79958Q26.33125 135.4402 27.33125 134.1902Q28.33125 132.9402 30.315624 132.92458L30.51875 132.92458ZM29.096874 136.76833Q28.534374 136.76833 28.065624 137.09645Q27.596874 137.42458 27.409374 137.9402L27.409374 138.33083Q27.409374 139.39333 27.878124 140.03395Q28.3625 140.67458 29.065624 140.67458Q29.8 140.67458 30.221874 140.14333Q30.64375 139.59645 30.64375 138.72145Q30.64375 137.84645 30.221874 137.3152Q29.8 136.76833 29.096874 136.76833ZM33.39375 140.89333Q33.39375 140.61208 33.55 140.42458Q33.721874 140.23708 34.05 140.23708Q34.39375 140.23708 34.565624 140.42458Q34.7375 140.61208 34.7375 140.89333Q34.7375 141.15895 34.565624 141.34645Q34.39375 141.51833 34.05 141.51833Q33.721874 141.51833 33.55 141.34645Q33.39375 141.15895 33.39375 140.89333ZM41.6125 137.8152Q41.6125 139.72145 40.95625 140.65895Q40.315624 141.58083 38.925 141.58083Q37.565624 141.58083 36.909374 140.67458Q36.253124 139.76833 36.221874 137.95583L36.221874 136.51833Q36.221874 134.6277 36.8625 133.72145Q37.51875 132.79958 38.909374 132.79958Q40.284374 132.79958 40.940624 133.6902Q41.596874 134.5652 41.6125 136.40895L41.6125 137.8152ZM40.51875 136.33083Q40.51875 134.95583 40.128124 134.33083Q39.753124 133.6902 38.909374 133.6902Q38.08125 133.6902 37.690624 134.33083Q37.315624 134.95583 37.315624 136.2527L37.315624 137.98708Q37.315624 139.36208 37.70625 140.03395Q38.1125 140.6902 38.925 140.6902Q39.721874 140.6902 40.1125 140.0652Q40.503124 139.4402 40.51875 138.11208L40.51875 136.33083ZM43.159374 134.5652Q43.159374 133.79958 43.64375 133.29958Q44.14375 132.79958 44.909374 132.79958Q45.690624 132.79958 46.175 133.29958Q46.659374 133.79958 46.659374 134.59645L46.659374 135.01833Q46.659374 135.78395 46.159374 136.28395Q45.675 136.76833 44.925 136.76833Q44.159374 136.76833 43.659374 136.28395Q43.159374 135.78395 43.159374 134.97145L43.159374 134.5652ZM43.971874 135.01833Q43.971874 135.47145 44.221874 135.76833Q44.4875 136.0652 44.925 136.0652Q45.346874 136.0652 45.596874 135.78395Q45.846874 135.48708 45.846874 134.98708L45.846874 134.5652Q45.846874 134.11208 45.596874 133.8152Q45.346874 133.5027 44.909374 133.5027Q44.471874 133.5027 44.221874 133.8152Q43.971874 134.11208 43.971874 134.58083L43.971874 135.01833ZM47.315624 139.36208Q47.315624 138.59645 47.8 138.11208Q48.3 137.61208 49.065624 137.61208Q49.83125 137.61208 50.315624 138.11208Q50.815624 138.59645 50.815624 139.40895L50.815624 139.8152Q50.815624 140.58083 50.33125 141.08083Q49.846874 141.58083 49.08125 141.58083Q48.315624 141.58083 47.815624 141.09645Q47.315624 140.59645 47.315624 139.78395L47.315624 139.36208ZM48.128124 139.8152Q48.128124 140.28395 48.378124 140.58083Q48.64375 140.8777 49.08125 140.8777Q49.503124 140.8777 49.753124 140.59645Q50.003124 140.29958 50.003124 139.79958L50.003124 139.36208Q50.003124 138.89333 49.7375 138.61208Q49.4875 138.3152 49.065624 138.3152Q48.64375 138.3152 48.378124 138.61208Q48.128124 138.89333 48.128124 139.39333L48.128124 139.8152ZM45.175 140.8152L44.55 140.42458L48.721874 133.7527L49.33125 134.14333L45.175 140.8152Z" fill-rule="nonzero"/><path stroke="#757575" stroke-width="1.0" stroke-linecap="butt" d="M18.55 127.955826L145.23334 127.955826L180.67255 127.955826" fill-rule="nonzero"/><path fill="#9e9e9e" d="M182.67255 127.955826C182.67255 126.85126 181.77711 125.955826 180.67255 125.955826C179.56798 125.955826 178.67255 126.85126 178.67255 127.955826C178.67255 129.0604 179.56798 129.95583 180.67255 129.95583C181.77711 129.95583 182.67255 129.0604 182.67255 127.955826" fill-rule="nonzero"/><path fill="#1a1a1a" d="M25.846874 206.93242Q25.409374 207.55742 24.628124 207.86992Q23.846874 208.18242 22.815624 208.18242Q21.784374 208.18242 20.971874 207.69804Q20.159374 207.19804 19.721874 206.2918Q19.284374 205.38554 19.26875 204.19804L19.26875 203.46367Q19.26875 201.52617 20.159374 200.46367Q21.065624 199.40117 22.690624 199.40117Q24.034374 199.40117 24.846874 200.08867Q25.659374 200.77617 25.846874 202.02617L24.721874 202.02617Q24.39375 200.33867 22.70625 200.33867Q21.565624 200.33867 20.9875 201.13554Q20.409374 201.9168 20.39375 203.43242L20.39375 204.11992Q20.39375 205.55742 21.05 206.4168Q21.70625 207.26054 22.83125 207.26054Q23.45625 207.26054 23.925 207.11992Q24.409374 206.9793 24.721874 206.63554L24.721874 204.7293L22.753124 204.7293L22.753124 203.80742L25.846874 203.80742L25.846874 206.93242ZM30.440624 202.68242Q30.190624 202.65117 29.909374 202.65117Q28.83125 202.65117 28.45625 203.55742L28.45625 208.05742L27.378124 208.05742L27.378124 201.71367L28.425 201.71367L28.440624 202.44804Q28.971874 201.6043 29.95625 201.6043Q30.26875 201.6043 30.440624 201.68242L30.440624 202.68242ZM34.003124 208.18242Q32.70625 208.18242 31.89375 207.33867Q31.096874 206.4793 31.096874 205.05742L31.096874 204.86992Q31.096874 203.9168 31.45625 203.18242Q31.815624 202.43242 32.45625 202.02617Q33.1125 201.6043 33.8625 201.6043Q35.096874 201.6043 35.784374 202.4168Q36.471874 203.2293 36.471874 204.74492L36.471874 205.19804L32.175 205.19804Q32.20625 206.13554 32.721874 206.71367Q33.253124 207.2918 34.065624 207.2918Q34.628124 207.2918 35.01875 207.05742Q35.425 206.82304 35.7375 206.43242L36.39375 206.94804Q35.596874 208.18242 34.003124 208.18242ZM33.8625 202.49492Q33.20625 202.49492 32.753124 202.9793Q32.315624 203.44804 32.221874 204.30742L35.39375 204.30742L35.39375 204.2293Q35.346874 203.40117 34.940624 202.94804Q34.55 202.49492 33.8625 202.49492ZM39.440624 206.46367L40.925 201.71367L42.08125 201.71367L39.534374 209.0418Q38.940624 210.61992 37.659374 210.61992L37.440624 210.6043L37.05 210.52617L37.05 209.65117L37.33125 209.6668Q37.89375 209.6668 38.190624 209.44804Q38.503124 209.2293 38.70625 208.63554L38.940624 207.9793L36.675 201.71367L37.8625 201.71367L39.440624 206.46367Z" fill-rule="nonzero"/><path fill="#9e9e9e" d="M23.83125 223.19804L25.01875 223.19804L25.01875 224.07304L23.83125 224.07304L23.83125 226.05742L22.753124 226.05742L22.753124 224.07304L18.8625 224.07304L18.8625 223.43242L22.675 217.52617L23.83125 217.52617L23.83125 223.19804ZM20.096874 223.19804L22.753124 223.19804L22.753124 219.01054L22.6125 219.24492L20.096874 223.19804ZM26.39375 225.49492Q26.39375 225.21367 26.55 225.02617Q26.721874 224.83867 27.05 224.83867Q27.39375 224.83867 27.565624 225.02617Q27.7375 225.21367 27.7375 225.49492Q27.7375 225.76054 27.565624 225.94804Q27.39375 226.11992 27.05 226.11992Q26.721874 226.11992 26.55 225.94804Q26.39375 225.76054 26.39375 225.49492ZM34.6125 222.4168Q34.6125 224.32304 33.95625 225.26054Q33.315624 226.18242 31.925 226.18242Q30.565624 226.18242 29.909374 225.27617Q29.253124 224.36992 29.221874 222.55742L29.221874 221.11992Q29.221874 219.2293 29.8625 218.32304Q30.51875 217.40117 31.909374 217.40117Q33.284374 217.40117 33.940624 218.2918Q34.596874 219.1668 34.6125 221.01054L34.6125 222.4168ZM33.51875 220.93242Q33.51875 219.55742 33.128124 218.93242Q32.753124 218.2918 31.909374 218.2918Q31.08125 218.2918 30.690624 218.93242Q30.315624 219.55742 30.315624 220.8543L30.315624 222.58867Q30.315624 223.96367 30.70625 224.63554Q31.1125 225.2918 31.925 225.2918Q32.721874 225.2918 33.1125 224.6668Q33.503124 224.0418 33.51875 222.71367L33.51875 220.93242ZM36.159374 219.1668Q36.159374 218.40117 36.64375 217.90117Q37.14375 217.40117 37.909374 217.40117Q38.690624 217.40117 39.175 217.90117Q39.659374 218.40117 39.659374 219.19804L39.659374 219.61992Q39.659374 220.38554 39.159374 220.88554Q38.675 221.36992 37.925 221.36992Q37.159374 221.36992 36.659374 220.88554Q36.159374 220.38554 36.159374 219.57304L36.159374 219.1668ZM36.971874 219.61992Q36.971874 220.07304 37.221874 220.36992Q37.4875 220.6668 37.925 220.6668Q38.346874 220.6668 38.596874 220.38554Q38.846874 220.08867 38.846874 219.58867L38.846874 219.1668Q38.846874 218.71367 38.596874 218.4168Q38.346874 218.1043 37.909374 218.1043Q37.471874 218.1043 37.221874 218.4168Q36.971874 218.71367 36.971874 219.18242L36.971874 219.61992ZM40.315624 223.96367Q40.315624 223.19804 40.8 222.71367Q41.3 222.21367 42.065624 222.21367Q42.83125 222.21367 43.315624 222.71367Q43.815624 223.19804 43.815624 224.01054L43.815624 224.4168Q43.815624 225.18242 43.33125 225.68242Q42.846874 226.18242 42.08125 226.18242Q41.315624 226.18242 40.815624 225.69804Q40.315624 225.19804 40.315624 224.38554L40.315624 223.96367ZM41.128124 224.4168Q41.128124 224.88554 41.378124 225.18242Q41.64375 225.4793 42.08125 225.4793Q42.503124 225.4793 42.753124 225.19804Q43.003124 224.90117 43.003124 224.40117L43.003124 223.96367Q43.003124 223.49492 42.7375 223.21367Q42.4875 222.9168 42.065624 222.9168Q41.64375 222.9168 41.378124 223.21367Q41.128124 223.49492 41.128124 223.99492L41.128124 224.4168ZM38.175 225.4168L37.55 225.02617L41.721874 218.3543L42.33125 218.74492L38.175 225.4168Z" fill-rule="nonzero"/><path stroke="#757575" stroke-width="1.0" stroke-linecap="butt" d="M18.55 212.55742L145.23334 212.55742L158.95055 212.55742" fill-rule="nonzero"/><path fill="#9e9e9e" d="M160.95055 212.55742C160.95055 211.45285 160.05511 210.55742 158.95055 210.55742C157.84598 210.55742 156.95055 211.45285 156.95055 212.55742C156.95055 213.66199 157.84598 214.55742 158.95055 214.55742C160.05511 214.55742 160.95055 213.66199 160.95055 212.55742" fill-rule="nonzero"/><path fill="#1a1a1a" d="M21.378124 240.16869L21.55 241.29369L21.784374 240.27806L23.471874 234.32494L24.425 234.32494L26.065624 240.27806L26.3 241.30931L26.4875 240.15306L27.815624 234.32494L28.940624 234.32494L26.878124 242.85619L25.846874 242.85619L24.08125 236.63744L23.95625 235.98119L23.815624 236.63744L22.003124 242.85619L20.971874 242.85619L18.909374 234.32494L20.034374 234.32494L21.378124 240.16869ZM31.45625 237.27806Q32.175 236.40306 33.33125 236.40306Q35.346874 236.40306 35.3625 238.66869L35.3625 242.85619L34.26875 242.85619L34.26875 238.65306Q34.26875 237.98119 33.95625 237.65306Q33.659374 237.32494 33.003124 237.32494Q32.471874 237.32494 32.065624 237.60619Q31.675 237.88744 31.45625 238.34056L31.45625 242.85619L30.378124 242.85619L30.378124 233.85619L31.45625 233.85619L31.45625 237.27806ZM38.55 242.85619L37.471874 242.85619L37.471874 236.51244L38.55 236.51244L38.55 242.85619ZM37.378124 234.84056Q37.378124 234.57494 37.534374 234.38744Q37.70625 234.19994 38.01875 234.19994Q38.33125 234.19994 38.4875 234.38744Q38.659374 234.57494 38.659374 234.84056Q38.659374 235.09056 38.4875 235.27806Q38.33125 235.44994 38.01875 235.44994Q37.70625 235.44994 37.534374 235.27806Q37.378124 235.09056 37.378124 234.84056ZM41.846874 234.98119L41.846874 236.51244L43.01875 236.51244L43.01875 237.35619L41.846874 237.35619L41.846874 241.27806Q41.846874 241.66869 42.003124 241.85619Q42.159374 242.04369 42.534374 242.04369Q42.721874 242.04369 43.05 241.98119L43.05 242.85619Q42.628124 242.98119 42.221874 242.98119Q41.503124 242.98119 41.128124 242.54369Q40.753124 242.09056 40.753124 241.27806L40.753124 237.35619L39.596874 237.35619L39.596874 236.51244L40.753124 236.51244L40.753124 234.98119L41.846874 234.98119ZM47.003124 242.98119Q45.70625 242.98119 44.89375 242.13744Q44.096874 241.27806 44.096874 239.85619L44.096874 239.66869Q44.096874 238.71556 44.45625 237.98119Q44.815624 237.23119 45.45625 236.82494Q46.1125 236.40306 46.8625 236.40306Q48.096874 236.40306 48.784374 237.21556Q49.471874 238.02806 49.471874 239.54369L49.471874 239.99681L45.175 239.99681Q45.20625 240.93431 45.721874 241.51244Q46.253124 242.09056 47.065624 242.09056Q47.628124 242.09056 48.01875 241.85619Q48.425 241.62181 48.7375 241.23119L49.39375 241.74681Q48.596874 242.98119 47.003124 242.98119ZM46.8625 237.29369Q46.20625 237.29369 45.753124 237.77806Q45.315624 238.24681 45.221874 239.10619L48.39375 239.10619L48.39375 239.02806Q48.346874 238.19994 47.940624 237.74681Q47.55 237.29369 46.8625 237.29369Z" fill-rule="nonzero"/><path fill="#9e9e9e" d="M23.83125 257.99683L25.01875 257.99683L25.01875 258.87183L23.83125 258.87183L23.83125 260.8562L22.753124 260.8562L22.753124 258.87183L18.8625 258.87183L18.8625 258.2312L22.675 252.32495L23.83125 252.32495L23.83125 257.99683ZM20.096874 257.99683L22.753124 257.99683L22.753124 253.80933L22.6125 254.0437L20.096874 257.99683ZM26.39375 260.2937Q26.39375 260.01245 26.55 259.82495Q26.721874 259.63745 27.05 259.63745Q27.39375 259.63745 27.565624 259.82495Q27.7375 260.01245 27.7375 260.2937Q27.7375 260.55933 27.565624 260.74683Q27.39375 260.9187 27.05 260.9187Q26.721874 260.9187 26.55 260.74683Q26.39375 260.55933 26.39375 260.2937ZM34.6125 257.21558Q34.6125 259.12183 33.95625 260.05933Q33.315624 260.9812 31.925 260.9812Q30.565624 260.9812 29.909374 260.07495Q29.253124 259.1687 29.221874 257.3562L29.221874 255.9187Q29.221874 254.02808 29.8625 253.12183Q30.51875 252.19995 31.909374 252.19995Q33.284374 252.19995 33.940624 253.09058Q34.596874 253.96558 34.6125 255.80933L34.6125 257.21558ZM33.51875 255.7312Q33.51875 254.3562 33.128124 253.7312Q32.753124 253.09058 31.909374 253.09058Q31.08125 253.09058 30.690624 253.7312Q30.315624 254.3562 30.315624 255.65308L30.315624 257.38745Q30.315624 258.76245 30.70625 259.43433Q31.1125 260.09058 31.925 260.09058Q32.721874 260.09058 33.1125 259.46558Q33.503124 258.84058 33.51875 257.51245L33.51875 255.7312ZM36.159374 253.96558Q36.159374 253.19995 36.64375 252.69995Q37.14375 252.19995 37.909374 252.19995Q38.690624 252.19995 39.175 252.69995Q39.659374 253.19995 39.659374 253.99683L39.659374 254.4187Q39.659374 255.18433 39.159374 255.68433Q38.675 256.1687 37.925 256.1687Q37.159374 256.1687 36.659374 255.68433Q36.159374 255.18433 36.159374 254.37183L36.159374 253.96558ZM36.971874 254.4187Q36.971874 254.87183 37.221874 255.1687Q37.4875 255.46558 37.925 255.46558Q38.346874 255.46558 38.596874 255.18433Q38.846874 254.88745 38.846874 254.38745L38.846874 253.96558Q38.846874 253.51245 38.596874 253.21558Q38.346874 252.90308 37.909374 252.90308Q37.471874 252.90308 37.221874 253.21558Q36.971874 253.51245 36.971874 253.9812L36.971874 254.4187ZM40.315624 258.76245Q40.315624 257.99683 40.8 257.51245Q41.3 257.01245 42.065624 257.01245Q42.83125 257.01245 43.315624 257.51245Q43.815624 257.99683 43.815624 258.80933L43.815624 259.21558Q43.815624 259.9812 43.33125 260.4812Q42.846874 260.9812 42.08125 260.9812Q41.315624 260.9812 40.815624 260.49683Q40.315624 259.99683 40.315624 259.18433L40.315624 258.76245ZM41.128124 259.21558Q41.128124 259.68433 41.378124 259.9812Q41.64375 260.27808 42.08125 260.27808Q42.503124 260.27808 42.753124 259.99683Q43.003124 259.69995 43.003124 259.19995L43.003124 258.76245Q43.003124 258.2937 42.7375 258.01245Q42.4875 257.71558 42.065624 257.71558Q41.64375 257.71558 41.378124 258.01245Q41.128124 258.2937 41.128124 258.7937L41.128124 259.21558ZM38.175 260.21558L37.55 259.82495L41.721874 253.15308L42.33125 253.5437L38.175 260.21558Z" fill-rule="nonzero"/><path stroke="#757575" stroke-width="1.0" stroke-linecap="butt" d="M18.55 247.35619L145.23334 247.35619L165.58876 247.35619" fill-rule="nonzero"/><path fill="#9e9e9e" d="M167.58876 247.35619C167.58876 246.25162 166.69334 245.35619 165.58876 245.35619C164.48419 245.35619 163.58876 246.25162 163.58876 247.35619C163.58876 248.46075 164.48419 249.35619 165.58876 249.35619C166.69334 249.35619 167.58876 248.46075 167.58876 247.35619" fill-rule="nonzero"/><path fill="#1a1a1a" d="M20.659374 328.10626L20.659374 331.45L19.534374 331.45L19.534374 322.91876L22.690624 322.91876Q24.08125 322.91876 24.878124 323.6375Q25.675 324.34064 25.675 325.52814Q25.675 326.7625 24.89375 327.4344Q24.128124 328.10626 22.675 328.10626L20.659374 328.10626ZM20.659374 327.1844L22.690624 327.1844Q23.596874 327.1844 24.065624 326.7625Q24.55 326.34064 24.55 325.54376Q24.55 324.77814 24.065624 324.325Q23.596874 323.85626 22.753124 323.84064L20.659374 323.84064L20.659374 327.1844ZM31.284374 330.825Q30.659374 331.575 29.425 331.575Q28.409374 331.575 27.878124 330.98126Q27.346874 330.3875 27.346874 329.23126L27.346874 325.10626L28.425 325.10626L28.425 329.2Q28.425 330.65314 29.596874 330.65314Q30.846874 330.65314 31.253124 329.71564L31.253124 325.10626L32.346874 325.10626L32.346874 331.45L31.315624 331.45L31.284374 330.825ZM37.440624 326.075Q37.190624 326.04376 36.909374 326.04376Q35.83125 326.04376 35.45625 326.95L35.45625 331.45L34.378124 331.45L34.378124 325.10626L35.425 325.10626L35.440624 325.84064Q35.971874 324.9969 36.95625 324.9969Q37.26875 324.9969 37.440624 325.075L37.440624 326.075ZM43.721874 328.35626Q43.721874 329.79376 43.065624 330.6844Q42.409374 331.575 41.26875 331.575Q40.1125 331.575 39.45625 330.84064L39.45625 333.8875L38.378124 333.8875L38.378124 325.10626L39.3625 325.10626L39.409374 325.8094Q40.08125 324.9969 41.253124 324.9969Q42.39375 324.9969 43.05 325.85626Q43.721874 326.71564 43.721874 328.2469L43.721874 328.35626ZM42.64375 328.23126Q42.64375 327.15314 42.175 326.54376Q41.721874 325.91876 40.925 325.91876Q39.940624 325.91876 39.45625 326.77814L39.45625 329.8094Q39.940624 330.6844 40.940624 330.6844Q41.721874 330.6844 42.175 330.075Q42.64375 329.45 42.64375 328.23126ZM46.55 331.45L45.471874 331.45L45.471874 322.45L46.55 322.45L46.55 331.45ZM51.003124 331.575Q49.70625 331.575 48.89375 330.73126Q48.096874 329.8719 48.096874 328.45L48.096874 328.2625Q48.096874 327.3094 48.45625 326.575Q48.815624 325.825 49.45625 325.41876Q50.1125 324.9969 50.8625 324.9969Q52.096874 324.9969 52.784374 325.8094Q53.471874 326.6219 53.471874 328.1375L53.471874 328.59064L49.175 328.59064Q49.20625 329.52814 49.721874 330.10626Q50.253124 330.6844 51.065624 330.6844Q51.628124 330.6844 52.01875 330.45Q52.425 330.21564 52.7375 329.825L53.39375 330.34064Q52.596874 331.575 51.003124 331.575ZM50.8625 325.8875Q50.20625 325.8875 49.753124 326.3719Q49.315624 326.84064 49.221874 327.7L52.39375 327.7L52.39375 327.6219Q52.346874 326.79376 51.940624 326.34064Q51.55 325.8875 50.8625 325.8875Z" fill-rule="nonzero"/><path fill="#9e9e9e" d="M20.83125 344.65314L21.64375 344.65314Q22.425 344.6375 22.8625 344.2469Q23.3 343.85626 23.3 343.1844Q23.3 341.6844 21.8 341.6844Q21.096874 341.6844 20.675 342.09064Q20.26875 342.4969 20.26875 343.15314L19.175 343.15314Q19.175 342.1375 19.909374 341.46564Q20.659374 340.79376 21.8 340.79376Q23.003124 340.79376 23.690624 341.4344Q24.378124 342.075 24.378124 343.21564Q24.378124 343.77814 24.01875 344.29376Q23.659374 344.8094 23.034374 345.075Q23.7375 345.29376 24.1125 345.8094Q24.503124 346.325 24.503124 347.075Q24.503124 348.21564 23.753124 348.90314Q23.003124 349.575 21.8 349.575Q20.6125 349.575 19.846874 348.91876Q19.096874 348.2625 19.096874 347.2L20.190624 347.2Q20.190624 347.8719 20.628124 348.27814Q21.065624 348.6844 21.815624 348.6844Q22.596874 348.6844 23.003124 348.27814Q23.425 347.85626 23.425 347.09064Q23.425 346.35626 22.971874 345.96564Q22.51875 345.5594 21.64375 345.54376L20.83125 345.54376L20.83125 344.65314ZM31.846874 349.45L26.253124 349.45L26.253124 348.66876L29.20625 345.3875Q29.8625 344.6375 30.1125 344.1844Q30.3625 343.71564 30.3625 343.21564Q30.3625 342.54376 29.95625 342.1219Q29.565624 341.6844 28.878124 341.6844Q28.08125 341.6844 27.628124 342.15314Q27.175 342.60626 27.175 343.4344L26.096874 343.4344Q26.096874 342.2469 26.846874 341.52814Q27.6125 340.79376 28.878124 340.79376Q30.08125 340.79376 30.76875 341.41876Q31.45625 342.04376 31.45625 343.09064Q31.45625 344.34064 29.846874 346.09064L27.565624 348.5594L31.846874 348.5594L31.846874 349.45ZM33.39375 348.8875Q33.39375 348.60626 33.55 348.41876Q33.721874 348.23126 34.05 348.23126Q34.39375 348.23126 34.565624 348.41876Q34.7375 348.60626 34.7375 348.8875Q34.7375 349.15314 34.565624 349.34064Q34.39375 349.5125 34.05 349.5125Q33.721874 349.5125 33.55 349.34064Q33.39375 349.15314 33.39375 348.8875ZM41.6125 345.8094Q41.6125 347.71564 40.95625 348.65314Q40.315624 349.575 38.925 349.575Q37.565624 349.575 36.909374 348.66876Q36.253124 347.7625 36.221874 345.95L36.221874 344.5125Q36.221874 342.6219 36.8625 341.71564Q37.51875 340.79376 38.909374 340.79376Q40.284374 340.79376 40.940624 341.6844Q41.596874 342.5594 41.6125 344.40314L41.6125 345.8094ZM40.51875 344.325Q40.51875 342.95 40.128124 342.325Q39.753124 341.6844 38.909374 341.6844Q38.08125 341.6844 37.690624 342.325Q37.315624 342.95 37.315624 344.2469L37.315624 345.98126Q37.315624 347.35626 37.70625 348.02814Q38.1125 348.6844 38.925 348.6844Q39.721874 348.6844 40.1125 348.0594Q40.503124 347.4344 40.51875 346.10626L40.51875 344.325ZM43.159374 342.5594Q43.159374 341.79376 43.64375 341.29376Q44.14375 340.79376 44.909374 340.79376Q45.690624 340.79376 46.175 341.29376Q46.659374 341.79376 46.659374 342.59064L46.659374 343.0125Q46.659374 343.77814 46.159374 344.27814Q45.675 344.7625 44.925 344.7625Q44.159374 344.7625 43.659374 344.27814Q43.159374 343.77814 43.159374 342.96564L43.159374 342.5594ZM43.971874 343.0125Q43.971874 343.46564 44.221874 343.7625Q44.4875 344.0594 44.925 344.0594Q45.346874 344.0594 45.596874 343.77814Q45.846874 343.48126 45.846874 342.98126L45.846874 342.5594Q45.846874 342.10626 45.596874 341.8094Q45.346874 341.4969 44.909374 341.4969Q44.471874 341.4969 44.221874 341.8094Q43.971874 342.10626 43.971874 342.575L43.971874 343.0125ZM47.315624 347.35626Q47.315624 346.59064 47.8 346.10626Q48.3 345.60626 49.065624 345.60626Q49.83125 345.60626 50.315624 346.10626Q50.815624 346.59064 50.815624 347.40314L50.815624 347.8094Q50.815624 348.575 50.33125 349.075Q49.846874 349.575 49.08125 349.575Q48.315624 349.575 47.815624 349.09064Q47.315624 348.59064 47.315624 347.77814L47.315624 347.35626ZM48.128124 347.8094Q48.128124 348.27814 48.378124 348.575Q48.64375 348.8719 49.08125 348.8719Q49.503124 348.8719 49.753124 348.59064Q50.003124 348.29376 50.003124 347.79376L50.003124 347.35626Q50.003124 346.8875 49.7375 346.60626Q49.4875 346.3094 49.065624 346.3094Q48.64375 346.3094 48.378124 346.60626Q48.128124 346.8875 48.128124 347.3875L48.128124 347.8094ZM45.175 348.8094L44.55 348.41876L48.721874 341.7469L49.33125 342.1375L45.175 348.8094Z" fill-rule="nonzero"/><path stroke="#757575" stroke-width="1.0" stroke-linecap="butt" d="M18.55 335.95L145.23334 335.95L282.28687 343.89725" fill-rule="nonzero"/><path fill="#9e9e9e" d="M284.28687 343.89725C284.28687 342.7927 283.39142 341.89725 282.28687 341.89725C281.18228 341.89725 280.28687 342.7927 280.28687 343.89725C280.28687 345.00183 281.18228 345.89725 282.28687 345.89725C283.39142 345.89725 284.28687 345.00183 284.28687 343.89725" fill-rule="nonzero"/><path fill="#1a1a1a" d="M565.575 63.46354L563.5594 63.46354L563.5594 66.916664L562.4344 66.916664L562.4344 58.385414L565.2625 58.385414Q566.7 58.385414 567.46564 59.041664Q568.2469 59.697914 568.2469 60.947914Q568.2469 61.74479 567.8094 62.33854Q567.3875 62.93229 566.6219 63.229164L568.6219 66.83854L568.6219 66.916664L567.41876 66.916664L565.575 63.46354ZM563.5594 62.541664L565.29376 62.541664Q566.1375 62.541664 566.6219 62.11979Q567.1219 61.68229 567.1219 60.947914Q567.1219 60.166664 566.65314 59.74479Q566.1844 59.322914 565.29376 59.30729L563.5594 59.30729L563.5594 62.541664ZM571.90314 67.041664Q570.60626 67.041664 569.79376 66.197914Q568.9969 65.33854 568.9969 63.916664L568.9969 63.729164Q568.9969 62.77604 569.35626 62.041664Q569.71564 61.291664 570.35626 60.885414Q571.0125 60.46354 571.7625 60.46354Q572.9969 60.46354 573.6844 61.27604Q574.3719 62.08854 574.3719 63.604164L574.3719 64.05729L570.075 64.05729Q570.10626 64.99479 570.6219 65.572914Q571.15314 66.15104 571.96564 66.15104Q572.52814 66.15104 572.91876 65.916664Q573.325 65.68229 573.6375 65.291664L574.29376 65.80729Q573.4969 67.041664 571.90314 67.041664ZM571.7625 61.354164Q571.10626 61.354164 570.65314 61.83854Q570.21564 62.30729 570.1219 63.166664L573.29376 63.166664L573.29376 63.08854Q573.2469 62.260414 572.84064 61.80729Q572.45 61.354164 571.7625 61.354164ZM575.0125 63.697914Q575.0125 62.229164 575.7 61.354164Q576.3875 60.46354 577.5125 60.46354Q578.6219 60.46354 579.27814 61.21354L579.27814 57.916664L580.35626 57.916664L580.35626 66.916664L579.35626 66.916664L579.3094 66.229164Q578.65314 67.041664 577.4969 67.041664Q576.40314 67.041664 575.7 66.135414Q575.0125 65.229164 575.0125 63.77604L575.0125 63.697914ZM576.09064 63.822914Q576.09064 64.90104 576.52814 65.510414Q576.98126 66.11979 577.7625 66.11979Q578.79376 66.11979 579.27814 65.18229L579.27814 62.27604Q578.79376 61.385414 577.77814 61.385414Q576.98126 61.385414 576.52814 61.99479Q576.09064 62.604164 576.09064 63.822914Z" fill-rule="nonzero"/><path fill="#9e9e9e" d="M560.73126 82.05729L561.91876 82.05729L561.91876 82.93229L560.73126 82.93229L560.73126 84.916664L559.65314 84.916664L559.65314 82.93229L555.7625 82.93229L555.7625 82.291664L559.575 76.385414L560.73126 76.385414L560.73126 82.05729ZM556.9969 82.05729L559.65314 82.05729L559.65314 77.86979L559.5125 78.104164L556.9969 82.05729ZM563.29376 84.354164Q563.29376 84.072914 563.45 83.885414Q563.6219 83.697914 563.95 83.697914Q564.29376 83.697914 564.46564 83.885414Q564.6375 84.072914 564.6375 84.354164Q564.6375 84.61979 564.46564 84.80729Q564.29376 84.979164 563.95 84.979164Q563.6219 84.979164 563.45 84.80729Q563.29376 84.61979 563.29376 84.354164ZM571.5125 81.27604Q571.5125 83.18229 570.85626 84.11979Q570.21564 85.041664 568.825 85.041664Q567.46564 85.041664 566.8094 84.135414Q566.15314 83.229164 566.1219 81.416664L566.1219 79.979164Q566.1219 78.08854 566.7625 77.18229Q567.41876 76.260414 568.8094 76.260414Q570.1844 76.260414 570.84064 77.15104Q571.4969 78.02604 571.5125 79.86979L571.5125 81.27604ZM570.41876 79.791664Q570.41876 78.416664 570.02814 77.791664Q569.65314 77.15104 568.8094 77.15104Q567.98126 77.15104 567.59064 77.791664Q567.21564 78.416664 567.21564 79.71354L567.21564 81.447914Q567.21564 82.822914 567.60626 83.49479Q568.0125 84.15104 568.825 84.15104Q569.6219 84.15104 570.0125 83.52604Q570.40314 82.90104 570.41876 81.572914L570.41876 79.791664ZM573.0594 78.02604Q573.0594 77.260414 573.54376 76.760414Q574.04376 76.260414 574.8094 76.260414Q575.59064 76.260414 576.075 76.760414Q576.5594 77.260414 576.5594 78.05729L576.5594 78.479164Q576.5594 79.24479 576.0594 79.74479Q575.575 80.229164 574.825 80.229164Q574.0594 80.229164 573.5594 79.74479Q573.0594 79.24479 573.0594 78.43229L573.0594 78.02604ZM573.8719 78.479164Q573.8719 78.93229 574.1219 79.229164Q574.3875 79.52604 574.825 79.52604Q575.2469 79.52604 575.4969 79.24479Q575.7469 78.947914 575.7469 78.447914L575.7469 78.02604Q575.7469 77.572914 575.4969 77.27604Q575.2469 76.96354 574.8094 76.96354Q574.3719 76.96354 574.1219 77.27604Q573.8719 77.572914 573.8719 78.041664L573.8719 78.479164ZM577.21564 82.822914Q577.21564 82.05729 577.7 81.572914Q578.2 81.072914 578.96564 81.072914Q579.73126 81.072914 580.21564 81.572914Q580.71564 82.05729 580.71564 82.86979L580.71564 83.27604Q580.71564 84.041664 580.23126 84.541664Q579.7469 85.041664 578.98126 85.041664Q578.21564 85.041664 577.71564 84.55729Q577.21564 84.05729 577.21564 83.24479L577.21564 82.822914ZM578.02814 83.27604Q578.02814 83.74479 578.27814 84.041664Q578.54376 84.33854 578.98126 84.33854Q579.40314 84.33854 579.65314 84.05729Q579.90314 83.760414 579.90314 83.260414L579.90314 82.822914Q579.90314 82.354164 579.6375 82.072914Q579.3875 81.77604 578.96564 81.77604Q578.54376 81.77604 578.27814 82.072914Q578.02814 82.354164 578.02814 82.854164L578.02814 83.27604ZM575.075 84.27604L574.45 83.885414L578.6219 77.21354L579.23126 77.604164L575.075 84.27604Z" fill-rule="nonzero"/><path stroke="#757575" stroke-width="1.0" stroke-linecap="butt" d="M581.45 71.416664L454.76666 71.416664L317.71313 63.469418" fill-rule="nonzero"/><path fill="#9e9e9e" d="M319.71313 63.469418C319.71313 62.364845 318.81772 61.469418 317.71313 61.469418C316.60858 61.469418 315.71313 62.364845 315.71313 63.469418C315.71313 64.57398 316.60858 65.46941 317.71313 65.46941C318.81772 65.46941 319.71313 64.57398 319.71313 63.469418" fill-rule="nonzero"/><path fill="#1a1a1a" d="M549.9969 95.93229Q549.9969 97.18229 549.575 98.11979Q549.15314 99.041664 548.3719 99.541664Q547.60626 100.041664 546.575 100.041664Q545.575 100.041664 544.79376 99.541664Q544.0125 99.041664 543.575 98.135414Q543.15314 97.21354 543.1375 95.99479L543.1375 95.385414Q543.1375 94.15104 543.5594 93.21354Q543.9969 92.27604 544.77814 91.77604Q545.5594 91.260414 546.575 91.260414Q547.59064 91.260414 548.3719 91.760414Q549.15314 92.260414 549.575 93.197914Q549.9969 94.135414 549.9969 95.385414L549.9969 95.93229ZM548.8875 95.36979Q548.8875 93.854164 548.27814 93.041664Q547.66876 92.229164 546.575 92.229164Q545.4969 92.229164 544.8875 93.041664Q544.27814 93.854164 544.2625 95.291664L544.2625 95.93229Q544.2625 97.40104 544.8719 98.24479Q545.4969 99.072914 546.575 99.072914Q547.66876 99.072914 548.2625 98.291664Q548.8719 97.49479 548.8875 96.010414L548.8875 95.36979ZM554.34064 94.541664Q554.09064 94.510414 553.8094 94.510414Q552.73126 94.510414 552.35626 95.416664L552.35626 99.916664L551.27814 99.916664L551.27814 93.572914L552.325 93.572914L552.34064 94.30729Q552.8719 93.46354 553.85626 93.46354Q554.16876 93.46354 554.34064 93.541664L554.34064 94.541664ZM559.1844 99.916664Q559.09064 99.729164 559.02814 99.24479Q558.27814 100.041664 557.23126 100.041664Q556.29376 100.041664 555.6844 99.510414Q555.09064 98.979164 555.09064 98.15104Q555.09064 97.166664 555.84064 96.61979Q556.59064 96.072914 557.96564 96.072914L559.0125 96.072914L559.0125 95.572914Q559.0125 95.010414 558.66876 94.68229Q558.34064 94.33854 557.66876 94.33854Q557.09064 94.33854 556.7 94.635414Q556.3094 94.916664 556.3094 95.33854L555.21564 95.33854Q555.21564 94.854164 555.54376 94.416664Q555.8875 93.979164 556.46564 93.729164Q557.04376 93.46354 557.73126 93.46354Q558.84064 93.46354 559.45 94.010414Q560.075 94.55729 560.10626 95.510414L560.10626 98.43229Q560.10626 99.30729 560.325 99.822914L560.325 99.916664L559.1844 99.916664ZM557.3875 99.08854Q557.90314 99.08854 558.35626 98.822914Q558.8094 98.55729 559.0125 98.135414L559.0125 96.83854L558.16876 96.83854Q556.16876 96.83854 556.16876 98.010414Q556.16876 98.510414 556.5125 98.80729Q556.85626 99.08854 557.3875 99.08854ZM563.29376 93.572914L563.325 94.36979Q564.0594 93.46354 565.23126 93.46354Q567.2469 93.46354 567.2625 95.729164L567.2625 99.916664L566.16876 99.916664L566.16876 95.71354Q566.16876 95.041664 565.85626 94.71354Q565.5594 94.385414 564.90314 94.385414Q564.3719 94.385414 563.96564 94.666664Q563.575 94.947914 563.35626 95.40104L563.35626 99.916664L562.27814 99.916664L562.27814 93.572914L563.29376 93.572914ZM569.0125 96.697914Q569.0125 95.21354 569.7 94.33854Q570.3875 93.46354 571.5125 93.46354Q572.66876 93.46354 573.325 94.27604L573.3719 93.572914L574.3719 93.572914L574.3719 99.760414Q574.3719 100.99479 573.6375 101.697914Q572.90314 102.416664 571.6844 102.416664Q570.9969 102.416664 570.34064 102.11979Q569.6844 101.822914 569.34064 101.322914L569.90314 100.666664Q570.59064 101.52604 571.60626 101.52604Q572.3875 101.52604 572.825 101.072914Q573.27814 100.635414 573.27814 99.822914L573.27814 99.27604Q572.6219 100.041664 571.4969 100.041664Q570.3875 100.041664 569.7 99.15104Q569.0125 98.24479 569.0125 96.697914ZM570.10626 96.822914Q570.10626 97.885414 570.54376 98.510414Q570.98126 99.11979 571.77814 99.11979Q572.79376 99.11979 573.27814 98.18229L573.27814 95.291664Q572.77814 94.385414 571.77814 94.385414Q570.9969 94.385414 570.54376 94.99479Q570.10626 95.604164 570.10626 96.822914ZM578.90314 100.041664Q577.60626 100.041664 576.79376 99.197914Q575.9969 98.33854 575.9969 96.916664L575.9969 96.729164Q575.9969 95.77604 576.35626 95.041664Q576.71564 94.291664 577.35626 93.885414Q578.0125 93.46354 578.7625 93.46354Q579.9969 93.46354 580.6844 94.27604Q581.3719 95.08854 581.3719 96.604164L581.3719 97.05729L577.075 97.05729Q577.10626 97.99479 577.6219 98.572914Q578.15314 99.15104 578.96564 99.15104Q579.52814 99.15104 579.91876 98.916664Q580.325 98.68229 580.6375 98.291664L581.29376 98.80729Q580.4969 100.041664 578.90314 100.041664ZM578.7625 94.354164Q578.10626 94.354164 577.65314 94.83854Q577.21564 95.30729 577.1219 96.166664L580.29376 96.166664L580.29376 96.08854Q580.2469 95.260414 579.84064 94.80729Q579.45 94.354164 578.7625 94.354164Z" fill-rule="nonzero"/><path fill="#9e9e9e" d="M560.73126 115.05729L561.91876 115.05729L561.91876 115.93229L560.73126 115.93229L560.73126 117.916664L559.65314 117.916664L559.65314 115.93229L555.7625 115.93229L555.7625 115.291664L559.575 109.385414L560.73126 109.385414L560.73126 115.05729ZM556.9969 115.05729L559.65314 115.05729L559.65314 110.86979L559.5125 111.104164L556.9969 115.05729ZM563.29376 117.354164Q563.29376 117.072914 563.45 116.885414Q563.6219 116.697914 563.95 116.697914Q564.29376 116.697914 564.46564 116.885414Q564.6375 117.072914 564.6375 117.354164Q564.6375 117.61979 564.46564 117.80729Q564.29376 117.979164 563.95 117.979164Q563.6219 117.979164 563.45 117.80729Q563.29376 117.61979 563.29376 117.354164ZM571.5125 114.27604Q571.5125 116.18229 570.85626 117.11979Q570.21564 118.041664 568.825 118.041664Q567.46564 118.041664 566.8094 117.135414Q566.15314 116.229164 566.1219 114.416664L566.1219 112.979164Q566.1219 111.08854 566.7625 110.18229Q567.41876 109.260414 568.8094 109.260414Q570.1844 109.260414 570.84064 110.15104Q571.4969 111.02604 571.5125 112.86979L571.5125 114.27604ZM570.41876 112.791664Q570.41876 111.416664 570.02814 110.791664Q569.65314 110.15104 568.8094 110.15104Q567.98126 110.15104 567.59064 110.791664Q567.21564 111.416664 567.21564 112.71354L567.21564 114.447914Q567.21564 115.822914 567.60626 116.49479Q568.0125 117.15104 568.825 117.15104Q569.6219 117.15104 570.0125 116.52604Q570.40314 115.90104 570.41876 114.572914L570.41876 112.791664ZM573.0594 111.02604Q573.0594 110.260414 573.54376 109.760414Q574.04376 109.260414 574.8094 109.260414Q575.59064 109.260414 576.075 109.760414Q576.5594 110.260414 576.5594 111.05729L576.5594 111.479164Q576.5594 112.24479 576.0594 112.74479Q575.575 113.229164 574.825 113.229164Q574.0594 113.229164 573.5594 112.74479Q573.0594 112.24479 573.0594 111.43229L573.0594 111.02604ZM573.8719 111.479164Q573.8719 111.93229 574.1219 112.229164Q574.3875 112.52604 574.825 112.52604Q575.2469 112.52604 575.4969 112.24479Q575.7469 111.947914 575.7469 111.447914L575.7469 111.02604Q575.7469 110.572914 575.4969 110.27604Q575.2469 109.96354 574.8094 109.96354Q574.3719 109.96354 574.1219 110.27604Q573.8719 110.572914 573.8719 111.041664L573.8719 111.479164ZM577.21564 115.822914Q577.21564 115.05729 577.7 114.572914Q578.2 114.072914 578.96564 114.072914Q579.73126 114.072914 580.21564 114.572914Q580.71564 115.05729 580.71564 115.86979L580.71564 116.27604Q580.71564 117.041664 580.23126 117.541664Q579.7469 118.041664 578.98126 118.041664Q578.21564 118.041664 577.71564 117.55729Q577.21564 117.05729 577.21564 116.24479L577.21564 115.822914ZM578.02814 116.27604Q578.02814 116.74479 578.27814 117.041664Q578.54376 117.33854 578.98126 117.33854Q579.40314 117.33854 579.65314 117.05729Q579.90314 116.760414 579.90314 116.260414L579.90314 115.822914Q579.90314 115.354164 579.6375 115.072914Q579.3875 114.77604 578.96564 114.77604Q578.54376 114.77604 578.27814 115.072914Q578.02814 115.354164 578.02814 115.854164L578.02814 116.27604ZM575.075 117.27604L574.45 116.885414L578.6219 110.21354L579.23126 110.604164L575.075 117.27604Z" fill-rule="nonzero"/><path stroke="#757575" stroke-width="1.0" stroke-linecap="butt" d="M581.45 104.416664L454.76666 104.416664L352.02643 72.27957" fill-rule="nonzero"/><path fill="#9e9e9e" d="M354.02643 72.27957C354.02643 71.175 353.131 70.27957 352.02643 70.27957C350.92188 70.27957 350.02643 71.175 350.02643 72.27957C350.02643 73.38414 350.92188 74.27957 352.02643 74.27957C353.131 74.27957 354.02643 73.38414 354.02643 72.27957" fill-rule="nonzero"/><path fill="#1a1a1a" d="M550.04376 128.66667L552.2625 124.38542L553.54376 124.38542L550.60626 129.72917L550.60626 132.91667L549.48126 132.91667L549.48126 129.72917L546.54376 124.38542L547.825 124.38542L550.04376 128.66667ZM556.90314 133.04167Q555.60626 133.04167 554.79376 132.19792Q553.9969 131.33855 553.9969 129.91667L553.9969 129.72917Q553.9969 128.77605 554.35626 128.04167Q554.71564 127.29167 555.35626 126.88542Q556.0125 126.46355 556.7625 126.46355Q557.9969 126.46355 558.6844 127.27605Q559.3719 128.08855 559.3719 129.60417L559.3719 130.0573L555.075 130.0573Q555.10626 130.9948 555.6219 131.57292Q556.15314 132.15105 556.96564 132.15105Q557.52814 132.15105 557.91876 131.91667Q558.325 131.6823 558.6375 131.29167L559.29376 131.8073Q558.4969 133.04167 556.90314 133.04167ZM556.7625 127.35417Q556.10626 127.35417 555.65314 127.83855Q555.21564 128.3073 555.1219 129.16667L558.29376 129.16667L558.29376 129.08855Q558.2469 128.26042 557.84064 127.8073Q557.45 127.35417 556.7625 127.35417ZM561.45 132.91667L560.3719 132.91667L560.3719 123.91667L561.45 123.91667L561.45 132.91667ZM564.45 132.91667L563.3719 132.91667L563.3719 123.91667L564.45 123.91667L564.45 132.91667ZM565.98126 129.6823Q565.98126 128.76042 566.34064 128.01042Q566.71564 127.26042 567.3719 126.8698Q568.02814 126.46355 568.85626 126.46355Q570.15314 126.46355 570.95 127.35417Q571.7625 128.2448 571.7625 129.7448L571.7625 129.82292Q571.7625 130.7448 571.40314 131.47917Q571.04376 132.21355 570.3875 132.63542Q569.73126 133.04167 568.8719 133.04167Q567.59064 133.04167 566.77814 132.15105Q565.98126 131.2448 565.98126 129.76042L565.98126 129.6823ZM567.075 129.82292Q567.075 130.8698 567.5594 131.51042Q568.0594 132.15105 568.8719 132.15105Q569.7 132.15105 570.1844 131.51042Q570.66876 130.85417 570.66876 129.6823Q570.66876 128.65105 570.16876 128.01042Q569.6844 127.35417 568.85626 127.35417Q568.0594 127.35417 567.5594 127.9948Q567.075 128.6198 567.075 129.82292ZM578.8875 131.41667L580.10626 126.57292L581.1844 126.57292L579.34064 132.91667L578.46564 132.91667L576.91876 128.10417L575.41876 132.91667L574.54376 132.91667L572.7 126.57292L573.77814 126.57292L575.02814 131.32292L576.5125 126.57292L577.3719 126.57292L578.8875 131.41667Z" fill-rule="nonzero"/><path fill="#9e9e9e" d="M552.71564 150.91667L551.6375 150.91667L551.6375 143.69792L549.45 144.4948L549.45 143.51042L552.5594 142.33855L552.71564 142.33855L552.71564 150.91667ZM561.7469 150.91667L556.15314 150.91667L556.15314 150.13542L559.10626 146.85417Q559.7625 146.10417 560.0125 145.65105Q560.2625 145.1823 560.2625 144.6823Q560.2625 144.01042 559.85626 143.58855Q559.46564 143.15105 558.77814 143.15105Q557.98126 143.15105 557.52814 143.6198Q557.075 144.07292 557.075 144.90105L555.9969 144.90105Q555.9969 143.71355 556.7469 142.9948Q557.5125 142.26042 558.77814 142.26042Q559.98126 142.26042 560.66876 142.88542Q561.35626 143.51042 561.35626 144.5573Q561.35626 145.8073 559.7469 147.5573L557.46564 150.02605L561.7469 150.02605L561.7469 150.91667ZM563.29376 150.35417Q563.29376 150.07292 563.45 149.88542Q563.6219 149.69792 563.95 149.69792Q564.29376 149.69792 564.46564 149.88542Q564.6375 150.07292 564.6375 150.35417Q564.6375 150.6198 564.46564 150.8073Q564.29376 150.97917 563.95 150.97917Q563.6219 150.97917 563.45 150.8073Q563.29376 150.6198 563.29376 150.35417ZM571.5125 147.27605Q571.5125 149.1823 570.85626 150.1198Q570.21564 151.04167 568.825 151.04167Q567.46564 151.04167 566.8094 150.13542Q566.15314 149.22917 566.1219 147.41667L566.1219 145.97917Q566.1219 144.08855 566.7625 143.1823Q567.41876 142.26042 568.8094 142.26042Q570.1844 142.26042 570.84064 143.15105Q571.4969 144.02605 571.5125 145.8698L571.5125 147.27605ZM570.41876 145.79167Q570.41876 144.41667 570.02814 143.79167Q569.65314 143.15105 568.8094 143.15105Q567.98126 143.15105 567.59064 143.79167Q567.21564 144.41667 567.21564 145.71355L567.21564 147.44792Q567.21564 148.82292 567.60626 149.4948Q568.0125 150.15105 568.825 150.15105Q569.6219 150.15105 570.0125 149.52605Q570.40314 148.90105 570.41876 147.57292L570.41876 145.79167ZM573.0594 144.02605Q573.0594 143.26042 573.54376 142.76042Q574.04376 142.26042 574.8094 142.26042Q575.59064 142.26042 576.075 142.76042Q576.5594 143.26042 576.5594 144.0573L576.5594 144.47917Q576.5594 145.2448 576.0594 145.7448Q575.575 146.22917 574.825 146.22917Q574.0594 146.22917 573.5594 145.7448Q573.0594 145.2448 573.0594 144.4323L573.0594 144.02605ZM573.8719 144.47917Q573.8719 144.9323 574.1219 145.22917Q574.3875 145.52605 574.825 145.52605Q575.2469 145.52605 575.4969 145.2448Q575.7469 144.94792 575.7469 144.44792L575.7469 144.02605Q575.7469 143.57292 575.4969 143.27605Q575.2469 142.96355 574.8094 142.96355Q574.3719 142.96355 574.1219 143.27605Q573.8719 143.57292 573.8719 144.04167L573.8719 144.47917ZM577.21564 148.82292Q577.21564 148.0573 577.7 147.57292Q578.2 147.07292 578.96564 147.07292Q579.73126 147.07292 580.21564 147.57292Q580.71564 148.0573 580.71564 148.8698L580.71564 149.27605Q580.71564 150.04167 580.23126 150.54167Q579.7469 151.04167 578.98126 151.04167Q578.21564 151.04167 577.71564 150.5573Q577.21564 150.0573 577.21564 149.2448L577.21564 148.82292ZM578.02814 149.27605Q578.02814 149.7448 578.27814 150.04167Q578.54376 150.33855 578.98126 150.33855Q579.40314 150.33855 579.65314 150.0573Q579.90314 149.76042 579.90314 149.26042L579.90314 148.82292Q579.90314 148.35417 579.6375 148.07292Q579.3875 147.77605 578.96564 147.77605Q578.54376 147.77605 578.27814 148.07292Q578.02814 148.35417 578.02814 148.85417L578.02814 149.27605ZM575.075 150.27605L574.45 149.88542L578.6219 143.21355L579.23126 143.60417L575.075 150.27605Z" fill-rule="nonzero"/><path stroke="#757575" stroke-width="1.0" stroke-linecap="butt" d="M581.45 137.41667L454.76666 137.41667L408.89536 113.59726" fill-rule="nonzero"/><path fill="#9e9e9e" d="M410.89536 113.59726C410.89536 112.49269 409.9999 111.59726 408.89536 111.59726C407.79077 111.59726 406.89536 112.49269 406.89536 113.59726C406.89536 114.701836 407.79077 115.59726 408.89536 115.59726C409.9999 115.59726 410.89536 114.701836 410.89536 113.59726" fill-rule="nonzero"/><path fill="#1a1a1a" d="M557.7469 171.57605Q557.3094 172.20105 556.52814 172.51355Q555.7469 172.82605 554.71564 172.82605Q553.6844 172.82605 552.8719 172.34167Q552.0594 171.84167 551.6219 170.93542Q551.1844 170.02917 551.16876 168.84167L551.16876 168.1073Q551.16876 166.1698 552.0594 165.1073Q552.96564 164.0448 554.59064 164.0448Q555.9344 164.0448 556.7469 164.7323Q557.5594 165.4198 557.7469 166.6698L556.6219 166.6698Q556.29376 164.9823 554.60626 164.9823Q553.46564 164.9823 552.8875 165.77917Q552.3094 166.56042 552.29376 168.07605L552.29376 168.76355Q552.29376 170.20105 552.95 171.06042Q553.60626 171.90417 554.73126 171.90417Q555.35626 171.90417 555.825 171.76355Q556.3094 171.62292 556.6219 171.27917L556.6219 169.37292L554.65314 169.37292L554.65314 168.45105L557.7469 168.45105L557.7469 171.57605ZM562.34064 167.32605Q562.09064 167.2948 561.8094 167.2948Q560.73126 167.2948 560.35626 168.20105L560.35626 172.70105L559.27814 172.70105L559.27814 166.3573L560.325 166.3573L560.34064 167.09167Q560.8719 166.24792 561.85626 166.24792Q562.16876 166.24792 562.34064 166.32605L562.34064 167.32605ZM565.90314 172.82605Q564.60626 172.82605 563.79376 171.9823Q562.9969 171.12292 562.9969 169.70105L562.9969 169.51355Q562.9969 168.56042 563.35626 167.82605Q563.71564 167.07605 564.35626 166.6698Q565.0125 166.24792 565.7625 166.24792Q566.9969 166.24792 567.6844 167.06042Q568.3719 167.87292 568.3719 169.38855L568.3719 169.84167L564.075 169.84167Q564.10626 170.77917 564.6219 171.3573Q565.15314 171.93542 565.96564 171.93542Q566.52814 171.93542 566.91876 171.70105Q567.325 171.46667 567.6375 171.07605L568.29376 171.59167Q567.4969 172.82605 565.90314 172.82605ZM565.7625 167.13855Q565.10626 167.13855 564.65314 167.62292Q564.21564 168.09167 564.1219 168.95105L567.29376 168.95105L567.29376 168.87292Q567.2469 168.0448 566.84064 167.59167Q566.45 167.13855 565.7625 167.13855ZM571.90314 172.82605Q570.60626 172.82605 569.79376 171.9823Q568.9969 171.12292 568.9969 169.70105L568.9969 169.51355Q568.9969 168.56042 569.35626 167.82605Q569.71564 167.07605 570.35626 166.6698Q571.0125 166.24792 571.7625 166.24792Q572.9969 166.24792 573.6844 167.06042Q574.3719 167.87292 574.3719 169.38855L574.3719 169.84167L570.075 169.84167Q570.10626 170.77917 570.6219 171.3573Q571.15314 171.93542 571.96564 171.93542Q572.52814 171.93542 572.91876 171.70105Q573.325 171.46667 573.6375 171.07605L574.29376 171.59167Q573.4969 172.82605 571.90314 172.82605ZM571.7625 167.13855Q571.10626 167.13855 570.65314 167.62292Q570.21564 168.09167 570.1219 168.95105L573.29376 168.95105L573.29376 168.87292Q573.2469 168.0448 572.84064 167.59167Q572.45 167.13855 571.7625 167.13855ZM576.29376 166.3573L576.325 167.15417Q577.0594 166.24792 578.23126 166.24792Q580.2469 166.24792 580.2625 168.51355L580.2625 172.70105L579.16876 172.70105L579.16876 168.49792Q579.16876 167.82605 578.85626 167.49792Q578.5594 167.1698 577.90314 167.1698Q577.3719 167.1698 576.96564 167.45105Q576.575 167.7323 576.35626 168.18542L576.35626 172.70105L575.27814 172.70105L575.27814 166.3573L576.29376 166.3573Z" fill-rule="nonzero"/><path fill="#9e9e9e" d="M560.73126 187.84167L561.91876 187.84167L561.91876 188.71667L560.73126 188.71667L560.73126 190.70105L559.65314 190.70105L559.65314 188.71667L555.7625 188.71667L555.7625 188.07605L559.575 182.1698L560.73126 182.1698L560.73126 187.84167ZM556.9969 187.84167L559.65314 187.84167L559.65314 183.65417L559.5125 183.88855L556.9969 187.84167ZM563.29376 190.13855Q563.29376 189.8573 563.45 189.6698Q563.6219 189.4823 563.95 189.4823Q564.29376 189.4823 564.46564 189.6698Q564.6375 189.8573 564.6375 190.13855Q564.6375 190.40417 564.46564 190.59167Q564.29376 190.76355 563.95 190.76355Q563.6219 190.76355 563.45 190.59167Q563.29376 190.40417 563.29376 190.13855ZM571.5125 187.06042Q571.5125 188.96667 570.85626 189.90417Q570.21564 190.82605 568.825 190.82605Q567.46564 190.82605 566.8094 189.9198Q566.15314 189.01355 566.1219 187.20105L566.1219 185.76355Q566.1219 183.87292 566.7625 182.96667Q567.41876 182.0448 568.8094 182.0448Q570.1844 182.0448 570.84064 182.93542Q571.4969 183.81042 571.5125 185.65417L571.5125 187.06042ZM570.41876 185.57605Q570.41876 184.20105 570.02814 183.57605Q569.65314 182.93542 568.8094 182.93542Q567.98126 182.93542 567.59064 183.57605Q567.21564 184.20105 567.21564 185.49792L567.21564 187.2323Q567.21564 188.6073 567.60626 189.27917Q568.0125 189.93542 568.825 189.93542Q569.6219 189.93542 570.0125 189.31042Q570.40314 188.68542 570.41876 187.3573L570.41876 185.57605ZM573.0594 183.81042Q573.0594 183.0448 573.54376 182.5448Q574.04376 182.0448 574.8094 182.0448Q575.59064 182.0448 576.075 182.5448Q576.5594 183.0448 576.5594 183.84167L576.5594 184.26355Q576.5594 185.02917 576.0594 185.52917Q575.575 186.01355 574.825 186.01355Q574.0594 186.01355 573.5594 185.52917Q573.0594 185.02917 573.0594 184.21667L573.0594 183.81042ZM573.8719 184.26355Q573.8719 184.71667 574.1219 185.01355Q574.3875 185.31042 574.825 185.31042Q575.2469 185.31042 575.4969 185.02917Q575.7469 184.7323 575.7469 184.2323L575.7469 183.81042Q575.7469 183.3573 575.4969 183.06042Q575.2469 182.74792 574.8094 182.74792Q574.3719 182.74792 574.1219 183.06042Q573.8719 183.3573 573.8719 183.82605L573.8719 184.26355ZM577.21564 188.6073Q577.21564 187.84167 577.7 187.3573Q578.2 186.8573 578.96564 186.8573Q579.73126 186.8573 580.21564 187.3573Q580.71564 187.84167 580.71564 188.65417L580.71564 189.06042Q580.71564 189.82605 580.23126 190.32605Q579.7469 190.82605 578.98126 190.82605Q578.21564 190.82605 577.71564 190.34167Q577.21564 189.84167 577.21564 189.02917L577.21564 188.6073ZM578.02814 189.06042Q578.02814 189.52917 578.27814 189.82605Q578.54376 190.12292 578.98126 190.12292Q579.40314 190.12292 579.65314 189.84167Q579.90314 189.5448 579.90314 189.0448L579.90314 188.6073Q579.90314 188.13855 579.6375 187.8573Q579.3875 187.56042 578.96564 187.56042Q578.54376 187.56042 578.27814 187.8573Q578.02814 188.13855 578.02814 188.63855L578.02814 189.06042ZM575.075 190.06042L574.45 189.6698L578.6219 182.99792L579.23126 183.38855L575.075 190.06042Z" fill-rule="nonzero"/><path stroke="#757575" stroke-width="1.0" stroke-linecap="butt" d="M581.45 177.20105L454.76666 177.20105L438.825 177.20105" fill-rule="nonzero"/><path fill="#9e9e9e" d="M440.825 177.20105C440.825 176.09648 439.9296 175.20105 438.825 175.20105C437.72046 175.20105 436.825 176.09648 436.825 177.20105C436.825 178.30562 437.72046 179.20105 438.825 179.20105C439.9296 179.20105 440.825 178.30562 440.825 177.20105" fill-rule="nonzero"/><path fill="#1a1a1a" d="M559.4344 242.85619L559.4344 234.32494L562.23126 234.32494Q563.6219 234.32494 564.3094 234.90306Q565.0125 235.46556 565.0125 236.59056Q565.0125 237.19994 564.66876 237.66869Q564.34064 238.12181 563.7469 238.37181Q564.45 238.55931 564.84064 239.10619Q565.2469 239.63744 565.2469 240.38744Q565.2469 241.54369 564.4969 242.19994Q563.7625 242.85619 562.40314 242.85619L559.4344 242.85619ZM560.5594 238.87181L560.5594 241.93431L562.41876 241.93431Q563.21564 241.93431 563.66876 241.52806Q564.1219 241.12181 564.1219 240.40306Q564.1219 238.87181 562.4344 238.87181L560.5594 238.87181ZM560.5594 237.96556L562.2625 237.96556Q562.9969 237.96556 563.4344 237.60619Q563.8875 237.23119 563.8875 236.59056Q563.8875 235.88744 563.48126 235.57494Q563.075 235.24681 562.23126 235.24681L560.5594 235.24681L560.5594 237.96556ZM567.45 242.85619L566.3719 242.85619L566.3719 233.85619L567.45 233.85619L567.45 242.85619ZM573.1844 242.23119Q572.5594 242.98119 571.325 242.98119Q570.3094 242.98119 569.77814 242.38744Q569.2469 241.79369 569.2469 240.63744L569.2469 236.51244L570.325 236.51244L570.325 240.60619Q570.325 242.05931 571.4969 242.05931Q572.7469 242.05931 573.15314 241.12181L573.15314 236.51244L574.2469 236.51244L574.2469 242.85619L573.21564 242.85619L573.1844 242.23119ZM578.90314 242.98119Q577.60626 242.98119 576.79376 242.13744Q575.9969 241.27806 575.9969 239.85619L575.9969 239.66869Q575.9969 238.71556 576.35626 237.98119Q576.71564 237.23119 577.35626 236.82494Q578.0125 236.40306 578.7625 236.40306Q579.9969 236.40306 580.6844 237.21556Q581.3719 238.02806 581.3719 239.54369L581.3719 239.99681L577.075 239.99681Q577.10626 240.93431 577.6219 241.51244Q578.15314 242.09056 578.96564 242.09056Q579.52814 242.09056 579.91876 241.85619Q580.325 241.62181 580.6375 241.23119L581.29376 241.74681Q580.4969 242.98119 578.90314 242.98119ZM578.7625 237.29369Q578.10626 237.29369 577.65314 237.77806Q577.21564 238.24681 577.1219 239.10619L580.29376 239.10619L580.29376 239.02806Q580.2469 238.19994 579.84064 237.74681Q579.45 237.29369 578.7625 237.29369Z" fill-rule="nonzero"/><path fill="#9e9e9e" d="M552.71564 260.8562L551.6375 260.8562L551.6375 253.63745L549.45 254.43433L549.45 253.44995L552.5594 252.27808L552.71564 252.27808L552.71564 260.8562ZM561.7469 260.8562L556.15314 260.8562L556.15314 260.07495L559.10626 256.7937Q559.7625 256.0437 560.0125 255.59058Q560.2625 255.12183 560.2625 254.62183Q560.2625 253.94995 559.85626 253.52808Q559.46564 253.09058 558.77814 253.09058Q557.98126 253.09058 557.52814 253.55933Q557.075 254.01245 557.075 254.84058L555.9969 254.84058Q555.9969 253.65308 556.7469 252.93433Q557.5125 252.19995 558.77814 252.19995Q559.98126 252.19995 560.66876 252.82495Q561.35626 253.44995 561.35626 254.49683Q561.35626 255.74683 559.7469 257.49683L557.46564 259.96558L561.7469 259.96558L561.7469 260.8562ZM563.29376 260.2937Q563.29376 260.01245 563.45 259.82495Q563.6219 259.63745 563.95 259.63745Q564.29376 259.63745 564.46564 259.82495Q564.6375 260.01245 564.6375 260.2937Q564.6375 260.55933 564.46564 260.74683Q564.29376 260.9187 563.95 260.9187Q563.6219 260.9187 563.45 260.74683Q563.29376 260.55933 563.29376 260.2937ZM571.5125 257.21558Q571.5125 259.12183 570.85626 260.05933Q570.21564 260.9812 568.825 260.9812Q567.46564 260.9812 566.8094 260.07495Q566.15314 259.1687 566.1219 257.3562L566.1219 255.9187Q566.1219 254.02808 566.7625 253.12183Q567.41876 252.19995 568.8094 252.19995Q570.1844 252.19995 570.84064 253.09058Q571.4969 253.96558 571.5125 255.80933L571.5125 257.21558ZM570.41876 255.7312Q570.41876 254.3562 570.02814 253.7312Q569.65314 253.09058 568.8094 253.09058Q567.98126 253.09058 567.59064 253.7312Q567.21564 254.3562 567.21564 255.65308L567.21564 257.38745Q567.21564 258.76245 567.60626 259.43433Q568.0125 260.09058 568.825 260.09058Q569.6219 260.09058 570.0125 259.46558Q570.40314 258.84058 570.41876 257.51245L570.41876 255.7312ZM573.0594 253.96558Q573.0594 253.19995 573.54376 252.69995Q574.04376 252.19995 574.8094 252.19995Q575.59064 252.19995 576.075 252.69995Q576.5594 253.19995 576.5594 253.99683L576.5594 254.4187Q576.5594 255.18433 576.0594 255.68433Q575.575 256.1687 574.825 256.1687Q574.0594 256.1687 573.5594 255.68433Q573.0594 255.18433 573.0594 254.37183L573.0594 253.96558ZM573.8719 254.4187Q573.8719 254.87183 574.1219 255.1687Q574.3875 255.46558 574.825 255.46558Q575.2469 255.46558 575.4969 255.18433Q575.7469 254.88745 575.7469 254.38745L575.7469 253.96558Q575.7469 253.51245 575.4969 253.21558Q575.2469 252.90308 574.8094 252.90308Q574.3719 252.90308 574.1219 253.21558Q573.8719 253.51245 573.8719 253.9812L573.8719 254.4187ZM577.21564 258.76245Q577.21564 257.99683 577.7 257.51245Q578.2 257.01245 578.96564 257.01245Q579.73126 257.01245 580.21564 257.51245Q580.71564 257.99683 580.71564 258.80933L580.71564 259.21558Q580.71564 259.9812 580.23126 260.4812Q579.7469 260.9812 578.98126 260.9812Q578.21564 260.9812 577.71564 260.49683Q577.21564 259.99683 577.21564 259.18433L577.21564 258.76245ZM578.02814 259.21558Q578.02814 259.68433 578.27814 259.9812Q578.54376 260.27808 578.98126 260.27808Q579.40314 260.27808 579.65314 259.99683Q579.90314 259.69995 579.90314 259.19995L579.90314 258.76245Q579.90314 258.2937 579.6375 258.01245Q579.3875 257.71558 578.96564 257.71558Q578.54376 257.71558 578.27814 258.01245Q578.02814 258.2937 578.02814 258.7937L578.02814 259.21558ZM575.075 260.21558L574.45 259.82495L578.6219 253.15308L579.23126 253.5437L575.075 260.21558Z" fill-rule="nonzero"/><path stroke="#757575" stroke-width="1.0" stroke-linecap="butt" d="M581.45 247.35619L454.76666 247.35619L434.41122 247.35619" fill-rule="nonzero"/><path fill="#9e9e9e" d="M436.41122 247.35619C436.41122 246.25162 435.5158 245.35619 434.41122 245.35619C433.30667 245.35619 432.41122 246.25162 432.41122 247.35619C432.41122 248.46075 433.30667 249.35619 434.41122 249.35619C435.5158 249.35619 436.41122 248.46075 436.41122 247.35619" fill-rule="nonzero"/><path fill="#757575" d="M23.64375 23.33125L27.3 33.64375L30.940624 23.33125L34.784374 23.33125L34.784374 37.55L31.846874 37.55L31.846874 33.659374L32.128124 26.95625L28.3 37.55L26.284374 37.55L22.45625 26.95625L22.753124 33.659374L22.753124 37.55L19.815624 37.55L19.815624 23.33125L23.64375 23.33125ZM43.95625 36.471874Q42.925 37.753124 41.065624 37.753124Q39.378124 37.753124 38.471874 36.76875Q37.58125 35.784374 37.565624 33.909374L37.565624 26.9875L40.39375 26.9875L40.39375 33.815624Q40.39375 35.45625 41.89375 35.45625Q43.33125 35.45625 43.8625 34.45625L43.8625 26.9875L46.690624 26.9875L46.690624 37.55L44.034374 37.55L43.95625 36.471874ZM54.3625 34.628124Q54.3625 34.1125 53.846874 33.815624Q53.33125 33.51875 52.20625 33.284374Q48.425 32.4875 48.425 30.08125Q48.425 28.675 49.596874 27.7375Q50.76875 26.784374 52.64375 26.784374Q54.659374 26.784374 55.8625 27.7375Q57.065624 28.675 57.065624 30.190624L54.253124 30.190624Q54.253124 29.596874 53.8625 29.20625Q53.471874 28.8 52.64375 28.8Q51.925 28.8 51.534374 29.128124Q51.14375 29.440624 51.14375 29.940624Q51.14375 30.409374 51.58125 30.70625Q52.034374 30.9875 53.08125 31.20625Q54.14375 31.409374 54.8625 31.675Q57.096874 32.4875 57.096874 34.51875Q57.096874 35.95625 55.8625 36.8625Q54.628124 37.753124 52.659374 37.753124Q51.33125 37.753124 50.3 37.284374Q49.26875 36.8 48.675 35.971874Q48.096874 35.14375 48.096874 34.190624L50.76875 34.190624Q50.815624 34.940624 51.33125 35.346874Q51.846874 35.7375 52.721874 35.7375Q53.534374 35.7375 53.940624 35.440624Q54.3625 35.128124 54.3625 34.628124ZM61.6125 37.55L58.784374 37.55L58.784374 26.9875L61.6125 26.9875L61.6125 37.55ZM58.6125 24.253124Q58.6125 23.6125 59.034374 23.20625Q59.471874 22.8 60.190624 22.8Q60.925 22.8 61.346874 23.20625Q61.784374 23.6125 61.784374 24.253124Q61.784374 24.89375 61.346874 25.3Q60.909374 25.70625 60.190624 25.70625Q59.4875 25.70625 59.05 25.3Q58.6125 24.89375 58.6125 24.253124ZM68.03438 35.471874Q68.81563 35.471874 69.3 35.05Q69.78438 34.6125 69.8 33.89375L72.45625 33.89375Q72.44063 34.971874 71.8625 35.8625Q71.28438 36.753124 70.28438 37.253124Q69.28438 37.753124 68.08125 37.753124Q65.81563 37.753124 64.50313 36.315624Q63.190624 34.8625 63.190624 32.33125L63.190624 32.14375Q63.190624 29.690624 64.4875 28.2375Q65.8 26.784374 68.06563 26.784374Q70.03438 26.784374 71.2375 27.925Q72.44063 29.05 72.45625 30.925L69.8 30.925Q69.78438 30.096874 69.3 29.58125Q68.81563 29.065624 68.00313 29.065624Q67.01875 29.065624 66.51875 29.784374Q66.01875 30.503124 66.01875 32.1125L66.01875 32.409374Q66.01875 34.05 66.51875 34.76875Q67.01875 35.471874 68.03438 35.471874Z" fill-rule="nonzero"/></svg>