<svg version="1.1" viewBox="0.0 0.0 600.0 371.0" fill="none" stroke="none" stroke-linecap="square" stroke-miterlimit="10" width="600" height="371" xmlns:xlink="http://www.w3.org/1999/xlink" xmlns="http://www.w3.org/2000/svg"><path fill="#ffffff" d="M0 0L600.0 0L600.0 371.0L0 371.0L0 0Z" fill-rule="nonzero"/><path fill="#cc0000" d="M300.0 54.916668C337.83835 54.916668 374.25482 69.33497 401.8378 95.2371L300.0 203.68333Z" fill-rule="nonzero"/><path fill="#e69138" d="M401.8378 95.2371C429.42075 121.13923 446.09723 156.57852 448.4731 194.3422L300.0 203.68333Z" fill-rule="nonzero"/><path fill="#f1c232" d="M448.4731 194.3422C450.0465 219.35089 445.27734 244.35182 434.6081 267.0251L300.0 203.68333Z" fill-rule="nonzero"/><path fill="#76a5af" d="M198.16222 95.2371C225.74518 69.33497 262.16165 54.916668 300.0 54.916668L300.0 203.68333Z" fill-rule="nonzero"/><path fill="#434343" d="M212.55714 324.0381C176.68718 297.97705 154.31088 257.2747 151.52689 213.02448C148.7429 168.77425 165.8414 125.588356 198.16222 95.2371L300.0 203.68333Z" fill-rule="nonzero"/><path fill="#cccccc" d="M245.23534 342.00308C233.63222 337.4091 222.65326 331.37335 212.55714 324.0381L300.0 203.68333Z" fill-rule="nonzero"/><path fill="#c27ba0" d="M281.35458 351.27692C268.9735 349.71283 256.83847 346.59708 245.23534 342.00308L300.0 203.68333Z" fill-rule="nonzero"/><path fill="#674ea7" d="M434.6081 267.0251C407.16678 325.34085 345.29602 359.3546 281.35458 351.27692L300.0 203.68333Z" fill-rule="nonzero"/><path fill="#1a1a1a" d="M26.096874 63.795197Q26.096874 65.0452 25.675 65.9827Q25.253124 66.90457 24.471874 67.40457Q23.70625 67.90457 22.675 67.90457Q21.675 67.90457 20.89375 67.40457Q20.1125 66.90457 19.675 65.99832Q19.253124 65.07645 19.2375 63.857697L19.2375 63.24832Q19.2375 62.013947 19.659374 61.076447Q20.096874 60.138947 20.878124 59.638947Q21.659374 59.12332 22.675 59.12332Q23.690624 59.12332 24.471874 59.62332Q25.253124 60.12332 25.675 61.06082Q26.096874 61.99832 26.096874 63.24832L26.096874 63.795197ZM24.9875 63.232697Q24.9875 61.71707 24.378124 60.90457Q23.76875 60.09207 22.675 60.09207Q21.596874 60.09207 20.9875 60.90457Q20.378124 61.71707 20.3625 63.15457L20.3625 63.795197Q20.3625 65.26395 20.971874 66.1077Q21.596874 66.93582 22.675 66.93582Q23.76875 66.93582 24.3625 66.15457Q24.971874 65.3577 24.9875 63.87332L24.9875 63.232697ZM28.846874 59.90457L28.846874 61.43582L30.01875 61.43582L30.01875 62.27957L28.846874 62.27957L28.846874 66.20145Q28.846874 66.59207 29.003124 66.77957Q29.159374 66.96707 29.534374 66.96707Q29.721874 66.96707 30.05 66.90457L30.05 67.77957Q29.628124 67.90457 29.221874 67.90457Q28.503124 67.90457 28.128124 67.46707Q27.753124 67.01395 27.753124 66.20145L27.753124 62.27957L26.596874 62.27957L26.596874 61.43582L27.753124 61.43582L27.753124 59.90457L28.846874 59.90457ZM32.45625 62.201447Q33.175 61.326447 34.33125 61.326447Q36.346874 61.326447 36.3625 63.59207L36.3625 67.77957L35.26875 67.77957L35.26875 63.576447Q35.26875 62.90457 34.95625 62.576447Q34.659374 62.24832 34.003124 62.24832Q33.471874 62.24832 33.065624 62.52957Q32.675 62.81082 32.45625 63.263947L32.45625 67.77957L31.378124 67.77957L31.378124 58.77957L32.45625 58.77957L32.45625 62.201447ZM41.003124 67.90457Q39.70625 67.90457 38.89375 67.06082Q38.096874 66.20145 38.096874 64.77957L38.096874 64.59207Q38.096874 63.638947 38.45625 62.90457Q38.815624 62.15457 39.45625 61.74832Q40.1125 61.326447 40.8625 61.326447Q42.096874 61.326447 42.784374 62.138947Q43.471874 62.951447 43.471874 64.46707L43.471874 64.9202L39.175 64.9202Q39.20625 65.8577 39.721874 66.43582Q40.253124 67.01395 41.065624 67.01395Q41.628124 67.01395 42.01875 66.77957Q42.425 66.5452 42.7375 66.15457L43.39375 66.6702Q42.596874 67.90457 41.003124 67.90457ZM40.8625 62.21707Q40.20625 62.21707 39.753124 62.701447Q39.315624 63.170197 39.221874 64.02957L42.39375 64.02957L42.39375 63.951447Q42.346874 63.12332 41.940624 62.670197Q41.55 62.21707 40.8625 62.21707ZM47.440624 62.40457Q47.190624 62.37332 46.909374 62.37332Q45.83125 62.37332 45.45625 63.27957L45.45625 67.77957L44.378124 67.77957L44.378124 61.43582L45.425 61.43582L45.440624 62.170197Q45.971874 61.326447 46.95625 61.326447Q47.26875 61.326447 47.440624 61.40457L47.440624 62.40457Z" fill-rule="nonzero"/><path fill="#9e9e9e" d="M22.815624 85.77957L21.7375 85.77957L21.7375 78.56082L19.55 79.3577L19.55 78.37332L22.659374 77.20145L22.815624 77.20145L22.815624 85.77957ZM31.846874 85.77957L26.253124 85.77957L26.253124 84.99832L29.20625 81.71707Q29.8625 80.96707 30.1125 80.51395Q30.3625 80.0452 30.3625 79.5452Q30.3625 78.87332 29.95625 78.45145Q29.565624 78.01395 28.878124 78.01395Q28.08125 78.01395 27.628124 78.4827Q27.175 78.93582 27.175 79.76395L26.096874 79.76395Q26.096874 78.57645 26.846874 77.8577Q27.6125 77.12332 28.878124 77.12332Q30.08125 77.12332 30.76875 77.74832Q31.45625 78.37332 31.45625 79.4202Q31.45625 80.6702 29.846874 82.4202L27.565624 84.88895L31.846874 84.88895L31.846874 85.77957ZM33.39375 85.21707Q33.39375 84.93582 33.55 84.74832Q33.721874 84.56082 34.05 84.56082Q34.39375 84.56082 34.565624 84.74832Q34.7375 84.93582 34.7375 85.21707Q34.7375 85.4827 34.565624 85.6702Q34.39375 85.84207 34.05 85.84207Q33.721874 85.84207 33.55 85.6702Q33.39375 85.4827 33.39375 85.21707ZM41.6125 82.13895Q41.6125 84.0452 40.95625 84.9827Q40.315624 85.90457 38.925 85.90457Q37.565624 85.90457 36.909374 84.99832Q36.253124 84.09207 36.221874 82.27957L36.221874 80.84207Q36.221874 78.95145 36.8625 78.0452Q37.51875 77.12332 38.909374 77.12332Q40.284374 77.12332 40.940624 78.01395Q41.596874 78.88895 41.6125 80.7327L41.6125 82.13895ZM40.51875 80.65457Q40.51875 79.27957 40.128124 78.65457Q39.753124 78.01395 38.909374 78.01395Q38.08125 78.01395 37.690624 78.65457Q37.315624 79.27957 37.315624 80.57645L37.315624 82.31082Q37.315624 83.68582 37.70625 84.3577Q38.1125 85.01395 38.925 85.01395Q39.721874 85.01395 40.1125 84.38895Q40.503124 83.76395 40.51875 82.43582L40.51875 80.65457ZM43.159374 78.88895Q43.159374 78.12332 43.64375 77.62332Q44.14375 77.12332 44.909374 77.12332Q45.690624 77.12332 46.175 77.62332Q46.659374 78.12332 46.659374 78.9202L46.659374 79.34207Q46.659374 80.1077 46.159374 80.6077Q45.675 81.09207 44.925 81.09207Q44.159374 81.09207 43.659374 80.6077Q43.159374 80.1077 43.159374 79.2952L43.159374 78.88895ZM43.971874 79.34207Q43.971874 79.7952 44.221874 80.09207Q44.4875 80.38895 44.925 80.38895Q45.346874 80.38895 45.596874 80.1077Q45.846874 79.81082 45.846874 79.31082L45.846874 78.88895Q45.846874 78.43582 45.596874 78.13895Q45.346874 77.82645 44.909374 77.82645Q44.471874 77.82645 44.221874 78.13895Q43.971874 78.43582 43.971874 78.90457L43.971874 79.34207ZM47.315624 83.68582Q47.315624 82.9202 47.8 82.43582Q48.3 81.93582 49.065624 81.93582Q49.83125 81.93582 50.315624 82.43582Q50.815624 82.9202 50.815624 83.7327L50.815624 84.13895Q50.815624 84.90457 50.33125 85.40457Q49.846874 85.90457 49.08125 85.90457Q48.315624 85.90457 47.815624 85.4202Q47.315624 84.9202 47.315624 84.1077L47.315624 83.68582ZM48.128124 84.13895Q48.128124 84.6077 48.378124 84.90457Q48.64375 85.20145 49.08125 85.20145Q49.503124 85.20145 49.753124 84.9202Q50.003124 84.62332 50.003124 84.12332L50.003124 83.68582Q50.003124 83.21707 49.7375 82.93582Q49.4875 82.63895 49.065624 82.63895Q48.64375 82.63895 48.378124 82.93582Q48.128124 83.21707 48.128124 83.71707L48.128124 84.13895ZM45.175 85.13895L44.55 84.74832L48.721874 78.07645L49.33125 78.46707L45.175 85.13895Z" fill-rule="nonzero"/><path stroke="#757575" stroke-width="1.0" stroke-linecap="butt" d="M18.55 72.27957L145.23334 72.27957L247.97357 72.27957" fill-rule="nonzero"/><path fill="#9e9e9e" d="M249.97357 72.27957C249.97357 71.175 249.07814 70.27957 247.97357 70.27957C246.869 70.27957 245.97357 71.175 245.97357 72.27957C245.97357 73.38414 246.869 74.27957 247.97357 74.27957C249.07814 74.27957 249.97357 73.38414 249.97357 72.27957" fill-rule="nonzero"/><path fill="#1a1a1a" d="M19.534374 208.05742L19.534374 199.52617L22.33125 199.52617Q23.721874 199.52617 24.409374 200.1043Q25.1125 200.6668 25.1125 201.7918Q25.1125 202.40117 24.76875 202.86992Q24.440624 203.32304 23.846874 203.57304Q24.55 203.76054 24.940624 204.30742Q25.346874 204.83867 25.346874 205.58867Q25.346874 206.74492 24.596874 207.40117Q23.8625 208.05742 22.503124 208.05742L19.534374 208.05742ZM20.659374 204.07304L20.659374 207.13554L22.51875 207.13554Q23.315624 207.13554 23.76875 206.7293Q24.221874 206.32304 24.221874 205.6043Q24.221874 204.07304 22.534374 204.07304L20.659374 204.07304ZM20.659374 203.1668L22.3625 203.1668Q23.096874 203.1668 23.534374 202.80742Q23.9875 202.43242 23.9875 201.7918Q23.9875 201.08867 23.58125 200.77617Q23.175 200.44804 22.33125 200.44804L20.659374 200.44804L20.659374 203.1668ZM27.55 208.05742L26.471874 208.05742L26.471874 199.05742L27.55 199.05742L27.55 208.05742ZM33.284374 208.05742Q33.190624 207.86992 33.128124 207.38554Q32.378124 208.18242 31.33125 208.18242Q30.39375 208.18242 29.784374 207.65117Q29.190624 207.11992 29.190624 206.2918Q29.190624 205.30742 29.940624 204.76054Q30.690624 204.21367 32.065624 204.21367L33.1125 204.21367L33.1125 203.71367Q33.1125 203.15117 32.76875 202.82304Q32.440624 202.4793 31.76875 202.4793Q31.190624 202.4793 30.8 202.77617Q30.409374 203.05742 30.409374 203.4793L29.315624 203.4793Q29.315624 202.99492 29.64375 202.55742Q29.9875 202.11992 30.565624 201.86992Q31.14375 201.6043 31.83125 201.6043Q32.940624 201.6043 33.55 202.15117Q34.175 202.69804 34.20625 203.65117L34.20625 206.57304Q34.20625 207.44804 34.425 207.96367L34.425 208.05742L33.284374 208.05742ZM31.4875 207.2293Q32.003124 207.2293 32.45625 206.96367Q32.909374 206.69804 33.1125 206.27617L33.1125 204.9793L32.26875 204.9793Q30.26875 204.9793 30.26875 206.15117Q30.26875 206.65117 30.6125 206.94804Q30.95625 207.2293 31.4875 207.2293ZM38.909374 207.2918Q39.4875 207.2918 39.925 206.94804Q40.3625 206.58867 40.409374 206.05742L41.440624 206.05742Q41.409374 206.6043 41.05 207.1043Q40.70625 207.58867 40.128124 207.88554Q39.565624 208.18242 38.909374 208.18242Q37.6125 208.18242 36.846874 207.32304Q36.096874 206.44804 36.096874 204.94804L36.096874 204.76054Q36.096874 203.83867 36.425 203.11992Q36.76875 202.40117 37.39375 202.01054Q38.034374 201.6043 38.909374 201.6043Q39.971874 201.6043 40.675 202.24492Q41.39375 202.86992 41.440624 203.90117L40.409374 203.90117Q40.3625 203.27617 39.940624 202.88554Q39.51875 202.49492 38.909374 202.49492Q38.08125 202.49492 37.628124 203.08867Q37.175 203.68242 37.175 204.80742L37.175 205.01054Q37.175 206.1043 37.628124 206.69804Q38.08125 207.2918 38.909374 207.2918ZM44.14375 205.11992L43.45625 205.82304L43.45625 208.05742L42.378124 208.05742L42.378124 199.05742L43.45625 199.05742L43.45625 204.49492L44.034374 203.80742L46.01875 201.71367L47.33125 201.71367L44.8625 204.36992L47.628124 208.05742L46.346874 208.05742L44.14375 205.11992Z" fill-rule="nonzero"/><path fill="#9e9e9e" d="M24.846874 226.05742L19.253124 226.05742L19.253124 225.27617L22.20625 221.99492Q22.8625 221.24492 23.1125 220.7918Q23.3625 220.32304 23.3625 219.82304Q23.3625 219.15117 22.95625 218.7293Q22.565624 218.2918 21.878124 218.2918Q21.08125 218.2918 20.628124 218.76054Q20.175 219.21367 20.175 220.0418L19.096874 220.0418Q19.096874 218.8543 19.846874 218.13554Q20.6125 217.40117 21.878124 217.40117Q23.08125 217.40117 23.76875 218.02617Q24.45625 218.65117 24.45625 219.69804Q24.45625 220.94804 22.846874 222.69804L20.565624 225.1668L24.846874 225.1668L24.846874 226.05742ZM31.440624 219.74492Q31.440624 220.38554 31.096874 220.88554Q30.753124 221.38554 30.190624 221.6668Q30.846874 221.94804 31.2375 222.51054Q31.628124 223.05742 31.628124 223.76054Q31.628124 224.8543 30.878124 225.52617Q30.14375 226.18242 28.925 226.18242Q27.690624 226.18242 26.940624 225.52617Q26.20625 224.8543 26.20625 223.76054Q26.20625 223.05742 26.58125 222.51054Q26.95625 221.94804 27.628124 221.6668Q27.065624 221.38554 26.7375 220.88554Q26.409374 220.38554 26.409374 219.74492Q26.409374 218.6668 27.096874 218.0418Q27.784374 217.40117 28.925 217.40117Q30.05 217.40117 30.7375 218.0418Q31.440624 218.6668 31.440624 219.74492ZM30.55 223.7293Q30.55 223.01054 30.096874 222.57304Q29.64375 222.11992 28.909374 222.11992Q28.175 222.11992 27.721874 222.57304Q27.284374 223.01054 27.284374 223.74492Q27.284374 224.46367 27.721874 224.88554Q28.159374 225.2918 28.925 225.2918Q29.675 225.2918 30.1125 224.86992Q30.55 224.44804 30.55 223.7293ZM28.925 218.2918Q28.284374 218.2918 27.878124 218.69804Q27.4875 219.08867 27.4875 219.77617Q27.4875 220.4168 27.878124 220.82304Q28.26875 221.2293 28.909374 221.2293Q29.565624 221.2293 29.95625 220.82304Q30.346874 220.4168 30.346874 219.77617Q30.346874 219.11992 29.940624 218.71367Q29.534374 218.2918 28.925 218.2918ZM33.39375 225.49492Q33.39375 225.21367 33.55 225.02617Q33.721874 224.83867 34.05 224.83867Q34.39375 224.83867 34.565624 225.02617Q34.7375 225.21367 34.7375 225.49492Q34.7375 225.76054 34.565624 225.94804Q34.39375 226.11992 34.05 226.11992Q33.721874 226.11992 33.55 225.94804Q33.39375 225.76054 33.39375 225.49492ZM41.6125 222.4168Q41.6125 224.32304 40.95625 225.26054Q40.315624 226.18242 38.925 226.18242Q37.565624 226.18242 36.909374 225.27617Q36.253124 224.36992 36.221874 222.55742L36.221874 221.11992Q36.221874 219.2293 36.8625 218.32304Q37.51875 217.40117 38.909374 217.40117Q40.284374 217.40117 40.940624 218.2918Q41.596874 219.1668 41.6125 221.01054L41.6125 222.4168ZM40.51875 220.93242Q40.51875 219.55742 40.128124 218.93242Q39.753124 218.2918 38.909374 218.2918Q38.08125 218.2918 37.690624 218.93242Q37.315624 219.55742 37.315624 220.8543L37.315624 222.58867Q37.315624 223.96367 37.70625 224.63554Q38.1125 225.2918 38.925 225.2918Q39.721874 225.2918 40.1125 224.6668Q40.503124 224.0418 40.51875 222.71367L40.51875 220.93242ZM43.159374 219.1668Q43.159374 218.40117 43.64375 217.90117Q44.14375 217.40117 44.909374 217.40117Q45.690624 217.40117 46.175 217.90117Q46.659374 218.40117 46.659374 219.19804L46.659374 219.61992Q46.659374 220.38554 46.159374 220.88554Q45.675 221.36992 44.925 221.36992Q44.159374 221.36992 43.659374 220.88554Q43.159374 220.38554 43.159374 219.57304L43.159374 219.1668ZM43.971874 219.61992Q43.971874 220.07304 44.221874 220.36992Q44.4875 220.6668 44.925 220.6668Q45.346874 220.6668 45.596874 220.38554Q45.846874 220.08867 45.846874 219.58867L45.846874 219.1668Q45.846874 218.71367 45.596874 218.4168Q45.346874 218.1043 44.909374 218.1043Q44.471874 218.1043 44.221874 218.4168Q43.971874 218.71367 43.971874 219.18242L43.971874 219.61992ZM47.315624 223.96367Q47.315624 223.19804 47.8 222.71367Q48.3 222.21367 49.065624 222.21367Q49.83125 222.21367 50.315624 222.71367Q50.815624 223.19804 50.815624 224.01054L50.815624 224.4168Q50.815624 225.18242 50.33125 225.68242Q49.846874 226.18242 49.08125 226.18242Q48.315624 226.18242 47.815624 225.69804Q47.315624 225.19804 47.315624 224.38554L47.315624 223.96367ZM48.128124 224.4168Q48.128124 224.88554 48.378124 225.18242Q48.64375 225.4793 49.08125 225.4793Q49.503124 225.4793 49.753124 225.19804Q50.003124 224.90117 50.003124 224.40117L50.003124 223.96367Q50.003124 223.49492 49.7375 223.21367Q49.4875 222.9168 49.065624 222.9168Q48.64375 222.9168 48.378124 223.21367Q48.128124 223.49492 48.128124 223.99492L48.128124 224.4168ZM45.175 225.4168L44.55 225.02617L48.721874 218.3543L49.33125 218.74492L45.175 225.4168Z" fill-rule="nonzero"/><path stroke="#757575" stroke-width="1.0" stroke-linecap="butt" d="M18.55 212.55742L145.23334 212.55742L158.95055 212.55742" fill-rule="nonzero"/><path fill="#9e9e9e" d="M160.95055 212.55742C160.95055 211.45285 160.05511 210.55742 158.95055 210.55742C157.84598 210.55742 156.95055 211.45285 156.95055 212.55742C156.95055 213.66199 157.84598 214.55742 158.95055 214.55742C160.05511 214.55742 160.95055 213.66199 160.95055 212.55742" fill-rule="nonzero"/><path fill="#1a1a1a" d="M25.846874 297.325Q25.409374 297.95 24.628124 298.2625Q23.846874 298.575 22.815624 298.575Q21.784374 298.575 20.971874 298.09064Q20.159374 297.59064 19.721874 296.6844Q19.284374 295.77814 19.26875 294.59064L19.26875 293.85626Q19.26875 291.91876 20.159374 290.85626Q21.065624 289.79376 22.690624 289.79376Q24.034374 289.79376 24.846874 290.48126Q25.659374 291.16876 25.846874 292.41876L24.721874 292.41876Q24.39375 290.73126 22.70625 290.73126Q21.565624 290.73126 20.9875 291.52814Q20.409374 292.3094 20.39375 293.825L20.39375 294.5125Q20.39375 295.95 21.05 296.8094Q21.70625 297.65314 22.83125 297.65314Q23.45625 297.65314 23.925 297.5125Q24.409374 297.3719 24.721874 297.02814L24.721874 295.1219L22.753124 295.1219L22.753124 294.2L25.846874 294.2L25.846874 297.325ZM30.440624 293.075Q30.190624 293.04376 29.909374 293.04376Q28.83125 293.04376 28.45625 293.95L28.45625 298.45L27.378124 298.45L27.378124 292.10626L28.425 292.10626L28.440624 292.84064Q28.971874 291.9969 29.95625 291.9969Q30.26875 291.9969 30.440624 292.075L30.440624 293.075ZM34.003124 298.575Q32.70625 298.575 31.89375 297.73126Q31.096874 296.8719 31.096874 295.45L31.096874 295.2625Q31.096874 294.3094 31.45625 293.575Q31.815624 292.825 32.45625 292.41876Q33.1125 291.9969 33.8625 291.9969Q35.096874 291.9969 35.784374 292.8094Q36.471874 293.6219 36.471874 295.1375L36.471874 295.59064L32.175 295.59064Q32.20625 296.52814 32.721874 297.10626Q33.253124 297.6844 34.065624 297.6844Q34.628124 297.6844 35.01875 297.45Q35.425 297.21564 35.7375 296.825L36.39375 297.34064Q35.596874 298.575 34.003124 298.575ZM33.8625 292.8875Q33.20625 292.8875 32.753124 293.3719Q32.315624 293.84064 32.221874 294.7L35.39375 294.7L35.39375 294.6219Q35.346874 293.79376 34.940624 293.34064Q34.55 292.8875 33.8625 292.8875ZM39.440624 296.85626L40.925 292.10626L42.08125 292.10626L39.534374 299.4344Q38.940624 301.0125 37.659374 301.0125L37.440624 300.9969L37.05 300.91876L37.05 300.04376L37.33125 300.0594Q37.89375 300.0594 38.190624 299.84064Q38.503124 299.6219 38.70625 299.02814L38.940624 298.3719L36.675 292.10626L37.8625 292.10626L39.440624 296.85626Z" fill-rule="nonzero"/><path fill="#9e9e9e" d="M23.83125 313.59064L25.01875 313.59064L25.01875 314.46564L23.83125 314.46564L23.83125 316.45L22.753124 316.45L22.753124 314.46564L18.8625 314.46564L18.8625 313.825L22.675 307.91876L23.83125 307.91876L23.83125 313.59064ZM20.096874 313.59064L22.753124 313.59064L22.753124 309.40314L22.6125 309.6375L20.096874 313.59064ZM26.39375 315.8875Q26.39375 315.60626 26.55 315.41876Q26.721874 315.23126 27.05 315.23126Q27.39375 315.23126 27.565624 315.41876Q27.7375 315.60626 27.7375 315.8875Q27.7375 316.15314 27.565624 316.34064Q27.39375 316.5125 27.05 316.5125Q26.721874 316.5125 26.55 316.34064Q26.39375 316.15314 26.39375 315.8875ZM34.6125 312.8094Q34.6125 314.71564 33.95625 315.65314Q33.315624 316.575 31.925 316.575Q30.565624 316.575 29.909374 315.66876Q29.253124 314.7625 29.221874 312.95L29.221874 311.5125Q29.221874 309.6219 29.8625 308.71564Q30.51875 307.79376 31.909374 307.79376Q33.284374 307.79376 33.940624 308.6844Q34.596874 309.5594 34.6125 311.40314L34.6125 312.8094ZM33.51875 311.325Q33.51875 309.95 33.128124 309.325Q32.753124 308.6844 31.909374 308.6844Q31.08125 308.6844 30.690624 309.325Q30.315624 309.95 30.315624 311.2469L30.315624 312.98126Q30.315624 314.35626 30.70625 315.02814Q31.1125 315.6844 31.925 315.6844Q32.721874 315.6844 33.1125 315.0594Q33.503124 314.4344 33.51875 313.10626L33.51875 311.325ZM36.159374 309.5594Q36.159374 308.79376 36.64375 308.29376Q37.14375 307.79376 37.909374 307.79376Q38.690624 307.79376 39.175 308.29376Q39.659374 308.79376 39.659374 309.59064L39.659374 310.0125Q39.659374 310.77814 39.159374 311.27814Q38.675 311.7625 37.925 311.7625Q37.159374 311.7625 36.659374 311.27814Q36.159374 310.77814 36.159374 309.96564L36.159374 309.5594ZM36.971874 310.0125Q36.971874 310.46564 37.221874 310.7625Q37.4875 311.0594 37.925 311.0594Q38.346874 311.0594 38.596874 310.77814Q38.846874 310.48126 38.846874 309.98126L38.846874 309.5594Q38.846874 309.10626 38.596874 308.8094Q38.346874 308.4969 37.909374 308.4969Q37.471874 308.4969 37.221874 308.8094Q36.971874 309.10626 36.971874 309.575L36.971874 310.0125ZM40.315624 314.35626Q40.315624 313.59064 40.8 313.10626Q41.3 312.60626 42.065624 312.60626Q42.83125 312.60626 43.315624 313.10626Q43.815624 313.59064 43.815624 314.40314L43.815624 314.8094Q43.815624 315.575 43.33125 316.075Q42.846874 316.575 42.08125 316.575Q41.315624 316.575 40.815624 316.09064Q40.315624 315.59064 40.315624 314.77814L40.315624 314.35626ZM41.128124 314.8094Q41.128124 315.27814 41.378124 315.575Q41.64375 315.8719 42.08125 315.8719Q42.503124 315.8719 42.753124 315.59064Q43.003124 315.29376 43.003124 314.79376L43.003124 314.35626Q43.003124 313.8875 42.7375 313.60626Q42.4875 313.3094 42.065624 313.3094Q41.64375 313.3094 41.378124 313.60626Q41.128124 313.8875 41.128124 314.3875L41.128124 314.8094ZM38.175 315.8094L37.55 315.41876L41.721874 308.7469L42.33125 309.1375L38.175 315.8094Z" fill-rule="nonzero"/><path stroke="#757575" stroke-width="1.0" stroke-linecap="butt" d="M18.55 302.95L145.23334 302.95L231.91455 327.5303" fill-rule="nonzero"/><path fill="#9e9e9e" d="M233.91455 327.5303C233.91455 326.42572 233.01912 325.5303 231.91455 325.5303C230.80998 325.5303 229.91455 326.42572 229.91455 327.5303C229.91455 328.63486 230.80998 329.5303 231.91455 329.5303C233.01912 329.5303 233.91455 328.63486 233.91455 327.5303" fill-rule="nonzero"/><path fill="#1a1a1a" d="M20.659374 328.10626L20.659374 331.45L19.534374 331.45L19.534374 322.91876L22.690624 322.91876Q24.08125 322.91876 24.878124 323.6375Q25.675 324.34064 25.675 325.52814Q25.675 326.7625 24.89375 327.4344Q24.128124 328.10626 22.675 328.10626L20.659374 328.10626ZM20.659374 327.1844L22.690624 327.1844Q23.596874 327.1844 24.065624 326.7625Q24.55 326.34064 24.55 325.54376Q24.55 324.77814 24.065624 324.325Q23.596874 323.85626 22.753124 323.84064L20.659374 323.84064L20.659374 327.1844ZM28.55 331.45L27.471874 331.45L27.471874 325.10626L28.55 325.10626L28.55 331.45ZM27.378124 323.4344Q27.378124 323.16876 27.534374 322.98126Q27.70625 322.79376 28.01875 322.79376Q28.33125 322.79376 28.4875 322.98126Q28.659374 323.16876 28.659374 323.4344Q28.659374 323.6844 28.4875 323.8719Q28.33125 324.04376 28.01875 324.04376Q27.70625 324.04376 27.534374 323.8719Q27.378124 323.6844 27.378124 323.4344ZM31.39375 325.10626L31.425 325.90314Q32.159374 324.9969 33.33125 324.9969Q35.346874 324.9969 35.3625 327.2625L35.3625 331.45L34.26875 331.45L34.26875 327.2469Q34.26875 326.575 33.95625 326.2469Q33.659374 325.91876 33.003124 325.91876Q32.471874 325.91876 32.065624 326.2Q31.675 326.48126 31.45625 326.9344L31.45625 331.45L30.378124 331.45L30.378124 325.10626L31.39375 325.10626ZM39.14375 328.5125L38.45625 329.21564L38.45625 331.45L37.378124 331.45L37.378124 322.45L38.45625 322.45L38.45625 327.8875L39.034374 327.2L41.01875 325.10626L42.33125 325.10626L39.8625 327.7625L42.628124 331.45L41.346874 331.45L39.14375 328.5125Z" fill-rule="nonzero"/><path fill="#9e9e9e" d="M23.83125 346.59064L25.01875 346.59064L25.01875 347.46564L23.83125 347.46564L23.83125 349.45L22.753124 349.45L22.753124 347.46564L18.8625 347.46564L18.8625 346.825L22.675 340.91876L23.83125 340.91876L23.83125 346.59064ZM20.096874 346.59064L22.753124 346.59064L22.753124 342.40314L22.6125 342.6375L20.096874 346.59064ZM26.39375 348.8875Q26.39375 348.60626 26.55 348.41876Q26.721874 348.23126 27.05 348.23126Q27.39375 348.23126 27.565624 348.41876Q27.7375 348.60626 27.7375 348.8875Q27.7375 349.15314 27.565624 349.34064Q27.39375 349.5125 27.05 349.5125Q26.721874 349.5125 26.55 349.34064Q26.39375 349.15314 26.39375 348.8875ZM34.6125 345.8094Q34.6125 347.71564 33.95625 348.65314Q33.315624 349.575 31.925 349.575Q30.565624 349.575 29.909374 348.66876Q29.253124 347.7625 29.221874 345.95L29.221874 344.5125Q29.221874 342.6219 29.8625 341.71564Q30.51875 340.79376 31.909374 340.79376Q33.284374 340.79376 33.940624 341.6844Q34.596874 342.5594 34.6125 344.40314L34.6125 345.8094ZM33.51875 344.325Q33.51875 342.95 33.128124 342.325Q32.753124 341.6844 31.909374 341.6844Q31.08125 341.6844 30.690624 342.325Q30.315624 342.95 30.315624 344.2469L30.315624 345.98126Q30.315624 347.35626 30.70625 348.02814Q31.1125 348.6844 31.925 348.6844Q32.721874 348.6844 33.1125 348.0594Q33.503124 347.4344 33.51875 346.10626L33.51875 344.325ZM36.159374 342.5594Q36.159374 341.79376 36.64375 341.29376Q37.14375 340.79376 37.909374 340.79376Q38.690624 340.79376 39.175 341.29376Q39.659374 341.79376 39.659374 342.59064L39.659374 343.0125Q39.659374 343.77814 39.159374 344.27814Q38.675 344.7625 37.925 344.7625Q37.159374 344.7625 36.659374 344.27814Q36.159374 343.77814 36.159374 342.96564L36.159374 342.5594ZM36.971874 343.0125Q36.971874 343.46564 37.221874 343.7625Q37.4875 344.0594 37.925 344.0594Q38.346874 344.0594 38.596874 343.77814Q38.846874 343.48126 38.846874 342.98126L38.846874 342.5594Q38.846874 342.10626 38.596874 341.8094Q38.346874 341.4969 37.909374 341.4969Q37.471874 341.4969 37.221874 341.8094Q36.971874 342.10626 36.971874 342.575L36.971874 343.0125ZM40.315624 347.35626Q40.315624 346.59064 40.8 346.10626Q41.3 345.60626 42.065624 345.60626Q42.83125 345.60626 43.315624 346.10626Q43.815624 346.59064 43.815624 347.40314L43.815624 347.8094Q43.815624 348.575 43.33125 349.075Q42.846874 349.575 42.08125 349.575Q41.315624 349.575 40.815624 349.09064Q40.315624 348.59064 40.315624 347.77814L40.315624 347.35626ZM41.128124 347.8094Q41.128124 348.27814 41.378124 348.575Q41.64375 348.8719 42.08125 348.8719Q42.503124 348.8719 42.753124 348.59064Q43.003124 348.29376 43.003124 347.79376L43.003124 347.35626Q43.003124 346.8875 42.7375 346.60626Q42.4875 346.3094 42.065624 346.3094Q41.64375 346.3094 41.378124 346.60626Q41.128124 346.8875 41.128124 347.3875L41.128124 347.8094ZM38.175 348.8094L37.55 348.41876L41.721874 341.7469L42.33125 342.1375L38.175 348.8094Z" fill-rule="nonzero"/><path stroke="#757575" stroke-width="1.0" stroke-linecap="butt" d="M18.55 335.95L145.23334 335.95L264.85306 340.57156" fill-rule="nonzero"/><path fill="#9e9e9e" d="M266.85306 340.57156C266.85306 339.467 265.95764 338.57156 264.85306 338.57156C263.7485 338.57156 262.85306 339.467 262.85306 340.57156C262.85306 341.67615 263.7485 342.57156 264.85306 342.57156C265.95764 342.57156 266.85306 341.67615 266.85306 340.57156" fill-rule="nonzero"/><path fill="#1a1a1a" d="M565.575 64.32645L563.5594 64.32645L563.5594 67.77957L562.4344 67.77957L562.4344 59.24832L565.2625 59.24832Q566.7 59.24832 567.46564 59.90457Q568.2469 60.56082 568.2469 61.81082Q568.2469 62.607697 567.8094 63.201447Q567.3875 63.795197 566.6219 64.09207L568.6219 67.70145L568.6219 67.77957L567.41876 67.77957L565.575 64.32645ZM563.5594 63.40457L565.29376 63.40457Q566.1375 63.40457 566.6219 62.982697Q567.1219 62.545197 567.1219 61.81082Q567.1219 61.02957 566.65314 60.607697Q566.1844 60.18582 565.29376 60.170197L563.5594 60.170197L563.5594 63.40457ZM571.90314 67.90457Q570.60626 67.90457 569.79376 67.06082Q568.9969 66.20145 568.9969 64.77957L568.9969 64.59207Q568.9969 63.638947 569.35626 62.90457Q569.71564 62.15457 570.35626 61.74832Q571.0125 61.326447 571.7625 61.326447Q572.9969 61.326447 573.6844 62.138947Q574.3719 62.951447 574.3719 64.46707L574.3719 64.9202L570.075 64.9202Q570.10626 65.8577 570.6219 66.43582Q571.15314 67.01395 571.96564 67.01395Q572.52814 67.01395 572.91876 66.77957Q573.325 66.5452 573.6375 66.15457L574.29376 66.6702Q573.4969 67.90457 571.90314 67.90457ZM571.7625 62.21707Q571.10626 62.21707 570.65314 62.701447Q570.21564 63.170197 570.1219 64.02957L573.29376 64.02957L573.29376 63.951447Q573.2469 63.12332 572.84064 62.670197Q572.45 62.21707 571.7625 62.21707ZM575.0125 64.56082Q575.0125 63.09207 575.7 62.21707Q576.3875 61.326447 577.5125 61.326447Q578.6219 61.326447 579.27814 62.076447L579.27814 58.77957L580.35626 58.77957L580.35626 67.77957L579.35626 67.77957L579.3094 67.09207Q578.65314 67.90457 577.4969 67.90457Q576.40314 67.90457 575.7 66.99832Q575.0125 66.09207 575.0125 64.63895L575.0125 64.56082ZM576.09064 64.68582Q576.09064 65.76395 576.52814 66.37332Q576.98126 66.9827 577.7625 66.9827Q578.79376 66.9827 579.27814 66.0452L579.27814 63.138947Q578.79376 62.24832 577.77814 62.24832Q576.98126 62.24832 576.52814 62.857697Q576.09064 63.46707 576.09064 64.68582Z" fill-rule="nonzero"/><path fill="#9e9e9e" d="M552.71564 85.77957L551.6375 85.77957L551.6375 78.56082L549.45 79.3577L549.45 78.37332L552.5594 77.20145L552.71564 77.20145L552.71564 85.77957ZM561.7469 85.77957L556.15314 85.77957L556.15314 84.99832L559.10626 81.71707Q559.7625 80.96707 560.0125 80.51395Q560.2625 80.0452 560.2625 79.5452Q560.2625 78.87332 559.85626 78.45145Q559.46564 78.01395 558.77814 78.01395Q557.98126 78.01395 557.52814 78.4827Q557.075 78.93582 557.075 79.76395L555.9969 79.76395Q555.9969 78.57645 556.7469 77.8577Q557.5125 77.12332 558.77814 77.12332Q559.98126 77.12332 560.66876 77.74832Q561.35626 78.37332 561.35626 79.4202Q561.35626 80.6702 559.7469 82.4202L557.46564 84.88895L561.7469 84.88895L561.7469 85.77957ZM563.29376 85.21707Q563.29376 84.93582 563.45 84.74832Q563.6219 84.56082 563.95 84.56082Q564.29376 84.56082 564.46564 84.74832Q564.6375 84.93582 564.6375 85.21707Q564.6375 85.4827 564.46564 85.6702Q564.29376 85.84207 563.95 85.84207Q563.6219 85.84207 563.45 85.6702Q563.29376 85.4827 563.29376 85.21707ZM571.5125 82.13895Q571.5125 84.0452 570.85626 84.9827Q570.21564 85.90457 568.825 85.90457Q567.46564 85.90457 566.8094 84.99832Q566.15314 84.09207 566.1219 82.27957L566.1219 80.84207Q566.1219 78.95145 566.7625 78.0452Q567.41876 77.12332 568.8094 77.12332Q570.1844 77.12332 570.84064 78.01395Q571.4969 78.88895 571.5125 80.7327L571.5125 82.13895ZM570.41876 80.65457Q570.41876 79.27957 570.02814 78.65457Q569.65314 78.01395 568.8094 78.01395Q567.98126 78.01395 567.59064 78.65457Q567.21564 79.27957 567.21564 80.57645L567.21564 82.31082Q567.21564 83.68582 567.60626 84.3577Q568.0125 85.01395 568.825 85.01395Q569.6219 85.01395 570.0125 84.38895Q570.40314 83.76395 570.41876 82.43582L570.41876 80.65457ZM573.0594 78.88895Q573.0594 78.12332 573.54376 77.62332Q574.04376 77.12332 574.8094 77.12332Q575.59064 77.12332 576.075 77.62332Q576.5594 78.12332 576.5594 78.9202L576.5594 79.34207Q576.5594 80.1077 576.0594 80.6077Q575.575 81.09207 574.825 81.09207Q574.0594 81.09207 573.5594 80.6077Q573.0594 80.1077 573.0594 79.2952L573.0594 78.88895ZM573.8719 79.34207Q573.8719 79.7952 574.1219 80.09207Q574.3875 80.38895 574.825 80.38895Q575.2469 80.38895 575.4969 80.1077Q575.7469 79.81082 575.7469 79.31082L575.7469 78.88895Q575.7469 78.43582 575.4969 78.13895Q575.2469 77.82645 574.8094 77.82645Q574.3719 77.82645 574.1219 78.13895Q573.8719 78.43582 573.8719 78.90457L573.8719 79.34207ZM577.21564 83.68582Q577.21564 82.9202 577.7 82.43582Q578.2 81.93582 578.96564 81.93582Q579.73126 81.93582 580.21564 82.43582Q580.71564 82.9202 580.71564 83.7327L580.71564 84.13895Q580.71564 84.90457 580.23126 85.40457Q579.7469 85.90457 578.98126 85.90457Q578.21564 85.90457 577.71564 85.4202Q577.21564 84.9202 577.21564 84.1077L577.21564 83.68582ZM578.02814 84.13895Q578.02814 84.6077 578.27814 84.90457Q578.54376 85.20145 578.98126 85.20145Q579.40314 85.20145 579.65314 84.9202Q579.90314 84.62332 579.90314 84.12332L579.90314 83.68582Q579.90314 83.21707 579.6375 82.93582Q579.3875 82.63895 578.96564 82.63895Q578.54376 82.63895 578.27814 82.93582Q578.02814 83.21707 578.02814 83.71707L578.02814 84.13895ZM575.075 85.13895L574.45 84.74832L578.6219 78.07645L579.23126 78.46707L575.075 85.13895Z" fill-rule="nonzero"/><path stroke="#757575" stroke-width="1.0" stroke-linecap="butt" d="M581.45 72.27957L454.76666 72.27957L352.02643 72.27957" fill-rule="nonzero"/><path fill="#9e9e9e" d="M354.02643 72.27957C354.02643 71.175 353.131 70.27957 352.02643 70.27957C350.92188 70.27957 350.02643 71.175 350.02643 72.27957C350.02643 73.38414 350.92188 74.27957 352.02643 74.27957C353.131 74.27957 354.02643 73.38414 354.02643 72.27957" fill-rule="nonzero"/><path fill="#1a1a1a" d="M549.9969 135.02428Q549.9969 136.27428 549.575 137.21178Q549.15314 138.13365 548.3719 138.63365Q547.60626 139.13365 546.575 139.13365Q545.575 139.13365 544.79376 138.63365Q544.0125 138.13365 543.575 137.2274Q543.15314 136.30553 543.1375 135.08678L543.1375 134.4774Q543.1375 133.24303 543.5594 132.30553Q543.9969 131.36803 544.77814 130.86803Q545.5594 130.3524 546.575 130.3524Q547.59064 130.3524 548.3719 130.8524Q549.15314 131.3524 549.575 132.2899Q549.9969 133.2274 549.9969 134.4774L549.9969 135.02428ZM548.8875 134.46178Q548.8875 132.94615 548.27814 132.13365Q547.66876 131.32115 546.575 131.32115Q545.4969 131.32115 544.8875 132.13365Q544.27814 132.94615 544.2625 134.38365L544.2625 135.02428Q544.2625 136.49303 544.8719 137.33678Q545.4969 138.1649 546.575 138.1649Q547.66876 138.1649 548.2625 137.38365Q548.8719 136.58678 548.8875 135.1024L548.8875 134.46178ZM554.34064 133.63365Q554.09064 133.6024 553.8094 133.6024Q552.73126 133.6024 552.35626 134.50865L552.35626 139.00865L551.27814 139.00865L551.27814 132.6649L552.325 132.6649L552.34064 133.39928Q552.8719 132.55553 553.85626 132.55553Q554.16876 132.55553 554.34064 132.63365L554.34064 133.63365ZM559.1844 139.00865Q559.09064 138.82115 559.02814 138.33678Q558.27814 139.13365 557.23126 139.13365Q556.29376 139.13365 555.6844 138.6024Q555.09064 138.07115 555.09064 137.24303Q555.09064 136.25865 555.84064 135.71178Q556.59064 135.1649 557.96564 135.1649L559.0125 135.1649L559.0125 134.6649Q559.0125 134.1024 558.66876 133.77428Q558.34064 133.43053 557.66876 133.43053Q557.09064 133.43053 556.7 133.7274Q556.3094 134.00865 556.3094 134.43053L555.21564 134.43053Q555.21564 133.94615 555.54376 133.50865Q555.8875 133.07115 556.46564 132.82115Q557.04376 132.55553 557.73126 132.55553Q558.84064 132.55553 559.45 133.1024Q560.075 133.64928 560.10626 134.6024L560.10626 137.52428Q560.10626 138.39928 560.325 138.9149L560.325 139.00865L559.1844 139.00865ZM557.3875 138.18053Q557.90314 138.18053 558.35626 137.9149Q558.8094 137.64928 559.0125 137.2274L559.0125 135.93053L558.16876 135.93053Q556.16876 135.93053 556.16876 137.1024Q556.16876 137.6024 556.5125 137.89928Q556.85626 138.18053 557.3875 138.18053ZM563.29376 132.6649L563.325 133.46178Q564.0594 132.55553 565.23126 132.55553Q567.2469 132.55553 567.2625 134.82115L567.2625 139.00865L566.16876 139.00865L566.16876 134.80553Q566.16876 134.13365 565.85626 133.80553Q565.5594 133.4774 564.90314 133.4774Q564.3719 133.4774 563.96564 133.75865Q563.575 134.0399 563.35626 134.49303L563.35626 139.00865L562.27814 139.00865L562.27814 132.6649L563.29376 132.6649ZM569.0125 135.7899Q569.0125 134.30553 569.7 133.43053Q570.3875 132.55553 571.5125 132.55553Q572.66876 132.55553 573.325 133.36803L573.3719 132.6649L574.3719 132.6649L574.3719 138.8524Q574.3719 140.08678 573.6375 140.7899Q572.90314 141.50865 571.6844 141.50865Q570.9969 141.50865 570.34064 141.21178Q569.6844 140.9149 569.34064 140.4149L569.90314 139.75865Q570.59064 140.61803 571.60626 140.61803Q572.3875 140.61803 572.825 140.1649Q573.27814 139.7274 573.27814 138.9149L573.27814 138.36803Q572.6219 139.13365 571.4969 139.13365Q570.3875 139.13365 569.7 138.24303Q569.0125 137.33678 569.0125 135.7899ZM570.10626 135.9149Q570.10626 136.9774 570.54376 137.6024Q570.98126 138.21178 571.77814 138.21178Q572.79376 138.21178 573.27814 137.27428L573.27814 134.38365Q572.77814 133.4774 571.77814 133.4774Q570.9969 133.4774 570.54376 134.08678Q570.10626 134.69615 570.10626 135.9149ZM578.90314 139.13365Q577.60626 139.13365 576.79376 138.2899Q575.9969 137.43053 575.9969 136.00865L575.9969 135.82115Q575.9969 134.86803 576.35626 134.13365Q576.71564 133.38365 577.35626 132.9774Q578.0125 132.55553 578.7625 132.55553Q579.9969 132.55553 580.6844 133.36803Q581.3719 134.18053 581.3719 135.69615L581.3719 136.14928L577.075 136.14928Q577.10626 137.08678 577.6219 137.6649Q578.15314 138.24303 578.96564 138.24303Q579.52814 138.24303 579.91876 138.00865Q580.325 137.77428 580.6375 137.38365L581.29376 137.89928Q580.4969 139.13365 578.90314 139.13365ZM578.7625 133.44615Q578.10626 133.44615 577.65314 133.93053Q577.21564 134.39928 577.1219 135.25865L580.29376 135.25865L580.29376 135.18053Q580.2469 134.3524 579.84064 133.89928Q579.45 133.44615 578.7625 133.44615Z" fill-rule="nonzero"/><path fill="#9e9e9e" d="M552.71564 157.00865L551.6375 157.00865L551.6375 149.7899L549.45 150.58678L549.45 149.6024L552.5594 148.43053L552.71564 148.43053L552.71564 157.00865ZM561.7469 157.00865L556.15314 157.00865L556.15314 156.2274L559.10626 152.94615Q559.7625 152.19615 560.0125 151.74303Q560.2625 151.27428 560.2625 150.77428Q560.2625 150.1024 559.85626 149.68053Q559.46564 149.24303 558.77814 149.24303Q557.98126 149.24303 557.52814 149.71178Q557.075 150.1649 557.075 150.99303L555.9969 150.99303Q555.9969 149.80553 556.7469 149.08678Q557.5125 148.3524 558.77814 148.3524Q559.98126 148.3524 560.66876 148.9774Q561.35626 149.6024 561.35626 150.64928Q561.35626 151.89928 559.7469 153.64928L557.46564 156.11803L561.7469 156.11803L561.7469 157.00865ZM563.29376 156.44615Q563.29376 156.1649 563.45 155.9774Q563.6219 155.7899 563.95 155.7899Q564.29376 155.7899 564.46564 155.9774Q564.6375 156.1649 564.6375 156.44615Q564.6375 156.71178 564.46564 156.89928Q564.29376 157.07115 563.95 157.07115Q563.6219 157.07115 563.45 156.89928Q563.29376 156.71178 563.29376 156.44615ZM571.5125 153.36803Q571.5125 155.27428 570.85626 156.21178Q570.21564 157.13365 568.825 157.13365Q567.46564 157.13365 566.8094 156.2274Q566.15314 155.32115 566.1219 153.50865L566.1219 152.07115Q566.1219 150.18053 566.7625 149.27428Q567.41876 148.3524 568.8094 148.3524Q570.1844 148.3524 570.84064 149.24303Q571.4969 150.11803 571.5125 151.96178L571.5125 153.36803ZM570.41876 151.88365Q570.41876 150.50865 570.02814 149.88365Q569.65314 149.24303 568.8094 149.24303Q567.98126 149.24303 567.59064 149.88365Q567.21564 150.50865 567.21564 151.80553L567.21564 153.5399Q567.21564 154.9149 567.60626 155.58678Q568.0125 156.24303 568.825 156.24303Q569.6219 156.24303 570.0125 155.61803Q570.40314 154.99303 570.41876 153.6649L570.41876 151.88365ZM573.0594 150.11803Q573.0594 149.3524 573.54376 148.8524Q574.04376 148.3524 574.8094 148.3524Q575.59064 148.3524 576.075 148.8524Q576.5594 149.3524 576.5594 150.14928L576.5594 150.57115Q576.5594 151.33678 576.0594 151.83678Q575.575 152.32115 574.825 152.32115Q574.0594 152.32115 573.5594 151.83678Q573.0594 151.33678 573.0594 150.52428L573.0594 150.11803ZM573.8719 150.57115Q573.8719 151.02428 574.1219 151.32115Q574.3875 151.61803 574.825 151.61803Q575.2469 151.61803 575.4969 151.33678Q575.7469 151.0399 575.7469 150.5399L575.7469 150.11803Q575.7469 149.6649 575.4969 149.36803Q575.2469 149.05553 574.8094 149.05553Q574.3719 149.05553 574.1219 149.36803Q573.8719 149.6649 573.8719 150.13365L573.8719 150.57115ZM577.21564 154.9149Q577.21564 154.14928 577.7 153.6649Q578.2 153.1649 578.96564 153.1649Q579.73126 153.1649 580.21564 153.6649Q580.71564 154.14928 580.71564 154.96178L580.71564 155.36803Q580.71564 156.13365 580.23126 156.63365Q579.7469 157.13365 578.98126 157.13365Q578.21564 157.13365 577.71564 156.64928Q577.21564 156.14928 577.21564 155.33678L577.21564 154.9149ZM578.02814 155.36803Q578.02814 155.83678 578.27814 156.13365Q578.54376 156.43053 578.98126 156.43053Q579.40314 156.43053 579.65314 156.14928Q579.90314 155.8524 579.90314 155.3524L579.90314 154.9149Q579.90314 154.44615 579.6375 154.1649Q579.3875 153.86803 578.96564 153.86803Q578.54376 153.86803 578.27814 154.1649Q578.02814 154.44615 578.02814 154.94615L578.02814 155.36803ZM575.075 156.36803L574.45 155.9774L578.6219 149.30553L579.23126 149.69615L575.075 156.36803Z" fill-rule="nonzero"/><path stroke="#757575" stroke-width="1.0" stroke-linecap="butt" d="M581.45 143.50865L454.76666 143.50865L427.8777 143.50865" fill-rule="nonzero"/><path fill="#9e9e9e" d="M429.8777 143.50865C429.8777 142.40408 428.98227 141.50865 427.8777 141.50865C426.77313 141.50865 425.8777 142.40408 425.8777 143.50865C425.8777 144.61322 426.77313 145.50865 427.8777 145.50865C428.98227 145.50865 429.8777 144.61322 429.8777 143.50865" fill-rule="nonzero"/><path fill="#1a1a1a" d="M550.04376 221.41562L552.2625 217.13437L553.54376 217.13437L550.60626 222.47812L550.60626 225.66562L549.48126 225.66562L549.48126 222.47812L546.54376 217.13437L547.825 217.13437L550.04376 221.41562ZM556.90314 225.79062Q555.60626 225.79062 554.79376 224.94687Q553.9969 224.0875 553.9969 222.66562L553.9969 222.47812Q553.9969 221.525 554.35626 220.79062Q554.71564 220.04062 555.35626 219.63437Q556.0125 219.2125 556.7625 219.2125Q557.9969 219.2125 558.6844 220.025Q559.3719 220.8375 559.3719 222.35312L559.3719 222.80624L555.075 222.80624Q555.10626 223.74374 555.6219 224.32187Q556.15314 224.9 556.96564 224.9Q557.52814 224.9 557.91876 224.66562Q558.325 224.43124 558.6375 224.04062L559.29376 224.55624Q558.4969 225.79062 556.90314 225.79062ZM556.7625 220.10312Q556.10626 220.10312 555.65314 220.5875Q555.21564 221.05624 555.1219 221.91562L558.29376 221.91562L558.29376 221.8375Q558.2469 221.00937 557.84064 220.55624Q557.45 220.10312 556.7625 220.10312ZM561.45 225.66562L560.3719 225.66562L560.3719 216.66562L561.45 216.66562L561.45 225.66562ZM564.45 225.66562L563.3719 225.66562L563.3719 216.66562L564.45 216.66562L564.45 225.66562ZM565.98126 222.43124Q565.98126 221.50937 566.34064 220.75937Q566.71564 220.00937 567.3719 219.61874Q568.02814 219.2125 568.85626 219.2125Q570.15314 219.2125 570.95 220.10312Q571.7625 220.99374 571.7625 222.49374L571.7625 222.57187Q571.7625 223.49374 571.40314 224.22812Q571.04376 224.9625 570.3875 225.38437Q569.73126 225.79062 568.8719 225.79062Q567.59064 225.79062 566.77814 224.9Q565.98126 223.99374 565.98126 222.50937L565.98126 222.43124ZM567.075 222.57187Q567.075 223.61874 567.5594 224.25937Q568.0594 224.9 568.8719 224.9Q569.7 224.9 570.1844 224.25937Q570.66876 223.60312 570.66876 222.43124Q570.66876 221.4 570.16876 220.75937Q569.6844 220.10312 568.85626 220.10312Q568.0594 220.10312 567.5594 220.74374Q567.075 221.36874 567.075 222.57187ZM578.8875 224.16562L580.10626 219.32187L581.1844 219.32187L579.34064 225.66562L578.46564 225.66562L576.91876 220.85312L575.41876 225.66562L574.54376 225.66562L572.7 219.32187L573.77814 219.32187L575.02814 224.07187L576.5125 219.32187L577.3719 219.32187L578.8875 224.16562Z" fill-rule="nonzero"/><path fill="#9e9e9e" d="M561.34064 237.35312Q561.34064 237.99374 560.9969 238.49374Q560.65314 238.99374 560.09064 239.275Q560.7469 239.55624 561.1375 240.11874Q561.52814 240.66562 561.52814 241.36874Q561.52814 242.4625 560.77814 243.13437Q560.04376 243.79062 558.825 243.79062Q557.59064 243.79062 556.84064 243.13437Q556.10626 242.4625 556.10626 241.36874Q556.10626 240.66562 556.48126 240.11874Q556.85626 239.55624 557.52814 239.275Q556.96564 238.99374 556.6375 238.49374Q556.3094 237.99374 556.3094 237.35312Q556.3094 236.275 556.9969 235.65Q557.6844 235.00937 558.825 235.00937Q559.95 235.00937 560.6375 235.65Q561.34064 236.275 561.34064 237.35312ZM560.45 241.3375Q560.45 240.61874 559.9969 240.18124Q559.54376 239.72812 558.8094 239.72812Q558.075 239.72812 557.6219 240.18124Q557.1844 240.61874 557.1844 241.35312Q557.1844 242.07187 557.6219 242.49374Q558.0594 242.9 558.825 242.9Q559.575 242.9 560.0125 242.47812Q560.45 242.05624 560.45 241.3375ZM558.825 235.9Q558.1844 235.9 557.77814 236.30624Q557.3875 236.69687 557.3875 237.38437Q557.3875 238.025 557.77814 238.43124Q558.16876 238.8375 558.8094 238.8375Q559.46564 238.8375 559.85626 238.43124Q560.2469 238.025 560.2469 237.38437Q560.2469 236.72812 559.84064 236.32187Q559.4344 235.9 558.825 235.9ZM563.29376 243.10312Q563.29376 242.82187 563.45 242.63437Q563.6219 242.44687 563.95 242.44687Q564.29376 242.44687 564.46564 242.63437Q564.6375 242.82187 564.6375 243.10312Q564.6375 243.36874 564.46564 243.55624Q564.29376 243.72812 563.95 243.72812Q563.6219 243.72812 563.45 243.55624Q563.29376 243.36874 563.29376 243.10312ZM571.5125 240.025Q571.5125 241.93124 570.85626 242.86874Q570.21564 243.79062 568.825 243.79062Q567.46564 243.79062 566.8094 242.88437Q566.15314 241.97812 566.1219 240.16562L566.1219 238.72812Q566.1219 236.8375 566.7625 235.93124Q567.41876 235.00937 568.8094 235.00937Q570.1844 235.00937 570.84064 235.9Q571.4969 236.775 571.5125 238.61874L571.5125 240.025ZM570.41876 238.54062Q570.41876 237.16562 570.02814 236.54062Q569.65314 235.9 568.8094 235.9Q567.98126 235.9 567.59064 236.54062Q567.21564 237.16562 567.21564 238.4625L567.21564 240.19687Q567.21564 241.57187 567.60626 242.24374Q568.0125 242.9 568.825 242.9Q569.6219 242.9 570.0125 242.275Q570.40314 241.65 570.41876 240.32187L570.41876 238.54062ZM573.0594 236.775Q573.0594 236.00937 573.54376 235.50937Q574.04376 235.00937 574.8094 235.00937Q575.59064 235.00937 576.075 235.50937Q576.5594 236.00937 576.5594 236.80624L576.5594 237.22812Q576.5594 237.99374 576.0594 238.49374Q575.575 238.97812 574.825 238.97812Q574.0594 238.97812 573.5594 238.49374Q573.0594 237.99374 573.0594 237.18124L573.0594 236.775ZM573.8719 237.22812Q573.8719 237.68124 574.1219 237.97812Q574.3875 238.275 574.825 238.275Q575.2469 238.275 575.4969 237.99374Q575.7469 237.69687 575.7469 237.19687L575.7469 236.775Q575.7469 236.32187 575.4969 236.025Q575.2469 235.7125 574.8094 235.7125Q574.3719 235.7125 574.1219 236.025Q573.8719 236.32187 573.8719 236.79062L573.8719 237.22812ZM577.21564 241.57187Q577.21564 240.80624 577.7 240.32187Q578.2 239.82187 578.96564 239.82187Q579.73126 239.82187 580.21564 240.32187Q580.71564 240.80624 580.71564 241.61874L580.71564 242.025Q580.71564 242.79062 580.23126 243.29062Q579.7469 243.79062 578.98126 243.79062Q578.21564 243.79062 577.71564 243.30624Q577.21564 242.80624 577.21564 241.99374L577.21564 241.57187ZM578.02814 242.025Q578.02814 242.49374 578.27814 242.79062Q578.54376 243.0875 578.98126 243.0875Q579.40314 243.0875 579.65314 242.80624Q579.90314 242.50937 579.90314 242.00937L579.90314 241.57187Q579.90314 241.10312 579.6375 240.82187Q579.3875 240.525 578.96564 240.525Q578.54376 240.525 578.27814 240.82187Q578.02814 241.10312 578.02814 241.60312L578.02814 242.025ZM575.075 243.025L574.45 242.63437L578.6219 235.9625L579.23126 236.35312L575.075 243.025Z" fill-rule="nonzero"/><path stroke="#757575" stroke-width="1.0" stroke-linecap="butt" d="M581.45 230.16562L454.76666 230.16562L438.825 230.16562" fill-rule="nonzero"/><path fill="#9e9e9e" d="M440.825 230.16562C440.825 229.06105 439.9296 228.16562 438.825 228.16562C437.72046 228.16562 436.825 229.06105 436.825 230.16562C436.825 231.27019 437.72046 232.16562 438.825 232.16562C439.9296 232.16562 440.825 231.27019 440.825 230.16562" fill-rule="nonzero"/><path fill="#1a1a1a" d="M548.5594 319.68655L548.5594 323.0303L547.4344 323.0303L547.4344 314.49905L550.59064 314.49905Q551.98126 314.49905 552.77814 315.2178Q553.575 315.92093 553.575 317.10843Q553.575 318.3428 552.79376 319.01468Q552.02814 319.68655 550.575 319.68655L548.5594 319.68655ZM548.5594 318.76468L550.59064 318.76468Q551.4969 318.76468 551.96564 318.3428Q552.45 317.92093 552.45 317.12405Q552.45 316.35843 551.96564 315.9053Q551.4969 315.43655 550.65314 315.42093L548.5594 315.42093L548.5594 318.76468ZM559.1844 322.4053Q558.5594 323.1553 557.325 323.1553Q556.3094 323.1553 555.77814 322.56155Q555.2469 321.9678 555.2469 320.81155L555.2469 316.68655L556.325 316.68655L556.325 320.7803Q556.325 322.23343 557.4969 322.23343Q558.7469 322.23343 559.15314 321.29593L559.15314 316.68655L560.2469 316.68655L560.2469 323.0303L559.21564 323.0303L559.1844 322.4053ZM565.34064 317.6553Q565.09064 317.62405 564.8094 317.62405Q563.73126 317.62405 563.35626 318.5303L563.35626 323.0303L562.27814 323.0303L562.27814 316.68655L563.325 316.68655L563.34064 317.42093Q563.8719 316.57718 564.85626 316.57718Q565.16876 316.57718 565.34064 316.6553L565.34064 317.6553ZM571.6219 319.93655Q571.6219 321.37405 570.96564 322.26468Q570.3094 323.1553 569.16876 323.1553Q568.0125 323.1553 567.35626 322.42093L567.35626 325.4678L566.27814 325.4678L566.27814 316.68655L567.2625 316.68655L567.3094 317.38968Q567.98126 316.57718 569.15314 316.57718Q570.29376 316.57718 570.95 317.43655Q571.6219 318.29593 571.6219 319.82718L571.6219 319.93655ZM570.54376 319.81155Q570.54376 318.73343 570.075 318.12405Q569.6219 317.49905 568.825 317.49905Q567.84064 317.49905 567.35626 318.35843L567.35626 321.38968Q567.84064 322.26468 568.84064 322.26468Q569.6219 322.26468 570.075 321.6553Q570.54376 321.0303 570.54376 319.81155ZM574.45 323.0303L573.3719 323.0303L573.3719 314.0303L574.45 314.0303L574.45 323.0303ZM578.90314 323.1553Q577.60626 323.1553 576.79376 322.31155Q575.9969 321.45218 575.9969 320.0303L575.9969 319.8428Q575.9969 318.88968 576.35626 318.1553Q576.71564 317.4053 577.35626 316.99905Q578.0125 316.57718 578.7625 316.57718Q579.9969 316.57718 580.6844 317.38968Q581.3719 318.20218 581.3719 319.7178L581.3719 320.17093L577.075 320.17093Q577.10626 321.10843 577.6219 321.68655Q578.15314 322.26468 578.96564 322.26468Q579.52814 322.26468 579.91876 322.0303Q580.325 321.79593 580.6375 321.4053L581.29376 321.92093Q580.4969 323.1553 578.90314 323.1553ZM578.7625 317.4678Q578.10626 317.4678 577.65314 317.95218Q577.21564 318.42093 577.1219 319.2803L580.29376 319.2803L580.29376 319.20218Q580.2469 318.37405 579.84064 317.92093Q579.45 317.4678 578.7625 317.4678Z" fill-rule="nonzero"/><path fill="#9e9e9e" d="M554.7469 341.0303L549.15314 341.0303L549.15314 340.24905L552.10626 336.9678Q552.7625 336.2178 553.0125 335.76468Q553.2625 335.29593 553.2625 334.79593Q553.2625 334.12405 552.85626 333.70218Q552.46564 333.26468 551.77814 333.26468Q550.98126 333.26468 550.52814 333.73343Q550.075 334.18655 550.075 335.01468L548.9969 335.01468Q548.9969 333.82718 549.7469 333.10843Q550.5125 332.37405 551.77814 332.37405Q552.98126 332.37405 553.66876 332.99905Q554.35626 333.62405 554.35626 334.67093Q554.35626 335.92093 552.7469 337.67093L550.46564 340.13968L554.7469 340.13968L554.7469 341.0303ZM561.5125 337.38968Q561.5125 339.29593 560.85626 340.23343Q560.21564 341.1553 558.825 341.1553Q557.46564 341.1553 556.8094 340.24905Q556.15314 339.3428 556.1219 337.5303L556.1219 336.0928Q556.1219 334.20218 556.7625 333.29593Q557.41876 332.37405 558.8094 332.37405Q560.1844 332.37405 560.84064 333.26468Q561.4969 334.13968 561.5125 335.98343L561.5125 337.38968ZM560.41876 335.9053Q560.41876 334.5303 560.02814 333.9053Q559.65314 333.26468 558.8094 333.26468Q557.98126 333.26468 557.59064 333.9053Q557.21564 334.5303 557.21564 335.82718L557.21564 337.56155Q557.21564 338.93655 557.60626 339.60843Q558.0125 340.26468 558.825 340.26468Q559.6219 340.26468 560.0125 339.63968Q560.40314 339.01468 560.41876 337.68655L560.41876 335.9053ZM563.29376 340.4678Q563.29376 340.18655 563.45 339.99905Q563.6219 339.81155 563.95 339.81155Q564.29376 339.81155 564.46564 339.99905Q564.6375 340.18655 564.6375 340.4678Q564.6375 340.73343 564.46564 340.92093Q564.29376 341.0928 563.95 341.0928Q563.6219 341.0928 563.45 340.92093Q563.29376 340.73343 563.29376 340.4678ZM571.5125 337.38968Q571.5125 339.29593 570.85626 340.23343Q570.21564 341.1553 568.825 341.1553Q567.46564 341.1553 566.8094 340.24905Q566.15314 339.3428 566.1219 337.5303L566.1219 336.0928Q566.1219 334.20218 566.7625 333.29593Q567.41876 332.37405 568.8094 332.37405Q570.1844 332.37405 570.84064 333.26468Q571.4969 334.13968 571.5125 335.98343L571.5125 337.38968ZM570.41876 335.9053Q570.41876 334.5303 570.02814 333.9053Q569.65314 333.26468 568.8094 333.26468Q567.98126 333.26468 567.59064 333.9053Q567.21564 334.5303 567.21564 335.82718L567.21564 337.56155Q567.21564 338.93655 567.60626 339.60843Q568.0125 340.26468 568.825 340.26468Q569.6219 340.26468 570.0125 339.63968Q570.40314 339.01468 570.41876 337.68655L570.41876 335.9053ZM573.0594 334.13968Q573.0594 333.37405 573.54376 332.87405Q574.04376 332.37405 574.8094 332.37405Q575.59064 332.37405 576.075 332.87405Q576.5594 333.37405 576.5594 334.17093L576.5594 334.5928Q576.5594 335.35843 576.0594 335.85843Q575.575 336.3428 574.825 336.3428Q574.0594 336.3428 573.5594 335.85843Q573.0594 335.35843 573.0594 334.54593L573.0594 334.13968ZM573.8719 334.5928Q573.8719 335.04593 574.1219 335.3428Q574.3875 335.63968 574.825 335.63968Q575.2469 335.63968 575.4969 335.35843Q575.7469 335.06155 575.7469 334.56155L575.7469 334.13968Q575.7469 333.68655 575.4969 333.38968Q575.2469 333.07718 574.8094 333.07718Q574.3719 333.07718 574.1219 333.38968Q573.8719 333.68655 573.8719 334.1553L573.8719 334.5928ZM577.21564 338.93655Q577.21564 338.17093 577.7 337.68655Q578.2 337.18655 578.96564 337.18655Q579.73126 337.18655 580.21564 337.68655Q580.71564 338.17093 580.71564 338.98343L580.71564 339.38968Q580.71564 340.1553 580.23126 340.6553Q579.7469 341.1553 578.98126 341.1553Q578.21564 341.1553 577.71564 340.67093Q577.21564 340.17093 577.21564 339.35843L577.21564 338.93655ZM578.02814 339.38968Q578.02814 339.85843 578.27814 340.1553Q578.54376 340.45218 578.98126 340.45218Q579.40314 340.45218 579.65314 340.17093Q579.90314 339.87405 579.90314 339.37405L579.90314 338.93655Q579.90314 338.4678 579.6375 338.18655Q579.3875 337.88968 578.96564 337.88968Q578.54376 337.88968 578.27814 338.18655Q578.02814 338.4678 578.02814 338.9678L578.02814 339.38968ZM575.075 340.38968L574.45 339.99905L578.6219 333.32718L579.23126 333.7178L575.075 340.38968Z" fill-rule="nonzero"/><path stroke="#757575" stroke-width="1.0" stroke-linecap="butt" d="M581.45 327.5303L454.76666 327.5303L368.08545 327.5303" fill-rule="nonzero"/><path fill="#9e9e9e" d="M370.08545 327.5303C370.08545 326.42572 369.19 325.5303 368.08545 325.5303C366.98087 325.5303 366.08545 326.42572 366.08545 327.5303C366.08545 328.63486 366.98087 329.5303 368.08545 329.5303C369.19 329.5303 370.08545 328.63486 370.08545 327.5303" fill-rule="nonzero"/><path fill="#757575" d="M27.846874 34.6125L22.70625 34.6125L21.7375 37.55L18.6125 37.55L23.909374 23.33125L26.628124 23.33125L31.95625 37.55L28.83125 37.55L27.846874 34.6125ZM23.503124 32.253124L27.05 32.253124L25.26875 26.925L23.503124 32.253124ZM38.565624 29.628124Q38.003124 29.55 37.55 29.55Q35.95625 29.55 35.45625 30.628124L35.45625 37.55L32.628124 37.55L32.628124 26.9875L35.3 26.9875L35.378124 28.2375Q36.221874 26.784374 37.7375 26.784374Q38.20625 26.784374 38.6125 26.909374L38.565624 29.628124ZM43.01875 24.378124L43.01875 26.9875L44.815624 26.9875L44.815624 29.05L43.01875 29.05L43.01875 34.33125Q43.01875 34.909374 43.2375 35.175Q43.45625 35.425 44.096874 35.425Q44.565624 35.425 44.925 35.346874L44.925 37.4875Q44.096874 37.753124 43.221874 37.753124Q40.253124 37.753124 40.190624 34.753124L40.190624 29.05L38.64375 29.05L38.64375 26.9875L40.190624 26.9875L40.190624 24.378124L43.01875 24.378124Z" fill-rule="nonzero"/></svg>