<svg version="1.1" viewBox="0.0 0.0 600.0 371.0" fill="none" stroke="none" stroke-linecap="square" stroke-miterlimit="10" width="600" height="371" xmlns:xlink="http://www.w3.org/1999/xlink" xmlns="http://www.w3.org/2000/svg"><path fill="#ffffff" d="M0 0L600.0 0L600.0 371.0L0 371.0L0 0Z" fill-rule="nonzero"/><path fill="#e69138" d="M300.0 54.916668C312.47946 54.916668 324.90936 56.486927 336.99677 59.590446L300.0 203.68333Z" fill-rule="nonzero"/><path fill="#f1c232" d="M336.99677 59.590446C373.64636 69.00046 405.33304 92.022194 425.60785 123.97017L300.0 203.68333Z" fill-rule="nonzero"/><path fill="#674ea7" d="M263.00323 59.590446C275.09064 56.486927 287.52054 54.916668 300.0 54.916668L300.0 203.68333Z" fill-rule="nonzero"/><path fill="#3c78d8" d="M198.16222 95.2371C216.4288 78.083626 238.73235 65.82215 263.00323 59.590446L300.0 203.68333Z" fill-rule="nonzero"/><path fill="#6aa84f" d="M425.60785 123.97017C467.68875 190.27905 450.9786 277.87665 387.44284 324.0381C323.9071 370.19952 235.4331 359.02267 185.3733 298.51077C135.31352 237.99889 140.91301 148.99768 198.16222 95.2371L300.0 203.68333Z" fill-rule="nonzero"/><path fill="#1a1a1a" d="M20.659374 63.572914L20.659374 66.916664L19.534374 66.916664L19.534374 58.385414L22.690624 58.385414Q24.08125 58.385414 24.878124 59.104164Q25.675 59.80729 25.675 60.99479Q25.675 62.229164 24.89375 62.90104Q24.128124 63.572914 22.675 63.572914L20.659374 63.572914ZM20.659374 62.65104L22.690624 62.65104Q23.596874 62.65104 24.065624 62.229164Q24.55 61.80729 24.55 61.010414Q24.55 60.24479 24.065624 59.791664Q23.596874 59.322914 22.753124 59.30729L20.659374 59.30729L20.659374 62.65104ZM31.284374 66.291664Q30.659374 67.041664 29.425 67.041664Q28.409374 67.041664 27.878124 66.447914Q27.346874 65.854164 27.346874 64.697914L27.346874 60.572914L28.425 60.572914L28.425 64.666664Q28.425 66.11979 29.596874 66.11979Q30.846874 66.11979 31.253124 65.18229L31.253124 60.572914L32.346874 60.572914L32.346874 66.916664L31.315624 66.916664L31.284374 66.291664ZM37.440624 61.541664Q37.190624 61.510414 36.909374 61.510414Q35.83125 61.510414 35.45625 62.416664L35.45625 66.916664L34.378124 66.916664L34.378124 60.572914L35.425 60.572914L35.440624 61.30729Q35.971874 60.46354 36.95625 60.46354Q37.26875 60.46354 37.440624 60.541664L37.440624 61.541664ZM43.721874 63.822914Q43.721874 65.260414 43.065624 66.15104Q42.409374 67.041664 41.26875 67.041664Q40.1125 67.041664 39.45625 66.30729L39.45625 69.354164L38.378124 69.354164L38.378124 60.572914L39.3625 60.572914L39.409374 61.27604Q40.08125 60.46354 41.253124 60.46354Q42.39375 60.46354 43.05 61.322914Q43.721874 62.18229 43.721874 63.71354L43.721874 63.822914ZM42.64375 63.697914Q42.64375 62.61979 42.175 62.010414Q41.721874 61.385414 40.925 61.385414Q39.940624 61.385414 39.45625 62.24479L39.45625 65.27604Q39.940624 66.15104 40.940624 66.15104Q41.721874 66.15104 42.175 65.541664Q42.64375 64.916664 42.64375 63.697914ZM46.55 66.916664L45.471874 66.916664L45.471874 57.916664L46.55 57.916664L46.55 66.916664ZM51.003124 67.041664Q49.70625 67.041664 48.89375 66.197914Q48.096874 65.33854 48.096874 63.916664L48.096874 63.729164Q48.096874 62.77604 48.45625 62.041664Q48.815624 61.291664 49.45625 60.885414Q50.1125 60.46354 50.8625 60.46354Q52.096874 60.46354 52.784374 61.27604Q53.471874 62.08854 53.471874 63.604164L53.471874 64.05729L49.175 64.05729Q49.20625 64.99479 49.721874 65.572914Q50.253124 66.15104 51.065624 66.15104Q51.628124 66.15104 52.01875 65.916664Q52.425 65.68229 52.7375 65.291664L53.39375 65.80729Q52.596874 67.041664 51.003124 67.041664ZM50.8625 61.354164Q50.20625 61.354164 49.753124 61.83854Q49.315624 62.30729 49.221874 63.166664L52.39375 63.166664L52.39375 63.08854Q52.346874 62.260414 51.940624 61.80729Q51.55 61.354164 50.8625 61.354164Z" fill-rule="nonzero"/><path fill="#9e9e9e" d="M23.83125 82.05729L25.01875 82.05729L25.01875 82.93229L23.83125 82.93229L23.83125 84.916664L22.753124 84.916664L22.753124 82.93229L18.8625 82.93229L18.8625 82.291664L22.675 76.385414L23.83125 76.385414L23.83125 82.05729ZM20.096874 82.05729L22.753124 82.05729L22.753124 77.86979L22.6125 78.104164L20.096874 82.05729ZM26.39375 84.354164Q26.39375 84.072914 26.55 83.885414Q26.721874 83.697914 27.05 83.697914Q27.39375 83.697914 27.565624 83.885414Q27.7375 84.072914 27.7375 84.354164Q27.7375 84.61979 27.565624 84.80729Q27.39375 84.979164 27.05 84.979164Q26.721874 84.979164 26.55 84.80729Q26.39375 84.61979 26.39375 84.354164ZM34.6125 81.27604Q34.6125 83.18229 33.95625 84.11979Q33.315624 85.041664 31.925 85.041664Q30.565624 85.041664 29.909374 84.135414Q29.253124 83.229164 29.221874 81.416664L29.221874 79.979164Q29.221874 78.08854 29.8625 77.18229Q30.51875 76.260414 31.909374 76.260414Q33.284374 76.260414 33.940624 77.15104Q34.596874 78.02604 34.6125 79.86979L34.6125 81.27604ZM33.51875 79.791664Q33.51875 78.416664 33.128124 77.791664Q32.753124 77.15104 31.909374 77.15104Q31.08125 77.15104 30.690624 77.791664Q30.315624 78.416664 30.315624 79.71354L30.315624 81.447914Q30.315624 82.822914 30.70625 83.49479Q31.1125 84.15104 31.925 84.15104Q32.721874 84.15104 33.1125 83.52604Q33.503124 82.90104 33.51875 81.572914L33.51875 79.791664ZM36.159374 78.02604Q36.159374 77.260414 36.64375 76.760414Q37.14375 76.260414 37.909374 76.260414Q38.690624 76.260414 39.175 76.760414Q39.659374 77.260414 39.659374 78.05729L39.659374 78.479164Q39.659374 79.24479 39.159374 79.74479Q38.675 80.229164 37.925 80.229164Q37.159374 80.229164 36.659374 79.74479Q36.159374 79.24479 36.159374 78.43229L36.159374 78.02604ZM36.971874 78.479164Q36.971874 78.93229 37.221874 79.229164Q37.4875 79.52604 37.925 79.52604Q38.346874 79.52604 38.596874 79.24479Q38.846874 78.947914 38.846874 78.447914L38.846874 78.02604Q38.846874 77.572914 38.596874 77.27604Q38.346874 76.96354 37.909374 76.96354Q37.471874 76.96354 37.221874 77.27604Q36.971874 77.572914 36.971874 78.041664L36.971874 78.479164ZM40.315624 82.822914Q40.315624 82.05729 40.8 81.572914Q41.3 81.072914 42.065624 81.072914Q42.83125 81.072914 43.315624 81.572914Q43.815624 82.05729 43.815624 82.86979L43.815624 83.27604Q43.815624 84.041664 43.33125 84.541664Q42.846874 85.041664 42.08125 85.041664Q41.315624 85.041664 40.815624 84.55729Q40.315624 84.05729 40.315624 83.24479L40.315624 82.822914ZM41.128124 83.27604Q41.128124 83.74479 41.378124 84.041664Q41.64375 84.33854 42.08125 84.33854Q42.503124 84.33854 42.753124 84.05729Q43.003124 83.760414 43.003124 83.260414L43.003124 82.822914Q43.003124 82.354164 42.7375 82.072914Q42.4875 81.77604 42.065624 81.77604Q41.64375 81.77604 41.378124 82.072914Q41.128124 82.354164 41.128124 82.854164L41.128124 83.27604ZM38.175 84.27604L37.55 83.885414L41.721874 77.21354L42.33125 77.604164L38.175 84.27604Z" fill-rule="nonzero"/><path stroke="#757575" stroke-width="1.0" stroke-linecap="butt" d="M18.55 71.416664L145.23334 71.416664L282.28687 63.469418" fill-rule="nonzero"/><path fill="#9e9e9e" d="M284.28687 63.469418C284.28687 62.364845 283.39142 61.469418 282.28687 61.469418C281.18228 61.469418 280.28687 62.364845 280.28687 63.469418C280.28687 64.57398 281.18228 65.46941 282.28687 65.46941C283.39142 65.46941 284.28687 64.57398 284.28687 63.469418" fill-rule="nonzero"/><path fill="#1a1a1a" d="M19.534374 99.916664L19.534374 91.385414L22.33125 91.385414Q23.721874 91.385414 24.409374 91.96354Q25.1125 92.52604 25.1125 93.65104Q25.1125 94.260414 24.76875 94.729164Q24.440624 95.18229 23.846874 95.43229Q24.55 95.61979 24.940624 96.166664Q25.346874 96.697914 25.346874 97.447914Q25.346874 98.604164 24.596874 99.260414Q23.8625 99.916664 22.503124 99.916664L19.534374 99.916664ZM20.659374 95.93229L20.659374 98.99479L22.51875 98.99479Q23.315624 98.99479 23.76875 98.58854Q24.221874 98.18229 24.221874 97.46354Q24.221874 95.93229 22.534374 95.93229L20.659374 95.93229ZM20.659374 95.02604L22.3625 95.02604Q23.096874 95.02604 23.534374 94.666664Q23.9875 94.291664 23.9875 93.65104Q23.9875 92.947914 23.58125 92.635414Q23.175 92.30729 22.33125 92.30729L20.659374 92.30729L20.659374 95.02604ZM27.55 99.916664L26.471874 99.916664L26.471874 90.916664L27.55 90.916664L27.55 99.916664ZM33.284374 99.291664Q32.659374 100.041664 31.425 100.041664Q30.409374 100.041664 29.878124 99.447914Q29.346874 98.854164 29.346874 97.697914L29.346874 93.572914L30.425 93.572914L30.425 97.666664Q30.425 99.11979 31.596874 99.11979Q32.846874 99.11979 33.253124 98.18229L33.253124 93.572914L34.346874 93.572914L34.346874 99.916664L33.315624 99.916664L33.284374 99.291664ZM39.003124 100.041664Q37.70625 100.041664 36.89375 99.197914Q36.096874 98.33854 36.096874 96.916664L36.096874 96.729164Q36.096874 95.77604 36.45625 95.041664Q36.815624 94.291664 37.45625 93.885414Q38.1125 93.46354 38.8625 93.46354Q40.096874 93.46354 40.784374 94.27604Q41.471874 95.08854 41.471874 96.604164L41.471874 97.05729L37.175 97.05729Q37.20625 97.99479 37.721874 98.572914Q38.253124 99.15104 39.065624 99.15104Q39.628124 99.15104 40.01875 98.916664Q40.425 98.68229 40.7375 98.291664L41.39375 98.80729Q40.596874 100.041664 39.003124 100.041664ZM38.8625 94.354164Q38.20625 94.354164 37.753124 94.83854Q37.315624 95.30729 37.221874 96.166664L40.39375 96.166664L40.39375 96.08854Q40.346874 95.260414 39.940624 94.80729Q39.55 94.354164 38.8625 94.354164Z" fill-rule="nonzero"/><path fill="#9e9e9e" d="M24.440624 111.604164Q24.440624 112.24479 24.096874 112.74479Q23.753124 113.24479 23.190624 113.52604Q23.846874 113.80729 24.2375 114.36979Q24.628124 114.916664 24.628124 115.61979Q24.628124 116.71354 23.878124 117.385414Q23.14375 118.041664 21.925 118.041664Q20.690624 118.041664 19.940624 117.385414Q19.20625 116.71354 19.20625 115.61979Q19.20625 114.916664 19.58125 114.36979Q19.95625 113.80729 20.628124 113.52604Q20.065624 113.24479 19.7375 112.74479Q19.409374 112.24479 19.409374 111.604164Q19.409374 110.52604 20.096874 109.90104Q20.784374 109.260414 21.925 109.260414Q23.05 109.260414 23.7375 109.90104Q24.440624 110.52604 24.440624 111.604164ZM23.55 115.58854Q23.55 114.86979 23.096874 114.43229Q22.64375 113.979164 21.909374 113.979164Q21.175 113.979164 20.721874 114.43229Q20.284374 114.86979 20.284374 115.604164Q20.284374 116.322914 20.721874 116.74479Q21.159374 117.15104 21.925 117.15104Q22.675 117.15104 23.1125 116.729164Q23.55 116.30729 23.55 115.58854ZM21.925 110.15104Q21.284374 110.15104 20.878124 110.55729Q20.4875 110.947914 20.4875 111.635414Q20.4875 112.27604 20.878124 112.68229Q21.26875 113.08854 21.909374 113.08854Q22.565624 113.08854 22.95625 112.68229Q23.346874 112.27604 23.346874 111.635414Q23.346874 110.979164 22.940624 110.572914Q22.534374 110.15104 21.925 110.15104ZM26.39375 117.354164Q26.39375 117.072914 26.55 116.885414Q26.721874 116.697914 27.05 116.697914Q27.39375 116.697914 27.565624 116.885414Q27.7375 117.072914 27.7375 117.354164Q27.7375 117.61979 27.565624 117.80729Q27.39375 117.979164 27.05 117.979164Q26.721874 117.979164 26.55 117.80729Q26.39375 117.61979 26.39375 117.354164ZM34.6125 114.27604Q34.6125 116.18229 33.95625 117.11979Q33.315624 118.041664 31.925 118.041664Q30.565624 118.041664 29.909374 117.135414Q29.253124 116.229164 29.221874 114.416664L29.221874 112.979164Q29.221874 111.08854 29.8625 110.18229Q30.51875 109.260414 31.909374 109.260414Q33.284374 109.260414 33.940624 110.15104Q34.596874 111.02604 34.6125 112.86979L34.6125 114.27604ZM33.51875 112.791664Q33.51875 111.416664 33.128124 110.791664Q32.753124 110.15104 31.909374 110.15104Q31.08125 110.15104 30.690624 110.791664Q30.315624 111.416664 30.315624 112.71354L30.315624 114.447914Q30.315624 115.822914 30.70625 116.49479Q31.1125 117.15104 31.925 117.15104Q32.721874 117.15104 33.1125 116.52604Q33.503124 115.90104 33.51875 114.572914L33.51875 112.791664ZM36.159374 111.02604Q36.159374 110.260414 36.64375 109.760414Q37.14375 109.260414 37.909374 109.260414Q38.690624 109.260414 39.175 109.760414Q39.659374 110.260414 39.659374 111.05729L39.659374 111.479164Q39.659374 112.24479 39.159374 112.74479Q38.675 113.229164 37.925 113.229164Q37.159374 113.229164 36.659374 112.74479Q36.159374 112.24479 36.159374 111.43229L36.159374 111.02604ZM36.971874 111.479164Q36.971874 111.93229 37.221874 112.229164Q37.4875 112.52604 37.925 112.52604Q38.346874 112.52604 38.596874 112.24479Q38.846874 111.947914 38.846874 111.447914L38.846874 111.02604Q38.846874 110.572914 38.596874 110.27604Q38.346874 109.96354 37.909374 109.96354Q37.471874 109.96354 37.221874 110.27604Q36.971874 110.572914 36.971874 111.041664L36.971874 111.479164ZM40.315624 115.822914Q40.315624 115.05729 40.8 114.572914Q41.3 114.072914 42.065624 114.072914Q42.83125 114.072914 43.315624 114.572914Q43.815624 115.05729 43.815624 115.86979L43.815624 116.27604Q43.815624 117.041664 43.33125 117.541664Q42.846874 118.041664 42.08125 118.041664Q41.315624 118.041664 40.815624 117.55729Q40.315624 117.05729 40.315624 116.24479L40.315624 115.822914ZM41.128124 116.27604Q41.128124 116.74479 41.378124 117.041664Q41.64375 117.33854 42.08125 117.33854Q42.503124 117.33854 42.753124 117.05729Q43.003124 116.760414 43.003124 116.260414L43.003124 115.822914Q43.003124 115.354164 42.7375 115.072914Q42.4875 114.77604 42.065624 114.77604Q41.64375 114.77604 41.378124 115.072914Q41.128124 115.354164 41.128124 115.854164L41.128124 116.27604ZM38.175 117.27604L37.55 116.885414L41.721874 110.21354L42.33125 110.604164L38.175 117.27604Z" fill-rule="nonzero"/><path stroke="#757575" stroke-width="1.0" stroke-linecap="butt" d="M18.55 104.416664L145.23334 104.416664L231.91455 79.83637" fill-rule="nonzero"/><path fill="#9e9e9e" d="M233.91455 79.83637C233.91455 78.731804 233.01912 77.83637 231.91455 77.83637C230.80998 77.83637 229.91455 78.731804 229.91455 79.83637C229.91455 80.94094 230.80998 81.83637 231.91455 81.83637C233.01912 81.83637 233.91455 80.94094 233.91455 79.83637" fill-rule="nonzero"/><path fill="#1a1a1a" d="M25.846874 330.325Q25.409374 330.95 24.628124 331.2625Q23.846874 331.575 22.815624 331.575Q21.784374 331.575 20.971874 331.09064Q20.159374 330.59064 19.721874 329.6844Q19.284374 328.77814 19.26875 327.59064L19.26875 326.85626Q19.26875 324.91876 20.159374 323.85626Q21.065624 322.79376 22.690624 322.79376Q24.034374 322.79376 24.846874 323.48126Q25.659374 324.16876 25.846874 325.41876L24.721874 325.41876Q24.39375 323.73126 22.70625 323.73126Q21.565624 323.73126 20.9875 324.52814Q20.409374 325.3094 20.39375 326.825L20.39375 327.5125Q20.39375 328.95 21.05 329.8094Q21.70625 330.65314 22.83125 330.65314Q23.45625 330.65314 23.925 330.5125Q24.409374 330.3719 24.721874 330.02814L24.721874 328.1219L22.753124 328.1219L22.753124 327.2L25.846874 327.2L25.846874 330.325ZM30.440624 326.075Q30.190624 326.04376 29.909374 326.04376Q28.83125 326.04376 28.45625 326.95L28.45625 331.45L27.378124 331.45L27.378124 325.10626L28.425 325.10626L28.440624 325.84064Q28.971874 324.9969 29.95625 324.9969Q30.26875 324.9969 30.440624 325.075L30.440624 326.075ZM34.003124 331.575Q32.70625 331.575 31.89375 330.73126Q31.096874 329.8719 31.096874 328.45L31.096874 328.2625Q31.096874 327.3094 31.45625 326.575Q31.815624 325.825 32.45625 325.41876Q33.1125 324.9969 33.8625 324.9969Q35.096874 324.9969 35.784374 325.8094Q36.471874 326.6219 36.471874 328.1375L36.471874 328.59064L32.175 328.59064Q32.20625 329.52814 32.721874 330.10626Q33.253124 330.6844 34.065624 330.6844Q34.628124 330.6844 35.01875 330.45Q35.425 330.21564 35.7375 329.825L36.39375 330.34064Q35.596874 331.575 34.003124 331.575ZM33.8625 325.8875Q33.20625 325.8875 32.753124 326.3719Q32.315624 326.84064 32.221874 327.7L35.39375 327.7L35.39375 327.6219Q35.346874 326.79376 34.940624 326.34064Q34.55 325.8875 33.8625 325.8875ZM40.003124 331.575Q38.70625 331.575 37.89375 330.73126Q37.096874 329.8719 37.096874 328.45L37.096874 328.2625Q37.096874 327.3094 37.45625 326.575Q37.815624 325.825 38.45625 325.41876Q39.1125 324.9969 39.8625 324.9969Q41.096874 324.9969 41.784374 325.8094Q42.471874 326.6219 42.471874 328.1375L42.471874 328.59064L38.175 328.59064Q38.20625 329.52814 38.721874 330.10626Q39.253124 330.6844 40.065624 330.6844Q40.628124 330.6844 41.01875 330.45Q41.425 330.21564 41.7375 329.825L42.39375 330.34064Q41.596874 331.575 40.003124 331.575ZM39.8625 325.8875Q39.20625 325.8875 38.753124 326.3719Q38.315624 326.84064 38.221874 327.7L41.39375 327.7L41.39375 327.6219Q41.346874 326.79376 40.940624 326.34064Q40.55 325.8875 39.8625 325.8875ZM44.39375 325.10626L44.425 325.90314Q45.159374 324.9969 46.33125 324.9969Q48.346874 324.9969 48.3625 327.2625L48.3625 331.45L47.26875 331.45L47.26875 327.2469Q47.26875 326.575 46.95625 326.2469Q46.659374 325.91876 46.003124 325.91876Q45.471874 325.91876 45.065624 326.2Q44.675 326.48126 44.45625 326.9344L44.45625 331.45L43.378124 331.45L43.378124 325.10626L44.39375 325.10626Z" fill-rule="nonzero"/><path fill="#9e9e9e" d="M24.76875 341.52814L21.2375 349.45L20.096874 349.45L23.6125 341.8094L19.003124 341.8094L19.003124 340.91876L24.76875 340.91876L24.76875 341.52814ZM31.846874 349.45L26.253124 349.45L26.253124 348.66876L29.20625 345.3875Q29.8625 344.6375 30.1125 344.1844Q30.3625 343.71564 30.3625 343.21564Q30.3625 342.54376 29.95625 342.1219Q29.565624 341.6844 28.878124 341.6844Q28.08125 341.6844 27.628124 342.15314Q27.175 342.60626 27.175 343.4344L26.096874 343.4344Q26.096874 342.2469 26.846874 341.52814Q27.6125 340.79376 28.878124 340.79376Q30.08125 340.79376 30.76875 341.41876Q31.45625 342.04376 31.45625 343.09064Q31.45625 344.34064 29.846874 346.09064L27.565624 348.5594L31.846874 348.5594L31.846874 349.45ZM33.39375 348.8875Q33.39375 348.60626 33.55 348.41876Q33.721874 348.23126 34.05 348.23126Q34.39375 348.23126 34.565624 348.41876Q34.7375 348.60626 34.7375 348.8875Q34.7375 349.15314 34.565624 349.34064Q34.39375 349.5125 34.05 349.5125Q33.721874 349.5125 33.55 349.34064Q33.39375 349.15314 33.39375 348.8875ZM41.6125 345.8094Q41.6125 347.71564 40.95625 348.65314Q40.315624 349.575 38.925 349.575Q37.565624 349.575 36.909374 348.66876Q36.253124 347.7625 36.221874 345.95L36.221874 344.5125Q36.221874 342.6219 36.8625 341.71564Q37.51875 340.79376 38.909374 340.79376Q40.284374 340.79376 40.940624 341.6844Q41.596874 342.5594 41.6125 344.40314L41.6125 345.8094ZM40.51875 344.325Q40.51875 342.95 40.128124 342.325Q39.753124 341.6844 38.909374 341.6844Q38.08125 341.6844 37.690624 342.325Q37.315624 342.95 37.315624 344.2469L37.315624 345.98126Q37.315624 347.35626 37.70625 348.02814Q38.1125 348.6844 38.925 348.6844Q39.721874 348.6844 40.1125 348.0594Q40.503124 347.4344 40.51875 346.10626L40.51875 344.325ZM43.159374 342.5594Q43.159374 341.79376 43.64375 341.29376Q44.14375 340.79376 44.909374 340.79376Q45.690624 340.79376 46.175 341.29376Q46.659374 341.79376 46.659374 342.59064L46.659374 343.0125Q46.659374 343.77814 46.159374 344.27814Q45.675 344.7625 44.925 344.7625Q44.159374 344.7625 43.659374 344.27814Q43.159374 343.77814 43.159374 342.96564L43.159374 342.5594ZM43.971874 343.0125Q43.971874 343.46564 44.221874 343.7625Q44.4875 344.0594 44.925 344.0594Q45.346874 344.0594 45.596874 343.77814Q45.846874 343.48126 45.846874 342.98126L45.846874 342.5594Q45.846874 342.10626 45.596874 341.8094Q45.346874 341.4969 44.909374 341.4969Q44.471874 341.4969 44.221874 341.8094Q43.971874 342.10626 43.971874 342.575L43.971874 343.0125ZM47.315624 347.35626Q47.315624 346.59064 47.8 346.10626Q48.3 345.60626 49.065624 345.60626Q49.83125 345.60626 50.315624 346.10626Q50.815624 346.59064 50.815624 347.40314L50.815624 347.8094Q50.815624 348.575 50.33125 349.075Q49.846874 349.575 49.08125 349.575Q48.315624 349.575 47.815624 349.09064Q47.315624 348.59064 47.315624 347.77814L47.315624 347.35626ZM48.128124 347.8094Q48.128124 348.27814 48.378124 348.575Q48.64375 348.8719 49.08125 348.8719Q49.503124 348.8719 49.753124 348.59064Q50.003124 348.29376 50.003124 347.79376L50.003124 347.35626Q50.003124 346.8875 49.7375 346.60626Q49.4875 346.3094 49.065624 346.3094Q48.64375 346.3094 48.378124 346.60626Q48.128124 346.8875 48.128124 347.3875L48.128124 347.8094ZM45.175 348.8094L44.55 348.41876L48.721874 341.7469L49.33125 342.1375L45.175 348.8094Z" fill-rule="nonzero"/><path stroke="#757575" stroke-width="1.0" stroke-linecap="butt" d="M18.55 335.95L145.23334 335.95L282.28687 343.89725" fill-rule="nonzero"/><path fill="#9e9e9e" d="M284.28687 343.89725C284.28687 342.7927 283.39142 341.89725 282.28687 341.89725C281.18228 341.89725 280.28687 342.7927 280.28687 343.89725C280.28687 345.00183 281.18228 345.89725 282.28687 345.89725C283.39142 345.89725 284.28687 345.00183 284.28687 343.89725" fill-rule="nonzero"/><path fill="#1a1a1a" d="M549.9969 62.93229Q549.9969 64.18229 549.575 65.11979Q549.15314 66.041664 548.3719 66.541664Q547.60626 67.041664 546.575 67.041664Q545.575 67.041664 544.79376 66.541664Q544.0125 66.041664 543.575 65.135414Q543.15314 64.21354 543.1375 62.99479L543.1375 62.385414Q543.1375 61.15104 543.5594 60.21354Q543.9969 59.27604 544.77814 58.77604Q545.5594 58.260414 546.575 58.260414Q547.59064 58.260414 548.3719 58.760414Q549.15314 59.260414 549.575 60.197914Q549.9969 61.135414 549.9969 62.385414L549.9969 62.93229ZM548.8875 62.36979Q548.8875 60.854164 548.27814 60.041664Q547.66876 59.229164 546.575 59.229164Q545.4969 59.229164 544.8875 60.041664Q544.27814 60.854164 544.2625 62.291664L544.2625 62.93229Q544.2625 64.40104 544.8719 65.24479Q545.4969 66.072914 546.575 66.072914Q547.66876 66.072914 548.2625 65.291664Q548.8719 64.49479 548.8875 63.010414L548.8875 62.36979ZM554.34064 61.541664Q554.09064 61.510414 553.8094 61.510414Q552.73126 61.510414 552.35626 62.416664L552.35626 66.916664L551.27814 66.916664L551.27814 60.572914L552.325 60.572914L552.34064 61.30729Q552.8719 60.46354 553.85626 60.46354Q554.16876 60.46354 554.34064 60.541664L554.34064 61.541664ZM559.1844 66.916664Q559.09064 66.729164 559.02814 66.24479Q558.27814 67.041664 557.23126 67.041664Q556.29376 67.041664 555.6844 66.510414Q555.09064 65.979164 555.09064 65.15104Q555.09064 64.166664 555.84064 63.61979Q556.59064 63.072914 557.96564 63.072914L559.0125 63.072914L559.0125 62.572914Q559.0125 62.010414 558.66876 61.68229Q558.34064 61.33854 557.66876 61.33854Q557.09064 61.33854 556.7 61.635414Q556.3094 61.916664 556.3094 62.33854L555.21564 62.33854Q555.21564 61.854164 555.54376 61.416664Q555.8875 60.979164 556.46564 60.729164Q557.04376 60.46354 557.73126 60.46354Q558.84064 60.46354 559.45 61.010414Q560.075 61.55729 560.10626 62.510414L560.10626 65.43229Q560.10626 66.30729 560.325 66.822914L560.325 66.916664L559.1844 66.916664ZM557.3875 66.08854Q557.90314 66.08854 558.35626 65.822914Q558.8094 65.55729 559.0125 65.135414L559.0125 63.83854L558.16876 63.83854Q556.16876 63.83854 556.16876 65.010414Q556.16876 65.510414 556.5125 65.80729Q556.85626 66.08854 557.3875 66.08854ZM563.29376 60.572914L563.325 61.36979Q564.0594 60.46354 565.23126 60.46354Q567.2469 60.46354 567.2625 62.729164L567.2625 66.916664L566.16876 66.916664L566.16876 62.71354Q566.16876 62.041664 565.85626 61.71354Q565.5594 61.385414 564.90314 61.385414Q564.3719 61.385414 563.96564 61.666664Q563.575 61.947914 563.35626 62.40104L563.35626 66.916664L562.27814 66.916664L562.27814 60.572914L563.29376 60.572914ZM569.0125 63.697914Q569.0125 62.21354 569.7 61.33854Q570.3875 60.46354 571.5125 60.46354Q572.66876 60.46354 573.325 61.27604L573.3719 60.572914L574.3719 60.572914L574.3719 66.760414Q574.3719 67.99479 573.6375 68.697914Q572.90314 69.416664 571.6844 69.416664Q570.9969 69.416664 570.34064 69.11979Q569.6844 68.822914 569.34064 68.322914L569.90314 67.666664Q570.59064 68.52604 571.60626 68.52604Q572.3875 68.52604 572.825 68.072914Q573.27814 67.635414 573.27814 66.822914L573.27814 66.27604Q572.6219 67.041664 571.4969 67.041664Q570.3875 67.041664 569.7 66.15104Q569.0125 65.24479 569.0125 63.697914ZM570.10626 63.822914Q570.10626 64.885414 570.54376 65.510414Q570.98126 66.11979 571.77814 66.11979Q572.79376 66.11979 573.27814 65.18229L573.27814 62.291664Q572.77814 61.385414 571.77814 61.385414Q570.9969 61.385414 570.54376 61.99479Q570.10626 62.604164 570.10626 63.822914ZM578.90314 67.041664Q577.60626 67.041664 576.79376 66.197914Q575.9969 65.33854 575.9969 63.916664L575.9969 63.729164Q575.9969 62.77604 576.35626 62.041664Q576.71564 61.291664 577.35626 60.885414Q578.0125 60.46354 578.7625 60.46354Q579.9969 60.46354 580.6844 61.27604Q581.3719 62.08854 581.3719 63.604164L581.3719 64.05729L577.075 64.05729Q577.10626 64.99479 577.6219 65.572914Q578.15314 66.15104 578.96564 66.15104Q579.52814 66.15104 579.91876 65.916664Q580.325 65.68229 580.6375 65.291664L581.29376 65.80729Q580.4969 67.041664 578.90314 67.041664ZM578.7625 61.354164Q578.10626 61.354164 577.65314 61.83854Q577.21564 62.30729 577.1219 63.166664L580.29376 63.166664L580.29376 63.08854Q580.2469 62.260414 579.84064 61.80729Q579.45 61.354164 578.7625 61.354164Z" fill-rule="nonzero"/><path fill="#9e9e9e" d="M560.73126 82.05729L561.91876 82.05729L561.91876 82.93229L560.73126 82.93229L560.73126 84.916664L559.65314 84.916664L559.65314 82.93229L555.7625 82.93229L555.7625 82.291664L559.575 76.385414L560.73126 76.385414L560.73126 82.05729ZM556.9969 82.05729L559.65314 82.05729L559.65314 77.86979L559.5125 78.104164L556.9969 82.05729ZM563.29376 84.354164Q563.29376 84.072914 563.45 83.885414Q563.6219 83.697914 563.95 83.697914Q564.29376 83.697914 564.46564 83.885414Q564.6375 84.072914 564.6375 84.354164Q564.6375 84.61979 564.46564 84.80729Q564.29376 84.979164 563.95 84.979164Q563.6219 84.979164 563.45 84.80729Q563.29376 84.61979 563.29376 84.354164ZM571.5125 81.27604Q571.5125 83.18229 570.85626 84.11979Q570.21564 85.041664 568.825 85.041664Q567.46564 85.041664 566.8094 84.135414Q566.15314 83.229164 566.1219 81.416664L566.1219 79.979164Q566.1219 78.08854 566.7625 77.18229Q567.41876 76.260414 568.8094 76.260414Q570.1844 76.260414 570.84064 77.15104Q571.4969 78.02604 571.5125 79.86979L571.5125 81.27604ZM570.41876 79.791664Q570.41876 78.416664 570.02814 77.791664Q569.65314 77.15104 568.8094 77.15104Q567.98126 77.15104 567.59064 77.791664Q567.21564 78.416664 567.21564 79.71354L567.21564 81.447914Q567.21564 82.822914 567.60626 83.49479Q568.0125 84.15104 568.825 84.15104Q569.6219 84.15104 570.0125 83.52604Q570.40314 82.90104 570.41876 81.572914L570.41876 79.791664ZM573.0594 78.02604Q573.0594 77.260414 573.54376 76.760414Q574.04376 76.260414 574.8094 76.260414Q575.59064 76.260414 576.075 76.760414Q576.5594 77.260414 576.5594 78.05729L576.5594 78.479164Q576.5594 79.24479 576.0594 79.74479Q575.575 80.229164 574.825 80.229164Q574.0594 80.229164 573.5594 79.74479Q573.0594 79.24479 573.0594 78.43229L573.0594 78.02604ZM573.8719 78.479164Q573.8719 78.93229 574.1219 79.229164Q574.3875 79.52604 574.825 79.52604Q575.2469 79.52604 575.4969 79.24479Q575.7469 78.947914 575.7469 78.447914L575.7469 78.02604Q575.7469 77.572914 575.4969 77.27604Q575.2469 76.96354 574.8094 76.96354Q574.3719 76.96354 574.1219 77.27604Q573.8719 77.572914 573.8719 78.041664L573.8719 78.479164ZM577.21564 82.822914Q577.21564 82.05729 577.7 81.572914Q578.2 81.072914 578.96564 81.072914Q579.73126 81.072914 580.21564 81.572914Q580.71564 82.05729 580.71564 82.86979L580.71564 83.27604Q580.71564 84.041664 580.23126 84.541664Q579.7469 85.041664 578.98126 85.041664Q578.21564 85.041664 577.71564 84.55729Q577.21564 84.05729 577.21564 83.24479L577.21564 82.822914ZM578.02814 83.27604Q578.02814 83.74479 578.27814 84.041664Q578.54376 84.33854 578.98126 84.33854Q579.40314 84.33854 579.65314 84.05729Q579.90314 83.760414 579.90314 83.260414L579.90314 82.822914Q579.90314 82.354164 579.6375 82.072914Q579.3875 81.77604 578.96564 81.77604Q578.54376 81.77604 578.27814 82.072914Q578.02814 82.354164 578.02814 82.854164L578.02814 83.27604ZM575.075 84.27604L574.45 83.885414L578.6219 77.21354L579.23126 77.604164L575.075 84.27604Z" fill-rule="nonzero"/><path stroke="#757575" stroke-width="1.0" stroke-linecap="butt" d="M581.45 71.416664L454.76666 71.416664L317.71313 63.469418" fill-rule="nonzero"/><path fill="#9e9e9e" d="M319.71313 63.469418C319.71313 62.364845 318.81772 61.469418 317.71313 61.469418C316.60858 61.469418 315.71313 62.364845 315.71313 63.469418C315.71313 64.57398 316.60858 65.46941 317.71313 65.46941C318.81772 65.46941 319.71313 64.57398 319.71313 63.469418" fill-rule="nonzero"/><path fill="#1a1a1a" d="M550.04376 95.666664L552.2625 91.385414L553.54376 91.385414L550.60626 96.729164L550.60626 99.916664L549.48126 99.916664L549.48126 96.729164L546.54376 91.385414L547.825 91.385414L550.04376 95.666664ZM556.90314 100.041664Q555.60626 100.041664 554.79376 99.197914Q553.9969 98.33854 553.9969 96.916664L553.9969 96.729164Q553.9969 95.77604 554.35626 95.041664Q554.71564 94.291664 555.35626 93.885414Q556.0125 93.46354 556.7625 93.46354Q557.9969 93.46354 558.6844 94.27604Q559.3719 95.08854 559.3719 96.604164L559.3719 97.05729L555.075 97.05729Q555.10626 97.99479 555.6219 98.572914Q556.15314 99.15104 556.96564 99.15104Q557.52814 99.15104 557.91876 98.916664Q558.325 98.68229 558.6375 98.291664L559.29376 98.80729Q558.4969 100.041664 556.90314 100.041664ZM556.7625 94.354164Q556.10626 94.354164 555.65314 94.83854Q555.21564 95.30729 555.1219 96.166664L558.29376 96.166664L558.29376 96.08854Q558.2469 95.260414 557.84064 94.80729Q557.45 94.354164 556.7625 94.354164ZM561.45 99.916664L560.3719 99.916664L560.3719 90.916664L561.45 90.916664L561.45 99.916664ZM564.45 99.916664L563.3719 99.916664L563.3719 90.916664L564.45 90.916664L564.45 99.916664ZM565.98126 96.68229Q565.98126 95.760414 566.34064 95.010414Q566.71564 94.260414 567.3719 93.86979Q568.02814 93.46354 568.85626 93.46354Q570.15314 93.46354 570.95 94.354164Q571.7625 95.24479 571.7625 96.74479L571.7625 96.822914Q571.7625 97.74479 571.40314 98.479164Q571.04376 99.21354 570.3875 99.635414Q569.73126 100.041664 568.8719 100.041664Q567.59064 100.041664 566.77814 99.15104Q565.98126 98.24479 565.98126 96.760414L565.98126 96.68229ZM567.075 96.822914Q567.075 97.86979 567.5594 98.510414Q568.0594 99.15104 568.8719 99.15104Q569.7 99.15104 570.1844 98.510414Q570.66876 97.854164 570.66876 96.68229Q570.66876 95.65104 570.16876 95.010414Q569.6844 94.354164 568.85626 94.354164Q568.0594 94.354164 567.5594 94.99479Q567.075 95.61979 567.075 96.822914ZM578.8875 98.416664L580.10626 93.572914L581.1844 93.572914L579.34064 99.916664L578.46564 99.916664L576.91876 95.104164L575.41876 99.916664L574.54376 99.916664L572.7 93.572914L573.77814 93.572914L575.02814 98.322914L576.5125 93.572914L577.3719 93.572914L578.8875 98.416664Z" fill-rule="nonzero"/><path fill="#9e9e9e" d="M552.71564 117.916664L551.6375 117.916664L551.6375 110.697914L549.45 111.49479L549.45 110.510414L552.5594 109.33854L552.71564 109.33854L552.71564 117.916664ZM561.7469 117.916664L556.15314 117.916664L556.15314 117.135414L559.10626 113.854164Q559.7625 113.104164 560.0125 112.65104Q560.2625 112.18229 560.2625 111.68229Q560.2625 111.010414 559.85626 110.58854Q559.46564 110.15104 558.77814 110.15104Q557.98126 110.15104 557.52814 110.61979Q557.075 111.072914 557.075 111.90104L555.9969 111.90104Q555.9969 110.71354 556.7469 109.99479Q557.5125 109.260414 558.77814 109.260414Q559.98126 109.260414 560.66876 109.885414Q561.35626 110.510414 561.35626 111.55729Q561.35626 112.80729 559.7469 114.55729L557.46564 117.02604L561.7469 117.02604L561.7469 117.916664ZM563.29376 117.354164Q563.29376 117.072914 563.45 116.885414Q563.6219 116.697914 563.95 116.697914Q564.29376 116.697914 564.46564 116.885414Q564.6375 117.072914 564.6375 117.354164Q564.6375 117.61979 564.46564 117.80729Q564.29376 117.979164 563.95 117.979164Q563.6219 117.979164 563.45 117.80729Q563.29376 117.61979 563.29376 117.354164ZM571.5125 114.27604Q571.5125 116.18229 570.85626 117.11979Q570.21564 118.041664 568.825 118.041664Q567.46564 118.041664 566.8094 117.135414Q566.15314 116.229164 566.1219 114.416664L566.1219 112.979164Q566.1219 111.08854 566.7625 110.18229Q567.41876 109.260414 568.8094 109.260414Q570.1844 109.260414 570.84064 110.15104Q571.4969 111.02604 571.5125 112.86979L571.5125 114.27604ZM570.41876 112.791664Q570.41876 111.416664 570.02814 110.791664Q569.65314 110.15104 568.8094 110.15104Q567.98126 110.15104 567.59064 110.791664Q567.21564 111.416664 567.21564 112.71354L567.21564 114.447914Q567.21564 115.822914 567.60626 116.49479Q568.0125 117.15104 568.825 117.15104Q569.6219 117.15104 570.0125 116.52604Q570.40314 115.90104 570.41876 114.572914L570.41876 112.791664ZM573.0594 111.02604Q573.0594 110.260414 573.54376 109.760414Q574.04376 109.260414 574.8094 109.260414Q575.59064 109.260414 576.075 109.760414Q576.5594 110.260414 576.5594 111.05729L576.5594 111.479164Q576.5594 112.24479 576.0594 112.74479Q575.575 113.229164 574.825 113.229164Q574.0594 113.229164 573.5594 112.74479Q573.0594 112.24479 573.0594 111.43229L573.0594 111.02604ZM573.8719 111.479164Q573.8719 111.93229 574.1219 112.229164Q574.3875 112.52604 574.825 112.52604Q575.2469 112.52604 575.4969 112.24479Q575.7469 111.947914 575.7469 111.447914L575.7469 111.02604Q575.7469 110.572914 575.4969 110.27604Q575.2469 109.96354 574.8094 109.96354Q574.3719 109.96354 574.1219 110.27604Q573.8719 110.572914 573.8719 111.041664L573.8719 111.479164ZM577.21564 115.822914Q577.21564 115.05729 577.7 114.572914Q578.2 114.072914 578.96564 114.072914Q579.73126 114.072914 580.21564 114.572914Q580.71564 115.05729 580.71564 115.86979L580.71564 116.27604Q580.71564 117.041664 580.23126 117.541664Q579.7469 118.041664 578.98126 118.041664Q578.21564 118.041664 577.71564 117.55729Q577.21564 117.05729 577.21564 116.24479L577.21564 115.822914ZM578.02814 116.27604Q578.02814 116.74479 578.27814 117.041664Q578.54376 117.33854 578.98126 117.33854Q579.40314 117.33854 579.65314 117.05729Q579.90314 116.760414 579.90314 116.260414L579.90314 115.822914Q579.90314 115.354164 579.6375 115.072914Q579.3875 114.77604 578.96564 114.77604Q578.54376 114.77604 578.27814 115.072914Q578.02814 115.354164 578.02814 115.854164L578.02814 116.27604ZM575.075 117.27604L574.45 116.885414L578.6219 110.21354L579.23126 110.604164L575.075 117.27604Z" fill-rule="nonzero"/><path stroke="#757575" stroke-width="1.0" stroke-linecap="butt" d="M581.45 104.416664L454.76666 104.416664L383.0707 89.34631" fill-rule="nonzero"/><path fill="#9e9e9e" d="M385.0707 89.34631C385.0707 88.24174 384.1753 87.34631 383.0707 87.34631C381.96613 87.34631 381.0707 88.24174 381.0707 89.34631C381.0707 90.45088 381.96613 91.34631 383.0707 91.34631C384.1753 91.34631 385.0707 90.45088 385.0707 89.34631" fill-rule="nonzero"/><path fill="#757575" d="M27.190624 33.815624Q27.190624 32.9875 26.596874 32.55Q26.01875 32.096874 24.4875 31.6125Q22.971874 31.1125 22.08125 30.628124Q19.659374 29.33125 19.659374 27.1125Q19.659374 25.95625 20.3 25.05Q20.95625 24.14375 22.175 23.64375Q23.39375 23.128124 24.909374 23.128124Q26.425 23.128124 27.6125 23.690624Q28.815624 24.2375 29.471874 25.253124Q30.128124 26.253124 30.128124 27.534374L27.20625 27.534374Q27.20625 26.55 26.58125 26.01875Q25.971874 25.471874 24.8625 25.471874Q23.784374 25.471874 23.190624 25.925Q22.596874 26.378124 22.596874 27.1125Q22.596874 27.815624 23.284374 28.284374Q23.9875 28.753124 25.346874 29.159374Q27.846874 29.909374 28.9875 31.034374Q30.128124 32.14375 30.128124 33.8Q30.128124 35.64375 28.7375 36.70625Q27.346874 37.753124 24.971874 37.753124Q23.33125 37.753124 21.9875 37.159374Q20.64375 36.55 19.925 35.503124Q19.221874 34.45625 19.221874 33.08125L22.159374 33.08125Q22.159374 35.425 24.971874 35.425Q26.01875 35.425 26.596874 35.003124Q27.190624 34.58125 27.190624 33.815624ZM36.034374 35.471874Q36.815624 35.471874 37.3 35.05Q37.784374 34.6125 37.8 33.89375L40.45625 33.89375Q40.440624 34.971874 39.8625 35.8625Q39.284374 36.753124 38.284374 37.253124Q37.284374 37.753124 36.08125 37.753124Q33.815624 37.753124 32.503124 36.315624Q31.190624 34.8625 31.190624 32.33125L31.190624 32.14375Q31.190624 29.690624 32.4875 28.2375Q33.8 26.784374 36.065624 26.784374Q38.034374 26.784374 39.2375 27.925Q40.440624 29.05 40.45625 30.925L37.8 30.925Q37.784374 30.096874 37.3 29.58125Q36.815624 29.065624 36.003124 29.065624Q35.01875 29.065624 34.51875 29.784374Q34.01875 30.503124 34.01875 32.1125L34.01875 32.409374Q34.01875 34.05 34.51875 34.76875Q35.01875 35.471874 36.034374 35.471874ZM44.6125 37.55L41.784374 37.55L41.784374 26.9875L44.6125 26.9875L44.6125 37.55ZM41.6125 24.253124Q41.6125 23.6125 42.034374 23.20625Q42.471874 22.8 43.190624 22.8Q43.925 22.8 44.346874 23.20625Q44.784374 23.6125 44.784374 24.253124Q44.784374 24.89375 44.346874 25.3Q43.909374 25.70625 43.190624 25.70625Q42.4875 25.70625 42.05 25.3Q41.6125 24.89375 41.6125 24.253124ZM51.503124 37.753124Q49.175 37.753124 47.70625 36.33125Q46.253124 34.89375 46.253124 32.51875L46.253124 32.253124Q46.253124 30.659374 46.8625 29.409374Q47.4875 28.14375 48.6125 27.471874Q49.7375 26.784374 51.190624 26.784374Q53.346874 26.784374 54.596874 28.159374Q55.846874 29.51875 55.846874 32.034374L55.846874 33.190624L49.1125 33.190624Q49.253124 34.221874 49.940624 34.846874Q50.628124 35.471874 51.690624 35.471874Q53.315624 35.471874 54.2375 34.284374L55.6125 35.846874Q54.9875 36.7375 53.89375 37.253124Q52.815624 37.753124 51.503124 37.753124ZM51.175 29.065624Q50.33125 29.065624 49.8 29.64375Q49.284374 30.20625 49.14375 31.253124L53.065624 31.253124L53.065624 31.034374Q53.05 30.096874 52.565624 29.58125Q52.08125 29.065624 51.175 29.065624ZM60.2375 26.9875L60.315624 28.20625Q61.45625 26.784374 63.3625 26.784374Q65.03438 26.784374 65.84688 27.76875Q66.675 28.753124 66.69063 30.721874L66.69063 37.55L63.878124 37.55L63.878124 30.784374Q63.878124 29.89375 63.4875 29.4875Q63.096874 29.08125 62.190624 29.08125Q60.9875 29.08125 60.39375 30.096874L60.39375 37.55L57.58125 37.55L57.58125 26.9875L60.2375 26.9875ZM73.03438 35.471874Q73.81563 35.471874 74.3 35.05Q74.78438 34.6125 74.8 33.89375L77.45625 33.89375Q77.44063 34.971874 76.8625 35.8625Q76.28438 36.753124 75.28438 37.253124Q74.28438 37.753124 73.08125 37.753124Q70.81563 37.753124 69.50313 36.315624Q68.19063 34.8625 68.19063 32.33125L68.19063 32.14375Q68.19063 29.690624 69.4875 28.2375Q70.8 26.784374 73.06563 26.784374Q75.03438 26.784374 76.2375 27.925Q77.44063 29.05 77.45625 30.925L74.8 30.925Q74.78438 30.096874 74.3 29.58125Q73.81563 29.065624 73.00313 29.065624Q72.01875 29.065624 71.51875 29.784374Q71.01875 30.503124 71.01875 32.1125L71.01875 32.409374Q71.01875 34.05 71.51875 34.76875Q72.01875 35.471874 73.03438 35.471874ZM83.50313 37.753124Q81.175 37.753124 79.70625 36.33125Q78.25313 34.89375 78.25313 32.51875L78.25313 32.253124Q78.25313 30.659374 78.8625 29.409374Q79.4875 28.14375 80.6125 27.471874Q81.7375 26.784374 83.19063 26.784374Q85.34688 26.784374 86.59688 28.159374Q87.84688 29.51875 87.84688 32.034374L87.84688 33.190624L81.1125 33.190624Q81.25313 34.221874 81.94063 34.846874Q82.62813 35.471874 83.69063 35.471874Q85.31563 35.471874 86.2375 34.284374L87.6125 35.846874Q86.9875 36.7375 85.89375 37.253124Q84.81563 37.753124 83.50313 37.753124ZM83.175 29.065624Q82.33125 29.065624 81.8 29.64375Q81.28438 30.20625 81.14375 31.253124L85.06563 31.253124L85.06563 31.034374Q85.05 30.096874 84.56563 29.58125Q84.08125 29.065624 83.175 29.065624Z" fill-rule="nonzero"/></svg>