<svg version="1.1" viewBox="0.0 0.0 600.0 371.0" fill="none" stroke="none" stroke-linecap="square" stroke-miterlimit="10" width="600" height="371" xmlns:xlink="http://www.w3.org/1999/xlink" xmlns="http://www.w3.org/2000/svg"><path fill="#ffffff" d="M0 0L600.0 0L600.0 371.0L0 371.0L0 0Z" fill-rule="nonzero"/><path fill="#cc0000" d="M300.0 54.916668C350.92905 54.916668 398.3187 80.969345 425.60785 123.97017L300.0 203.68333Z" fill-rule="nonzero"/><path fill="#e69138" d="M425.60785 123.97017C439.03467 145.12746 446.8997 169.33351 448.4731 194.3422L300.0 203.68333Z" fill-rule="nonzero"/><path fill="#f1c232" d="M448.4731 194.3422C449.2567 206.79704 448.47003 219.301 446.1316 231.55943L300.0 203.68333Z" fill-rule="nonzero"/><path fill="#3c78d8" d="M446.1316 231.55943C443.79318 243.81786 439.9216 255.73334 434.6081 267.0251L300.0 203.68333Z" fill-rule="nonzero"/><path fill="#674ea7" d="M434.6081 267.0251C429.29462 278.31686 422.5814 288.89517 414.62668 298.51077L300.0 203.68333Z" fill-rule="nonzero"/><path fill="#76a5af" d="M263.00323 59.590446C275.09064 56.486927 287.52054 54.916668 300.0 54.916668L300.0 203.68333Z" fill-rule="nonzero"/><path fill="#434343" d="M158.5145 157.7119C174.25244 109.2755 213.67421 72.25598 263.00323 59.590446L300.0 203.68333Z" fill-rule="nonzero"/><path fill="#cccccc" d="M151.52689 194.3422C152.31049 181.88734 154.65813 169.5806 158.5145 157.7119L300.0 203.68333Z" fill-rule="nonzero"/><path fill="#964b00" d="M414.62668 298.51077C373.54495 348.17007 305.1591 365.72858 245.23534 342.00308C185.31158 318.2776 147.48007 258.66464 151.52689 194.3422L300.0 203.68333Z" fill-rule="nonzero"/><path fill="#1a1a1a" d="M26.096874 62.93229Q26.096874 64.18229 25.675 65.11979Q25.253124 66.041664 24.471874 66.541664Q23.70625 67.041664 22.675 67.041664Q21.675 67.041664 20.89375 66.541664Q20.1125 66.041664 19.675 65.135414Q19.253124 64.21354 19.2375 62.99479L19.2375 62.385414Q19.2375 61.15104 19.659374 60.21354Q20.096874 59.27604 20.878124 58.77604Q21.659374 58.260414 22.675 58.260414Q23.690624 58.260414 24.471874 58.760414Q25.253124 59.260414 25.675 60.197914Q26.096874 61.135414 26.096874 62.385414L26.096874 62.93229ZM24.9875 62.36979Q24.9875 60.854164 24.378124 60.041664Q23.76875 59.229164 22.675 59.229164Q21.596874 59.229164 20.9875 60.041664Q20.378124 60.854164 20.3625 62.291664L20.3625 62.93229Q20.3625 64.40104 20.971874 65.24479Q21.596874 66.072914 22.675 66.072914Q23.76875 66.072914 24.3625 65.291664Q24.971874 64.49479 24.9875 63.010414L24.9875 62.36979ZM28.846874 59.041664L28.846874 60.572914L30.01875 60.572914L30.01875 61.416664L28.846874 61.416664L28.846874 65.33854Q28.846874 65.729164 29.003124 65.916664Q29.159374 66.104164 29.534374 66.104164Q29.721874 66.104164 30.05 66.041664L30.05 66.916664Q29.628124 67.041664 29.221874 67.041664Q28.503124 67.041664 28.128124 66.604164Q27.753124 66.15104 27.753124 65.33854L27.753124 61.416664L26.596874 61.416664L26.596874 60.572914L27.753124 60.572914L27.753124 59.041664L28.846874 59.041664ZM32.45625 61.33854Q33.175 60.46354 34.33125 60.46354Q36.346874 60.46354 36.3625 62.729164L36.3625 66.916664L35.26875 66.916664L35.26875 62.71354Q35.26875 62.041664 34.95625 61.71354Q34.659374 61.385414 34.003124 61.385414Q33.471874 61.385414 33.065624 61.666664Q32.675 61.947914 32.45625 62.40104L32.45625 66.916664L31.378124 66.916664L31.378124 57.916664L32.45625 57.916664L32.45625 61.33854ZM41.003124 67.041664Q39.70625 67.041664 38.89375 66.197914Q38.096874 65.33854 38.096874 63.916664L38.096874 63.729164Q38.096874 62.77604 38.45625 62.041664Q38.815624 61.291664 39.45625 60.885414Q40.1125 60.46354 40.8625 60.46354Q42.096874 60.46354 42.784374 61.27604Q43.471874 62.08854 43.471874 63.604164L43.471874 64.05729L39.175 64.05729Q39.20625 64.99479 39.721874 65.572914Q40.253124 66.15104 41.065624 66.15104Q41.628124 66.15104 42.01875 65.916664Q42.425 65.68229 42.7375 65.291664L43.39375 65.80729Q42.596874 67.041664 41.003124 67.041664ZM40.8625 61.354164Q40.20625 61.354164 39.753124 61.83854Q39.315624 62.30729 39.221874 63.166664L42.39375 63.166664L42.39375 63.08854Q42.346874 62.260414 41.940624 61.80729Q41.55 61.354164 40.8625 61.354164ZM47.440624 61.541664Q47.190624 61.510414 46.909374 61.510414Q45.83125 61.510414 45.45625 62.416664L45.45625 66.916664L44.378124 66.916664L44.378124 60.572914L45.425 60.572914L45.440624 61.30729Q45.971874 60.46354 46.95625 60.46354Q47.26875 60.46354 47.440624 60.541664L47.440624 61.541664Z" fill-rule="nonzero"/><path fill="#9e9e9e" d="M23.83125 82.05729L25.01875 82.05729L25.01875 82.93229L23.83125 82.93229L23.83125 84.916664L22.753124 84.916664L22.753124 82.93229L18.8625 82.93229L18.8625 82.291664L22.675 76.385414L23.83125 76.385414L23.83125 82.05729ZM20.096874 82.05729L22.753124 82.05729L22.753124 77.86979L22.6125 78.104164L20.096874 82.05729ZM26.39375 84.354164Q26.39375 84.072914 26.55 83.885414Q26.721874 83.697914 27.05 83.697914Q27.39375 83.697914 27.565624 83.885414Q27.7375 84.072914 27.7375 84.354164Q27.7375 84.61979 27.565624 84.80729Q27.39375 84.979164 27.05 84.979164Q26.721874 84.979164 26.55 84.80729Q26.39375 84.61979 26.39375 84.354164ZM34.6125 81.27604Q34.6125 83.18229 33.95625 84.11979Q33.315624 85.041664 31.925 85.041664Q30.565624 85.041664 29.909374 84.135414Q29.253124 83.229164 29.221874 81.416664L29.221874 79.979164Q29.221874 78.08854 29.8625 77.18229Q30.51875 76.260414 31.909374 76.260414Q33.284374 76.260414 33.940624 77.15104Q34.596874 78.02604 34.6125 79.86979L34.6125 81.27604ZM33.51875 79.791664Q33.51875 78.416664 33.128124 77.791664Q32.753124 77.15104 31.909374 77.15104Q31.08125 77.15104 30.690624 77.791664Q30.315624 78.416664 30.315624 79.71354L30.315624 81.447914Q30.315624 82.822914 30.70625 83.49479Q31.1125 84.15104 31.925 84.15104Q32.721874 84.15104 33.1125 83.52604Q33.503124 82.90104 33.51875 81.572914L33.51875 79.791664ZM36.159374 78.02604Q36.159374 77.260414 36.64375 76.760414Q37.14375 76.260414 37.909374 76.260414Q38.690624 76.260414 39.175 76.760414Q39.659374 77.260414 39.659374 78.05729L39.659374 78.479164Q39.659374 79.24479 39.159374 79.74479Q38.675 80.229164 37.925 80.229164Q37.159374 80.229164 36.659374 79.74479Q36.159374 79.24479 36.159374 78.43229L36.159374 78.02604ZM36.971874 78.479164Q36.971874 78.93229 37.221874 79.229164Q37.4875 79.52604 37.925 79.52604Q38.346874 79.52604 38.596874 79.24479Q38.846874 78.947914 38.846874 78.447914L38.846874 78.02604Q38.846874 77.572914 38.596874 77.27604Q38.346874 76.96354 37.909374 76.96354Q37.471874 76.96354 37.221874 77.27604Q36.971874 77.572914 36.971874 78.041664L36.971874 78.479164ZM40.315624 82.822914Q40.315624 82.05729 40.8 81.572914Q41.3 81.072914 42.065624 81.072914Q42.83125 81.072914 43.315624 81.572914Q43.815624 82.05729 43.815624 82.86979L43.815624 83.27604Q43.815624 84.041664 43.33125 84.541664Q42.846874 85.041664 42.08125 85.041664Q41.315624 85.041664 40.815624 84.55729Q40.315624 84.05729 40.315624 83.24479L40.315624 82.822914ZM41.128124 83.27604Q41.128124 83.74479 41.378124 84.041664Q41.64375 84.33854 42.08125 84.33854Q42.503124 84.33854 42.753124 84.05729Q43.003124 83.760414 43.003124 83.260414L43.003124 82.822914Q43.003124 82.354164 42.7375 82.072914Q42.4875 81.77604 42.065624 81.77604Q41.64375 81.77604 41.378124 82.072914Q41.128124 82.354164 41.128124 82.854164L41.128124 83.27604ZM38.175 84.27604L37.55 83.885414L41.721874 77.21354L42.33125 77.604164L38.175 84.27604Z" fill-rule="nonzero"/><path stroke="#757575" stroke-width="1.0" stroke-linecap="butt" d="M18.55 71.416664L145.23334 71.416664L282.28687 63.469418" fill-rule="nonzero"/><path fill="#9e9e9e" d="M284.28687 63.469418C284.28687 62.364845 283.39142 61.469418 282.28687 61.469418C281.18228 61.469418 280.28687 62.364845 280.28687 63.469418C280.28687 64.57398 281.18228 65.46941 282.28687 65.46941C283.39142 65.46941 284.28687 64.57398 284.28687 63.469418" fill-rule="nonzero"/><path fill="#1a1a1a" d="M19.534374 99.916664L19.534374 91.385414L22.33125 91.385414Q23.721874 91.385414 24.409374 91.96354Q25.1125 92.52604 25.1125 93.65104Q25.1125 94.260414 24.76875 94.729164Q24.440624 95.18229 23.846874 95.43229Q24.55 95.61979 24.940624 96.166664Q25.346874 96.697914 25.346874 97.447914Q25.346874 98.604164 24.596874 99.260414Q23.8625 99.916664 22.503124 99.916664L19.534374 99.916664ZM20.659374 95.93229L20.659374 98.99479L22.51875 98.99479Q23.315624 98.99479 23.76875 98.58854Q24.221874 98.18229 24.221874 97.46354Q24.221874 95.93229 22.534374 95.93229L20.659374 95.93229ZM20.659374 95.02604L22.3625 95.02604Q23.096874 95.02604 23.534374 94.666664Q23.9875 94.291664 23.9875 93.65104Q23.9875 92.947914 23.58125 92.635414Q23.175 92.30729 22.33125 92.30729L20.659374 92.30729L20.659374 95.02604ZM27.55 99.916664L26.471874 99.916664L26.471874 90.916664L27.55 90.916664L27.55 99.916664ZM33.284374 99.916664Q33.190624 99.729164 33.128124 99.24479Q32.378124 100.041664 31.33125 100.041664Q30.39375 100.041664 29.784374 99.510414Q29.190624 98.979164 29.190624 98.15104Q29.190624 97.166664 29.940624 96.61979Q30.690624 96.072914 32.065624 96.072914L33.1125 96.072914L33.1125 95.572914Q33.1125 95.010414 32.76875 94.68229Q32.440624 94.33854 31.76875 94.33854Q31.190624 94.33854 30.8 94.635414Q30.409374 94.916664 30.409374 95.33854L29.315624 95.33854Q29.315624 94.854164 29.64375 94.416664Q29.9875 93.979164 30.565624 93.729164Q31.14375 93.46354 31.83125 93.46354Q32.940624 93.46354 33.55 94.010414Q34.175 94.55729 34.20625 95.510414L34.20625 98.43229Q34.20625 99.30729 34.425 99.822914L34.425 99.916664L33.284374 99.916664ZM31.4875 99.08854Q32.003124 99.08854 32.45625 98.822914Q32.909374 98.55729 33.1125 98.135414L33.1125 96.83854L32.26875 96.83854Q30.26875 96.83854 30.26875 98.010414Q30.26875 98.510414 30.6125 98.80729Q30.95625 99.08854 31.4875 99.08854ZM38.909374 99.15104Q39.4875 99.15104 39.925 98.80729Q40.3625 98.447914 40.409374 97.916664L41.440624 97.916664Q41.409374 98.46354 41.05 98.96354Q40.70625 99.447914 40.128124 99.74479Q39.565624 100.041664 38.909374 100.041664Q37.6125 100.041664 36.846874 99.18229Q36.096874 98.30729 36.096874 96.80729L36.096874 96.61979Q36.096874 95.697914 36.425 94.979164Q36.76875 94.260414 37.39375 93.86979Q38.034374 93.46354 38.909374 93.46354Q39.971874 93.46354 40.675 94.104164Q41.39375 94.729164 41.440624 95.760414L40.409374 95.760414Q40.3625 95.135414 39.940624 94.74479Q39.51875 94.354164 38.909374 94.354164Q38.08125 94.354164 37.628124 94.947914Q37.175 95.541664 37.175 96.666664L37.175 96.86979Q37.175 97.96354 37.628124 98.55729Q38.08125 99.15104 38.909374 99.15104ZM44.14375 96.979164L43.45625 97.68229L43.45625 99.916664L42.378124 99.916664L42.378124 90.916664L43.45625 90.916664L43.45625 96.354164L44.034374 95.666664L46.01875 93.572914L47.33125 93.572914L44.8625 96.229164L47.628124 99.916664L46.346874 99.916664L44.14375 96.979164Z" fill-rule="nonzero"/><path fill="#9e9e9e" d="M22.815624 117.916664L21.7375 117.916664L21.7375 110.697914L19.55 111.49479L19.55 110.510414L22.659374 109.33854L22.815624 109.33854L22.815624 117.916664ZM30.51875 109.385414L30.51875 110.291664L30.315624 110.291664Q29.05 110.322914 28.3 111.05729Q27.55 111.77604 27.425 113.08854Q28.1125 112.322914 29.26875 112.322914Q30.378124 112.322914 31.05 113.104164Q31.721874 113.885414 31.721874 115.135414Q31.721874 116.447914 31.003124 117.24479Q30.284374 118.041664 29.065624 118.041664Q27.846874 118.041664 27.08125 117.104164Q26.33125 116.15104 26.33125 114.666664L26.33125 114.260414Q26.33125 111.90104 27.33125 110.65104Q28.33125 109.40104 30.315624 109.385414L30.51875 109.385414ZM29.096874 113.229164Q28.534374 113.229164 28.065624 113.55729Q27.596874 113.885414 27.409374 114.40104L27.409374 114.791664Q27.409374 115.854164 27.878124 116.49479Q28.3625 117.135414 29.065624 117.135414Q29.8 117.135414 30.221874 116.604164Q30.64375 116.05729 30.64375 115.18229Q30.64375 114.30729 30.221874 113.77604Q29.8 113.229164 29.096874 113.229164ZM33.39375 117.354164Q33.39375 117.072914 33.55 116.885414Q33.721874 116.697914 34.05 116.697914Q34.39375 116.697914 34.565624 116.885414Q34.7375 117.072914 34.7375 117.354164Q34.7375 117.61979 34.565624 117.80729Q34.39375 117.979164 34.05 117.979164Q33.721874 117.979164 33.55 117.80729Q33.39375 117.61979 33.39375 117.354164ZM41.6125 114.27604Q41.6125 116.18229 40.95625 117.11979Q40.315624 118.041664 38.925 118.041664Q37.565624 118.041664 36.909374 117.135414Q36.253124 116.229164 36.221874 114.416664L36.221874 112.979164Q36.221874 111.08854 36.8625 110.18229Q37.51875 109.260414 38.909374 109.260414Q40.284374 109.260414 40.940624 110.15104Q41.596874 111.02604 41.6125 112.86979L41.6125 114.27604ZM40.51875 112.791664Q40.51875 111.416664 40.128124 110.791664Q39.753124 110.15104 38.909374 110.15104Q38.08125 110.15104 37.690624 110.791664Q37.315624 111.416664 37.315624 112.71354L37.315624 114.447914Q37.315624 115.822914 37.70625 116.49479Q38.1125 117.15104 38.925 117.15104Q39.721874 117.15104 40.1125 116.52604Q40.503124 115.90104 40.51875 114.572914L40.51875 112.791664ZM43.159374 111.02604Q43.159374 110.260414 43.64375 109.760414Q44.14375 109.260414 44.909374 109.260414Q45.690624 109.260414 46.175 109.760414Q46.659374 110.260414 46.659374 111.05729L46.659374 111.479164Q46.659374 112.24479 46.159374 112.74479Q45.675 113.229164 44.925 113.229164Q44.159374 113.229164 43.659374 112.74479Q43.159374 112.24479 43.159374 111.43229L43.159374 111.02604ZM43.971874 111.479164Q43.971874 111.93229 44.221874 112.229164Q44.4875 112.52604 44.925 112.52604Q45.346874 112.52604 45.596874 112.24479Q45.846874 111.947914 45.846874 111.447914L45.846874 111.02604Q45.846874 110.572914 45.596874 110.27604Q45.346874 109.96354 44.909374 109.96354Q44.471874 109.96354 44.221874 110.27604Q43.971874 110.572914 43.971874 111.041664L43.971874 111.479164ZM47.315624 115.822914Q47.315624 115.05729 47.8 114.572914Q48.3 114.072914 49.065624 114.072914Q49.83125 114.072914 50.315624 114.572914Q50.815624 115.05729 50.815624 115.86979L50.815624 116.27604Q50.815624 117.041664 50.33125 117.541664Q49.846874 118.041664 49.08125 118.041664Q48.315624 118.041664 47.815624 117.55729Q47.315624 117.05729 47.315624 116.24479L47.315624 115.822914ZM48.128124 116.27604Q48.128124 116.74479 48.378124 117.041664Q48.64375 117.33854 49.08125 117.33854Q49.503124 117.33854 49.753124 117.05729Q50.003124 116.760414 50.003124 116.260414L50.003124 115.822914Q50.003124 115.354164 49.7375 115.072914Q49.4875 114.77604 49.065624 114.77604Q48.64375 114.77604 48.378124 115.072914Q48.128124 115.354164 48.128124 115.854164L48.128124 116.27604ZM45.175 117.27604L44.55 116.885414L48.721874 110.21354L49.33125 110.604164L45.175 117.27604Z" fill-rule="nonzero"/><path stroke="#757575" stroke-width="1.0" stroke-linecap="butt" d="M18.55 104.416664L145.23334 104.416664L203.2541 100.65941" fill-rule="nonzero"/><path fill="#9e9e9e" d="M205.2541 100.65941C205.2541 99.55484 204.35867 98.65941 203.2541 98.65941C202.14954 98.65941 201.2541 99.55484 201.2541 100.65941C201.2541 101.763985 202.14954 102.65941 203.2541 102.65941C204.35867 102.65941 205.2541 101.763985 205.2541 100.65941" fill-rule="nonzero"/><path fill="#1a1a1a" d="M25.846874 171.57605Q25.409374 172.20105 24.628124 172.51355Q23.846874 172.82605 22.815624 172.82605Q21.784374 172.82605 20.971874 172.34167Q20.159374 171.84167 19.721874 170.93542Q19.284374 170.02917 19.26875 168.84167L19.26875 168.1073Q19.26875 166.1698 20.159374 165.1073Q21.065624 164.0448 22.690624 164.0448Q24.034374 164.0448 24.846874 164.7323Q25.659374 165.4198 25.846874 166.6698L24.721874 166.6698Q24.39375 164.9823 22.70625 164.9823Q21.565624 164.9823 20.9875 165.77917Q20.409374 166.56042 20.39375 168.07605L20.39375 168.76355Q20.39375 170.20105 21.05 171.06042Q21.70625 171.90417 22.83125 171.90417Q23.45625 171.90417 23.925 171.76355Q24.409374 171.62292 24.721874 171.27917L24.721874 169.37292L22.753124 169.37292L22.753124 168.45105L25.846874 168.45105L25.846874 171.57605ZM30.440624 167.32605Q30.190624 167.2948 29.909374 167.2948Q28.83125 167.2948 28.45625 168.20105L28.45625 172.70105L27.378124 172.70105L27.378124 166.3573L28.425 166.3573L28.440624 167.09167Q28.971874 166.24792 29.95625 166.24792Q30.26875 166.24792 30.440624 166.32605L30.440624 167.32605ZM34.003124 172.82605Q32.70625 172.82605 31.89375 171.9823Q31.096874 171.12292 31.096874 169.70105L31.096874 169.51355Q31.096874 168.56042 31.45625 167.82605Q31.815624 167.07605 32.45625 166.6698Q33.1125 166.24792 33.8625 166.24792Q35.096874 166.24792 35.784374 167.06042Q36.471874 167.87292 36.471874 169.38855L36.471874 169.84167L32.175 169.84167Q32.20625 170.77917 32.721874 171.3573Q33.253124 171.93542 34.065624 171.93542Q34.628124 171.93542 35.01875 171.70105Q35.425 171.46667 35.7375 171.07605L36.39375 171.59167Q35.596874 172.82605 34.003124 172.82605ZM33.8625 167.13855Q33.20625 167.13855 32.753124 167.62292Q32.315624 168.09167 32.221874 168.95105L35.39375 168.95105L35.39375 168.87292Q35.346874 168.0448 34.940624 167.59167Q34.55 167.13855 33.8625 167.13855ZM39.440624 171.1073L40.925 166.3573L42.08125 166.3573L39.534374 173.68542Q38.940624 175.26355 37.659374 175.26355L37.440624 175.24792L37.05 175.1698L37.05 174.2948L37.33125 174.31042Q37.89375 174.31042 38.190624 174.09167Q38.503124 173.87292 38.70625 173.27917L38.940624 172.62292L36.675 166.3573L37.8625 166.3573L39.440624 171.1073Z" fill-rule="nonzero"/><path fill="#9e9e9e" d="M23.83125 187.84167L25.01875 187.84167L25.01875 188.71667L23.83125 188.71667L23.83125 190.70105L22.753124 190.70105L22.753124 188.71667L18.8625 188.71667L18.8625 188.07605L22.675 182.1698L23.83125 182.1698L23.83125 187.84167ZM20.096874 187.84167L22.753124 187.84167L22.753124 183.65417L22.6125 183.88855L20.096874 187.84167ZM26.39375 190.13855Q26.39375 189.8573 26.55 189.6698Q26.721874 189.4823 27.05 189.4823Q27.39375 189.4823 27.565624 189.6698Q27.7375 189.8573 27.7375 190.13855Q27.7375 190.40417 27.565624 190.59167Q27.39375 190.76355 27.05 190.76355Q26.721874 190.76355 26.55 190.59167Q26.39375 190.40417 26.39375 190.13855ZM34.6125 187.06042Q34.6125 188.96667 33.95625 189.90417Q33.315624 190.82605 31.925 190.82605Q30.565624 190.82605 29.909374 189.9198Q29.253124 189.01355 29.221874 187.20105L29.221874 185.76355Q29.221874 183.87292 29.8625 182.96667Q30.51875 182.0448 31.909374 182.0448Q33.284374 182.0448 33.940624 182.93542Q34.596874 183.81042 34.6125 185.65417L34.6125 187.06042ZM33.51875 185.57605Q33.51875 184.20105 33.128124 183.57605Q32.753124 182.93542 31.909374 182.93542Q31.08125 182.93542 30.690624 183.57605Q30.315624 184.20105 30.315624 185.49792L30.315624 187.2323Q30.315624 188.6073 30.70625 189.27917Q31.1125 189.93542 31.925 189.93542Q32.721874 189.93542 33.1125 189.31042Q33.503124 188.68542 33.51875 187.3573L33.51875 185.57605ZM36.159374 183.81042Q36.159374 183.0448 36.64375 182.5448Q37.14375 182.0448 37.909374 182.0448Q38.690624 182.0448 39.175 182.5448Q39.659374 183.0448 39.659374 183.84167L39.659374 184.26355Q39.659374 185.02917 39.159374 185.52917Q38.675 186.01355 37.925 186.01355Q37.159374 186.01355 36.659374 185.52917Q36.159374 185.02917 36.159374 184.21667L36.159374 183.81042ZM36.971874 184.26355Q36.971874 184.71667 37.221874 185.01355Q37.4875 185.31042 37.925 185.31042Q38.346874 185.31042 38.596874 185.02917Q38.846874 184.7323 38.846874 184.2323L38.846874 183.81042Q38.846874 183.3573 38.596874 183.06042Q38.346874 182.74792 37.909374 182.74792Q37.471874 182.74792 37.221874 183.06042Q36.971874 183.3573 36.971874 183.82605L36.971874 184.26355ZM40.315624 188.6073Q40.315624 187.84167 40.8 187.3573Q41.3 186.8573 42.065624 186.8573Q42.83125 186.8573 43.315624 187.3573Q43.815624 187.84167 43.815624 188.65417L43.815624 189.06042Q43.815624 189.82605 43.33125 190.32605Q42.846874 190.82605 42.08125 190.82605Q41.315624 190.82605 40.815624 190.34167Q40.315624 189.84167 40.315624 189.02917L40.315624 188.6073ZM41.128124 189.06042Q41.128124 189.52917 41.378124 189.82605Q41.64375 190.12292 42.08125 190.12292Q42.503124 190.12292 42.753124 189.84167Q43.003124 189.5448 43.003124 189.0448L43.003124 188.6073Q43.003124 188.13855 42.7375 187.8573Q42.4875 187.56042 42.065624 187.56042Q41.64375 187.56042 41.378124 187.8573Q41.128124 188.13855 41.128124 188.63855L41.128124 189.06042ZM38.175 190.06042L37.55 189.6698L41.721874 182.99792L42.33125 183.38855L38.175 190.06042Z" fill-rule="nonzero"/><path stroke="#757575" stroke-width="1.0" stroke-linecap="butt" d="M18.55 177.20105L145.23334 177.20105L161.17497 177.20105" fill-rule="nonzero"/><path fill="#9e9e9e" d="M163.17497 177.20105C163.17497 176.09648 162.27956 175.20105 161.17497 175.20105C160.0704 175.20105 159.17497 176.09648 159.17497 177.20105C159.17497 178.30562 160.0704 179.20105 161.17497 179.20105C162.27956 179.20105 163.17497 178.30562 163.17497 177.20105" fill-rule="nonzero"/><path fill="#1a1a1a" d="M19.534374 330.5871L19.534374 322.05585L22.33125 322.05585Q23.721874 322.05585 24.409374 322.63397Q25.1125 323.19647 25.1125 324.32147Q25.1125 324.93085 24.76875 325.3996Q24.440624 325.85272 23.846874 326.10272Q24.55 326.29022 24.940624 326.8371Q25.346874 327.36835 25.346874 328.11835Q25.346874 329.2746 24.596874 329.93085Q23.8625 330.5871 22.503124 330.5871L19.534374 330.5871ZM20.659374 326.60272L20.659374 329.66522L22.51875 329.66522Q23.315624 329.66522 23.76875 329.25897Q24.221874 328.85272 24.221874 328.13397Q24.221874 326.60272 22.534374 326.60272L20.659374 326.60272ZM20.659374 325.69647L22.3625 325.69647Q23.096874 325.69647 23.534374 325.3371Q23.9875 324.9621 23.9875 324.32147Q23.9875 323.61835 23.58125 323.30585Q23.175 322.97772 22.33125 322.97772L20.659374 322.97772L20.659374 325.69647ZM29.440624 325.2121Q29.190624 325.18085 28.909374 325.18085Q27.83125 325.18085 27.45625 326.0871L27.45625 330.5871L26.378124 330.5871L26.378124 324.24335L27.425 324.24335L27.440624 324.97772Q27.971874 324.13397 28.95625 324.13397Q29.26875 324.13397 29.440624 324.2121L29.440624 325.2121ZM30.08125 327.35272Q30.08125 326.43085 30.440624 325.68085Q30.815624 324.93085 31.471874 324.54022Q32.128124 324.13397 32.95625 324.13397Q34.253124 324.13397 35.05 325.0246Q35.8625 325.91522 35.8625 327.41522L35.8625 327.49335Q35.8625 328.41522 35.503124 329.1496Q35.14375 329.88397 34.4875 330.30585Q33.83125 330.7121 32.971874 330.7121Q31.690624 330.7121 30.878124 329.82147Q30.08125 328.91522 30.08125 327.43085L30.08125 327.35272ZM31.175 327.49335Q31.175 328.54022 31.659374 329.18085Q32.159374 329.82147 32.971874 329.82147Q33.8 329.82147 34.284374 329.18085Q34.76875 328.5246 34.76875 327.35272Q34.76875 326.32147 34.26875 325.68085Q33.784374 325.0246 32.95625 325.0246Q32.159374 325.0246 31.659374 325.66522Q31.175 326.29022 31.175 327.49335ZM42.9875 329.0871L44.20625 324.24335L45.284374 324.24335L43.440624 330.5871L42.565624 330.5871L41.01875 325.7746L39.51875 330.5871L38.64375 330.5871L36.8 324.24335L37.878124 324.24335L39.128124 328.99335L40.6125 324.24335L41.471874 324.24335L42.9875 329.0871ZM47.39375 324.24335L47.425 325.04022Q48.159374 324.13397 49.33125 324.13397Q51.346874 324.13397 51.3625 326.3996L51.3625 330.5871L50.26875 330.5871L50.26875 326.38397Q50.26875 325.7121 49.95625 325.38397Q49.659374 325.05585 49.003124 325.05585Q48.471874 325.05585 48.065624 325.3371Q47.675 325.61835 47.45625 326.07147L47.45625 330.5871L46.378124 330.5871L46.378124 324.24335L47.39375 324.24335Z" fill-rule="nonzero"/><path fill="#9e9e9e" d="M23.83125 345.72772L25.01875 345.72772L25.01875 346.60272L23.83125 346.60272L23.83125 348.5871L22.753124 348.5871L22.753124 346.60272L18.8625 346.60272L18.8625 345.9621L22.675 340.05585L23.83125 340.05585L23.83125 345.72772ZM20.096874 345.72772L22.753124 345.72772L22.753124 341.54022L22.6125 341.7746L20.096874 345.72772ZM31.6125 344.94647Q31.6125 346.85272 30.95625 347.79022Q30.315624 348.7121 28.925 348.7121Q27.565624 348.7121 26.909374 347.80585Q26.253124 346.8996 26.221874 345.0871L26.221874 343.6496Q26.221874 341.75897 26.8625 340.85272Q27.51875 339.93085 28.909374 339.93085Q30.284374 339.93085 30.940624 340.82147Q31.596874 341.69647 31.6125 343.54022L31.6125 344.94647ZM30.51875 343.4621Q30.51875 342.0871 30.128124 341.4621Q29.753124 340.82147 28.909374 340.82147Q28.08125 340.82147 27.690624 341.4621Q27.315624 342.0871 27.315624 343.38397L27.315624 345.11835Q27.315624 346.49335 27.70625 347.16522Q28.1125 347.82147 28.925 347.82147Q29.721874 347.82147 30.1125 347.19647Q30.503124 346.57147 30.51875 345.24335L30.51875 343.4621ZM33.39375 348.0246Q33.39375 347.74335 33.55 347.55585Q33.721874 347.36835 34.05 347.36835Q34.39375 347.36835 34.565624 347.55585Q34.7375 347.74335 34.7375 348.0246Q34.7375 348.29022 34.565624 348.47772Q34.39375 348.6496 34.05 348.6496Q33.721874 348.6496 33.55 348.47772Q33.39375 348.29022 33.39375 348.0246ZM41.6125 344.94647Q41.6125 346.85272 40.95625 347.79022Q40.315624 348.7121 38.925 348.7121Q37.565624 348.7121 36.909374 347.80585Q36.253124 346.8996 36.221874 345.0871L36.221874 343.6496Q36.221874 341.75897 36.8625 340.85272Q37.51875 339.93085 38.909374 339.93085Q40.284374 339.93085 40.940624 340.82147Q41.596874 341.69647 41.6125 343.54022L41.6125 344.94647ZM40.51875 343.4621Q40.51875 342.0871 40.128124 341.4621Q39.753124 340.82147 38.909374 340.82147Q38.08125 340.82147 37.690624 341.4621Q37.315624 342.0871 37.315624 343.38397L37.315624 345.11835Q37.315624 346.49335 37.70625 347.16522Q38.1125 347.82147 38.925 347.82147Q39.721874 347.82147 40.1125 347.19647Q40.503124 346.57147 40.51875 345.24335L40.51875 343.4621ZM43.159374 341.69647Q43.159374 340.93085 43.64375 340.43085Q44.14375 339.93085 44.909374 339.93085Q45.690624 339.93085 46.175 340.43085Q46.659374 340.93085 46.659374 341.72772L46.659374 342.1496Q46.659374 342.91522 46.159374 343.41522Q45.675 343.8996 44.925 343.8996Q44.159374 343.8996 43.659374 343.41522Q43.159374 342.91522 43.159374 342.10272L43.159374 341.69647ZM43.971874 342.1496Q43.971874 342.60272 44.221874 342.8996Q44.4875 343.19647 44.925 343.19647Q45.346874 343.19647 45.596874 342.91522Q45.846874 342.61835 45.846874 342.11835L45.846874 341.69647Q45.846874 341.24335 45.596874 340.94647Q45.346874 340.63397 44.909374 340.63397Q44.471874 340.63397 44.221874 340.94647Q43.971874 341.24335 43.971874 341.7121L43.971874 342.1496ZM47.315624 346.49335Q47.315624 345.72772 47.8 345.24335Q48.3 344.74335 49.065624 344.74335Q49.83125 344.74335 50.315624 345.24335Q50.815624 345.72772 50.815624 346.54022L50.815624 346.94647Q50.815624 347.7121 50.33125 348.2121Q49.846874 348.7121 49.08125 348.7121Q48.315624 348.7121 47.815624 348.22772Q47.315624 347.72772 47.315624 346.91522L47.315624 346.49335ZM48.128124 346.94647Q48.128124 347.41522 48.378124 347.7121Q48.64375 348.00897 49.08125 348.00897Q49.503124 348.00897 49.753124 347.72772Q50.003124 347.43085 50.003124 346.93085L50.003124 346.49335Q50.003124 346.0246 49.7375 345.74335Q49.4875 345.44647 49.065624 345.44647Q48.64375 345.44647 48.378124 345.74335Q48.128124 346.0246 48.128124 346.5246L48.128124 346.94647ZM45.175 347.94647L44.55 347.55585L48.721874 340.88397L49.33125 341.2746L45.175 347.94647Z" fill-rule="nonzero"/><path stroke="#757575" stroke-width="1.0" stroke-linecap="butt" d="M18.55 335.0871L145.23334 335.0871L247.97357 335.0871" fill-rule="nonzero"/><path fill="#9e9e9e" d="M249.97357 335.0871C249.97357 333.9825 249.07814 333.0871 247.97357 333.0871C246.869 333.0871 245.97357 333.9825 245.97357 335.0871C245.97357 336.19165 246.869 337.0871 247.97357 337.0871C249.07814 337.0871 249.97357 336.19165 249.97357 335.0871" fill-rule="nonzero"/><path fill="#1a1a1a" d="M565.575 71.88325L563.5594 71.88325L563.5594 75.33637L562.4344 75.33637L562.4344 66.80512L565.2625 66.80512Q566.7 66.80512 567.46564 67.46137Q568.2469 68.11762 568.2469 69.36762Q568.2469 70.1645 567.8094 70.75825Q567.3875 71.352 566.6219 71.64887L568.6219 75.25825L568.6219 75.33637L567.41876 75.33637L565.575 71.88325ZM563.5594 70.96137L565.29376 70.96137Q566.1375 70.96137 566.6219 70.5395Q567.1219 70.102 567.1219 69.36762Q567.1219 68.58637 566.65314 68.1645Q566.1844 67.74262 565.29376 67.727L563.5594 67.727L563.5594 70.96137ZM571.90314 75.46137Q570.60626 75.46137 569.79376 74.61762Q568.9969 73.75825 568.9969 72.33637L568.9969 72.14887Q568.9969 71.19575 569.35626 70.46137Q569.71564 69.71137 570.35626 69.30512Q571.0125 68.88325 571.7625 68.88325Q572.9969 68.88325 573.6844 69.69575Q574.3719 70.50825 574.3719 72.02387L574.3719 72.477L570.075 72.477Q570.10626 73.4145 570.6219 73.99262Q571.15314 74.57075 571.96564 74.57075Q572.52814 74.57075 572.91876 74.33637Q573.325 74.102 573.6375 73.71137L574.29376 74.227Q573.4969 75.46137 571.90314 75.46137ZM571.7625 69.77387Q571.10626 69.77387 570.65314 70.25825Q570.21564 70.727 570.1219 71.58637L573.29376 71.58637L573.29376 71.50825Q573.2469 70.68012 572.84064 70.227Q572.45 69.77387 571.7625 69.77387ZM575.0125 72.11762Q575.0125 70.64887 575.7 69.77387Q576.3875 68.88325 577.5125 68.88325Q578.6219 68.88325 579.27814 69.63325L579.27814 66.33637L580.35626 66.33637L580.35626 75.33637L579.35626 75.33637L579.3094 74.64887Q578.65314 75.46137 577.4969 75.46137Q576.40314 75.46137 575.7 74.55512Q575.0125 73.64887 575.0125 72.19575L575.0125 72.11762ZM576.09064 72.24262Q576.09064 73.32075 576.52814 73.93012Q576.98126 74.5395 577.7625 74.5395Q578.79376 74.5395 579.27814 73.602L579.27814 70.69575Q578.79376 69.80512 577.77814 69.80512Q576.98126 69.80512 576.52814 70.4145Q576.09064 71.02387 576.09064 72.24262Z" fill-rule="nonzero"/><path fill="#9e9e9e" d="M552.71564 93.33637L551.6375 93.33637L551.6375 86.11762L549.45 86.9145L549.45 85.93012L552.5594 84.75825L552.71564 84.75825L552.71564 93.33637ZM560.41876 84.80512L560.41876 85.71137L560.21564 85.71137Q558.95 85.74262 558.2 86.477Q557.45 87.19575 557.325 88.50825Q558.0125 87.74262 559.16876 87.74262Q560.27814 87.74262 560.95 88.52387Q561.6219 89.30512 561.6219 90.55512Q561.6219 91.86762 560.90314 92.6645Q560.1844 93.46137 558.96564 93.46137Q557.7469 93.46137 556.98126 92.52387Q556.23126 91.57075 556.23126 90.08637L556.23126 89.68012Q556.23126 87.32075 557.23126 86.07075Q558.23126 84.82075 560.21564 84.80512L560.41876 84.80512ZM558.9969 88.64887Q558.4344 88.64887 557.96564 88.977Q557.4969 89.30512 557.3094 89.82075L557.3094 90.21137Q557.3094 91.27387 557.77814 91.9145Q558.2625 92.55512 558.96564 92.55512Q559.7 92.55512 560.1219 92.02387Q560.54376 91.477 560.54376 90.602Q560.54376 89.727 560.1219 89.19575Q559.7 88.64887 558.9969 88.64887ZM563.29376 92.77387Q563.29376 92.49262 563.45 92.30512Q563.6219 92.11762 563.95 92.11762Q564.29376 92.11762 564.46564 92.30512Q564.6375 92.49262 564.6375 92.77387Q564.6375 93.0395 564.46564 93.227Q564.29376 93.39887 563.95 93.39887Q563.6219 93.39887 563.45 93.227Q563.29376 93.0395 563.29376 92.77387ZM571.5125 89.69575Q571.5125 91.602 570.85626 92.5395Q570.21564 93.46137 568.825 93.46137Q567.46564 93.46137 566.8094 92.55512Q566.15314 91.64887 566.1219 89.83637L566.1219 88.39887Q566.1219 86.50825 566.7625 85.602Q567.41876 84.68012 568.8094 84.68012Q570.1844 84.68012 570.84064 85.57075Q571.4969 86.44575 571.5125 88.2895L571.5125 89.69575ZM570.41876 88.21137Q570.41876 86.83637 570.02814 86.21137Q569.65314 85.57075 568.8094 85.57075Q567.98126 85.57075 567.59064 86.21137Q567.21564 86.83637 567.21564 88.13325L567.21564 89.86762Q567.21564 91.24262 567.60626 91.9145Q568.0125 92.57075 568.825 92.57075Q569.6219 92.57075 570.0125 91.94575Q570.40314 91.32075 570.41876 89.99262L570.41876 88.21137ZM573.0594 86.44575Q573.0594 85.68012 573.54376 85.18012Q574.04376 84.68012 574.8094 84.68012Q575.59064 84.68012 576.075 85.18012Q576.5594 85.68012 576.5594 86.477L576.5594 86.89887Q576.5594 87.6645 576.0594 88.1645Q575.575 88.64887 574.825 88.64887Q574.0594 88.64887 573.5594 88.1645Q573.0594 87.6645 573.0594 86.852L573.0594 86.44575ZM573.8719 86.89887Q573.8719 87.352 574.1219 87.64887Q574.3875 87.94575 574.825 87.94575Q575.2469 87.94575 575.4969 87.6645Q575.7469 87.36762 575.7469 86.86762L575.7469 86.44575Q575.7469 85.99262 575.4969 85.69575Q575.2469 85.38325 574.8094 85.38325Q574.3719 85.38325 574.1219 85.69575Q573.8719 85.99262 573.8719 86.46137L573.8719 86.89887ZM577.21564 91.24262Q577.21564 90.477 577.7 89.99262Q578.2 89.49262 578.96564 89.49262Q579.73126 89.49262 580.21564 89.99262Q580.71564 90.477 580.71564 91.2895L580.71564 91.69575Q580.71564 92.46137 580.23126 92.96137Q579.7469 93.46137 578.98126 93.46137Q578.21564 93.46137 577.71564 92.977Q577.21564 92.477 577.21564 91.6645L577.21564 91.24262ZM578.02814 91.69575Q578.02814 92.1645 578.27814 92.46137Q578.54376 92.75825 578.98126 92.75825Q579.40314 92.75825 579.65314 92.477Q579.90314 92.18012 579.90314 91.68012L579.90314 91.24262Q579.90314 90.77387 579.6375 90.49262Q579.3875 90.19575 578.96564 90.19575Q578.54376 90.19575 578.27814 90.49262Q578.02814 90.77387 578.02814 91.27387L578.02814 91.69575ZM575.075 92.69575L574.45 92.30512L578.6219 85.63325L579.23126 86.02387L575.075 92.69575Z" fill-rule="nonzero"/><path stroke="#757575" stroke-width="1.0" stroke-linecap="butt" d="M581.45 79.83637L454.76666 79.83637L368.08545 79.83637" fill-rule="nonzero"/><path fill="#9e9e9e" d="M370.08545 79.83637C370.08545 78.731804 369.19 77.83637 368.08545 77.83637C366.98087 77.83637 366.08545 78.731804 366.08545 79.83637C366.08545 80.94094 366.98087 81.83637 368.08545 81.83637C369.19 81.83637 370.08545 80.94094 370.08545 79.83637" fill-rule="nonzero"/><path fill="#1a1a1a" d="M549.9969 151.52611Q549.9969 152.77611 549.575 153.71361Q549.15314 154.63548 548.3719 155.13548Q547.60626 155.63548 546.575 155.63548Q545.575 155.63548 544.79376 155.13548Q544.0125 154.63548 543.575 153.72923Q543.15314 152.80736 543.1375 151.58861L543.1375 150.97923Q543.1375 149.74486 543.5594 148.80736Q543.9969 147.86986 544.77814 147.36986Q545.5594 146.85423 546.575 146.85423Q547.59064 146.85423 548.3719 147.35423Q549.15314 147.85423 549.575 148.79173Q549.9969 149.72923 549.9969 150.97923L549.9969 151.52611ZM548.8875 150.96361Q548.8875 149.44798 548.27814 148.63548Q547.66876 147.82298 546.575 147.82298Q545.4969 147.82298 544.8875 148.63548Q544.27814 149.44798 544.2625 150.88548L544.2625 151.52611Q544.2625 152.99486 544.8719 153.83861Q545.4969 154.66673 546.575 154.66673Q547.66876 154.66673 548.2625 153.88548Q548.8719 153.08861 548.8875 151.60423L548.8875 150.96361ZM554.34064 150.13548Q554.09064 150.10423 553.8094 150.10423Q552.73126 150.10423 552.35626 151.01048L552.35626 155.51048L551.27814 155.51048L551.27814 149.16673L552.325 149.16673L552.34064 149.90111Q552.8719 149.05736 553.85626 149.05736Q554.16876 149.05736 554.34064 149.13548L554.34064 150.13548ZM559.1844 155.51048Q559.09064 155.32298 559.02814 154.83861Q558.27814 155.63548 557.23126 155.63548Q556.29376 155.63548 555.6844 155.10423Q555.09064 154.57298 555.09064 153.74486Q555.09064 152.76048 555.84064 152.21361Q556.59064 151.66673 557.96564 151.66673L559.0125 151.66673L559.0125 151.16673Q559.0125 150.60423 558.66876 150.27611Q558.34064 149.93236 557.66876 149.93236Q557.09064 149.93236 556.7 150.22923Q556.3094 150.51048 556.3094 150.93236L555.21564 150.93236Q555.21564 150.44798 555.54376 150.01048Q555.8875 149.57298 556.46564 149.32298Q557.04376 149.05736 557.73126 149.05736Q558.84064 149.05736 559.45 149.60423Q560.075 150.15111 560.10626 151.10423L560.10626 154.02611Q560.10626 154.90111 560.325 155.41673L560.325 155.51048L559.1844 155.51048ZM557.3875 154.68236Q557.90314 154.68236 558.35626 154.41673Q558.8094 154.15111 559.0125 153.72923L559.0125 152.43236L558.16876 152.43236Q556.16876 152.43236 556.16876 153.60423Q556.16876 154.10423 556.5125 154.40111Q556.85626 154.68236 557.3875 154.68236ZM563.29376 149.16673L563.325 149.96361Q564.0594 149.05736 565.23126 149.05736Q567.2469 149.05736 567.2625 151.32298L567.2625 155.51048L566.16876 155.51048L566.16876 151.30736Q566.16876 150.63548 565.85626 150.30736Q565.5594 149.97923 564.90314 149.97923Q564.3719 149.97923 563.96564 150.26048Q563.575 150.54173 563.35626 150.99486L563.35626 155.51048L562.27814 155.51048L562.27814 149.16673L563.29376 149.16673ZM569.0125 152.29173Q569.0125 150.80736 569.7 149.93236Q570.3875 149.05736 571.5125 149.05736Q572.66876 149.05736 573.325 149.86986L573.3719 149.16673L574.3719 149.16673L574.3719 155.35423Q574.3719 156.58861 573.6375 157.29173Q572.90314 158.01048 571.6844 158.01048Q570.9969 158.01048 570.34064 157.71361Q569.6844 157.41673 569.34064 156.91673L569.90314 156.26048Q570.59064 157.11986 571.60626 157.11986Q572.3875 157.11986 572.825 156.66673Q573.27814 156.22923 573.27814 155.41673L573.27814 154.86986Q572.6219 155.63548 571.4969 155.63548Q570.3875 155.63548 569.7 154.74486Q569.0125 153.83861 569.0125 152.29173ZM570.10626 152.41673Q570.10626 153.47923 570.54376 154.10423Q570.98126 154.71361 571.77814 154.71361Q572.79376 154.71361 573.27814 153.77611L573.27814 150.88548Q572.77814 149.97923 571.77814 149.97923Q570.9969 149.97923 570.54376 150.58861Q570.10626 151.19798 570.10626 152.41673ZM578.90314 155.63548Q577.60626 155.63548 576.79376 154.79173Q575.9969 153.93236 575.9969 152.51048L575.9969 152.32298Q575.9969 151.36986 576.35626 150.63548Q576.71564 149.88548 577.35626 149.47923Q578.0125 149.05736 578.7625 149.05736Q579.9969 149.05736 580.6844 149.86986Q581.3719 150.68236 581.3719 152.19798L581.3719 152.65111L577.075 152.65111Q577.10626 153.58861 577.6219 154.16673Q578.15314 154.74486 578.96564 154.74486Q579.52814 154.74486 579.91876 154.51048Q580.325 154.27611 580.6375 153.88548L581.29376 154.40111Q580.4969 155.63548 578.90314 155.63548ZM578.7625 149.94798Q578.10626 149.94798 577.65314 150.43236Q577.21564 150.90111 577.1219 151.76048L580.29376 151.76048L580.29376 151.68236Q580.2469 150.85423 579.84064 150.40111Q579.45 149.94798 578.7625 149.94798Z" fill-rule="nonzero"/><path fill="#9e9e9e" d="M561.34064 167.19798Q561.34064 167.83861 560.9969 168.33861Q560.65314 168.83861 560.09064 169.11986Q560.7469 169.40111 561.1375 169.96361Q561.52814 170.51048 561.52814 171.21361Q561.52814 172.30736 560.77814 172.97923Q560.04376 173.63548 558.825 173.63548Q557.59064 173.63548 556.84064 172.97923Q556.10626 172.30736 556.10626 171.21361Q556.10626 170.51048 556.48126 169.96361Q556.85626 169.40111 557.52814 169.11986Q556.96564 168.83861 556.6375 168.33861Q556.3094 167.83861 556.3094 167.19798Q556.3094 166.11986 556.9969 165.49486Q557.6844 164.85423 558.825 164.85423Q559.95 164.85423 560.6375 165.49486Q561.34064 166.11986 561.34064 167.19798ZM560.45 171.18236Q560.45 170.46361 559.9969 170.02611Q559.54376 169.57298 558.8094 169.57298Q558.075 169.57298 557.6219 170.02611Q557.1844 170.46361 557.1844 171.19798Q557.1844 171.91673 557.6219 172.33861Q558.0594 172.74486 558.825 172.74486Q559.575 172.74486 560.0125 172.32298Q560.45 171.90111 560.45 171.18236ZM558.825 165.74486Q558.1844 165.74486 557.77814 166.15111Q557.3875 166.54173 557.3875 167.22923Q557.3875 167.86986 557.77814 168.27611Q558.16876 168.68236 558.8094 168.68236Q559.46564 168.68236 559.85626 168.27611Q560.2469 167.86986 560.2469 167.22923Q560.2469 166.57298 559.84064 166.16673Q559.4344 165.74486 558.825 165.74486ZM563.29376 172.94798Q563.29376 172.66673 563.45 172.47923Q563.6219 172.29173 563.95 172.29173Q564.29376 172.29173 564.46564 172.47923Q564.6375 172.66673 564.6375 172.94798Q564.6375 173.21361 564.46564 173.40111Q564.29376 173.57298 563.95 173.57298Q563.6219 173.57298 563.45 173.40111Q563.29376 173.21361 563.29376 172.94798ZM571.5125 169.86986Q571.5125 171.77611 570.85626 172.71361Q570.21564 173.63548 568.825 173.63548Q567.46564 173.63548 566.8094 172.72923Q566.15314 171.82298 566.1219 170.01048L566.1219 168.57298Q566.1219 166.68236 566.7625 165.77611Q567.41876 164.85423 568.8094 164.85423Q570.1844 164.85423 570.84064 165.74486Q571.4969 166.61986 571.5125 168.46361L571.5125 169.86986ZM570.41876 168.38548Q570.41876 167.01048 570.02814 166.38548Q569.65314 165.74486 568.8094 165.74486Q567.98126 165.74486 567.59064 166.38548Q567.21564 167.01048 567.21564 168.30736L567.21564 170.04173Q567.21564 171.41673 567.60626 172.08861Q568.0125 172.74486 568.825 172.74486Q569.6219 172.74486 570.0125 172.11986Q570.40314 171.49486 570.41876 170.16673L570.41876 168.38548ZM573.0594 166.61986Q573.0594 165.85423 573.54376 165.35423Q574.04376 164.85423 574.8094 164.85423Q575.59064 164.85423 576.075 165.35423Q576.5594 165.85423 576.5594 166.65111L576.5594 167.07298Q576.5594 167.83861 576.0594 168.33861Q575.575 168.82298 574.825 168.82298Q574.0594 168.82298 573.5594 168.33861Q573.0594 167.83861 573.0594 167.02611L573.0594 166.61986ZM573.8719 167.07298Q573.8719 167.52611 574.1219 167.82298Q574.3875 168.11986 574.825 168.11986Q575.2469 168.11986 575.4969 167.83861Q575.7469 167.54173 575.7469 167.04173L575.7469 166.61986Q575.7469 166.16673 575.4969 165.86986Q575.2469 165.55736 574.8094 165.55736Q574.3719 165.55736 574.1219 165.86986Q573.8719 166.16673 573.8719 166.63548L573.8719 167.07298ZM577.21564 171.41673Q577.21564 170.65111 577.7 170.16673Q578.2 169.66673 578.96564 169.66673Q579.73126 169.66673 580.21564 170.16673Q580.71564 170.65111 580.71564 171.46361L580.71564 171.86986Q580.71564 172.63548 580.23126 173.13548Q579.7469 173.63548 578.98126 173.63548Q578.21564 173.63548 577.71564 173.15111Q577.21564 172.65111 577.21564 171.83861L577.21564 171.41673ZM578.02814 171.86986Q578.02814 172.33861 578.27814 172.63548Q578.54376 172.93236 578.98126 172.93236Q579.40314 172.93236 579.65314 172.65111Q579.90314 172.35423 579.90314 171.85423L579.90314 171.41673Q579.90314 170.94798 579.6375 170.66673Q579.3875 170.36986 578.96564 170.36986Q578.54376 170.36986 578.27814 170.66673Q578.02814 170.94798 578.02814 171.44798L578.02814 171.86986ZM575.075 172.86986L574.45 172.47923L578.6219 165.80736L579.23126 166.19798L575.075 172.86986Z" fill-rule="nonzero"/><path stroke="#757575" stroke-width="1.0" stroke-linecap="butt" d="M581.45 160.01048L454.76666 160.01048L434.41122 160.01048" fill-rule="nonzero"/><path fill="#9e9e9e" d="M436.41122 160.01048C436.41122 158.90591 435.5158 158.01048 434.41122 158.01048C433.30667 158.01048 432.41122 158.90591 432.41122 160.01048C432.41122 161.11505 433.30667 162.01048 434.41122 162.01048C435.5158 162.01048 436.41122 161.11505 436.41122 160.01048" fill-rule="nonzero"/><path fill="#1a1a1a" d="M550.04376 203.80742L552.2625 199.52617L553.54376 199.52617L550.60626 204.86992L550.60626 208.05742L549.48126 208.05742L549.48126 204.86992L546.54376 199.52617L547.825 199.52617L550.04376 203.80742ZM556.90314 208.18242Q555.60626 208.18242 554.79376 207.33867Q553.9969 206.4793 553.9969 205.05742L553.9969 204.86992Q553.9969 203.9168 554.35626 203.18242Q554.71564 202.43242 555.35626 202.02617Q556.0125 201.6043 556.7625 201.6043Q557.9969 201.6043 558.6844 202.4168Q559.3719 203.2293 559.3719 204.74492L559.3719 205.19804L555.075 205.19804Q555.10626 206.13554 555.6219 206.71367Q556.15314 207.2918 556.96564 207.2918Q557.52814 207.2918 557.91876 207.05742Q558.325 206.82304 558.6375 206.43242L559.29376 206.94804Q558.4969 208.18242 556.90314 208.18242ZM556.7625 202.49492Q556.10626 202.49492 555.65314 202.9793Q555.21564 203.44804 555.1219 204.30742L558.29376 204.30742L558.29376 204.2293Q558.2469 203.40117 557.84064 202.94804Q557.45 202.49492 556.7625 202.49492ZM561.45 208.05742L560.3719 208.05742L560.3719 199.05742L561.45 199.05742L561.45 208.05742ZM564.45 208.05742L563.3719 208.05742L563.3719 199.05742L564.45 199.05742L564.45 208.05742ZM565.98126 204.82304Q565.98126 203.90117 566.34064 203.15117Q566.71564 202.40117 567.3719 202.01054Q568.02814 201.6043 568.85626 201.6043Q570.15314 201.6043 570.95 202.49492Q571.7625 203.38554 571.7625 204.88554L571.7625 204.96367Q571.7625 205.88554 571.40314 206.61992Q571.04376 207.3543 570.3875 207.77617Q569.73126 208.18242 568.8719 208.18242Q567.59064 208.18242 566.77814 207.2918Q565.98126 206.38554 565.98126 204.90117L565.98126 204.82304ZM567.075 204.96367Q567.075 206.01054 567.5594 206.65117Q568.0594 207.2918 568.8719 207.2918Q569.7 207.2918 570.1844 206.65117Q570.66876 205.99492 570.66876 204.82304Q570.66876 203.7918 570.16876 203.15117Q569.6844 202.49492 568.85626 202.49492Q568.0594 202.49492 567.5594 203.13554Q567.075 203.76054 567.075 204.96367ZM578.8875 206.55742L580.10626 201.71367L581.1844 201.71367L579.34064 208.05742L578.46564 208.05742L576.91876 203.24492L575.41876 208.05742L574.54376 208.05742L572.7 201.71367L573.77814 201.71367L575.02814 206.46367L576.5125 201.71367L577.3719 201.71367L578.8875 206.55742Z" fill-rule="nonzero"/><path fill="#9e9e9e" d="M560.73126 223.19804L561.91876 223.19804L561.91876 224.07304L560.73126 224.07304L560.73126 226.05742L559.65314 226.05742L559.65314 224.07304L555.7625 224.07304L555.7625 223.43242L559.575 217.52617L560.73126 217.52617L560.73126 223.19804ZM556.9969 223.19804L559.65314 223.19804L559.65314 219.01054L559.5125 219.24492L556.9969 223.19804ZM563.29376 225.49492Q563.29376 225.21367 563.45 225.02617Q563.6219 224.83867 563.95 224.83867Q564.29376 224.83867 564.46564 225.02617Q564.6375 225.21367 564.6375 225.49492Q564.6375 225.76054 564.46564 225.94804Q564.29376 226.11992 563.95 226.11992Q563.6219 226.11992 563.45 225.94804Q563.29376 225.76054 563.29376 225.49492ZM571.5125 222.4168Q571.5125 224.32304 570.85626 225.26054Q570.21564 226.18242 568.825 226.18242Q567.46564 226.18242 566.8094 225.27617Q566.15314 224.36992 566.1219 222.55742L566.1219 221.11992Q566.1219 219.2293 566.7625 218.32304Q567.41876 217.40117 568.8094 217.40117Q570.1844 217.40117 570.84064 218.2918Q571.4969 219.1668 571.5125 221.01054L571.5125 222.4168ZM570.41876 220.93242Q570.41876 219.55742 570.02814 218.93242Q569.65314 218.2918 568.8094 218.2918Q567.98126 218.2918 567.59064 218.93242Q567.21564 219.55742 567.21564 220.8543L567.21564 222.58867Q567.21564 223.96367 567.60626 224.63554Q568.0125 225.2918 568.825 225.2918Q569.6219 225.2918 570.0125 224.6668Q570.40314 224.0418 570.41876 222.71367L570.41876 220.93242ZM573.0594 219.1668Q573.0594 218.40117 573.54376 217.90117Q574.04376 217.40117 574.8094 217.40117Q575.59064 217.40117 576.075 217.90117Q576.5594 218.40117 576.5594 219.19804L576.5594 219.61992Q576.5594 220.38554 576.0594 220.88554Q575.575 221.36992 574.825 221.36992Q574.0594 221.36992 573.5594 220.88554Q573.0594 220.38554 573.0594 219.57304L573.0594 219.1668ZM573.8719 219.61992Q573.8719 220.07304 574.1219 220.36992Q574.3875 220.6668 574.825 220.6668Q575.2469 220.6668 575.4969 220.38554Q575.7469 220.08867 575.7469 219.58867L575.7469 219.1668Q575.7469 218.71367 575.4969 218.4168Q575.2469 218.1043 574.8094 218.1043Q574.3719 218.1043 574.1219 218.4168Q573.8719 218.71367 573.8719 219.18242L573.8719 219.61992ZM577.21564 223.96367Q577.21564 223.19804 577.7 222.71367Q578.2 222.21367 578.96564 222.21367Q579.73126 222.21367 580.21564 222.71367Q580.71564 223.19804 580.71564 224.01054L580.71564 224.4168Q580.71564 225.18242 580.23126 225.68242Q579.7469 226.18242 578.98126 226.18242Q578.21564 226.18242 577.71564 225.69804Q577.21564 225.19804 577.21564 224.38554L577.21564 223.96367ZM578.02814 224.4168Q578.02814 224.88554 578.27814 225.18242Q578.54376 225.4793 578.98126 225.4793Q579.40314 225.4793 579.65314 225.19804Q579.90314 224.90117 579.90314 224.40117L579.90314 223.96367Q579.90314 223.49492 579.6375 223.21367Q579.3875 222.9168 578.96564 222.9168Q578.54376 222.9168 578.27814 223.21367Q578.02814 223.49492 578.02814 223.99492L578.02814 224.4168ZM575.075 225.4168L574.45 225.02617L578.6219 218.3543L579.23126 218.74492L575.075 225.4168Z" fill-rule="nonzero"/><path stroke="#757575" stroke-width="1.0" stroke-linecap="butt" d="M581.45 212.55742L454.76666 212.55742L441.04947 212.55742" fill-rule="nonzero"/><path fill="#9e9e9e" d="M443.04947 212.55742C443.04947 211.45285 442.15402 210.55742 441.04947 210.55742C439.9449 210.55742 439.04947 211.45285 439.04947 212.55742C439.04947 213.66199 439.9449 214.55742 441.04947 214.55742C442.15402 214.55742 443.04947 213.66199 443.04947 212.55742" fill-rule="nonzero"/><path fill="#1a1a1a" d="M559.4344 242.38351L559.4344 233.85226L562.23126 233.85226Q563.6219 233.85226 564.3094 234.43039Q565.0125 234.99289 565.0125 236.11789Q565.0125 236.72726 564.66876 237.19601Q564.34064 237.64914 563.7469 237.89914Q564.45 238.08664 564.84064 238.63351Q565.2469 239.16476 565.2469 239.91476Q565.2469 241.07101 564.4969 241.72726Q563.7625 242.38351 562.40314 242.38351L559.4344 242.38351ZM560.5594 238.39914L560.5594 241.46164L562.41876 241.46164Q563.21564 241.46164 563.66876 241.05539Q564.1219 240.64914 564.1219 239.93039Q564.1219 238.39914 562.4344 238.39914L560.5594 238.39914ZM560.5594 237.49289L562.2625 237.49289Q562.9969 237.49289 563.4344 237.13351Q563.8875 236.75851 563.8875 236.11789Q563.8875 235.41476 563.48126 235.10226Q563.075 234.77414 562.23126 234.77414L560.5594 234.77414L560.5594 237.49289ZM567.45 242.38351L566.3719 242.38351L566.3719 233.38351L567.45 233.38351L567.45 242.38351ZM573.1844 241.75851Q572.5594 242.50851 571.325 242.50851Q570.3094 242.50851 569.77814 241.91476Q569.2469 241.32101 569.2469 240.16476L569.2469 236.03976L570.325 236.03976L570.325 240.13351Q570.325 241.58664 571.4969 241.58664Q572.7469 241.58664 573.15314 240.64914L573.15314 236.03976L574.2469 236.03976L574.2469 242.38351L573.21564 242.38351L573.1844 241.75851ZM578.90314 242.50851Q577.60626 242.50851 576.79376 241.66476Q575.9969 240.80539 575.9969 239.38351L575.9969 239.19601Q575.9969 238.24289 576.35626 237.50851Q576.71564 236.75851 577.35626 236.35226Q578.0125 235.93039 578.7625 235.93039Q579.9969 235.93039 580.6844 236.74289Q581.3719 237.55539 581.3719 239.07101L581.3719 239.52414L577.075 239.52414Q577.10626 240.46164 577.6219 241.03976Q578.15314 241.61789 578.96564 241.61789Q579.52814 241.61789 579.91876 241.38351Q580.325 241.14914 580.6375 240.75851L581.29376 241.27414Q580.4969 242.50851 578.90314 242.50851ZM578.7625 236.82101Q578.10626 236.82101 577.65314 237.30539Q577.21564 237.77414 577.1219 238.63351L580.29376 238.63351L580.29376 238.55539Q580.2469 237.72726 579.84064 237.27414Q579.45 236.82101 578.7625 236.82101Z" fill-rule="nonzero"/><path fill="#9e9e9e" d="M560.73126 257.52414L561.91876 257.52414L561.91876 258.39914L560.73126 258.39914L560.73126 260.3835L559.65314 260.3835L559.65314 258.39914L555.7625 258.39914L555.7625 257.7585L559.575 251.85226L560.73126 251.85226L560.73126 257.52414ZM556.9969 257.52414L559.65314 257.52414L559.65314 253.33664L559.5125 253.57101L556.9969 257.52414ZM563.29376 259.821Q563.29376 259.53976 563.45 259.35226Q563.6219 259.16476 563.95 259.16476Q564.29376 259.16476 564.46564 259.35226Q564.6375 259.53976 564.6375 259.821Q564.6375 260.08664 564.46564 260.27414Q564.29376 260.446 563.95 260.446Q563.6219 260.446 563.45 260.27414Q563.29376 260.08664 563.29376 259.821ZM571.5125 256.7429Q571.5125 258.64914 570.85626 259.58664Q570.21564 260.5085 568.825 260.5085Q567.46564 260.5085 566.8094 259.60226Q566.15314 258.696 566.1219 256.8835L566.1219 255.44601Q566.1219 253.55539 566.7625 252.64914Q567.41876 251.72726 568.8094 251.72726Q570.1844 251.72726 570.84064 252.61789Q571.4969 253.49289 571.5125 255.33664L571.5125 256.7429ZM570.41876 255.25851Q570.41876 253.88351 570.02814 253.25851Q569.65314 252.61789 568.8094 252.61789Q567.98126 252.61789 567.59064 253.25851Q567.21564 253.88351 567.21564 255.18039L567.21564 256.91476Q567.21564 258.28976 567.60626 258.96164Q568.0125 259.6179 568.825 259.6179Q569.6219 259.6179 570.0125 258.9929Q570.40314 258.3679 570.41876 257.03976L570.41876 255.25851ZM573.0594 253.49289Q573.0594 252.72726 573.54376 252.22726Q574.04376 251.72726 574.8094 251.72726Q575.59064 251.72726 576.075 252.22726Q576.5594 252.72726 576.5594 253.52414L576.5594 253.94601Q576.5594 254.71164 576.0594 255.21164Q575.575 255.69601 574.825 255.69601Q574.0594 255.69601 573.5594 255.21164Q573.0594 254.71164 573.0594 253.89914L573.0594 253.49289ZM573.8719 253.94601Q573.8719 254.39914 574.1219 254.69601Q574.3875 254.99289 574.825 254.99289Q575.2469 254.99289 575.4969 254.71164Q575.7469 254.41476 575.7469 253.91476L575.7469 253.49289Q575.7469 253.03976 575.4969 252.74289Q575.2469 252.43039 574.8094 252.43039Q574.3719 252.43039 574.1219 252.74289Q573.8719 253.03976 573.8719 253.50851L573.8719 253.94601ZM577.21564 258.28976Q577.21564 257.52414 577.7 257.03976Q578.2 256.53976 578.96564 256.53976Q579.73126 256.53976 580.21564 257.03976Q580.71564 257.52414 580.71564 258.33664L580.71564 258.7429Q580.71564 259.5085 580.23126 260.0085Q579.7469 260.5085 578.98126 260.5085Q578.21564 260.5085 577.71564 260.02414Q577.21564 259.52414 577.21564 258.71164L577.21564 258.28976ZM578.02814 258.7429Q578.02814 259.21164 578.27814 259.5085Q578.54376 259.8054 578.98126 259.8054Q579.40314 259.8054 579.65314 259.52414Q579.90314 259.22726 579.90314 258.72726L579.90314 258.28976Q579.90314 257.821 579.6375 257.53976Q579.3875 257.2429 578.96564 257.2429Q578.54376 257.2429 578.27814 257.53976Q578.02814 257.821 578.02814 258.321L578.02814 258.7429ZM575.075 259.7429L574.45 259.35226L578.6219 252.68039L579.23126 253.07101L575.075 259.7429Z" fill-rule="nonzero"/><path stroke="#757575" stroke-width="1.0" stroke-linecap="butt" d="M581.45 246.88351L454.76666 246.88351L434.41122 247.35619" fill-rule="nonzero"/><path fill="#9e9e9e" d="M436.41122 247.35619C436.41122 246.25162 435.5158 245.35619 434.41122 245.35619C433.30667 245.35619 432.41122 246.25162 432.41122 247.35619C432.41122 248.46075 433.30667 249.35619 434.41122 249.35619C435.5158 249.35619 436.41122 248.46075 436.41122 247.35619" fill-rule="nonzero"/><path fill="#1a1a1a" d="M548.5594 272.03976L548.5594 275.3835L547.4344 275.3835L547.4344 266.85226L550.59064 266.85226Q551.98126 266.85226 552.77814 267.571Q553.575 268.27414 553.575 269.46164Q553.575 270.696 552.79376 271.3679Q552.02814 272.03976 550.575 272.03976L548.5594 272.03976ZM548.5594 271.1179L550.59064 271.1179Q551.4969 271.1179 551.96564 270.696Q552.45 270.27414 552.45 269.47726Q552.45 268.71164 551.96564 268.2585Q551.4969 267.78976 550.65314 267.77414L548.5594 267.77414L548.5594 271.1179ZM559.1844 274.7585Q558.5594 275.5085 557.325 275.5085Q556.3094 275.5085 555.77814 274.91476Q555.2469 274.321 555.2469 273.16476L555.2469 269.03976L556.325 269.03976L556.325 273.1335Q556.325 274.58664 557.4969 274.58664Q558.7469 274.58664 559.15314 273.64914L559.15314 269.03976L560.2469 269.03976L560.2469 275.3835L559.21564 275.3835L559.1844 274.7585ZM565.34064 270.0085Q565.09064 269.97726 564.8094 269.97726Q563.73126 269.97726 563.35626 270.8835L563.35626 275.3835L562.27814 275.3835L562.27814 269.03976L563.325 269.03976L563.34064 269.77414Q563.8719 268.9304 564.85626 268.9304Q565.16876 268.9304 565.34064 269.0085L565.34064 270.0085ZM571.6219 272.28976Q571.6219 273.72726 570.96564 274.6179Q570.3094 275.5085 569.16876 275.5085Q568.0125 275.5085 567.35626 274.77414L567.35626 277.821L566.27814 277.821L566.27814 269.03976L567.2625 269.03976L567.3094 269.7429Q567.98126 268.9304 569.15314 268.9304Q570.29376 268.9304 570.95 269.78976Q571.6219 270.64914 571.6219 272.1804L571.6219 272.28976ZM570.54376 272.16476Q570.54376 271.08664 570.075 270.47726Q569.6219 269.85226 568.825 269.85226Q567.84064 269.85226 567.35626 270.71164L567.35626 273.7429Q567.84064 274.6179 568.84064 274.6179Q569.6219 274.6179 570.075 274.0085Q570.54376 273.3835 570.54376 272.16476ZM574.45 275.3835L573.3719 275.3835L573.3719 266.3835L574.45 266.3835L574.45 275.3835ZM578.90314 275.5085Q577.60626 275.5085 576.79376 274.66476Q575.9969 273.8054 575.9969 272.3835L575.9969 272.196Q575.9969 271.2429 576.35626 270.5085Q576.71564 269.7585 577.35626 269.35226Q578.0125 268.9304 578.7625 268.9304Q579.9969 268.9304 580.6844 269.7429Q581.3719 270.5554 581.3719 272.071L581.3719 272.52414L577.075 272.52414Q577.10626 273.46164 577.6219 274.03976Q578.15314 274.6179 578.96564 274.6179Q579.52814 274.6179 579.91876 274.3835Q580.325 274.14914 580.6375 273.7585L581.29376 274.27414Q580.4969 275.5085 578.90314 275.5085ZM578.7625 269.821Q578.10626 269.821 577.65314 270.3054Q577.21564 270.77414 577.1219 271.6335L580.29376 271.6335L580.29376 271.5554Q580.2469 270.72726 579.84064 270.27414Q579.45 269.821 578.7625 269.821Z" fill-rule="nonzero"/><path fill="#9e9e9e" d="M560.73126 290.52414L561.91876 290.52414L561.91876 291.39914L560.73126 291.39914L560.73126 293.3835L559.65314 293.3835L559.65314 291.39914L555.7625 291.39914L555.7625 290.7585L559.575 284.85226L560.73126 284.85226L560.73126 290.52414ZM556.9969 290.52414L559.65314 290.52414L559.65314 286.33664L559.5125 286.571L556.9969 290.52414ZM563.29376 292.821Q563.29376 292.53976 563.45 292.35226Q563.6219 292.16476 563.95 292.16476Q564.29376 292.16476 564.46564 292.35226Q564.6375 292.53976 564.6375 292.821Q564.6375 293.08664 564.46564 293.27414Q564.29376 293.446 563.95 293.446Q563.6219 293.446 563.45 293.27414Q563.29376 293.08664 563.29376 292.821ZM571.5125 289.7429Q571.5125 291.64914 570.85626 292.58664Q570.21564 293.5085 568.825 293.5085Q567.46564 293.5085 566.8094 292.60226Q566.15314 291.696 566.1219 289.8835L566.1219 288.446Q566.1219 286.5554 566.7625 285.64914Q567.41876 284.72726 568.8094 284.72726Q570.1844 284.72726 570.84064 285.6179Q571.4969 286.4929 571.5125 288.33664L571.5125 289.7429ZM570.41876 288.2585Q570.41876 286.8835 570.02814 286.2585Q569.65314 285.6179 568.8094 285.6179Q567.98126 285.6179 567.59064 286.2585Q567.21564 286.8835 567.21564 288.1804L567.21564 289.91476Q567.21564 291.28976 567.60626 291.96164Q568.0125 292.6179 568.825 292.6179Q569.6219 292.6179 570.0125 291.9929Q570.40314 291.3679 570.41876 290.03976L570.41876 288.2585ZM573.0594 286.4929Q573.0594 285.72726 573.54376 285.22726Q574.04376 284.72726 574.8094 284.72726Q575.59064 284.72726 576.075 285.22726Q576.5594 285.72726 576.5594 286.52414L576.5594 286.946Q576.5594 287.71164 576.0594 288.21164Q575.575 288.696 574.825 288.696Q574.0594 288.696 573.5594 288.21164Q573.0594 287.71164 573.0594 286.89914L573.0594 286.4929ZM573.8719 286.946Q573.8719 287.39914 574.1219 287.696Q574.3875 287.9929 574.825 287.9929Q575.2469 287.9929 575.4969 287.71164Q575.7469 287.41476 575.7469 286.91476L575.7469 286.4929Q575.7469 286.03976 575.4969 285.7429Q575.2469 285.4304 574.8094 285.4304Q574.3719 285.4304 574.1219 285.7429Q573.8719 286.03976 573.8719 286.5085L573.8719 286.946ZM577.21564 291.28976Q577.21564 290.52414 577.7 290.03976Q578.2 289.53976 578.96564 289.53976Q579.73126 289.53976 580.21564 290.03976Q580.71564 290.52414 580.71564 291.33664L580.71564 291.7429Q580.71564 292.5085 580.23126 293.0085Q579.7469 293.5085 578.98126 293.5085Q578.21564 293.5085 577.71564 293.02414Q577.21564 292.52414 577.21564 291.71164L577.21564 291.28976ZM578.02814 291.7429Q578.02814 292.21164 578.27814 292.5085Q578.54376 292.8054 578.98126 292.8054Q579.40314 292.8054 579.65314 292.52414Q579.90314 292.22726 579.90314 291.72726L579.90314 291.28976Q579.90314 290.821 579.6375 290.53976Q579.3875 290.2429 578.96564 290.2429Q578.54376 290.2429 578.27814 290.53976Q578.02814 290.821 578.02814 291.321L578.02814 291.7429ZM575.075 292.7429L574.45 292.35226L578.6219 285.6804L579.23126 286.071L575.075 292.7429Z" fill-rule="nonzero"/><path stroke="#757575" stroke-width="1.0" stroke-linecap="butt" d="M581.45 279.8835L454.76666 279.8835L419.32745 279.41083" fill-rule="nonzero"/><path fill="#9e9e9e" d="M421.32745 279.41083C421.32745 278.30627 420.43204 277.41083 419.32745 277.41083C418.2229 277.41083 417.32745 278.30627 417.32745 279.41083C417.32745 280.5154 418.2229 281.41083 419.32745 281.41083C420.43204 281.41083 421.32745 280.5154 421.32745 279.41083" fill-rule="nonzero"/><path fill="#757575" d="M31.39375 37.55L28.45625 37.55L28.45625 31.45625L22.753124 31.45625L22.753124 37.55L19.815624 37.55L19.815624 23.33125L22.753124 23.33125L22.753124 29.096874L28.45625 29.096874L28.45625 23.33125L31.39375 23.33125L31.39375 37.55ZM36.6125 37.55L33.784374 37.55L33.784374 26.9875L36.6125 26.9875L36.6125 37.55ZM33.6125 24.253124Q33.6125 23.6125 34.034374 23.20625Q34.471874 22.8 35.190624 22.8Q35.925 22.8 36.346874 23.20625Q36.784374 23.6125 36.784374 24.253124Q36.784374 24.89375 36.346874 25.3Q35.909374 25.70625 35.190624 25.70625Q34.4875 25.70625 34.05 25.3Q33.6125 24.89375 33.6125 24.253124ZM44.3625 34.628124Q44.3625 34.1125 43.846874 33.815624Q43.33125 33.51875 42.20625 33.284374Q38.425 32.4875 38.425 30.08125Q38.425 28.675 39.596874 27.7375Q40.76875 26.784374 42.64375 26.784374Q44.659374 26.784374 45.8625 27.7375Q47.065624 28.675 47.065624 30.190624L44.253124 30.190624Q44.253124 29.596874 43.8625 29.20625Q43.471874 28.8 42.64375 28.8Q41.925 28.8 41.534374 29.128124Q41.14375 29.440624 41.14375 29.940624Q41.14375 30.409374 41.58125 30.70625Q42.034374 30.9875 43.08125 31.20625Q44.14375 31.409374 44.8625 31.675Q47.096874 32.4875 47.096874 34.51875Q47.096874 35.95625 45.8625 36.8625Q44.628124 37.753124 42.659374 37.753124Q41.33125 37.753124 40.3 37.284374Q39.26875 36.8 38.675 35.971874Q38.096874 35.14375 38.096874 34.190624L40.76875 34.190624Q40.815624 34.940624 41.33125 35.346874Q41.846874 35.7375 42.721874 35.7375Q43.534374 35.7375 43.940624 35.440624Q44.3625 35.128124 44.3625 34.628124ZM52.01875 24.378124L52.01875 26.9875L53.815624 26.9875L53.815624 29.05L52.01875 29.05L52.01875 34.33125Q52.01875 34.909374 52.2375 35.175Q52.45625 35.425 53.096874 35.425Q53.565624 35.425 53.925 35.346874L53.925 37.4875Q53.096874 37.753124 52.221874 37.753124Q49.253124 37.753124 49.190624 34.753124L49.190624 29.05L47.64375 29.05L47.64375 26.9875L49.190624 26.9875L49.190624 24.378124L52.01875 24.378124ZM55.190624 32.175Q55.190624 30.596874 55.8 29.3625Q56.409374 28.128124 57.534374 27.45625Q58.675 26.784374 60.190624 26.784374Q62.33125 26.784374 63.675 28.096874Q65.03438 29.409374 65.19063 31.64375L65.20625 32.378124Q65.20625 34.8 63.846874 36.284374Q62.4875 37.753124 60.20625 37.753124Q57.925 37.753124 56.55 36.284374Q55.190624 34.815624 55.190624 32.3L55.190624 32.175ZM58.01875 32.378124Q58.01875 33.878124 58.58125 34.675Q59.14375 35.471874 60.20625 35.471874Q61.2375 35.471874 61.8 34.690624Q62.378124 33.89375 62.378124 32.175Q62.378124 30.690624 61.8 29.878124Q61.2375 29.065624 60.190624 29.065624Q59.14375 29.065624 58.58125 29.878124Q58.01875 30.690624 58.01875 32.378124ZM72.56563 29.628124Q72.00313 29.55 71.55 29.55Q69.95625 29.55 69.45625 30.628124L69.45625 37.55L66.62813 37.55L66.62813 26.9875L69.3 26.9875L69.37813 28.2375Q70.22188 26.784374 71.7375 26.784374Q72.20625 26.784374 72.6125 26.909374L72.56563 29.628124ZM77.58125 33.55L79.53438 26.9875L82.56563 26.9875L78.31563 39.190624L78.08125 39.753124Q77.12813 41.815624 74.95625 41.815624Q74.33125 41.815624 73.70625 41.628124L73.70625 39.4875L74.12813 39.503124Q74.94063 39.503124 75.33125 39.253124Q75.72188 39.01875 75.95625 38.45625L76.28438 37.58125L72.58125 26.9875L75.6125 26.9875L77.58125 33.55Z" fill-rule="nonzero"/></svg>