<svg version="1.1" viewBox="0.0 0.0 600.0 371.0" fill="none" stroke="none" stroke-linecap="square" stroke-miterlimit="10" width="600" height="371" xmlns:xlink="http://www.w3.org/1999/xlink" xmlns="http://www.w3.org/2000/svg"><path fill="#ffffff" d="M0 0L600.0 0L600.0 371.0L0 371.0L0 0Z" fill-rule="nonzero"/><path fill="#cc0000" d="M300.0 54.916668C343.1496 54.916668 384.17337 73.65159 412.43036 106.26189L300.0 203.68333Z" fill-rule="nonzero"/><path fill="#e69138" d="M412.43036 106.26189C440.68732 138.87218 453.39328 182.14462 447.25244 224.85504L300.0 203.68333Z" fill-rule="nonzero"/><path fill="#f1c232" d="M447.25244 224.85504C438.96368 282.50467 397.79562 330.0151 341.9124 346.42392L300.0 203.68333Z" fill-rule="nonzero"/><path fill="#f3f3f3" d="M258.0876 60.94276C271.6996 56.945915 285.81332 54.916668 300.0 54.916668L300.0 203.68333Z" fill-rule="nonzero"/><path fill="#964b00" d="M219.57066 78.53285C231.50525 70.86295 244.47557 64.939606 258.0876 60.94276L300.0 203.68333Z" fill-rule="nonzero"/><path fill="#c27ba0" d="M187.56966 106.26189C196.85995 95.54031 207.63608 86.20274 219.57066 78.53285L300.0 203.68333Z" fill-rule="nonzero"/><path fill="#674ea7" d="M164.67708 141.88342C170.57043 128.97878 178.27936 116.98345 187.56966 106.26189L300.0 203.68333Z" fill-rule="nonzero"/><path fill="#3c78d8" d="M341.9124 346.42392C286.0292 362.8327 225.71034 345.1215 187.56966 301.10477C149.42897 257.08807 140.4823 194.86263 164.67708 141.88342L300.0 203.68333Z" fill-rule="nonzero"/><path fill="#1a1a1a" d="M21.378124 64.229164L21.55 65.354164L21.784374 64.33854L23.471874 58.385414L24.425 58.385414L26.065624 64.33854L26.3 65.36979L26.4875 64.21354L27.815624 58.385414L28.940624 58.385414L26.878124 66.916664L25.846874 66.916664L24.08125 60.697914L23.95625 60.041664L23.815624 60.697914L22.003124 66.916664L20.971874 66.916664L18.909374 58.385414L20.034374 58.385414L21.378124 64.229164ZM31.45625 61.33854Q32.175 60.46354 33.33125 60.46354Q35.346874 60.46354 35.3625 62.729164L35.3625 66.916664L34.26875 66.916664L34.26875 62.71354Q34.26875 62.041664 33.95625 61.71354Q33.659374 61.385414 33.003124 61.385414Q32.471874 61.385414 32.065624 61.666664Q31.675 61.947914 31.45625 62.40104L31.45625 66.916664L30.378124 66.916664L30.378124 57.916664L31.45625 57.916664L31.45625 61.33854ZM38.55 66.916664L37.471874 66.916664L37.471874 60.572914L38.55 60.572914L38.55 66.916664ZM37.378124 58.90104Q37.378124 58.635414 37.534374 58.447914Q37.70625 58.260414 38.01875 58.260414Q38.33125 58.260414 38.4875 58.447914Q38.659374 58.635414 38.659374 58.90104Q38.659374 59.15104 38.4875 59.33854Q38.33125 59.510414 38.01875 59.510414Q37.70625 59.510414 37.534374 59.33854Q37.378124 59.15104 37.378124 58.90104ZM41.846874 59.041664L41.846874 60.572914L43.01875 60.572914L43.01875 61.416664L41.846874 61.416664L41.846874 65.33854Q41.846874 65.729164 42.003124 65.916664Q42.159374 66.104164 42.534374 66.104164Q42.721874 66.104164 43.05 66.041664L43.05 66.916664Q42.628124 67.041664 42.221874 67.041664Q41.503124 67.041664 41.128124 66.604164Q40.753124 66.15104 40.753124 65.33854L40.753124 61.416664L39.596874 61.416664L39.596874 60.572914L40.753124 60.572914L40.753124 59.041664L41.846874 59.041664ZM47.003124 67.041664Q45.70625 67.041664 44.89375 66.197914Q44.096874 65.33854 44.096874 63.916664L44.096874 63.729164Q44.096874 62.77604 44.45625 62.041664Q44.815624 61.291664 45.45625 60.885414Q46.1125 60.46354 46.8625 60.46354Q48.096874 60.46354 48.784374 61.27604Q49.471874 62.08854 49.471874 63.604164L49.471874 64.05729L45.175 64.05729Q45.20625 64.99479 45.721874 65.572914Q46.253124 66.15104 47.065624 66.15104Q47.628124 66.15104 48.01875 65.916664Q48.425 65.68229 48.7375 65.291664L49.39375 65.80729Q48.596874 67.041664 47.003124 67.041664ZM46.8625 61.354164Q46.20625 61.354164 45.753124 61.83854Q45.315624 62.30729 45.221874 63.166664L48.39375 63.166664L48.39375 63.08854Q48.346874 62.260414 47.940624 61.80729Q47.55 61.354164 46.8625 61.354164Z" fill-rule="nonzero"/><path fill="#9e9e9e" d="M23.83125 82.05729L25.01875 82.05729L25.01875 82.93229L23.83125 82.93229L23.83125 84.916664L22.753124 84.916664L22.753124 82.93229L18.8625 82.93229L18.8625 82.291664L22.675 76.385414L23.83125 76.385414L23.83125 82.05729ZM20.096874 82.05729L22.753124 82.05729L22.753124 77.86979L22.6125 78.104164L20.096874 82.05729ZM26.39375 84.354164Q26.39375 84.072914 26.55 83.885414Q26.721874 83.697914 27.05 83.697914Q27.39375 83.697914 27.565624 83.885414Q27.7375 84.072914 27.7375 84.354164Q27.7375 84.61979 27.565624 84.80729Q27.39375 84.979164 27.05 84.979164Q26.721874 84.979164 26.55 84.80729Q26.39375 84.61979 26.39375 84.354164ZM29.753124 80.635414L30.190624 76.385414L34.565624 76.385414L34.565624 77.385414L31.1125 77.385414L30.846874 79.71354Q31.4875 79.33854 32.284374 79.33854Q33.440624 79.33854 34.128124 80.11979Q34.815624 80.885414 34.815624 82.197914Q34.815624 83.510414 34.096874 84.27604Q33.39375 85.041664 32.1125 85.041664Q30.9875 85.041664 30.26875 84.416664Q29.55 83.77604 29.45625 82.666664L30.471874 82.666664Q30.58125 83.40104 31.003124 83.77604Q31.425 84.15104 32.1125 84.15104Q32.8625 84.15104 33.3 83.635414Q33.7375 83.11979 33.7375 82.21354Q33.7375 81.354164 33.26875 80.83854Q32.8 80.322914 32.01875 80.322914Q31.315624 80.322914 30.909374 80.61979L30.628124 80.854164L29.753124 80.635414ZM36.159374 78.02604Q36.159374 77.260414 36.64375 76.760414Q37.14375 76.260414 37.909374 76.260414Q38.690624 76.260414 39.175 76.760414Q39.659374 77.260414 39.659374 78.05729L39.659374 78.479164Q39.659374 79.24479 39.159374 79.74479Q38.675 80.229164 37.925 80.229164Q37.159374 80.229164 36.659374 79.74479Q36.159374 79.24479 36.159374 78.43229L36.159374 78.02604ZM36.971874 78.479164Q36.971874 78.93229 37.221874 79.229164Q37.4875 79.52604 37.925 79.52604Q38.346874 79.52604 38.596874 79.24479Q38.846874 78.947914 38.846874 78.447914L38.846874 78.02604Q38.846874 77.572914 38.596874 77.27604Q38.346874 76.96354 37.909374 76.96354Q37.471874 76.96354 37.221874 77.27604Q36.971874 77.572914 36.971874 78.041664L36.971874 78.479164ZM40.315624 82.822914Q40.315624 82.05729 40.8 81.572914Q41.3 81.072914 42.065624 81.072914Q42.83125 81.072914 43.315624 81.572914Q43.815624 82.05729 43.815624 82.86979L43.815624 83.27604Q43.815624 84.041664 43.33125 84.541664Q42.846874 85.041664 42.08125 85.041664Q41.315624 85.041664 40.815624 84.55729Q40.315624 84.05729 40.315624 83.24479L40.315624 82.822914ZM41.128124 83.27604Q41.128124 83.74479 41.378124 84.041664Q41.64375 84.33854 42.08125 84.33854Q42.503124 84.33854 42.753124 84.05729Q43.003124 83.760414 43.003124 83.260414L43.003124 82.822914Q43.003124 82.354164 42.7375 82.072914Q42.4875 81.77604 42.065624 81.77604Q41.64375 81.77604 41.378124 82.072914Q41.128124 82.354164 41.128124 82.854164L41.128124 83.27604ZM38.175 84.27604L37.55 83.885414L41.721874 77.21354L42.33125 77.604164L38.175 84.27604Z" fill-rule="nonzero"/><path stroke="#757575" stroke-width="1.0" stroke-linecap="butt" d="M18.55 71.416664L145.23334 71.416664L279.88687 63.793518" fill-rule="nonzero"/><path fill="#9e9e9e" d="M281.88687 63.793518C281.88687 62.68895 280.99146 61.793518 279.88687 61.793518C278.78232 61.793518 277.88687 62.68895 277.88687 63.793518C277.88687 64.89809 278.78232 65.79352 279.88687 65.79352C280.99146 65.79352 281.88687 64.89809 281.88687 63.793518" fill-rule="nonzero"/><path fill="#1a1a1a" d="M19.534374 99.916664L19.534374 91.385414L22.33125 91.385414Q23.721874 91.385414 24.409374 91.96354Q25.1125 92.52604 25.1125 93.65104Q25.1125 94.260414 24.76875 94.729164Q24.440624 95.18229 23.846874 95.43229Q24.55 95.61979 24.940624 96.166664Q25.346874 96.697914 25.346874 97.447914Q25.346874 98.604164 24.596874 99.260414Q23.8625 99.916664 22.503124 99.916664L19.534374 99.916664ZM20.659374 95.93229L20.659374 98.99479L22.51875 98.99479Q23.315624 98.99479 23.76875 98.58854Q24.221874 98.18229 24.221874 97.46354Q24.221874 95.93229 22.534374 95.93229L20.659374 95.93229ZM20.659374 95.02604L22.3625 95.02604Q23.096874 95.02604 23.534374 94.666664Q23.9875 94.291664 23.9875 93.65104Q23.9875 92.947914 23.58125 92.635414Q23.175 92.30729 22.33125 92.30729L20.659374 92.30729L20.659374 95.02604ZM29.440624 94.541664Q29.190624 94.510414 28.909374 94.510414Q27.83125 94.510414 27.45625 95.416664L27.45625 99.916664L26.378124 99.916664L26.378124 93.572914L27.425 93.572914L27.440624 94.30729Q27.971874 93.46354 28.95625 93.46354Q29.26875 93.46354 29.440624 93.541664L29.440624 94.541664ZM30.08125 96.68229Q30.08125 95.760414 30.440624 95.010414Q30.815624 94.260414 31.471874 93.86979Q32.128124 93.46354 32.95625 93.46354Q34.253124 93.46354 35.05 94.354164Q35.8625 95.24479 35.8625 96.74479L35.8625 96.822914Q35.8625 97.74479 35.503124 98.479164Q35.14375 99.21354 34.4875 99.635414Q33.83125 100.041664 32.971874 100.041664Q31.690624 100.041664 30.878124 99.15104Q30.08125 98.24479 30.08125 96.760414L30.08125 96.68229ZM31.175 96.822914Q31.175 97.86979 31.659374 98.510414Q32.159374 99.15104 32.971874 99.15104Q33.8 99.15104 34.284374 98.510414Q34.76875 97.854164 34.76875 96.68229Q34.76875 95.65104 34.26875 95.010414Q33.784374 94.354164 32.95625 94.354164Q32.159374 94.354164 31.659374 94.99479Q31.175 95.61979 31.175 96.822914ZM42.9875 98.416664L44.20625 93.572914L45.284374 93.572914L43.440624 99.916664L42.565624 99.916664L41.01875 95.104164L39.51875 99.916664L38.64375 99.916664L36.8 93.572914L37.878124 93.572914L39.128124 98.322914L40.6125 93.572914L41.471874 93.572914L42.9875 98.416664ZM47.39375 93.572914L47.425 94.36979Q48.159374 93.46354 49.33125 93.46354Q51.346874 93.46354 51.3625 95.729164L51.3625 99.916664L50.26875 99.916664L50.26875 95.71354Q50.26875 95.041664 49.95625 94.71354Q49.659374 94.385414 49.003124 94.385414Q48.471874 94.385414 48.065624 94.666664Q47.675 94.947914 47.45625 95.40104L47.45625 99.916664L46.378124 99.916664L46.378124 93.572914L47.39375 93.572914Z" fill-rule="nonzero"/><path fill="#9e9e9e" d="M23.83125 115.05729L25.01875 115.05729L25.01875 115.93229L23.83125 115.93229L23.83125 117.916664L22.753124 117.916664L22.753124 115.93229L18.8625 115.93229L18.8625 115.291664L22.675 109.385414L23.83125 109.385414L23.83125 115.05729ZM20.096874 115.05729L22.753124 115.05729L22.753124 110.86979L22.6125 111.104164L20.096874 115.05729ZM26.39375 117.354164Q26.39375 117.072914 26.55 116.885414Q26.721874 116.697914 27.05 116.697914Q27.39375 116.697914 27.565624 116.885414Q27.7375 117.072914 27.7375 117.354164Q27.7375 117.61979 27.565624 117.80729Q27.39375 117.979164 27.05 117.979164Q26.721874 117.979164 26.55 117.80729Q26.39375 117.61979 26.39375 117.354164ZM29.753124 113.635414L30.190624 109.385414L34.565624 109.385414L34.565624 110.385414L31.1125 110.385414L30.846874 112.71354Q31.4875 112.33854 32.284374 112.33854Q33.440624 112.33854 34.128124 113.11979Q34.815624 113.885414 34.815624 115.197914Q34.815624 116.510414 34.096874 117.27604Q33.39375 118.041664 32.1125 118.041664Q30.9875 118.041664 30.26875 117.416664Q29.55 116.77604 29.45625 115.666664L30.471874 115.666664Q30.58125 116.40104 31.003124 116.77604Q31.425 117.15104 32.1125 117.15104Q32.8625 117.15104 33.3 116.635414Q33.7375 116.11979 33.7375 115.21354Q33.7375 114.354164 33.26875 113.83854Q32.8 113.322914 32.01875 113.322914Q31.315624 113.322914 30.909374 113.61979L30.628124 113.854164L29.753124 113.635414ZM36.159374 111.02604Q36.159374 110.260414 36.64375 109.760414Q37.14375 109.260414 37.909374 109.260414Q38.690624 109.260414 39.175 109.760414Q39.659374 110.260414 39.659374 111.05729L39.659374 111.479164Q39.659374 112.24479 39.159374 112.74479Q38.675 113.229164 37.925 113.229164Q37.159374 113.229164 36.659374 112.74479Q36.159374 112.24479 36.159374 111.43229L36.159374 111.02604ZM36.971874 111.479164Q36.971874 111.93229 37.221874 112.229164Q37.4875 112.52604 37.925 112.52604Q38.346874 112.52604 38.596874 112.24479Q38.846874 111.947914 38.846874 111.447914L38.846874 111.02604Q38.846874 110.572914 38.596874 110.27604Q38.346874 109.96354 37.909374 109.96354Q37.471874 109.96354 37.221874 110.27604Q36.971874 110.572914 36.971874 111.041664L36.971874 111.479164ZM40.315624 115.822914Q40.315624 115.05729 40.8 114.572914Q41.3 114.072914 42.065624 114.072914Q42.83125 114.072914 43.315624 114.572914Q43.815624 115.05729 43.815624 115.86979L43.815624 116.27604Q43.815624 117.041664 43.33125 117.541664Q42.846874 118.041664 42.08125 118.041664Q41.315624 118.041664 40.815624 117.55729Q40.315624 117.05729 40.315624 116.24479L40.315624 115.822914ZM41.128124 116.27604Q41.128124 116.74479 41.378124 117.041664Q41.64375 117.33854 42.08125 117.33854Q42.503124 117.33854 42.753124 117.05729Q43.003124 116.760414 43.003124 116.260414L43.003124 115.822914Q43.003124 115.354164 42.7375 115.072914Q42.4875 114.77604 42.065624 114.77604Q41.64375 114.77604 41.378124 115.072914Q41.128124 115.354164 41.128124 115.854164L41.128124 116.27604ZM38.175 117.27604L37.55 116.885414L41.721874 110.21354L42.33125 110.604164L38.175 117.27604Z" fill-rule="nonzero"/><path stroke="#757575" stroke-width="1.0" stroke-linecap="butt" d="M18.55 104.416664L145.23334 104.416664L241.29008 75.12656" fill-rule="nonzero"/><path fill="#9e9e9e" d="M243.29008 75.12656C243.29008 74.02199 242.39465 73.12656 241.29008 73.12656C240.18552 73.12656 239.29008 74.02199 239.29008 75.12656C239.29008 76.23113 240.18552 77.12656 241.29008 77.12656C242.39465 77.12656 243.29008 76.23113 243.29008 75.12656" fill-rule="nonzero"/><path fill="#1a1a1a" d="M20.659374 129.57292L20.659374 132.91667L19.534374 132.91667L19.534374 124.38542L22.690624 124.38542Q24.08125 124.38542 24.878124 125.10417Q25.675 125.8073 25.675 126.9948Q25.675 128.22917 24.89375 128.90105Q24.128124 129.57292 22.675 129.57292L20.659374 129.57292ZM20.659374 128.65105L22.690624 128.65105Q23.596874 128.65105 24.065624 128.22917Q24.55 127.8073 24.55 127.01042Q24.55 126.2448 24.065624 125.79167Q23.596874 125.32292 22.753124 125.3073L20.659374 125.3073L20.659374 128.65105ZM28.55 132.91667L27.471874 132.91667L27.471874 126.57292L28.55 126.57292L28.55 132.91667ZM27.378124 124.90105Q27.378124 124.63542 27.534374 124.44792Q27.70625 124.26042 28.01875 124.26042Q28.33125 124.26042 28.4875 124.44792Q28.659374 124.63542 28.659374 124.90105Q28.659374 125.15105 28.4875 125.33855Q28.33125 125.51042 28.01875 125.51042Q27.70625 125.51042 27.534374 125.33855Q27.378124 125.15105 27.378124 124.90105ZM31.39375 126.57292L31.425 127.3698Q32.159374 126.46355 33.33125 126.46355Q35.346874 126.46355 35.3625 128.72917L35.3625 132.91667L34.26875 132.91667L34.26875 128.71355Q34.26875 128.04167 33.95625 127.71355Q33.659374 127.38542 33.003124 127.38542Q32.471874 127.38542 32.065624 127.66667Q31.675 127.94792 31.45625 128.40105L31.45625 132.91667L30.378124 132.91667L30.378124 126.57292L31.39375 126.57292ZM39.14375 129.97917L38.45625 130.6823L38.45625 132.91667L37.378124 132.91667L37.378124 123.91667L38.45625 123.91667L38.45625 129.35417L39.034374 128.66667L41.01875 126.57292L42.33125 126.57292L39.8625 129.22917L42.628124 132.91667L41.346874 132.91667L39.14375 129.97917Z" fill-rule="nonzero"/><path fill="#9e9e9e" d="M23.83125 148.0573L25.01875 148.0573L25.01875 148.9323L23.83125 148.9323L23.83125 150.91667L22.753124 150.91667L22.753124 148.9323L18.8625 148.9323L18.8625 148.29167L22.675 142.38542L23.83125 142.38542L23.83125 148.0573ZM20.096874 148.0573L22.753124 148.0573L22.753124 143.8698L22.6125 144.10417L20.096874 148.0573ZM26.39375 150.35417Q26.39375 150.07292 26.55 149.88542Q26.721874 149.69792 27.05 149.69792Q27.39375 149.69792 27.565624 149.88542Q27.7375 150.07292 27.7375 150.35417Q27.7375 150.6198 27.565624 150.8073Q27.39375 150.97917 27.05 150.97917Q26.721874 150.97917 26.55 150.8073Q26.39375 150.6198 26.39375 150.35417ZM29.753124 146.63542L30.190624 142.38542L34.565624 142.38542L34.565624 143.38542L31.1125 143.38542L30.846874 145.71355Q31.4875 145.33855 32.284374 145.33855Q33.440624 145.33855 34.128124 146.1198Q34.815624 146.88542 34.815624 148.19792Q34.815624 149.51042 34.096874 150.27605Q33.39375 151.04167 32.1125 151.04167Q30.9875 151.04167 30.26875 150.41667Q29.55 149.77605 29.45625 148.66667L30.471874 148.66667Q30.58125 149.40105 31.003124 149.77605Q31.425 150.15105 32.1125 150.15105Q32.8625 150.15105 33.3 149.63542Q33.7375 149.1198 33.7375 148.21355Q33.7375 147.35417 33.26875 146.83855Q32.8 146.32292 32.01875 146.32292Q31.315624 146.32292 30.909374 146.6198L30.628124 146.85417L29.753124 146.63542ZM36.159374 144.02605Q36.159374 143.26042 36.64375 142.76042Q37.14375 142.26042 37.909374 142.26042Q38.690624 142.26042 39.175 142.76042Q39.659374 143.26042 39.659374 144.0573L39.659374 144.47917Q39.659374 145.2448 39.159374 145.7448Q38.675 146.22917 37.925 146.22917Q37.159374 146.22917 36.659374 145.7448Q36.159374 145.2448 36.159374 144.4323L36.159374 144.02605ZM36.971874 144.47917Q36.971874 144.9323 37.221874 145.22917Q37.4875 145.52605 37.925 145.52605Q38.346874 145.52605 38.596874 145.2448Q38.846874 144.94792 38.846874 144.44792L38.846874 144.02605Q38.846874 143.57292 38.596874 143.27605Q38.346874 142.96355 37.909374 142.96355Q37.471874 142.96355 37.221874 143.27605Q36.971874 143.57292 36.971874 144.04167L36.971874 144.47917ZM40.315624 148.82292Q40.315624 148.0573 40.8 147.57292Q41.3 147.07292 42.065624 147.07292Q42.83125 147.07292 43.315624 147.57292Q43.815624 148.0573 43.815624 148.8698L43.815624 149.27605Q43.815624 150.04167 43.33125 150.54167Q42.846874 151.04167 42.08125 151.04167Q41.315624 151.04167 40.815624 150.5573Q40.315624 150.0573 40.315624 149.2448L40.315624 148.82292ZM41.128124 149.27605Q41.128124 149.7448 41.378124 150.04167Q41.64375 150.33855 42.08125 150.33855Q42.503124 150.33855 42.753124 150.0573Q43.003124 149.76042 43.003124 149.26042L43.003124 148.82292Q43.003124 148.35417 42.7375 148.07292Q42.4875 147.77605 42.065624 147.77605Q41.64375 147.77605 41.378124 148.07292Q41.128124 148.35417 41.128124 148.85417L41.128124 149.27605ZM38.175 150.27605L37.55 149.88542L41.721874 143.21355L42.33125 143.60417L38.175 150.27605Z" fill-rule="nonzero"/><path stroke="#757575" stroke-width="1.0" stroke-linecap="butt" d="M18.55 137.41667L145.23334 137.41667L207.44963 96.874504" fill-rule="nonzero"/><path fill="#9e9e9e" d="M209.44963 96.874504C209.44963 95.769936 208.5542 94.874504 207.44963 94.874504C206.34505 94.874504 205.44963 95.769936 205.44963 96.874504C205.44963 97.97907 206.34505 98.874504 207.44963 98.874504C208.5542 98.874504 209.44963 97.97907 209.44963 96.874504" fill-rule="nonzero"/><path fill="#1a1a1a" d="M20.659374 162.57292L20.659374 165.91667L19.534374 165.91667L19.534374 157.38542L22.690624 157.38542Q24.08125 157.38542 24.878124 158.10417Q25.675 158.8073 25.675 159.9948Q25.675 161.22917 24.89375 161.90105Q24.128124 162.57292 22.675 162.57292L20.659374 162.57292ZM20.659374 161.65105L22.690624 161.65105Q23.596874 161.65105 24.065624 161.22917Q24.55 160.8073 24.55 160.01042Q24.55 159.2448 24.065624 158.79167Q23.596874 158.32292 22.753124 158.3073L20.659374 158.3073L20.659374 161.65105ZM31.284374 165.29167Q30.659374 166.04167 29.425 166.04167Q28.409374 166.04167 27.878124 165.44792Q27.346874 164.85417 27.346874 163.69792L27.346874 159.57292L28.425 159.57292L28.425 163.66667Q28.425 165.1198 29.596874 165.1198Q30.846874 165.1198 31.253124 164.1823L31.253124 159.57292L32.346874 159.57292L32.346874 165.91667L31.315624 165.91667L31.284374 165.29167ZM37.440624 160.54167Q37.190624 160.51042 36.909374 160.51042Q35.83125 160.51042 35.45625 161.41667L35.45625 165.91667L34.378124 165.91667L34.378124 159.57292L35.425 159.57292L35.440624 160.3073Q35.971874 159.46355 36.95625 159.46355Q37.26875 159.46355 37.440624 159.54167L37.440624 160.54167ZM43.721874 162.82292Q43.721874 164.26042 43.065624 165.15105Q42.409374 166.04167 41.26875 166.04167Q40.1125 166.04167 39.45625 165.3073L39.45625 168.35417L38.378124 168.35417L38.378124 159.57292L39.3625 159.57292L39.409374 160.27605Q40.08125 159.46355 41.253124 159.46355Q42.39375 159.46355 43.05 160.32292Q43.721874 161.1823 43.721874 162.71355L43.721874 162.82292ZM42.64375 162.69792Q42.64375 161.6198 42.175 161.01042Q41.721874 160.38542 40.925 160.38542Q39.940624 160.38542 39.45625 161.2448L39.45625 164.27605Q39.940624 165.15105 40.940624 165.15105Q41.721874 165.15105 42.175 164.54167Q42.64375 163.91667 42.64375 162.69792ZM46.55 165.91667L45.471874 165.91667L45.471874 156.91667L46.55 156.91667L46.55 165.91667ZM51.003124 166.04167Q49.70625 166.04167 48.89375 165.19792Q48.096874 164.33855 48.096874 162.91667L48.096874 162.72917Q48.096874 161.77605 48.45625 161.04167Q48.815624 160.29167 49.45625 159.88542Q50.1125 159.46355 50.8625 159.46355Q52.096874 159.46355 52.784374 160.27605Q53.471874 161.08855 53.471874 162.60417L53.471874 163.0573L49.175 163.0573Q49.20625 163.9948 49.721874 164.57292Q50.253124 165.15105 51.065624 165.15105Q51.628124 165.15105 52.01875 164.91667Q52.425 164.6823 52.7375 164.29167L53.39375 164.8073Q52.596874 166.04167 51.003124 166.04167ZM50.8625 160.35417Q50.20625 160.35417 49.753124 160.83855Q49.315624 161.3073 49.221874 162.16667L52.39375 162.16667L52.39375 162.08855Q52.346874 161.26042 51.940624 160.8073Q51.55 160.35417 50.8625 160.35417Z" fill-rule="nonzero"/><path fill="#9e9e9e" d="M23.83125 181.0573L25.01875 181.0573L25.01875 181.9323L23.83125 181.9323L23.83125 183.91667L22.753124 183.91667L22.753124 181.9323L18.8625 181.9323L18.8625 181.29167L22.675 175.38542L23.83125 175.38542L23.83125 181.0573ZM20.096874 181.0573L22.753124 181.0573L22.753124 176.8698L22.6125 177.10417L20.096874 181.0573ZM26.39375 183.35417Q26.39375 183.07292 26.55 182.88542Q26.721874 182.69792 27.05 182.69792Q27.39375 182.69792 27.565624 182.88542Q27.7375 183.07292 27.7375 183.35417Q27.7375 183.6198 27.565624 183.8073Q27.39375 183.97917 27.05 183.97917Q26.721874 183.97917 26.55 183.8073Q26.39375 183.6198 26.39375 183.35417ZM29.753124 179.63542L30.190624 175.38542L34.565624 175.38542L34.565624 176.38542L31.1125 176.38542L30.846874 178.71355Q31.4875 178.33855 32.284374 178.33855Q33.440624 178.33855 34.128124 179.1198Q34.815624 179.88542 34.815624 181.19792Q34.815624 182.51042 34.096874 183.27605Q33.39375 184.04167 32.1125 184.04167Q30.9875 184.04167 30.26875 183.41667Q29.55 182.77605 29.45625 181.66667L30.471874 181.66667Q30.58125 182.40105 31.003124 182.77605Q31.425 183.15105 32.1125 183.15105Q32.8625 183.15105 33.3 182.63542Q33.7375 182.1198 33.7375 181.21355Q33.7375 180.35417 33.26875 179.83855Q32.8 179.32292 32.01875 179.32292Q31.315624 179.32292 30.909374 179.6198L30.628124 179.85417L29.753124 179.63542ZM36.159374 177.02605Q36.159374 176.26042 36.64375 175.76042Q37.14375 175.26042 37.909374 175.26042Q38.690624 175.26042 39.175 175.76042Q39.659374 176.26042 39.659374 177.0573L39.659374 177.47917Q39.659374 178.2448 39.159374 178.7448Q38.675 179.22917 37.925 179.22917Q37.159374 179.22917 36.659374 178.7448Q36.159374 178.2448 36.159374 177.4323L36.159374 177.02605ZM36.971874 177.47917Q36.971874 177.9323 37.221874 178.22917Q37.4875 178.52605 37.925 178.52605Q38.346874 178.52605 38.596874 178.2448Q38.846874 177.94792 38.846874 177.44792L38.846874 177.02605Q38.846874 176.57292 38.596874 176.27605Q38.346874 175.96355 37.909374 175.96355Q37.471874 175.96355 37.221874 176.27605Q36.971874 176.57292 36.971874 177.04167L36.971874 177.47917ZM40.315624 181.82292Q40.315624 181.0573 40.8 180.57292Q41.3 180.07292 42.065624 180.07292Q42.83125 180.07292 43.315624 180.57292Q43.815624 181.0573 43.815624 181.8698L43.815624 182.27605Q43.815624 183.04167 43.33125 183.54167Q42.846874 184.04167 42.08125 184.04167Q41.315624 184.04167 40.815624 183.5573Q40.315624 183.0573 40.315624 182.2448L40.315624 181.82292ZM41.128124 182.27605Q41.128124 182.7448 41.378124 183.04167Q41.64375 183.33855 42.08125 183.33855Q42.503124 183.33855 42.753124 183.0573Q43.003124 182.76042 43.003124 182.26042L43.003124 181.82292Q43.003124 181.35417 42.7375 181.07292Q42.4875 180.77605 42.065624 180.77605Q41.64375 180.77605 41.378124 181.07292Q41.128124 181.35417 41.128124 181.85417L41.128124 182.27605ZM38.175 183.27605L37.55 182.88542L41.721874 176.21355L42.33125 176.60417L38.175 183.27605Z" fill-rule="nonzero"/><path stroke="#757575" stroke-width="1.0" stroke-linecap="butt" d="M18.55 170.41667L145.23334 170.41667L181.10704 127.27547" fill-rule="nonzero"/><path fill="#9e9e9e" d="M183.10704 127.27547C183.10704 126.1709 182.21161 125.27547 181.10704 125.27547C180.00247 125.27547 179.10704 126.1709 179.10704 127.27547C179.10704 128.38004 180.00247 129.27547 181.10704 129.27547C182.21161 129.27547 183.10704 128.38004 183.10704 127.27547" fill-rule="nonzero"/><path fill="#1a1a1a" d="M19.534374 291.7337L19.534374 283.20245L22.33125 283.20245Q23.721874 283.20245 24.409374 283.78058Q25.1125 284.34308 25.1125 285.46808Q25.1125 286.07745 24.76875 286.5462Q24.440624 286.99933 23.846874 287.24933Q24.55 287.43683 24.940624 287.9837Q25.346874 288.51495 25.346874 289.26495Q25.346874 290.4212 24.596874 291.07745Q23.8625 291.7337 22.503124 291.7337L19.534374 291.7337ZM20.659374 287.74933L20.659374 290.81183L22.51875 290.81183Q23.315624 290.81183 23.76875 290.40558Q24.221874 289.99933 24.221874 289.28058Q24.221874 287.74933 22.534374 287.74933L20.659374 287.74933ZM20.659374 286.84308L22.3625 286.84308Q23.096874 286.84308 23.534374 286.4837Q23.9875 286.1087 23.9875 285.46808Q23.9875 284.76495 23.58125 284.45245Q23.175 284.12433 22.33125 284.12433L20.659374 284.12433L20.659374 286.84308ZM27.55 291.7337L26.471874 291.7337L26.471874 282.7337L27.55 282.7337L27.55 291.7337ZM33.284374 291.1087Q32.659374 291.8587 31.425 291.8587Q30.409374 291.8587 29.878124 291.26495Q29.346874 290.6712 29.346874 289.51495L29.346874 285.38995L30.425 285.38995L30.425 289.4837Q30.425 290.93683 31.596874 290.93683Q32.846874 290.93683 33.253124 289.99933L33.253124 285.38995L34.346874 285.38995L34.346874 291.7337L33.315624 291.7337L33.284374 291.1087ZM39.003124 291.8587Q37.70625 291.8587 36.89375 291.01495Q36.096874 290.15558 36.096874 288.7337L36.096874 288.5462Q36.096874 287.59308 36.45625 286.8587Q36.815624 286.1087 37.45625 285.70245Q38.1125 285.28058 38.8625 285.28058Q40.096874 285.28058 40.784374 286.09308Q41.471874 286.90558 41.471874 288.4212L41.471874 288.87433L37.175 288.87433Q37.20625 289.81183 37.721874 290.38995Q38.253124 290.96808 39.065624 290.96808Q39.628124 290.96808 40.01875 290.7337Q40.425 290.49933 40.7375 290.1087L41.39375 290.62433Q40.596874 291.8587 39.003124 291.8587ZM38.8625 286.1712Q38.20625 286.1712 37.753124 286.65558Q37.315624 287.12433 37.221874 287.9837L40.39375 287.9837L40.39375 287.90558Q40.346874 287.07745 39.940624 286.62433Q39.55 286.1712 38.8625 286.1712Z" fill-rule="nonzero"/><path fill="#9e9e9e" d="M20.83125 304.93683L21.64375 304.93683Q22.425 304.9212 22.8625 304.53058Q23.3 304.13995 23.3 303.46808Q23.3 301.96808 21.8 301.96808Q21.096874 301.96808 20.675 302.37433Q20.26875 302.78058 20.26875 303.43683L19.175 303.43683Q19.175 302.4212 19.909374 301.74933Q20.659374 301.07745 21.8 301.07745Q23.003124 301.07745 23.690624 301.71808Q24.378124 302.3587 24.378124 303.49933Q24.378124 304.06183 24.01875 304.57745Q23.659374 305.09308 23.034374 305.3587Q23.7375 305.57745 24.1125 306.09308Q24.503124 306.6087 24.503124 307.3587Q24.503124 308.49933 23.753124 309.18683Q23.003124 309.8587 21.8 309.8587Q20.6125 309.8587 19.846874 309.20245Q19.096874 308.5462 19.096874 307.4837L20.190624 307.4837Q20.190624 308.15558 20.628124 308.56183Q21.065624 308.96808 21.815624 308.96808Q22.596874 308.96808 23.003124 308.56183Q23.425 308.13995 23.425 307.37433Q23.425 306.63995 22.971874 306.24933Q22.51875 305.84308 21.64375 305.82745L20.83125 305.82745L20.83125 304.93683ZM30.51875 301.20245L30.51875 302.1087L30.315624 302.1087Q29.05 302.13995 28.3 302.87433Q27.55 303.59308 27.425 304.90558Q28.1125 304.13995 29.26875 304.13995Q30.378124 304.13995 31.05 304.9212Q31.721874 305.70245 31.721874 306.95245Q31.721874 308.26495 31.003124 309.06183Q30.284374 309.8587 29.065624 309.8587Q27.846874 309.8587 27.08125 308.9212Q26.33125 307.96808 26.33125 306.4837L26.33125 306.07745Q26.33125 303.71808 27.33125 302.46808Q28.33125 301.21808 30.315624 301.20245L30.51875 301.20245ZM29.096874 305.0462Q28.534374 305.0462 28.065624 305.37433Q27.596874 305.70245 27.409374 306.21808L27.409374 306.6087Q27.409374 307.6712 27.878124 308.31183Q28.3625 308.95245 29.065624 308.95245Q29.8 308.95245 30.221874 308.4212Q30.64375 307.87433 30.64375 306.99933Q30.64375 306.12433 30.221874 305.59308Q29.8 305.0462 29.096874 305.0462ZM33.39375 309.1712Q33.39375 308.88995 33.55 308.70245Q33.721874 308.51495 34.05 308.51495Q34.39375 308.51495 34.565624 308.70245Q34.7375 308.88995 34.7375 309.1712Q34.7375 309.43683 34.565624 309.62433Q34.39375 309.7962 34.05 309.7962Q33.721874 309.7962 33.55 309.62433Q33.39375 309.43683 33.39375 309.1712ZM40.83125 306.87433L42.01875 306.87433L42.01875 307.74933L40.83125 307.74933L40.83125 309.7337L39.753124 309.7337L39.753124 307.74933L35.8625 307.74933L35.8625 307.1087L39.675 301.20245L40.83125 301.20245L40.83125 306.87433ZM37.096874 306.87433L39.753124 306.87433L39.753124 302.68683L39.6125 302.9212L37.096874 306.87433ZM43.159374 302.84308Q43.159374 302.07745 43.64375 301.57745Q44.14375 301.07745 44.909374 301.07745Q45.690624 301.07745 46.175 301.57745Q46.659374 302.07745 46.659374 302.87433L46.659374 303.2962Q46.659374 304.06183 46.159374 304.56183Q45.675 305.0462 44.925 305.0462Q44.159374 305.0462 43.659374 304.56183Q43.159374 304.06183 43.159374 303.24933L43.159374 302.84308ZM43.971874 303.2962Q43.971874 303.74933 44.221874 304.0462Q44.4875 304.34308 44.925 304.34308Q45.346874 304.34308 45.596874 304.06183Q45.846874 303.76495 45.846874 303.26495L45.846874 302.84308Q45.846874 302.38995 45.596874 302.09308Q45.346874 301.78058 44.909374 301.78058Q44.471874 301.78058 44.221874 302.09308Q43.971874 302.38995 43.971874 302.8587L43.971874 303.2962ZM47.315624 307.63995Q47.315624 306.87433 47.8 306.38995Q48.3 305.88995 49.065624 305.88995Q49.83125 305.88995 50.315624 306.38995Q50.815624 306.87433 50.815624 307.68683L50.815624 308.09308Q50.815624 308.8587 50.33125 309.3587Q49.846874 309.8587 49.08125 309.8587Q48.315624 309.8587 47.815624 309.37433Q47.315624 308.87433 47.315624 308.06183L47.315624 307.63995ZM48.128124 308.09308Q48.128124 308.56183 48.378124 308.8587Q48.64375 309.15558 49.08125 309.15558Q49.503124 309.15558 49.753124 308.87433Q50.003124 308.57745 50.003124 308.07745L50.003124 307.63995Q50.003124 307.1712 49.7375 306.88995Q49.4875 306.59308 49.065624 306.59308Q48.64375 306.59308 48.378124 306.88995Q48.128124 307.1712 48.128124 307.6712L48.128124 308.09308ZM45.175 309.09308L44.55 308.70245L48.721874 302.03058L49.33125 302.4212L45.175 309.09308Z" fill-rule="nonzero"/><path stroke="#757575" stroke-width="1.0" stroke-linecap="butt" d="M18.55 296.2337L145.23334 296.2337L193.19118 296.2337" fill-rule="nonzero"/><path fill="#9e9e9e" d="M195.19118 296.2337C195.19118 295.12915 194.29575 294.2337 193.19118 294.2337C192.08661 294.2337 191.19118 295.12915 191.19118 296.2337C191.19118 297.3383 192.08661 298.2337 193.19118 298.2337C194.29575 298.2337 195.19118 297.3383 195.19118 296.2337" fill-rule="nonzero"/><path fill="#1a1a1a" d="M565.575 67.17343L563.5594 67.17343L563.5594 70.62656L562.4344 70.62656L562.4344 62.095306L565.2625 62.095306Q566.7 62.095306 567.46564 62.751556Q568.2469 63.407806 568.2469 64.65781Q568.2469 65.45468 567.8094 66.04843Q567.3875 66.64218 566.6219 66.93906L568.6219 70.54843L568.6219 70.62656L567.41876 70.62656L565.575 67.17343ZM563.5594 66.25156L565.29376 66.25156Q566.1375 66.25156 566.6219 65.82968Q567.1219 65.39218 567.1219 64.65781Q567.1219 63.876556 566.65314 63.45468Q566.1844 63.032806 565.29376 63.01718L563.5594 63.01718L563.5594 66.25156ZM571.90314 70.75156Q570.60626 70.75156 569.79376 69.90781Q568.9969 69.04843 568.9969 67.62656L568.9969 67.43906Q568.9969 66.48593 569.35626 65.75156Q569.71564 65.00156 570.35626 64.59531Q571.0125 64.17343 571.7625 64.17343Q572.9969 64.17343 573.6844 64.98593Q574.3719 65.79843 574.3719 67.31406L574.3719 67.76718L570.075 67.76718Q570.10626 68.70468 570.6219 69.28281Q571.15314 69.86093 571.96564 69.86093Q572.52814 69.86093 572.91876 69.62656Q573.325 69.39218 573.6375 69.00156L574.29376 69.51718Q573.4969 70.75156 571.90314 70.75156ZM571.7625 65.06406Q571.10626 65.06406 570.65314 65.54843Q570.21564 66.01718 570.1219 66.87656L573.29376 66.87656L573.29376 66.79843Q573.2469 65.97031 572.84064 65.51718Q572.45 65.06406 571.7625 65.06406ZM575.0125 67.40781Q575.0125 65.93906 575.7 65.06406Q576.3875 64.17343 577.5125 64.17343Q578.6219 64.17343 579.27814 64.92343L579.27814 61.626556L580.35626 61.626556L580.35626 70.62656L579.35626 70.62656L579.3094 69.93906Q578.65314 70.75156 577.4969 70.75156Q576.40314 70.75156 575.7 69.84531Q575.0125 68.93906 575.0125 67.48593L575.0125 67.40781ZM576.09064 67.53281Q576.09064 68.61093 576.52814 69.22031Q576.98126 69.82968 577.7625 69.82968Q578.79376 69.82968 579.27814 68.89218L579.27814 65.98593Q578.79376 65.09531 577.77814 65.09531Q576.98126 65.09531 576.52814 65.70468Q576.09064 66.31406 576.09064 67.53281Z" fill-rule="nonzero"/><path fill="#9e9e9e" d="M552.71564 88.62656L551.6375 88.62656L551.6375 81.40781L549.45 82.20468L549.45 81.22031L552.5594 80.04843L552.71564 80.04843L552.71564 88.62656ZM557.73126 83.82968L558.54376 83.82968Q559.325 83.81406 559.7625 83.42343Q560.2 83.03281 560.2 82.36093Q560.2 80.86093 558.7 80.86093Q557.9969 80.86093 557.575 81.26718Q557.16876 81.67343 557.16876 82.32968L556.075 82.32968Q556.075 81.31406 556.8094 80.64218Q557.5594 79.97031 558.7 79.97031Q559.90314 79.97031 560.59064 80.61093Q561.27814 81.25156 561.27814 82.39218Q561.27814 82.95468 560.91876 83.47031Q560.5594 83.98593 559.9344 84.25156Q560.6375 84.47031 561.0125 84.98593Q561.40314 85.50156 561.40314 86.25156Q561.40314 87.39218 560.65314 88.07968Q559.90314 88.75156 558.7 88.75156Q557.5125 88.75156 556.7469 88.09531Q555.9969 87.43906 555.9969 86.37656L557.09064 86.37656Q557.09064 87.04843 557.52814 87.45468Q557.96564 87.86093 558.71564 87.86093Q559.4969 87.86093 559.90314 87.45468Q560.325 87.03281 560.325 86.26718Q560.325 85.53281 559.8719 85.14218Q559.41876 84.73593 558.54376 84.72031L557.73126 84.72031L557.73126 83.82968ZM563.29376 88.06406Q563.29376 87.78281 563.45 87.59531Q563.6219 87.40781 563.95 87.40781Q564.29376 87.40781 564.46564 87.59531Q564.6375 87.78281 564.6375 88.06406Q564.6375 88.32968 564.46564 88.51718Q564.29376 88.68906 563.95 88.68906Q563.6219 88.68906 563.45 88.51718Q563.29376 88.32968 563.29376 88.06406ZM570.41876 80.09531L570.41876 81.00156L570.21564 81.00156Q568.95 81.03281 568.2 81.76718Q567.45 82.48593 567.325 83.79843Q568.0125 83.03281 569.16876 83.03281Q570.27814 83.03281 570.95 83.81406Q571.6219 84.59531 571.6219 85.84531Q571.6219 87.15781 570.90314 87.95468Q570.1844 88.75156 568.96564 88.75156Q567.7469 88.75156 566.98126 87.81406Q566.23126 86.86093 566.23126 85.37656L566.23126 84.97031Q566.23126 82.61093 567.23126 81.36093Q568.23126 80.11093 570.21564 80.09531L570.41876 80.09531ZM568.9969 83.93906Q568.4344 83.93906 567.96564 84.26718Q567.4969 84.59531 567.3094 85.11093L567.3094 85.50156Q567.3094 86.56406 567.77814 87.20468Q568.2625 87.84531 568.96564 87.84531Q569.7 87.84531 570.1219 87.31406Q570.54376 86.76718 570.54376 85.89218Q570.54376 85.01718 570.1219 84.48593Q569.7 83.93906 568.9969 83.93906ZM573.0594 81.73593Q573.0594 80.97031 573.54376 80.47031Q574.04376 79.97031 574.8094 79.97031Q575.59064 79.97031 576.075 80.47031Q576.5594 80.97031 576.5594 81.76718L576.5594 82.18906Q576.5594 82.95468 576.0594 83.45468Q575.575 83.93906 574.825 83.93906Q574.0594 83.93906 573.5594 83.45468Q573.0594 82.95468 573.0594 82.14218L573.0594 81.73593ZM573.8719 82.18906Q573.8719 82.64218 574.1219 82.93906Q574.3875 83.23593 574.825 83.23593Q575.2469 83.23593 575.4969 82.95468Q575.7469 82.65781 575.7469 82.15781L575.7469 81.73593Q575.7469 81.28281 575.4969 80.98593Q575.2469 80.67343 574.8094 80.67343Q574.3719 80.67343 574.1219 80.98593Q573.8719 81.28281 573.8719 81.75156L573.8719 82.18906ZM577.21564 86.53281Q577.21564 85.76718 577.7 85.28281Q578.2 84.78281 578.96564 84.78281Q579.73126 84.78281 580.21564 85.28281Q580.71564 85.76718 580.71564 86.57968L580.71564 86.98593Q580.71564 87.75156 580.23126 88.25156Q579.7469 88.75156 578.98126 88.75156Q578.21564 88.75156 577.71564 88.26718Q577.21564 87.76718 577.21564 86.95468L577.21564 86.53281ZM578.02814 86.98593Q578.02814 87.45468 578.27814 87.75156Q578.54376 88.04843 578.98126 88.04843Q579.40314 88.04843 579.65314 87.76718Q579.90314 87.47031 579.90314 86.97031L579.90314 86.53281Q579.90314 86.06406 579.6375 85.78281Q579.3875 85.48593 578.96564 85.48593Q578.54376 85.48593 578.27814 85.78281Q578.02814 86.06406 578.02814 86.56406L578.02814 86.98593ZM575.075 87.98593L574.45 87.59531L578.6219 80.92343L579.23126 81.31406L575.075 87.98593Z" fill-rule="nonzero"/><path stroke="#757575" stroke-width="1.0" stroke-linecap="butt" d="M581.45 75.12656L454.76666 75.12656L358.7099 75.12656" fill-rule="nonzero"/><path fill="#9e9e9e" d="M360.7099 75.12656C360.7099 74.02199 359.81448 73.12656 358.7099 73.12656C357.60535 73.12656 356.7099 74.02199 356.7099 75.12656C356.7099 76.23113 357.60535 77.12656 358.7099 77.12656C359.81448 77.12656 360.7099 76.23113 360.7099 75.12656" fill-rule="nonzero"/><path fill="#1a1a1a" d="M549.9969 155.38217Q549.9969 156.63217 549.575 157.56967Q549.15314 158.49155 548.3719 158.99155Q547.60626 159.49155 546.575 159.49155Q545.575 159.49155 544.79376 158.99155Q544.0125 158.49155 543.575 157.5853Q543.15314 156.66342 543.1375 155.44467L543.1375 154.8353Q543.1375 153.60092 543.5594 152.66342Q543.9969 151.72592 544.77814 151.22592Q545.5594 150.7103 546.575 150.7103Q547.59064 150.7103 548.3719 151.2103Q549.15314 151.7103 549.575 152.6478Q549.9969 153.5853 549.9969 154.8353L549.9969 155.38217ZM548.8875 154.81967Q548.8875 153.30405 548.27814 152.49155Q547.66876 151.67905 546.575 151.67905Q545.4969 151.67905 544.8875 152.49155Q544.27814 153.30405 544.2625 154.74155L544.2625 155.38217Q544.2625 156.85092 544.8719 157.69467Q545.4969 158.5228 546.575 158.5228Q547.66876 158.5228 548.2625 157.74155Q548.8719 156.94467 548.8875 155.4603L548.8875 154.81967ZM554.34064 153.99155Q554.09064 153.9603 553.8094 153.9603Q552.73126 153.9603 552.35626 154.86655L552.35626 159.36655L551.27814 159.36655L551.27814 153.0228L552.325 153.0228L552.34064 153.75717Q552.8719 152.91342 553.85626 152.91342Q554.16876 152.91342 554.34064 152.99155L554.34064 153.99155ZM559.1844 159.36655Q559.09064 159.17905 559.02814 158.69467Q558.27814 159.49155 557.23126 159.49155Q556.29376 159.49155 555.6844 158.9603Q555.09064 158.42905 555.09064 157.60092Q555.09064 156.61655 555.84064 156.06967Q556.59064 155.5228 557.96564 155.5228L559.0125 155.5228L559.0125 155.0228Q559.0125 154.4603 558.66876 154.13217Q558.34064 153.78842 557.66876 153.78842Q557.09064 153.78842 556.7 154.0853Q556.3094 154.36655 556.3094 154.78842L555.21564 154.78842Q555.21564 154.30405 555.54376 153.86655Q555.8875 153.42905 556.46564 153.17905Q557.04376 152.91342 557.73126 152.91342Q558.84064 152.91342 559.45 153.4603Q560.075 154.00717 560.10626 154.9603L560.10626 157.88217Q560.10626 158.75717 560.325 159.2728L560.325 159.36655L559.1844 159.36655ZM557.3875 158.53842Q557.90314 158.53842 558.35626 158.2728Q558.8094 158.00717 559.0125 157.5853L559.0125 156.28842L558.16876 156.28842Q556.16876 156.28842 556.16876 157.4603Q556.16876 157.9603 556.5125 158.25717Q556.85626 158.53842 557.3875 158.53842ZM563.29376 153.0228L563.325 153.81967Q564.0594 152.91342 565.23126 152.91342Q567.2469 152.91342 567.2625 155.17905L567.2625 159.36655L566.16876 159.36655L566.16876 155.16342Q566.16876 154.49155 565.85626 154.16342Q565.5594 153.8353 564.90314 153.8353Q564.3719 153.8353 563.96564 154.11655Q563.575 154.3978 563.35626 154.85092L563.35626 159.36655L562.27814 159.36655L562.27814 153.0228L563.29376 153.0228ZM569.0125 156.1478Q569.0125 154.66342 569.7 153.78842Q570.3875 152.91342 571.5125 152.91342Q572.66876 152.91342 573.325 153.72592L573.3719 153.0228L574.3719 153.0228L574.3719 159.2103Q574.3719 160.44467 573.6375 161.1478Q572.90314 161.86655 571.6844 161.86655Q570.9969 161.86655 570.34064 161.56967Q569.6844 161.2728 569.34064 160.7728L569.90314 160.11655Q570.59064 160.97592 571.60626 160.97592Q572.3875 160.97592 572.825 160.5228Q573.27814 160.0853 573.27814 159.2728L573.27814 158.72592Q572.6219 159.49155 571.4969 159.49155Q570.3875 159.49155 569.7 158.60092Q569.0125 157.69467 569.0125 156.1478ZM570.10626 156.2728Q570.10626 157.3353 570.54376 157.9603Q570.98126 158.56967 571.77814 158.56967Q572.79376 158.56967 573.27814 157.63217L573.27814 154.74155Q572.77814 153.8353 571.77814 153.8353Q570.9969 153.8353 570.54376 154.44467Q570.10626 155.05405 570.10626 156.2728ZM578.90314 159.49155Q577.60626 159.49155 576.79376 158.6478Q575.9969 157.78842 575.9969 156.36655L575.9969 156.17905Q575.9969 155.22592 576.35626 154.49155Q576.71564 153.74155 577.35626 153.3353Q578.0125 152.91342 578.7625 152.91342Q579.9969 152.91342 580.6844 153.72592Q581.3719 154.53842 581.3719 156.05405L581.3719 156.50717L577.075 156.50717Q577.10626 157.44467 577.6219 158.0228Q578.15314 158.60092 578.96564 158.60092Q579.52814 158.60092 579.91876 158.36655Q580.325 158.13217 580.6375 157.74155L581.29376 158.25717Q580.4969 159.49155 578.90314 159.49155ZM578.7625 153.80405Q578.10626 153.80405 577.65314 154.28842Q577.21564 154.75717 577.1219 155.61655L580.29376 155.61655L580.29376 155.53842Q580.2469 154.7103 579.84064 154.25717Q579.45 153.80405 578.7625 153.80405Z" fill-rule="nonzero"/><path fill="#9e9e9e" d="M552.71564 177.36655L551.6375 177.36655L551.6375 170.1478L549.45 170.94467L549.45 169.9603L552.5594 168.78842L552.71564 168.78842L552.71564 177.36655ZM557.73126 172.56967L558.54376 172.56967Q559.325 172.55405 559.7625 172.16342Q560.2 171.7728 560.2 171.10092Q560.2 169.60092 558.7 169.60092Q557.9969 169.60092 557.575 170.00717Q557.16876 170.41342 557.16876 171.06967L556.075 171.06967Q556.075 170.05405 556.8094 169.38217Q557.5594 168.7103 558.7 168.7103Q559.90314 168.7103 560.59064 169.35092Q561.27814 169.99155 561.27814 171.13217Q561.27814 171.69467 560.91876 172.2103Q560.5594 172.72592 559.9344 172.99155Q560.6375 173.2103 561.0125 173.72592Q561.40314 174.24155 561.40314 174.99155Q561.40314 176.13217 560.65314 176.81967Q559.90314 177.49155 558.7 177.49155Q557.5125 177.49155 556.7469 176.8353Q555.9969 176.17905 555.9969 175.11655L557.09064 175.11655Q557.09064 175.78842 557.52814 176.19467Q557.96564 176.60092 558.71564 176.60092Q559.4969 176.60092 559.90314 176.19467Q560.325 175.7728 560.325 175.00717Q560.325 174.2728 559.8719 173.88217Q559.41876 173.47592 558.54376 173.4603L557.73126 173.4603L557.73126 172.56967ZM563.29376 176.80405Q563.29376 176.5228 563.45 176.3353Q563.6219 176.1478 563.95 176.1478Q564.29376 176.1478 564.46564 176.3353Q564.6375 176.5228 564.6375 176.80405Q564.6375 177.06967 564.46564 177.25717Q564.29376 177.42905 563.95 177.42905Q563.6219 177.42905 563.45 177.25717Q563.29376 177.06967 563.29376 176.80405ZM570.41876 168.8353L570.41876 169.74155L570.21564 169.74155Q568.95 169.7728 568.2 170.50717Q567.45 171.22592 567.325 172.53842Q568.0125 171.7728 569.16876 171.7728Q570.27814 171.7728 570.95 172.55405Q571.6219 173.3353 571.6219 174.5853Q571.6219 175.8978 570.90314 176.69467Q570.1844 177.49155 568.96564 177.49155Q567.7469 177.49155 566.98126 176.55405Q566.23126 175.60092 566.23126 174.11655L566.23126 173.7103Q566.23126 171.35092 567.23126 170.10092Q568.23126 168.85092 570.21564 168.8353L570.41876 168.8353ZM568.9969 172.67905Q568.4344 172.67905 567.96564 173.00717Q567.4969 173.3353 567.3094 173.85092L567.3094 174.24155Q567.3094 175.30405 567.77814 175.94467Q568.2625 176.5853 568.96564 176.5853Q569.7 176.5853 570.1219 176.05405Q570.54376 175.50717 570.54376 174.63217Q570.54376 173.75717 570.1219 173.22592Q569.7 172.67905 568.9969 172.67905ZM573.0594 170.47592Q573.0594 169.7103 573.54376 169.2103Q574.04376 168.7103 574.8094 168.7103Q575.59064 168.7103 576.075 169.2103Q576.5594 169.7103 576.5594 170.50717L576.5594 170.92905Q576.5594 171.69467 576.0594 172.19467Q575.575 172.67905 574.825 172.67905Q574.0594 172.67905 573.5594 172.19467Q573.0594 171.69467 573.0594 170.88217L573.0594 170.47592ZM573.8719 170.92905Q573.8719 171.38217 574.1219 171.67905Q574.3875 171.97592 574.825 171.97592Q575.2469 171.97592 575.4969 171.69467Q575.7469 171.3978 575.7469 170.8978L575.7469 170.47592Q575.7469 170.0228 575.4969 169.72592Q575.2469 169.41342 574.8094 169.41342Q574.3719 169.41342 574.1219 169.72592Q573.8719 170.0228 573.8719 170.49155L573.8719 170.92905ZM577.21564 175.2728Q577.21564 174.50717 577.7 174.0228Q578.2 173.5228 578.96564 173.5228Q579.73126 173.5228 580.21564 174.0228Q580.71564 174.50717 580.71564 175.31967L580.71564 175.72592Q580.71564 176.49155 580.23126 176.99155Q579.7469 177.49155 578.98126 177.49155Q578.21564 177.49155 577.71564 177.00717Q577.21564 176.50717 577.21564 175.69467L577.21564 175.2728ZM578.02814 175.72592Q578.02814 176.19467 578.27814 176.49155Q578.54376 176.78842 578.98126 176.78842Q579.40314 176.78842 579.65314 176.50717Q579.90314 176.2103 579.90314 175.7103L579.90314 175.2728Q579.90314 174.80405 579.6375 174.5228Q579.3875 174.22592 578.96564 174.22592Q578.54376 174.22592 578.27814 174.5228Q578.02814 174.80405 578.02814 175.30405L578.02814 175.72592ZM575.075 176.72592L574.45 176.3353L578.6219 169.66342L579.23126 170.05405L575.075 176.72592Z" fill-rule="nonzero"/><path stroke="#757575" stroke-width="1.0" stroke-linecap="butt" d="M581.45 163.86655L454.76666 163.86655L435.60355 163.86655" fill-rule="nonzero"/><path fill="#9e9e9e" d="M437.60355 163.86655C437.60355 162.76198 436.7081 161.86655 435.60355 161.86655C434.49896 161.86655 433.60355 162.76198 433.60355 163.86655C433.60355 164.97112 434.49896 165.86655 435.60355 165.86655C436.7081 165.86655 437.60355 164.97112 437.60355 163.86655" fill-rule="nonzero"/><path fill="#1a1a1a" d="M550.04376 287.4837L552.2625 283.20245L553.54376 283.20245L550.60626 288.5462L550.60626 291.7337L549.48126 291.7337L549.48126 288.5462L546.54376 283.20245L547.825 283.20245L550.04376 287.4837ZM556.90314 291.8587Q555.60626 291.8587 554.79376 291.01495Q553.9969 290.15558 553.9969 288.7337L553.9969 288.5462Q553.9969 287.59308 554.35626 286.8587Q554.71564 286.1087 555.35626 285.70245Q556.0125 285.28058 556.7625 285.28058Q557.9969 285.28058 558.6844 286.09308Q559.3719 286.90558 559.3719 288.4212L559.3719 288.87433L555.075 288.87433Q555.10626 289.81183 555.6219 290.38995Q556.15314 290.96808 556.96564 290.96808Q557.52814 290.96808 557.91876 290.7337Q558.325 290.49933 558.6375 290.1087L559.29376 290.62433Q558.4969 291.8587 556.90314 291.8587ZM556.7625 286.1712Q556.10626 286.1712 555.65314 286.65558Q555.21564 287.12433 555.1219 287.9837L558.29376 287.9837L558.29376 287.90558Q558.2469 287.07745 557.84064 286.62433Q557.45 286.1712 556.7625 286.1712ZM561.45 291.7337L560.3719 291.7337L560.3719 282.7337L561.45 282.7337L561.45 291.7337ZM564.45 291.7337L563.3719 291.7337L563.3719 282.7337L564.45 282.7337L564.45 291.7337ZM565.98126 288.49933Q565.98126 287.57745 566.34064 286.82745Q566.71564 286.07745 567.3719 285.68683Q568.02814 285.28058 568.85626 285.28058Q570.15314 285.28058 570.95 286.1712Q571.7625 287.06183 571.7625 288.56183L571.7625 288.63995Q571.7625 289.56183 571.40314 290.2962Q571.04376 291.03058 570.3875 291.45245Q569.73126 291.8587 568.8719 291.8587Q567.59064 291.8587 566.77814 290.96808Q565.98126 290.06183 565.98126 288.57745L565.98126 288.49933ZM567.075 288.63995Q567.075 289.68683 567.5594 290.32745Q568.0594 290.96808 568.8719 290.96808Q569.7 290.96808 570.1844 290.32745Q570.66876 289.6712 570.66876 288.49933Q570.66876 287.46808 570.16876 286.82745Q569.6844 286.1712 568.85626 286.1712Q568.0594 286.1712 567.5594 286.81183Q567.075 287.43683 567.075 288.63995ZM578.8875 290.2337L580.10626 285.38995L581.1844 285.38995L579.34064 291.7337L578.46564 291.7337L576.91876 286.9212L575.41876 291.7337L574.54376 291.7337L572.7 285.38995L573.77814 285.38995L575.02814 290.13995L576.5125 285.38995L577.3719 285.38995L578.8875 290.2337Z" fill-rule="nonzero"/><path fill="#9e9e9e" d="M552.71564 309.7337L551.6375 309.7337L551.6375 302.51495L549.45 303.31183L549.45 302.32745L552.5594 301.15558L552.71564 301.15558L552.71564 309.7337ZM561.34064 303.4212Q561.34064 304.06183 560.9969 304.56183Q560.65314 305.06183 560.09064 305.34308Q560.7469 305.62433 561.1375 306.18683Q561.52814 306.7337 561.52814 307.43683Q561.52814 308.53058 560.77814 309.20245Q560.04376 309.8587 558.825 309.8587Q557.59064 309.8587 556.84064 309.20245Q556.10626 308.53058 556.10626 307.43683Q556.10626 306.7337 556.48126 306.18683Q556.85626 305.62433 557.52814 305.34308Q556.96564 305.06183 556.6375 304.56183Q556.3094 304.06183 556.3094 303.4212Q556.3094 302.34308 556.9969 301.71808Q557.6844 301.07745 558.825 301.07745Q559.95 301.07745 560.6375 301.71808Q561.34064 302.34308 561.34064 303.4212ZM560.45 307.40558Q560.45 306.68683 559.9969 306.24933Q559.54376 305.7962 558.8094 305.7962Q558.075 305.7962 557.6219 306.24933Q557.1844 306.68683 557.1844 307.4212Q557.1844 308.13995 557.6219 308.56183Q558.0594 308.96808 558.825 308.96808Q559.575 308.96808 560.0125 308.5462Q560.45 308.12433 560.45 307.40558ZM558.825 301.96808Q558.1844 301.96808 557.77814 302.37433Q557.3875 302.76495 557.3875 303.45245Q557.3875 304.09308 557.77814 304.49933Q558.16876 304.90558 558.8094 304.90558Q559.46564 304.90558 559.85626 304.49933Q560.2469 304.09308 560.2469 303.45245Q560.2469 302.7962 559.84064 302.38995Q559.4344 301.96808 558.825 301.96808ZM563.29376 309.1712Q563.29376 308.88995 563.45 308.70245Q563.6219 308.51495 563.95 308.51495Q564.29376 308.51495 564.46564 308.70245Q564.6375 308.88995 564.6375 309.1712Q564.6375 309.43683 564.46564 309.62433Q564.29376 309.7962 563.95 309.7962Q563.6219 309.7962 563.45 309.62433Q563.29376 309.43683 563.29376 309.1712ZM571.7469 309.7337L566.15314 309.7337L566.15314 308.95245L569.10626 305.6712Q569.7625 304.9212 570.0125 304.46808Q570.2625 303.99933 570.2625 303.49933Q570.2625 302.82745 569.85626 302.40558Q569.46564 301.96808 568.77814 301.96808Q567.98126 301.96808 567.52814 302.43683Q567.075 302.88995 567.075 303.71808L565.9969 303.71808Q565.9969 302.53058 566.7469 301.81183Q567.5125 301.07745 568.77814 301.07745Q569.98126 301.07745 570.66876 301.70245Q571.35626 302.32745 571.35626 303.37433Q571.35626 304.62433 569.7469 306.37433L567.46564 308.84308L571.7469 308.84308L571.7469 309.7337ZM573.0594 302.84308Q573.0594 302.07745 573.54376 301.57745Q574.04376 301.07745 574.8094 301.07745Q575.59064 301.07745 576.075 301.57745Q576.5594 302.07745 576.5594 302.87433L576.5594 303.2962Q576.5594 304.06183 576.0594 304.56183Q575.575 305.0462 574.825 305.0462Q574.0594 305.0462 573.5594 304.56183Q573.0594 304.06183 573.0594 303.24933L573.0594 302.84308ZM573.8719 303.2962Q573.8719 303.74933 574.1219 304.0462Q574.3875 304.34308 574.825 304.34308Q575.2469 304.34308 575.4969 304.06183Q575.7469 303.76495 575.7469 303.26495L575.7469 302.84308Q575.7469 302.38995 575.4969 302.09308Q575.2469 301.78058 574.8094 301.78058Q574.3719 301.78058 574.1219 302.09308Q573.8719 302.38995 573.8719 302.8587L573.8719 303.2962ZM577.21564 307.63995Q577.21564 306.87433 577.7 306.38995Q578.2 305.88995 578.96564 305.88995Q579.73126 305.88995 580.21564 306.38995Q580.71564 306.87433 580.71564 307.68683L580.71564 308.09308Q580.71564 308.8587 580.23126 309.3587Q579.7469 309.8587 578.98126 309.8587Q578.21564 309.8587 577.71564 309.37433Q577.21564 308.87433 577.21564 308.06183L577.21564 307.63995ZM578.02814 308.09308Q578.02814 308.56183 578.27814 308.8587Q578.54376 309.15558 578.98126 309.15558Q579.40314 309.15558 579.65314 308.87433Q579.90314 308.57745 579.90314 308.07745L579.90314 307.63995Q579.90314 307.1712 579.6375 306.88995Q579.3875 306.59308 578.96564 306.59308Q578.54376 306.59308 578.27814 306.88995Q578.02814 307.1712 578.02814 307.6712L578.02814 308.09308ZM575.075 309.09308L574.45 308.70245L578.6219 302.03058L579.23126 302.4212L575.075 309.09308Z" fill-rule="nonzero"/><path stroke="#757575" stroke-width="1.0" stroke-linecap="butt" d="M581.45 296.2337L454.76666 296.2337L406.80884 296.2337" fill-rule="nonzero"/><path fill="#9e9e9e" d="M408.80884 296.2337C408.80884 295.12915 407.9134 294.2337 406.80884 294.2337C405.70425 294.2337 404.80884 295.12915 404.80884 296.2337C404.80884 297.3383 405.70425 298.2337 406.80884 298.2337C407.9134 298.2337 408.80884 297.3383 408.80884 296.2337" fill-rule="nonzero"/><path fill="#757575" d="M28.378124 31.7375L22.753124 31.7375L22.753124 37.55L19.815624 37.55L19.815624 23.33125L29.08125 23.33125L29.08125 25.70625L22.753124 25.70625L22.753124 29.378124L28.378124 29.378124L28.378124 31.7375ZM36.565624 29.628124Q36.003124 29.55 35.55 29.55Q33.95625 29.55 33.45625 30.628124L33.45625 37.55L30.628124 37.55L30.628124 26.9875L33.3 26.9875L33.378124 28.2375Q34.221874 26.784374 35.7375 26.784374Q36.20625 26.784374 36.6125 26.909374L36.565624 29.628124ZM42.503124 37.753124Q40.175 37.753124 38.70625 36.33125Q37.253124 34.89375 37.253124 32.51875L37.253124 32.253124Q37.253124 30.659374 37.8625 29.409374Q38.4875 28.14375 39.6125 27.471874Q40.7375 26.784374 42.190624 26.784374Q44.346874 26.784374 45.596874 28.159374Q46.846874 29.51875 46.846874 32.034374L46.846874 33.190624L40.1125 33.190624Q40.253124 34.221874 40.940624 34.846874Q41.628124 35.471874 42.690624 35.471874Q44.315624 35.471874 45.2375 34.284374L46.6125 35.846874Q45.9875 36.7375 44.89375 37.253124Q43.815624 37.753124 42.503124 37.753124ZM42.175 29.065624Q41.33125 29.065624 40.8 29.64375Q40.284374 30.20625 40.14375 31.253124L44.065624 31.253124L44.065624 31.034374Q44.05 30.096874 43.565624 29.58125Q43.08125 29.065624 42.175 29.065624ZM51.2375 26.9875L51.315624 28.20625Q52.45625 26.784374 54.3625 26.784374Q56.034374 26.784374 56.846874 27.76875Q57.675 28.753124 57.690624 30.721874L57.690624 37.55L54.878124 37.55L54.878124 30.784374Q54.878124 29.89375 54.4875 29.4875Q54.096874 29.08125 53.190624 29.08125Q51.9875 29.08125 51.39375 30.096874L51.39375 37.55L48.58125 37.55L48.58125 26.9875L51.2375 26.9875ZM64.03438 35.471874Q64.81563 35.471874 65.3 35.05Q65.78438 34.6125 65.8 33.89375L68.45625 33.89375Q68.44063 34.971874 67.8625 35.8625Q67.28438 36.753124 66.28438 37.253124Q65.28438 37.753124 64.08125 37.753124Q61.815624 37.753124 60.503124 36.315624Q59.190624 34.8625 59.190624 32.33125L59.190624 32.14375Q59.190624 29.690624 60.4875 28.2375Q61.8 26.784374 64.06563 26.784374Q66.03438 26.784374 67.2375 27.925Q68.44063 29.05 68.45625 30.925L65.8 30.925Q65.78438 30.096874 65.3 29.58125Q64.81563 29.065624 64.00313 29.065624Q63.01875 29.065624 62.51875 29.784374Q62.01875 30.503124 62.01875 32.1125L62.01875 32.409374Q62.01875 34.05 62.51875 34.76875Q63.01875 35.471874 64.03438 35.471874ZM72.39375 28.128124Q73.51875 26.784374 75.20625 26.784374Q78.64375 26.784374 78.69063 30.784374L78.69063 37.55L75.87813 37.55L75.87813 30.8625Q75.87813 29.95625 75.4875 29.51875Q75.09688 29.08125 74.19063 29.08125Q72.94063 29.08125 72.39375 30.034374L72.39375 37.55L69.56563 37.55L69.56563 22.55L72.39375 22.55L72.39375 28.128124Z" fill-rule="nonzero"/></svg>